<svg width="19" height="18" viewBox="0 0 19 18" fill="none" xmlns="http://www.w3.org/2000/svg">
<g clip-path="url(#clip0_4_18599)">
<path d="M9.49573 18C14.4663 18 18.4957 13.9706 18.4957 9C18.4957 4.02944 14.4663 0 9.49573 0C4.52517 0 0.495728 4.02944 0.495728 9C0.495728 13.9706 4.52517 18 9.49573 18Z" fill="white"/>
<path d="M11.8958 2.25C9.49578 2.25 7.54578 4.22775 7.54578 6.627V11.373C7.54578 13.773 9.49578 15.75 11.8958 15.75C14.2958 15.75 16.2458 13.7723 16.2458 11.373V6.627C16.2458 4.227 14.2958 2.25 11.8958 2.25Z" fill="#B94A5B"/>
<g style="mix-blend-mode:multiply" opacity="0.3">
<path d="M16.2458 11.373V6.627C16.2458 4.227 14.2958 2.25 11.8958 2.25V15.75C14.2958 15.75 16.2458 13.7723 16.2458 11.373Z" fill="#3C8F7C"/>
</g>
<path d="M11.8957 3.04128C9.93293 3.04128 8.33618 4.66428 8.33618 6.62703V11.373C8.33618 13.3358 9.93293 14.9588 11.8957 14.9588C12.7349 14.9588 13.4962 14.6288 14.1059 14.1413L14.6647 6.23178L15.2369 5.44053C14.7457 4.06203 13.4407 3.04053 11.8957 3.04053V3.04128Z" fill="#E6F2FF"/>
<path d="M14.664 6.23178L15.2363 5.44053C14.745 4.06203 13.44 3.04053 11.895 3.04053V14.958C12.7343 14.958 13.4955 14.628 14.1053 14.1405L14.664 6.23178Z" fill="#CCE6FF"/>
<path d="M15.4545 11.3731V8.63931C15.4548 8.61643 15.4505 8.59371 15.4417 8.57256L14.6707 6.62931C14.6624 6.60692 14.6496 6.58642 14.6332 6.56902C14.6168 6.55161 14.5971 6.53765 14.5752 6.52794C14.5534 6.51824 14.5298 6.51298 14.5059 6.51249C14.482 6.51199 14.4582 6.51627 14.436 6.52506C14.34 6.56631 14.2448 6.61056 14.1525 6.66156C13.6011 6.96074 13.1385 7.40038 12.8118 7.93592C12.485 8.47145 12.3056 9.08385 12.2918 9.71106C12.2908 9.73788 12.2842 9.76419 12.2723 9.78824C12.2604 9.8123 12.2435 9.83354 12.2228 9.85056C11.9977 10.0349 11.8162 10.2667 11.6912 10.5294C11.5662 10.7921 11.5009 11.0792 11.4998 11.3701V11.5846C11.4998 11.6325 11.5188 11.6785 11.5527 11.7124C11.5866 11.7463 11.6326 11.7653 11.6805 11.7653H12.2708C12.2997 11.7655 12.3282 11.7725 12.354 11.7856L12.8108 12.0211C12.8386 12.0355 12.8623 12.0569 12.8794 12.0832C12.8965 12.1095 12.9064 12.1399 12.9082 12.1712C12.91 12.2025 12.9037 12.2338 12.8897 12.2619C12.8758 12.29 12.8548 12.314 12.8288 12.3316L12.6038 12.4816C12.5705 12.5039 12.5455 12.5366 12.5328 12.5746C12.52 12.6125 12.5202 12.6537 12.5333 12.6916C12.699 13.1757 12.9283 13.6357 13.215 14.0596C13.2315 14.0842 13.2538 14.1043 13.28 14.1182C13.3062 14.1321 13.3354 14.1392 13.365 14.1391H14.04C14.0821 14.1393 14.123 14.1247 14.1555 14.0978C14.56 13.7675 14.8863 13.3516 15.111 12.8801C15.3356 12.4085 15.4529 11.8931 15.4545 11.3708V11.3731Z" fill="#FFB9B9"/>
<g style="mix-blend-mode:multiply" opacity="0.5">
<path d="M15.4545 11.3731V8.63931C15.4548 8.61643 15.4505 8.59371 15.4417 8.57256L14.6707 6.62931C14.6624 6.60692 14.6496 6.58642 14.6332 6.56902C14.6168 6.55161 14.5971 6.53765 14.5752 6.52794C14.5534 6.51824 14.5298 6.51298 14.5059 6.51249C14.482 6.51199 14.4582 6.51627 14.436 6.52506C14.34 6.56631 14.2448 6.61056 14.1525 6.66156C13.6011 6.96074 13.1385 7.40038 12.8118 7.93592C12.485 8.47145 12.3056 9.08385 12.2918 9.71106C12.2908 9.73788 12.2842 9.76419 12.2723 9.78824C12.2604 9.8123 12.2435 9.83354 12.2228 9.85056C11.9977 10.0349 11.8162 10.2667 11.6912 10.5294C11.5662 10.7921 11.5009 11.0792 11.4998 11.3701V11.5846C11.4998 11.6325 11.5188 11.6785 11.5527 11.7124C11.5866 11.7463 11.6326 11.7653 11.6805 11.7653H12.2708C12.2997 11.7655 12.3282 11.7725 12.354 11.7856L12.8108 12.0211C12.8386 12.0355 12.8623 12.0569 12.8794 12.0832C12.8965 12.1095 12.9064 12.1399 12.9082 12.1712C12.91 12.2025 12.9037 12.2338 12.8897 12.2619C12.8758 12.29 12.8548 12.314 12.8288 12.3316L12.6038 12.4816C12.5705 12.5039 12.5455 12.5366 12.5328 12.5746C12.52 12.6125 12.5202 12.6537 12.5333 12.6916C12.699 13.1757 12.9283 13.6357 13.215 14.0596C13.2315 14.0842 13.2538 14.1043 13.28 14.1182C13.3062 14.1321 13.3354 14.1392 13.365 14.1391H14.04C14.0821 14.1393 14.123 14.1247 14.1555 14.0978C14.56 13.7675 14.8863 13.3516 15.111 12.8801C15.3356 12.4085 15.4529 11.8931 15.4545 11.3708V11.3731Z" fill="#CAB9B9"/>
</g>
<path d="M14.7855 11.3933H14.0745C14.0445 11.3934 14.0154 11.4035 13.9918 11.4219C13.9682 11.4404 13.9514 11.4662 13.944 11.4953C13.9211 11.5846 13.8692 11.6637 13.7964 11.7203C13.7237 11.7769 13.6342 11.8078 13.542 11.8081H12.4785C12.4589 11.808 12.4394 11.8122 12.4216 11.8205C12.4037 11.8287 12.3879 11.8408 12.3752 11.8558C12.3624 11.8708 12.3532 11.8884 12.348 11.9073C12.3427 11.9263 12.3418 11.9462 12.345 11.9656C12.3783 12.1596 12.4233 12.3515 12.48 12.5401C12.4885 12.568 12.5058 12.5925 12.5293 12.61C12.5528 12.6274 12.5813 12.6368 12.6105 12.6368H13.5458C13.8755 12.6364 14.1915 12.5053 14.4246 12.2722C14.6577 12.039 14.7889 11.723 14.7893 11.3933H14.7855Z" fill="#D88D7D"/>
<path d="M12.2909 6.62693C12.2913 7.15121 12.4997 7.65391 12.8703 8.02471C13.241 8.3955 13.7436 8.60408 14.2679 8.60468H15.4544V6.62693C15.4504 6.22183 15.3765 5.82045 15.2361 5.44043H12.2909V6.62693Z" fill="#2D6187"/>
<path d="M12.2909 6.62693C12.2913 7.15121 12.4997 7.65391 12.8703 8.02471C13.241 8.3955 13.7436 8.60408 14.2679 8.60468H15.4544V6.62693C15.4504 6.22183 15.3765 5.82045 15.2361 5.44043H12.2909V6.62693Z" fill="#2D556F"/>
<path d="M9.91721 9.80012C9.91791 9.61461 9.90437 9.42931 9.87671 9.24587C9.80729 8.81284 9.65446 8.39741 9.42671 8.02262C9.40273 7.98235 9.36443 7.95262 9.31946 7.93937L7.62671 7.44212C7.6015 7.43504 7.57506 7.43345 7.54919 7.43746C7.52331 7.44147 7.4986 7.45099 7.47671 7.46537L5.22821 8.94512C5.20283 8.96212 5.18203 8.98511 5.16764 9.01205C5.15325 9.039 5.14572 9.06908 5.14571 9.09962V12.0494C5.14593 12.0897 5.13274 12.1291 5.10821 12.1611L4.38671 13.1136C4.37157 13.133 4.36039 13.1551 4.35383 13.1788C4.34727 13.2025 4.34544 13.2272 4.34846 13.2516C4.35264 13.2764 4.3549 13.3015 4.35521 13.3266V15.5661C4.3556 15.6147 4.37509 15.6612 4.40946 15.6956C4.44384 15.73 4.49035 15.7495 4.53896 15.7499H7.35971C7.3841 15.75 7.40827 15.7452 7.43083 15.736C7.4534 15.7267 7.47391 15.7131 7.49119 15.6959C7.50847 15.6787 7.52218 15.6582 7.53154 15.6357C7.5409 15.6132 7.54571 15.589 7.54571 15.5646V14.3249C7.54591 14.2758 7.56549 14.2288 7.60019 14.1941C7.63489 14.1594 7.68189 14.1398 7.73096 14.1396H8.84246C8.87193 14.1394 8.90091 14.1321 8.92699 14.1184C8.95308 14.1047 8.97553 14.085 8.99246 14.0609L9.05471 13.9701C9.08546 13.9266 9.70196 13.0289 9.87296 11.9226C9.87976 11.8792 9.90186 11.8396 9.93527 11.811C9.96869 11.7824 10.0112 11.7666 10.0552 11.7666H10.5225C10.5468 11.7667 10.5708 11.762 10.5933 11.7528C10.6158 11.7436 10.6362 11.73 10.6534 11.7128C10.6706 11.6957 10.6843 11.6753 10.6936 11.6529C10.7029 11.6305 10.7077 11.6064 10.7077 11.5821V11.3714C10.7069 11.0655 10.635 10.764 10.4976 10.4907C10.3603 10.2173 10.1614 9.97965 9.91646 9.79637L9.91721 9.80012Z" fill="#FFB9B9"/>
<path d="M5.54098 5.44043C4.80043 5.44261 4.09082 5.7377 3.5671 6.26128C3.04339 6.78486 2.7481 7.49438 2.74573 8.23493V9.61643C2.74573 10.7069 3.15298 11.6984 3.91273 12.4019C4.13997 12.6035 4.28982 12.878 4.33648 13.1782L5.93623 12.1117V10.5817C5.73702 10.5752 5.5476 10.4938 5.40589 10.3536C5.26419 10.2135 5.18066 10.0249 5.17203 9.82582C5.1634 9.6267 5.23031 9.43166 5.35936 9.27977C5.48841 9.12787 5.67007 9.03034 5.86797 9.00668C5.9786 8.99692 6.09004 9.00989 6.19547 9.04478C6.30089 9.07967 6.39807 9.13575 6.48103 9.20958C6.56399 9.2834 6.63097 9.37341 6.67786 9.47408C6.72476 9.57474 6.75058 9.68393 6.75372 9.79493H7.54572V8.99993C7.54563 8.94806 7.55576 8.89668 7.57554 8.84873C7.59532 8.80078 7.62436 8.75721 7.661 8.72049C7.69765 8.68378 7.74117 8.65466 7.78908 8.63478C7.83699 8.61491 7.88835 8.60468 7.94022 8.60468C8.46373 8.60115 8.96481 8.39167 9.33506 8.02155C9.70532 7.65143 9.91499 7.15044 9.91872 6.62693V5.44043H5.54098Z" fill="#2D6187"/>
</g>
<defs>
<clipPath id="clip0_4_18599">
<rect width="18" height="18" fill="white" transform="translate(0.495728)"/>
</clipPath>
</defs>
</svg>
