<svg width="25" height="24" viewBox="0 0 25 24" fill="none" xmlns="http://www.w3.org/2000/svg">
<g clip-path="url(#clip0_4_18527)">
<path d="M12.4957 24C19.1231 24 24.4957 18.6274 24.4957 12C24.4957 5.37258 19.1231 0 12.4957 0C5.86831 0 0.495728 5.37258 0.495728 12C0.495728 18.6274 5.86831 24 12.4957 24Z" fill="white"/>
<path d="M15.6958 3C12.4958 3 9.89575 5.637 9.89575 8.836V15.164C9.89575 18.364 12.4958 21 15.6958 21C18.8958 21 21.4958 18.363 21.4958 15.164V8.836C21.4958 5.636 18.8958 3 15.6958 3Z" fill="#B94A5B"/>
<g style="mix-blend-mode:multiply" opacity="0.3">
<path d="M21.4957 15.164V8.836C21.4957 5.636 18.8957 3 15.6957 3V21C18.8957 21 21.4957 18.363 21.4957 15.164Z" fill="#3C8F7C"/>
</g>
<path d="M15.6957 4.05495C13.0787 4.05495 10.9497 6.21896 10.9497 8.83596V15.164C10.9497 17.781 13.0787 19.945 15.6957 19.945C16.8147 19.945 17.8297 19.505 18.6427 18.855L19.3877 8.30895L20.1507 7.25396C19.4957 5.41596 17.7557 4.05396 15.6957 4.05396V4.05495Z" fill="#E6F2FF"/>
<path d="M19.3867 8.30895L20.1497 7.25396C19.4947 5.41596 17.7547 4.05396 15.6947 4.05396V19.944C16.8137 19.944 17.8287 19.504 18.6417 18.854L19.3867 8.30895Z" fill="#CCE6FF"/>
<path d="M20.4407 15.164V11.519C20.4412 11.4885 20.4354 11.4582 20.4237 11.43L19.3957 8.83904C19.3845 8.80918 19.3675 8.78185 19.3456 8.75865C19.3238 8.73544 19.2975 8.71682 19.2684 8.70388C19.2392 8.69094 19.2078 8.68394 19.1759 8.68328C19.1441 8.68262 19.1124 8.68832 19.0827 8.70004C18.9547 8.75504 18.8277 8.81404 18.7047 8.88204C17.9695 9.28095 17.3528 9.86713 16.9171 10.5812C16.4814 11.2952 16.2422 12.1118 16.2237 12.948C16.2225 12.9838 16.2136 13.0189 16.1978 13.051C16.1819 13.083 16.1594 13.1113 16.1317 13.134C15.8317 13.3798 15.5897 13.6889 15.423 14.0392C15.2564 14.3894 15.1692 14.7722 15.1677 15.16V15.446C15.1677 15.51 15.1931 15.5713 15.2383 15.6165C15.2835 15.6616 15.3448 15.687 15.4087 15.687H16.1957C16.2343 15.6873 16.2723 15.6966 16.3067 15.714L16.9157 16.028C16.9529 16.0472 16.9844 16.0758 17.0072 16.1109C17.03 16.146 17.0433 16.1864 17.0457 16.2282C17.0481 16.27 17.0396 16.3117 17.021 16.3492C17.0025 16.3867 16.9744 16.4187 16.9397 16.442L16.6397 16.642C16.5953 16.6718 16.5621 16.7154 16.5451 16.766C16.528 16.8167 16.5283 16.8715 16.5457 16.922C16.7668 17.5676 17.0724 18.1809 17.4547 18.746C17.4767 18.7789 17.5065 18.8057 17.5414 18.8242C17.5763 18.8427 17.6152 18.8523 17.6547 18.852H18.5547C18.6109 18.8523 18.6654 18.8328 18.7087 18.797C19.2481 18.3566 19.6832 17.8021 19.9827 17.1734C20.2821 16.5447 20.4386 15.8574 20.4407 15.161V15.164Z" fill="#FFB9B9"/>
<g style="mix-blend-mode:multiply" opacity="0.5">
<path d="M20.4407 15.164V11.519C20.4412 11.4885 20.4354 11.4582 20.4237 11.43L19.3957 8.83904C19.3845 8.80918 19.3675 8.78185 19.3456 8.75865C19.3238 8.73544 19.2975 8.71682 19.2684 8.70388C19.2392 8.69094 19.2078 8.68394 19.1759 8.68328C19.1441 8.68262 19.1124 8.68832 19.0827 8.70004C18.9547 8.75504 18.8277 8.81404 18.7047 8.88204C17.9695 9.28095 17.3528 9.86713 16.9171 10.5812C16.4814 11.2952 16.2422 12.1118 16.2237 12.948C16.2225 12.9838 16.2136 13.0189 16.1978 13.051C16.1819 13.083 16.1594 13.1113 16.1317 13.134C15.8317 13.3798 15.5897 13.6889 15.423 14.0392C15.2564 14.3894 15.1692 14.7722 15.1677 15.16V15.446C15.1677 15.51 15.1931 15.5713 15.2383 15.6165C15.2835 15.6616 15.3448 15.687 15.4087 15.687H16.1957C16.2343 15.6873 16.2723 15.6966 16.3067 15.714L16.9157 16.028C16.9529 16.0472 16.9844 16.0758 17.0072 16.1109C17.03 16.146 17.0433 16.1864 17.0457 16.2282C17.0481 16.27 17.0396 16.3117 17.021 16.3492C17.0025 16.3867 16.9744 16.4187 16.9397 16.442L16.6397 16.642C16.5953 16.6718 16.5621 16.7154 16.5451 16.766C16.528 16.8167 16.5283 16.8715 16.5457 16.922C16.7668 17.5676 17.0724 18.1809 17.4547 18.746C17.4767 18.7789 17.5065 18.8057 17.5414 18.8242C17.5763 18.8427 17.6152 18.8523 17.6547 18.852H18.5547C18.6109 18.8523 18.6654 18.8328 18.7087 18.797C19.2481 18.3566 19.6832 17.8021 19.9827 17.1734C20.2821 16.5447 20.4386 15.8574 20.4407 15.161V15.164Z" fill="#CAB9B9"/>
</g>
<path d="M19.5488 15.191H18.6008C18.5608 15.1912 18.522 15.2046 18.4904 15.2292C18.4589 15.2538 18.4365 15.2883 18.4268 15.327C18.3962 15.4461 18.327 15.5516 18.23 15.6271C18.133 15.7026 18.0137 15.7437 17.8908 15.744H16.4728C16.4465 15.744 16.4206 15.7496 16.3968 15.7606C16.373 15.7716 16.3519 15.7876 16.3349 15.8077C16.318 15.8277 16.3056 15.8511 16.2987 15.8764C16.2917 15.9017 16.2904 15.9282 16.2948 15.954C16.3391 16.2128 16.3992 16.4686 16.4748 16.72C16.4861 16.7573 16.5091 16.79 16.5405 16.8132C16.5718 16.8365 16.6098 16.849 16.6488 16.849H17.8958C18.3353 16.8485 18.7567 16.6737 19.0676 16.3628C19.3784 16.052 19.5532 15.6306 19.5538 15.191H19.5488Z" fill="#D88D7D"/>
<path d="M16.2227 8.83591C16.2232 9.53495 16.501 10.2052 16.9952 10.6996C17.4894 11.194 18.1596 11.4721 18.8587 11.4729H20.4407V8.83591C20.4353 8.29577 20.3368 7.7606 20.1497 7.25391H16.2227V8.83591Z" fill="#2D6187"/>
<path d="M16.2227 8.83591C16.2232 9.53495 16.501 10.2052 16.9952 10.6996C17.4894 11.194 18.1596 11.4721 18.8587 11.4729H20.4407V8.83591C20.4353 8.29577 20.3368 7.7606 20.1497 7.25391H16.2227V8.83591Z" fill="#2D556F"/>
<path d="M13.0578 13.0669C13.0587 12.8196 13.0406 12.5725 13.0038 12.3279C12.9112 11.7505 12.7074 11.1966 12.4037 10.6969C12.3718 10.6432 12.3207 10.6036 12.2607 10.5859L10.0037 9.92291C9.97013 9.91347 9.93488 9.91135 9.90038 9.9167C9.86588 9.92205 9.83293 9.93474 9.80375 9.95391L6.80574 11.9269C6.7719 11.9496 6.74417 11.9802 6.72498 12.0162C6.7058 12.0521 6.69575 12.0922 6.69574 12.1329V16.0659C6.69604 16.1197 6.67846 16.1722 6.64574 16.2149L5.68374 17.4849C5.66356 17.5107 5.64866 17.5403 5.63991 17.5718C5.63115 17.6034 5.62872 17.6364 5.63274 17.6689C5.63832 17.702 5.64133 17.7354 5.64174 17.7689V20.7549C5.64227 20.8197 5.66825 20.8817 5.71408 20.9276C5.75991 20.9734 5.82193 20.9994 5.88674 20.9999H9.64775C9.68027 21 9.71249 20.9937 9.74258 20.9814C9.77266 20.969 9.80001 20.9509 9.82305 20.9279C9.84609 20.905 9.86437 20.8777 9.87685 20.8477C9.88933 20.8176 9.89575 20.7854 9.89575 20.7529V19.0999C9.89601 19.0345 9.92212 18.9718 9.96838 18.9255C10.0146 18.8793 10.0773 18.8532 10.1427 18.8529H11.6247C11.664 18.8526 11.7027 18.8429 11.7375 18.8246C11.7722 18.8063 11.8022 18.7801 11.8247 18.7479L11.9077 18.6269C11.9487 18.5689 12.7708 17.3719 12.9988 15.8969C13.0078 15.839 13.0373 15.7862 13.0818 15.748C13.1264 15.7099 13.1831 15.6889 13.2418 15.6889H13.8648C13.8971 15.689 13.9292 15.6828 13.9592 15.6705C13.9892 15.6582 14.0164 15.6401 14.0393 15.6172C14.0623 15.5944 14.0805 15.5672 14.0929 15.5373C14.1054 15.5074 14.1118 15.4753 14.1118 15.4429V15.1619C14.1106 14.7541 14.0147 14.3521 13.8316 13.9876C13.6486 13.6232 13.3833 13.3063 13.0568 13.0619L13.0578 13.0669Z" fill="#FFB9B9"/>
<path d="M7.22272 7.25391C6.23533 7.25681 5.28919 7.65027 4.5909 8.34837C3.89261 9.04648 3.49889 9.99251 3.49573 10.9799V12.8219C3.49573 14.2759 4.03873 15.5979 5.05173 16.5359C5.35472 16.8047 5.55452 17.1707 5.61673 17.5709L7.74972 16.1489V14.1089C7.48412 14.1003 7.23156 13.9917 7.04262 13.8048C6.85368 13.6179 6.7423 13.3666 6.7308 13.1011C6.71929 12.8356 6.80851 12.5755 6.98057 12.373C7.15264 12.1705 7.39485 12.0404 7.65872 12.0089C7.80622 11.9959 7.95481 12.0132 8.09538 12.0597C8.23595 12.1062 8.36552 12.181 8.47613 12.2794C8.58674 12.3779 8.67605 12.4979 8.73858 12.6321C8.8011 12.7663 8.83553 12.9119 8.83972 13.0599H9.89572V11.9999C9.89559 11.9307 9.9091 11.8622 9.93548 11.7983C9.96185 11.7344 10.0006 11.6763 10.0494 11.6273C10.0983 11.5784 10.1563 11.5395 10.2202 11.513C10.2841 11.4865 10.3526 11.4729 10.4217 11.4729C11.1197 11.4682 11.7878 11.1889 12.2815 10.6954C12.7752 10.2019 13.0547 9.53392 13.0597 8.83591V7.25391H7.22272Z" fill="#2D6187"/>
</g>
<defs>
<clipPath id="clip0_4_18527">
<rect width="24" height="24" fill="white" transform="translate(0.495728)"/>
</clipPath>
</defs>
</svg>
