<svg width="25" height="24" viewBox="0 0 25 24" fill="none" xmlns="http://www.w3.org/2000/svg">
<g clip-path="url(#clip0_4_18570)">
<path d="M12.4957 24C19.1231 24 24.4957 18.6274 24.4957 12C24.4957 5.37258 19.1231 0 12.4957 0C5.86831 0 0.495728 5.37258 0.495728 12C0.495728 18.6274 5.86831 24 12.4957 24Z" fill="white"/>
<path d="M17.7687 11.9999C17.7687 13.0428 17.4594 14.0623 16.88 14.9294C16.3006 15.7966 15.4771 16.4724 14.5135 16.8715C13.55 17.2706 12.4898 17.3751 11.4669 17.1716C10.4441 16.9681 9.50453 16.4659 8.76708 15.7285C8.02964 14.9911 7.52744 14.0515 7.32398 13.0286C7.12052 12.0058 7.22494 10.9456 7.62404 9.98204C8.02314 9.01852 8.699 8.19499 9.56614 7.61559C10.4333 7.03619 11.4528 6.72693 12.4957 6.72693C13.8941 6.72693 15.2353 7.28248 16.2242 8.27135C17.2131 9.26023 17.7687 10.6014 17.7687 11.9999Z" fill="#FFF5F5"/>
<path d="M17.7687 11.9999C17.7687 10.6014 17.2132 9.26024 16.2243 8.27136C15.2354 7.28248 13.8942 6.72693 12.4957 6.72693V17.2729C13.8942 17.2729 15.2354 16.7174 16.2243 15.7285C17.2132 14.7396 17.7687 13.3984 17.7687 11.9999Z" fill="#E1EEF5"/>
<path d="M4.78173 13.906C4.34326 12.1376 4.52631 10.2722 5.30016 8.62276C6.07401 6.97332 7.39158 5.6402 9.03182 4.84704C10.6721 4.05389 12.5352 3.84896 14.3086 4.26664C16.082 4.68432 17.6579 5.69919 18.7717 7.141L17.8897 7.064C17.7534 7.05716 17.6198 7.10335 17.5168 7.1929C17.4138 7.28244 17.3495 7.40838 17.3374 7.5443C17.3252 7.68022 17.3661 7.81558 17.4516 7.92197C17.5371 8.02837 17.6604 8.09755 17.7957 8.115L19.7857 8.289H19.8317C19.9635 8.289 20.0906 8.23961 20.1877 8.15057C20.2849 8.06153 20.3452 7.93931 20.3567 7.808L20.5307 5.818C20.5367 5.68204 20.49 5.54901 20.4003 5.44666C20.3106 5.34431 20.1849 5.28055 20.0493 5.26868C19.9137 5.25681 19.7788 5.29775 19.6727 5.38296C19.5665 5.46817 19.4974 5.59106 19.4797 5.726L19.4317 6.278C18.59 5.25262 17.5313 4.42674 16.3319 3.8599C15.1325 3.29306 13.8223 2.99937 12.4957 3C10.1088 3 7.81959 3.94821 6.13177 5.63604C4.44394 7.32387 3.49573 9.61305 3.49573 12C3.49593 12.7273 3.5839 13.4518 3.75773 14.158C3.78642 14.2721 3.85235 14.3734 3.94508 14.4459C4.03781 14.5183 4.15205 14.5578 4.26973 14.558C4.31257 14.558 4.35524 14.5527 4.39673 14.542C4.53237 14.5084 4.64913 14.4224 4.72133 14.3027C4.79353 14.1831 4.81525 14.0397 4.78173 13.904V13.906Z" fill="#D86480"/>
<path d="M21.2338 9.84207C21.2172 9.77484 21.1876 9.71152 21.1466 9.65573C21.1055 9.59994 21.0539 9.55278 20.9947 9.51694C20.9355 9.48109 20.8697 9.45727 20.8013 9.44683C20.7328 9.43638 20.663 9.43953 20.5958 9.45607C20.5285 9.47262 20.4652 9.50225 20.4094 9.54326C20.3536 9.58428 20.3065 9.63589 20.2706 9.69513C20.2348 9.75437 20.211 9.8201 20.2005 9.88855C20.1901 9.957 20.1932 10.0268 20.2098 10.0941C20.6478 11.8624 20.4645 13.7276 19.6905 15.3767C18.9166 17.0259 17.599 18.3588 15.9589 19.1518C14.3188 19.9447 12.4558 20.1496 10.6826 19.732C8.90932 19.3144 7.33361 18.2997 6.21975 16.8581L7.10175 16.9361C7.23805 16.9429 7.3717 16.8967 7.47468 16.8072C7.57766 16.7176 7.64197 16.5917 7.65413 16.4558C7.66628 16.3199 7.62534 16.1845 7.53988 16.0781C7.45443 15.9717 7.3311 15.9025 7.19575 15.8851L5.20575 15.7111C5.06657 15.6991 4.92833 15.7429 4.82131 15.8326C4.71429 15.9224 4.64721 16.0509 4.63475 16.1901L4.46075 18.1801C4.45471 18.249 4.46231 18.3185 4.48311 18.3845C4.50391 18.4505 4.53751 18.5118 4.58199 18.5648C4.62647 18.6178 4.68096 18.6615 4.74234 18.6935C4.80373 18.7255 4.87081 18.745 4.93975 18.7511H4.98675C5.11849 18.7509 5.24539 18.7014 5.34253 18.6124C5.43967 18.5234 5.50003 18.4013 5.51175 18.2701L5.55975 17.7171C6.40078 18.7436 7.45922 19.5706 8.65869 20.1383C9.85815 20.706 11.1687 21.0004 12.4958 21.0001C14.8827 21.0001 17.1719 20.0519 18.8597 18.364C20.5475 16.6762 21.4958 14.387 21.4958 12.0001C21.4956 11.2728 21.4076 10.5482 21.2338 9.84207Z" fill="#D86480"/>
<path d="M8.27666 11.473H7.24866C7.23166 11.646 7.22266 11.822 7.22266 12C7.22266 12.178 7.23166 12.354 7.24866 12.527H8.27666C8.41643 12.527 8.55047 12.4715 8.6493 12.3727C8.74813 12.2738 8.80366 12.1398 8.80366 12C8.80366 11.8603 8.74813 11.7262 8.6493 11.6274C8.55047 11.5285 8.41643 11.473 8.27666 11.473Z" fill="#9AB0D7"/>
<path d="M8.57877 13.6531L7.68677 14.1671C7.83172 14.4886 8.00897 14.7945 8.21577 15.0801L9.10577 14.5661C9.22684 14.4962 9.31519 14.3811 9.35139 14.2461C9.38758 14.1111 9.36865 13.9672 9.29877 13.8461C9.22888 13.725 9.11377 13.6367 8.97874 13.6005C8.84371 13.5643 8.69984 13.5832 8.57877 13.6531Z" fill="#9AB0D7"/>
<path d="M9.92977 15.3899L9.41577 16.2799C9.7014 16.4867 10.0073 16.664 10.3288 16.8089L10.8428 15.9169C10.9127 15.7959 10.9316 15.652 10.8954 15.517C10.8592 15.3819 10.7708 15.2668 10.6498 15.1969C10.5287 15.1271 10.3848 15.1081 10.2498 15.1443C10.1148 15.1805 9.99966 15.2689 9.92977 15.3899Z" fill="#9AB0D7"/>
<path d="M13.0227 7.78093V6.75293C12.8497 6.73593 12.6738 6.72693 12.4957 6.72693C12.3177 6.72693 12.1418 6.73593 11.9688 6.75293V7.78093C11.9688 7.9207 12.0243 8.05474 12.1231 8.15357C12.2219 8.25241 12.356 8.30793 12.4957 8.30793C12.6355 8.30793 12.7696 8.25241 12.8684 8.15357C12.9672 8.05474 13.0227 7.9207 13.0227 7.78093Z" fill="#9AB0D7"/>
<path d="M11.9688 16.219V17.247C12.1418 17.264 12.3177 17.273 12.4957 17.273C12.6738 17.273 12.8497 17.264 13.0227 17.247V16.219C13.0227 16.0792 12.9672 15.9452 12.8684 15.8464C12.7696 15.7475 12.6355 15.692 12.4957 15.692C12.356 15.692 12.2219 15.7475 12.1231 15.8464C12.0243 15.9452 11.9688 16.0792 11.9688 16.219Z" fill="#9AB0D7"/>
<path d="M10.8428 8.08304L10.3288 7.19104C10.0073 7.336 9.7014 7.51324 9.41577 7.72004L9.92977 8.61004C9.99966 8.73111 10.1148 8.81946 10.2498 8.85566C10.3848 8.89185 10.5287 8.87293 10.6498 8.80304C10.7708 8.73316 10.8592 8.61804 10.8954 8.48301C10.9316 8.34799 10.9127 8.20411 10.8428 8.08304Z" fill="#9AB0D7"/>
<path d="M9.10577 9.43404L8.21577 8.92004C8.00897 9.20568 7.83172 9.51158 7.68677 9.83305L8.57877 10.347C8.69984 10.4169 8.84371 10.4359 8.97874 10.3997C9.11377 10.3635 9.22888 10.2751 9.29877 10.154C9.36865 10.033 9.38758 9.8891 9.35139 9.75407C9.31519 9.61905 9.22684 9.50393 9.10577 9.43404Z" fill="#9AB0D7"/>
<path d="M12.4958 12.5271H10.7378C10.598 12.5271 10.464 12.4716 10.3652 12.3728C10.2663 12.2739 10.2108 12.1399 10.2108 12.0001C10.2108 11.8604 10.2663 11.7263 10.3652 11.6275C10.464 11.5287 10.598 11.4731 10.7378 11.4731H11.9688V9.89114C11.9688 9.75137 12.0243 9.61732 12.1232 9.51849C12.222 9.41966 12.356 9.36414 12.4958 9.36414C12.6356 9.36414 12.7696 9.41966 12.8685 9.51849C12.9673 9.61732 13.0228 9.75137 13.0228 9.89114V12.0001C13.0228 12.1399 12.9673 12.2739 12.8685 12.3728C12.7696 12.4716 12.6356 12.5271 12.4958 12.5271Z" fill="#2D6187"/>
<path d="M18.7717 7.141L17.8897 7.064C17.7534 7.05716 17.6198 7.10336 17.5168 7.1929C17.4138 7.28244 17.3495 7.40838 17.3374 7.5443C17.3252 7.68023 17.3661 7.81558 17.4516 7.92198C17.537 8.02837 17.6604 8.09755 17.7957 8.115L19.7857 8.289H19.8317C19.9635 8.28901 20.0906 8.23962 20.1877 8.15058C20.2849 8.06154 20.3452 7.93931 20.3567 7.808L20.5307 5.818C20.5367 5.68204 20.49 5.54901 20.4003 5.44666C20.3106 5.34431 20.1849 5.28055 20.0493 5.26868C19.9137 5.25681 19.7788 5.29775 19.6727 5.38296C19.5665 5.46817 19.4974 5.59106 19.4797 5.726L19.4317 6.278C18.59 5.25262 17.5313 4.42675 16.3319 3.8599C15.1325 3.29306 13.8223 2.99937 12.4957 3V4.055C13.7076 4.05846 14.9027 4.33819 15.9902 4.87294C17.0778 5.40769 18.029 6.18337 18.7717 7.141Z" fill="#B94A5B"/>
<path d="M20.5957 9.45604C20.4601 9.48962 20.3433 9.57569 20.2711 9.69533C20.1989 9.81497 20.1772 9.95839 20.2107 10.094C20.4992 11.2645 20.5176 12.4852 20.2647 13.6639C20.0118 14.8425 19.4941 15.9482 18.7508 16.8973C18.0075 17.8463 17.0581 18.6139 15.9745 19.1419C14.8908 19.6699 13.7012 19.9446 12.4957 19.945V21C14.8827 21 17.1719 20.0518 18.8597 18.364C20.5475 16.6762 21.4957 14.387 21.4957 12C21.4955 11.2728 21.4076 10.5482 21.2337 9.84204C21.2001 9.70636 21.1141 9.58952 20.9945 9.51717C20.8749 9.44481 20.7315 9.42283 20.5957 9.45604Z" fill="#B94A5B"/>
<path d="M15.0618 8.61004L15.5758 7.72004C15.2902 7.51324 14.9843 7.336 14.6628 7.19104L14.1488 8.08304C14.079 8.20411 14.06 8.34799 14.0962 8.48301C14.1324 8.61804 14.2208 8.73316 14.3418 8.80304C14.4629 8.87293 14.6068 8.89185 14.7418 8.85566C14.8768 8.81946 14.992 8.73111 15.0618 8.61004Z" fill="#6D88AF"/>
<path d="M16.7147 12.527H17.7427C17.7597 12.354 17.7687 12.178 17.7687 12C17.7687 11.822 17.7597 11.646 17.7427 11.473H16.7147C16.575 11.473 16.4409 11.5285 16.3421 11.6274C16.2433 11.7262 16.1877 11.8603 16.1877 12C16.1877 12.1398 16.2433 12.2738 16.3421 12.3727C16.4409 12.4715 16.575 12.527 16.7147 12.527Z" fill="#6D88AF"/>
<path d="M16.4127 10.347L17.3047 9.83305C17.1597 9.51158 16.9825 9.20568 16.7757 8.92004L15.8857 9.43404C15.7646 9.50393 15.6762 9.61905 15.64 9.75407C15.6039 9.8891 15.6228 10.033 15.6927 10.154C15.7625 10.2751 15.8777 10.3635 16.0127 10.3997C16.1477 10.4359 16.2916 10.4169 16.4127 10.347Z" fill="#6D88AF"/>
<path d="M14.1488 15.9169L14.6628 16.8089C14.9843 16.664 15.2902 16.4867 15.5758 16.2799L15.0618 15.3899C14.992 15.2689 14.8768 15.1805 14.7418 15.1443C14.6068 15.1081 14.4629 15.1271 14.3418 15.1969C14.2208 15.2668 14.1324 15.3819 14.0962 15.517C14.06 15.652 14.079 15.7959 14.1488 15.9169Z" fill="#6D88AF"/>
<path d="M15.8857 14.5661L16.7757 15.0801C16.9825 14.7945 17.1597 14.4886 17.3047 14.1671L16.4127 13.6531C16.2916 13.5832 16.1477 13.5643 16.0127 13.6005C15.8777 13.6367 15.7625 13.725 15.6927 13.8461C15.6228 13.9672 15.6039 14.1111 15.64 14.2461C15.6762 14.3811 15.7646 14.4962 15.8857 14.5661Z" fill="#6D88AF"/>
<path d="M12.4957 8.30893C12.565 8.30893 12.6336 8.29526 12.6976 8.26872C12.7616 8.24217 12.8198 8.20326 12.8687 8.15422C12.9177 8.10518 12.9565 8.04696 12.9829 7.98291C13.0093 7.91886 13.0229 7.85022 13.0227 7.78093V6.75293C12.8497 6.73593 12.6737 6.72693 12.4957 6.72693V8.30893Z" fill="#6D88AF"/>
<path d="M12.4957 15.691V17.273C12.6737 17.273 12.8497 17.264 13.0227 17.247V16.219C13.0229 16.1497 13.0093 16.0811 12.9829 16.0171C12.9565 15.953 12.9177 15.8948 12.8687 15.8457C12.8198 15.7967 12.7616 15.7578 12.6976 15.7312C12.6336 15.7047 12.565 15.691 12.4957 15.691Z" fill="#6D88AF"/>
<path d="M13.0227 12.0002V9.89116C13.0229 9.82187 13.0093 9.75323 12.9829 9.68918C12.9565 9.62513 12.9177 9.56691 12.8687 9.51787C12.8198 9.46883 12.7616 9.42992 12.6976 9.40337C12.6336 9.37682 12.565 9.36316 12.4957 9.36316V12.5272C12.6355 12.5272 12.7695 12.4716 12.8684 12.3728C12.9672 12.274 13.0227 12.1399 13.0227 12.0002Z" fill="#2D556F"/>
<path d="M12.4957 6.19995C11.3485 6.19995 10.2272 6.54012 9.27337 7.17743C8.31957 7.81474 7.57617 8.72058 7.13718 9.78039C6.69819 10.8402 6.58333 12.0064 6.80713 13.1315C7.03092 14.2566 7.58332 15.29 8.39446 16.1012C9.20561 16.9123 10.2391 17.4647 11.3642 17.6885C12.4892 17.9123 13.6554 17.7974 14.7152 17.3585C15.7751 16.9195 16.6809 16.1761 17.3182 15.2223C17.9555 14.2685 18.2957 13.1471 18.2957 12C18.2936 10.4623 17.6818 8.98832 16.5946 7.90107C15.5073 6.81382 14.0333 6.20207 12.4957 6.19995ZM12.4957 16.747C11.5571 16.747 10.6395 16.4686 9.85905 15.9472C9.07859 15.4257 8.47029 14.6846 8.11104 13.8174C7.7518 12.9502 7.65776 11.996 7.8408 11.0754C8.02385 10.1548 8.47576 9.30916 9.1394 8.64538C9.80304 7.9816 10.6486 7.52951 11.5692 7.34627C12.4897 7.16303 13.444 7.25687 14.3112 7.61593C15.1784 7.97499 15.9197 8.58314 16.4413 9.36349C16.963 10.1438 17.2415 11.0613 17.2417 12C17.2404 13.2583 16.7399 14.4647 15.8501 15.3544C14.9604 16.2442 13.754 16.7446 12.4957 16.746V16.747Z" fill="#F99746"/>
<path d="M12.4957 6.19995V7.25395C13.7544 7.25395 14.9616 7.75397 15.8517 8.64402C16.7417 9.53407 17.2417 10.7412 17.2417 12C17.2417 13.2587 16.7417 14.4658 15.8517 15.3559C14.9616 16.2459 13.7544 16.746 12.4957 16.746V17.8C14.034 17.8 15.5092 17.1889 16.5969 16.1012C17.6847 15.0135 18.2957 13.5382 18.2957 12C18.2957 10.4617 17.6847 8.98644 16.5969 7.89873C15.5092 6.81102 14.034 6.19995 12.4957 6.19995Z" fill="#D37733"/>
</g>
<defs>
<clipPath id="clip0_4_18570">
<rect width="24" height="24" fill="white" transform="translate(0.495728)"/>
</clipPath>
</defs>
</svg>
