<svg width="19" height="18" viewBox="0 0 19 18" fill="none" xmlns="http://www.w3.org/2000/svg">
<g clip-path="url(#clip0_4_18642)">
<path d="M9.49573 18C14.4663 18 18.4957 13.9706 18.4957 9C18.4957 4.02944 14.4663 0 9.49573 0C4.52517 0 0.495728 4.02944 0.495728 9C0.495728 13.9706 4.52517 18 9.49573 18Z" fill="white"/>
<path d="M13.4504 9.00004C13.4504 9.78221 13.2185 10.5468 12.7839 11.1972C12.3493 11.8475 11.7317 12.3544 11.0091 12.6537C10.2864 12.9531 9.49126 13.0314 8.72411 12.8788C7.95696 12.7262 7.2523 12.3495 6.69921 11.7965C6.14613 11.2434 5.76948 10.5387 5.61688 9.77157C5.46429 9.00442 5.54261 8.20926 5.84193 7.48662C6.14126 6.76398 6.64815 6.14634 7.2985 5.71178C7.94886 5.27723 8.71347 5.04529 9.49564 5.04529C10.5445 5.04529 11.5504 5.46195 12.2921 6.20361C13.0337 6.94527 13.4504 7.95117 13.4504 9.00004Z" fill="#FFF5F5"/>
<path d="M13.4505 9.00004C13.4505 7.95118 13.0338 6.94527 12.2922 6.20361C11.5505 5.46195 10.5446 5.04529 9.49573 5.04529V12.9548C10.5446 12.9548 11.5505 12.5381 12.2922 11.7965C13.0338 11.0548 13.4505 10.0489 13.4505 9.00004Z" fill="#E1EEF5"/>
<path d="M3.71023 10.4295C3.38138 9.1032 3.51866 7.70415 4.09905 6.46707C4.67944 5.22999 5.66761 4.23015 6.8978 3.63528C8.12798 3.04041 9.52532 2.88672 10.8554 3.19998C12.1855 3.51324 13.3673 4.2744 14.2027 5.35575L13.5412 5.298C13.439 5.29287 13.3388 5.32751 13.2615 5.39467C13.1843 5.46183 13.1361 5.55628 13.1269 5.65823C13.1178 5.76017 13.1485 5.86168 13.2126 5.94148C13.2767 6.02128 13.3692 6.07316 13.4707 6.08625L14.9632 6.21675H14.9977C15.0966 6.21675 15.1919 6.17971 15.2647 6.11293C15.3376 6.04615 15.3828 5.95448 15.3915 5.856L15.522 4.3635C15.5265 4.26153 15.4914 4.16175 15.4242 4.08499C15.3569 4.00823 15.2626 3.96041 15.1609 3.95151C15.0592 3.94261 14.958 3.97331 14.8784 4.03722C14.7988 4.10113 14.747 4.1933 14.7337 4.2945L14.6977 4.7085C14.0665 3.93946 13.2724 3.32006 12.3729 2.89493C11.4733 2.46979 10.4907 2.24953 9.49573 2.25C7.70552 2.25 5.98863 2.96116 4.72276 4.22703C3.45689 5.4929 2.74573 7.20979 2.74573 9C2.74588 9.54544 2.81186 10.0889 2.94223 10.6185C2.96375 10.7041 3.0132 10.7801 3.08274 10.8344C3.15229 10.8887 3.23797 10.9183 3.32623 10.9185C3.35836 10.9185 3.39036 10.9145 3.42148 10.9065C3.52321 10.8813 3.61078 10.8168 3.66493 10.727C3.71908 10.6373 3.73537 10.5297 3.71023 10.428V10.4295Z" fill="#D86480"/>
<path d="M16.0493 7.38152C16.0369 7.3311 16.0146 7.28361 15.9839 7.24177C15.9531 7.19993 15.9144 7.16456 15.87 7.13767C15.8256 7.11079 15.7763 7.09292 15.7249 7.08509C15.6736 7.07726 15.6212 7.07961 15.5708 7.09202C15.5203 7.10443 15.4729 7.12665 15.431 7.15742C15.3892 7.18818 15.3538 7.22688 15.3269 7.27132C15.3 7.31575 15.2822 7.36504 15.2743 7.41638C15.2665 7.46772 15.2689 7.5201 15.2813 7.57052C15.6098 8.89676 15.4724 10.2956 14.8919 11.5325C14.3114 12.7694 13.3232 13.7691 12.0931 14.3638C10.863 14.9585 9.46583 15.1122 8.13589 14.799C6.80595 14.4857 5.62417 13.7247 4.78878 12.6435L5.45028 12.702C5.5525 12.7072 5.65273 12.6725 5.72997 12.6054C5.80721 12.5382 5.85544 12.4437 5.86456 12.3418C5.87367 12.2399 5.84297 12.1383 5.77888 12.0585C5.71478 11.9788 5.62229 11.9269 5.52078 11.9138L4.02828 11.7833C3.92389 11.7743 3.82021 11.8071 3.73995 11.8744C3.65968 11.9418 3.60937 12.0382 3.60003 12.1425L3.46953 13.635C3.465 13.6867 3.47069 13.7388 3.48629 13.7883C3.5019 13.8378 3.5271 13.8838 3.56046 13.9236C3.59382 13.9633 3.63468 13.9961 3.68072 14.0201C3.72676 14.0441 3.77707 14.0587 3.82878 14.0633H3.86403C3.96283 14.0631 4.05801 14.026 4.13086 13.9593C4.20371 13.8925 4.24898 13.8009 4.25778 13.7025L4.29378 13.2878C4.92454 14.0577 5.71838 14.6779 6.61798 15.1037C7.51758 15.5295 8.50049 15.7503 9.49578 15.75C11.286 15.75 13.0029 15.0389 14.2687 13.773C15.5346 12.5071 16.2458 10.7902 16.2458 9.00002C16.2456 8.45458 16.1796 7.91115 16.0493 7.38152Z" fill="#D86480"/>
<path d="M6.33139 8.60474H5.56039C5.54764 8.73449 5.54089 8.86649 5.54089 8.99999C5.54089 9.13349 5.54764 9.26549 5.56039 9.39524H6.33139C6.43622 9.39524 6.53675 9.3536 6.61088 9.27947C6.685 9.20535 6.72664 9.10481 6.72664 8.99999C6.72664 8.89516 6.685 8.79463 6.61088 8.7205C6.53675 8.64638 6.43622 8.60474 6.33139 8.60474Z" fill="#9AB0D7"/>
<path d="M6.55804 10.2398L5.88904 10.6253C5.99776 10.8664 6.13069 11.0959 6.28579 11.3101L6.95329 10.9246C7.04409 10.8722 7.11036 10.7858 7.1375 10.6846C7.16465 10.5833 7.15045 10.4754 7.09804 10.3846C7.04563 10.2938 6.95929 10.2275 6.85802 10.2004C6.75675 10.1732 6.64884 10.1874 6.55804 10.2398Z" fill="#9AB0D7"/>
<path d="M7.57129 11.5424L7.18579 12.2099C7.40002 12.365 7.62944 12.498 7.87054 12.6067L8.25604 11.9377C8.30846 11.8469 8.32265 11.739 8.29551 11.6377C8.26836 11.5364 8.2021 11.4501 8.11129 11.3977C8.02049 11.3453 7.91258 11.3311 7.81131 11.3582C7.71004 11.3854 7.6237 11.4516 7.57129 11.5424Z" fill="#9AB0D7"/>
<path d="M9.89096 5.83579V5.06479C9.76121 5.05204 9.62921 5.04529 9.49571 5.04529C9.36221 5.04529 9.23021 5.05204 9.10046 5.06479V5.83579C9.10046 5.94062 9.14211 6.04115 9.21623 6.11527C9.29035 6.1894 9.39089 6.23104 9.49571 6.23104C9.60054 6.23104 9.70107 6.1894 9.7752 6.11527C9.84932 6.04115 9.89096 5.94062 9.89096 5.83579Z" fill="#9AB0D7"/>
<path d="M9.10046 12.1643V12.9353C9.23021 12.948 9.36221 12.9548 9.49571 12.9548C9.62921 12.9548 9.76121 12.948 9.89096 12.9353V12.1643C9.89096 12.0595 9.84932 11.9589 9.7752 11.8848C9.70107 11.8107 9.60054 11.769 9.49571 11.769C9.39089 11.769 9.29035 11.8107 9.21623 11.8848C9.14211 11.9589 9.10046 12.0595 9.10046 12.1643Z" fill="#9AB0D7"/>
<path d="M8.25604 6.06231L7.87054 5.39331C7.62944 5.50203 7.40002 5.63496 7.18579 5.79006L7.57129 6.45756C7.6237 6.54837 7.71004 6.61463 7.81131 6.64178C7.91258 6.66892 8.02049 6.65473 8.11129 6.60231C8.2021 6.5499 8.26836 6.46356 8.29551 6.36229C8.32265 6.26102 8.30846 6.15312 8.25604 6.06231Z" fill="#9AB0D7"/>
<path d="M6.95329 7.07556L6.28579 6.69006C6.13069 6.90429 5.99776 7.13372 5.88904 7.37481L6.55804 7.76031C6.64884 7.81273 6.75675 7.82692 6.85802 7.79978C6.95929 7.77263 7.04563 7.70637 7.09804 7.61556C7.15045 7.52476 7.16465 7.41686 7.1375 7.31559C7.11036 7.21432 7.04409 7.12798 6.95329 7.07556Z" fill="#9AB0D7"/>
<path d="M9.49585 9.39532H8.17735C8.07253 9.39532 7.97199 9.35368 7.89787 9.27956C7.82375 9.20543 7.7821 9.1049 7.7821 9.00007C7.7821 8.89525 7.82375 8.79471 7.89787 8.72059C7.97199 8.64646 8.07253 8.60482 8.17735 8.60482H9.1006V7.41832C9.1006 7.31349 9.14224 7.21296 9.21637 7.13884C9.29049 7.06471 9.39102 7.02307 9.49585 7.02307C9.60068 7.02307 9.70121 7.06471 9.77533 7.13884C9.84946 7.21296 9.8911 7.31349 9.8911 7.41832V9.00007C9.8911 9.1049 9.84946 9.20543 9.77533 9.27956C9.70121 9.35368 9.60068 9.39532 9.49585 9.39532Z" fill="#2D6187"/>
<path d="M14.2027 5.35575L13.5412 5.298C13.439 5.29287 13.3388 5.32752 13.2615 5.39467C13.1843 5.46183 13.1361 5.55629 13.1269 5.65823C13.1178 5.76017 13.1485 5.86168 13.2126 5.94148C13.2767 6.02128 13.3692 6.07316 13.4707 6.08625L14.9632 6.21675H14.9977C15.0966 6.21676 15.1918 6.17971 15.2647 6.11293C15.3376 6.04615 15.3828 5.95448 15.3915 5.856L15.522 4.3635C15.5265 4.26153 15.4914 4.16176 15.4242 4.08499C15.3569 4.00823 15.2626 3.96041 15.1609 3.95151C15.0592 3.94261 14.958 3.97332 14.8784 4.03722C14.7988 4.10113 14.747 4.1933 14.7337 4.2945L14.6977 4.7085C14.0665 3.93947 13.2724 3.32006 12.3729 2.89493C11.4733 2.46979 10.4907 2.24953 9.49573 2.25V3.04125C10.4046 3.04384 11.301 3.25364 12.1166 3.65471C12.9323 4.05577 13.6457 4.63753 14.2027 5.35575Z" fill="#B94A5B"/>
<path d="M15.5707 7.09203C15.469 7.11721 15.3814 7.18176 15.3273 7.2715C15.2731 7.36123 15.2568 7.46879 15.282 7.57053C15.4983 8.44838 15.5121 9.36392 15.3225 10.2479C15.1328 11.1319 14.7445 11.9611 14.187 12.6729C13.6296 13.3847 12.9175 13.9604 12.1048 14.3564C11.292 14.7525 10.3998 14.9584 9.49573 14.9588V15.75C11.2859 15.75 13.0028 15.0389 14.2687 13.773C15.5346 12.5071 16.2457 10.7902 16.2457 9.00003C16.2456 8.45459 16.1796 7.91116 16.0492 7.38153C16.024 7.27977 15.9595 7.19214 15.8698 7.13787C15.7801 7.08361 15.6726 7.06712 15.5707 7.09203Z" fill="#B94A5B"/>
<path d="M11.4203 6.45756L11.8058 5.79006C11.5916 5.63496 11.3622 5.50203 11.1211 5.39331L10.7356 6.06231C10.6831 6.15312 10.669 6.26102 10.6961 6.36229C10.7232 6.46356 10.7895 6.5499 10.8803 6.60231C10.9711 6.65473 11.079 6.66892 11.1803 6.64178C11.2816 6.61463 11.3679 6.54837 11.4203 6.45756Z" fill="#6D88AF"/>
<path d="M12.66 9.39524H13.431C13.4438 9.26549 13.4505 9.13349 13.4505 8.99999C13.4505 8.86649 13.4438 8.73449 13.431 8.60474H12.66C12.5552 8.60474 12.4547 8.64638 12.3805 8.7205C12.3064 8.79463 12.2648 8.89516 12.2648 8.99999C12.2648 9.10481 12.3064 9.20535 12.3805 9.27947C12.4547 9.3536 12.5552 9.39524 12.66 9.39524Z" fill="#6D88AF"/>
<path d="M12.4334 7.76031L13.1024 7.37481C12.9937 7.13372 12.8607 6.90429 12.7056 6.69006L12.0381 7.07556C11.9473 7.12798 11.8811 7.21432 11.8539 7.31559C11.8268 7.41686 11.841 7.52476 11.8934 7.61556C11.9458 7.70637 12.0322 7.77263 12.1334 7.79978C12.2347 7.82692 12.3426 7.81273 12.4334 7.76031Z" fill="#6D88AF"/>
<path d="M10.7356 11.9377L11.1211 12.6067C11.3622 12.498 11.5916 12.365 11.8058 12.2099L11.4203 11.5424C11.3679 11.4516 11.2816 11.3854 11.1803 11.3582C11.079 11.3311 10.9711 11.3453 10.8803 11.3977C10.7895 11.4501 10.7232 11.5364 10.6961 11.6377C10.669 11.739 10.6831 11.8469 10.7356 11.9377Z" fill="#6D88AF"/>
<path d="M12.0381 10.9246L12.7056 11.3101C12.8607 11.0959 12.9937 10.8664 13.1024 10.6253L12.4334 10.2398C12.3426 10.1874 12.2347 10.1732 12.1334 10.2004C12.0322 10.2275 11.9458 10.2938 11.8934 10.3846C11.841 10.4754 11.8268 10.5833 11.8539 10.6846C11.8811 10.7858 11.9473 10.8722 12.0381 10.9246Z" fill="#6D88AF"/>
<path d="M9.49573 6.23179C9.5477 6.23179 9.59915 6.22154 9.64716 6.20163C9.69516 6.18172 9.73877 6.15254 9.77548 6.11576C9.81219 6.07898 9.84129 6.03531 9.86111 5.98727C9.88093 5.93923 9.89108 5.88776 9.89098 5.83579V5.06479C9.76123 5.05204 9.62923 5.04529 9.49573 5.04529V6.23179Z" fill="#6D88AF"/>
<path d="M9.49573 11.7683V12.9548C9.62923 12.9548 9.76123 12.9481 9.89098 12.9353V12.1643C9.89108 12.1123 9.88093 12.0609 9.86111 12.0128C9.84129 11.9648 9.81219 11.9211 9.77548 11.8843C9.73877 11.8476 9.69516 11.8184 9.64716 11.7985C9.59915 11.7786 9.5477 11.7683 9.49573 11.7683Z" fill="#6D88AF"/>
<path d="M9.89098 9.00009V7.41834C9.89108 7.36637 9.88093 7.31489 9.86111 7.26685C9.84129 7.21881 9.81219 7.17515 9.77548 7.13837C9.73877 7.10159 9.69516 7.07241 9.64716 7.0525C9.59915 7.03259 9.5477 7.02234 9.49573 7.02234V9.39534C9.60055 9.39534 9.70109 9.3537 9.77521 9.27958C9.84934 9.20545 9.89098 9.10492 9.89098 9.00009Z" fill="#2D556F"/>
<path d="M9.49575 4.65002C8.63541 4.65002 7.79438 4.90515 7.07902 5.38313C6.36367 5.86112 5.80612 6.54049 5.47688 7.33535C5.14764 8.13021 5.06149 9.00485 5.22934 9.84867C5.39718 10.6925 5.81148 11.4676 6.41984 12.0759C7.0282 12.6843 7.80329 13.0986 8.64711 13.2664C9.49093 13.4343 10.3656 13.3481 11.1604 13.0189C11.9553 12.6897 12.6347 12.1321 13.1126 11.4168C13.5906 10.7014 13.8458 9.86038 13.8458 9.00003C13.8442 7.84682 13.3854 6.7413 12.5699 5.92586C11.7545 5.11042 10.649 4.65161 9.49575 4.65002ZM9.49575 12.5603C8.79178 12.5603 8.10362 12.3515 7.51828 11.9604C6.93294 11.5694 6.47671 11.0135 6.20728 10.3631C5.93784 9.71274 5.86731 8.99708 6.00459 8.30663C6.14188 7.61617 6.48081 6.98193 6.97854 6.48409C7.47627 5.98626 8.11044 5.64719 8.80087 5.50976C9.4913 5.37233 10.207 5.44272 10.8574 5.71201C11.5078 5.98131 12.0638 6.43742 12.455 7.02268C12.8462 7.60794 13.0551 8.29606 13.0553 9.00003C13.0543 9.94376 12.6789 10.8486 12.0116 11.5159C11.3443 12.1832 10.4395 12.5585 9.49575 12.5595V12.5603Z" fill="#F99746"/>
<path d="M9.49573 4.65002V5.44052C10.4398 5.44052 11.3451 5.81554 12.0127 6.48308C12.6802 7.15061 13.0552 8.05599 13.0552 9.00002C13.0552 9.94406 12.6802 10.8494 12.0127 11.517C11.3451 12.1845 10.4398 12.5595 9.49573 12.5595V13.35C10.6494 13.35 11.7559 12.8917 12.5716 12.0759C13.3874 11.2602 13.8457 10.1537 13.8457 9.00002C13.8457 7.84633 13.3874 6.73989 12.5716 5.92411C11.7559 5.10833 10.6494 4.65002 9.49573 4.65002Z" fill="#D37733"/>
</g>
<defs>
<clipPath id="clip0_4_18642">
<rect width="18" height="18" fill="white" transform="translate(0.495728)"/>
</clipPath>
</defs>
</svg>
