<svg width="19" height="18" viewBox="0 0 19 18" fill="none" xmlns="http://www.w3.org/2000/svg">
<g clip-path="url(#clip0_4_18619)">
<path d="M9.49573 18C14.4663 18 18.4957 13.9706 18.4957 9C18.4957 4.02944 14.4663 0 9.49573 0C4.52517 0 0.495728 4.02944 0.495728 9C0.495728 13.9706 4.52517 18 9.49573 18Z" fill="white"/>
<path d="M13.2008 3.47243L5.76081 14.5574C2.70081 12.5699 1.83081 8.48993 3.81831 5.42993C3.83331 5.39993 3.85581 5.36993 3.87831 5.34743C5.92581 2.28743 10.1033 1.44743 13.2008 3.47243Z" fill="#2D6187"/>
<path d="M16.2458 8.97738C16.2383 11.4374 14.8658 13.6949 12.6833 14.8349C10.4858 15.9899 7.8383 15.8624 5.7533 14.5049L13.2083 3.44238C15.0983 4.64988 16.2383 6.73488 16.2458 8.97738Z" fill="#F99746"/>
<path d="M13.1408 3.54747L12.6458 4.27497C10.7708 2.84247 8.28825 2.48997 6.08325 3.34497C8.28825 2.08497 11.0108 2.15997 13.1408 3.54747Z" fill="#50646D"/>
<path d="M16.1482 9.03748C16.1482 11.745 14.4682 14.175 11.9032 15.165C15.0457 13.4025 16.1632 9.41998 14.4007 6.27749C13.9582 5.50499 13.3657 4.81499 12.6457 4.27499L13.1407 3.54749C15.0082 4.74749 16.1407 6.81748 16.1482 9.03748Z" fill="#D37733"/>
<path d="M13.7107 12.495C13.2757 13.2825 12.2857 13.5675 11.4982 13.1325C11.3482 13.05 11.2132 12.945 11.0932 12.8175C10.7407 12.4425 10.5982 11.9175 10.7107 11.4075C10.8232 10.8975 11.1757 10.4775 11.6557 10.2825C11.3332 10.875 11.4307 11.6025 11.8882 12.0975C12.3607 12.6 13.0807 12.7575 13.7107 12.495Z" fill="white"/>
<path d="M13.7107 12.4949C13.3882 13.0874 12.7282 13.4174 12.0532 13.3199C11.3857 13.2299 10.8457 12.7274 10.7032 12.0674C10.6882 11.9849 10.6732 11.9024 10.6732 11.8199C10.9507 12.6674 11.8657 13.1324 12.7207 12.8549C12.8857 12.8024 13.0357 12.7199 13.1782 12.6224C13.2532 12.6224 13.3282 12.6074 13.4032 12.5924C13.5082 12.5699 13.6132 12.5399 13.7107 12.4949Z" fill="#E1E6E9"/>
<path d="M12.2857 13.4325C11.4832 13.4325 10.7857 12.87 10.6207 12.0825C10.4632 11.295 10.8832 10.5075 11.6257 10.2C11.6707 10.1775 11.7307 10.2 11.7532 10.245C11.7682 10.275 11.7682 10.305 11.7532 10.3275C11.4532 10.8825 11.5432 11.5725 11.9707 12.0375C12.4057 12.5025 13.0882 12.6525 13.6807 12.405C13.7257 12.3825 13.7857 12.405 13.8082 12.45C13.8232 12.48 13.8232 12.51 13.8082 12.5325C13.5682 12.975 13.1407 13.29 12.6382 13.3875C12.5182 13.4175 12.3982 13.4325 12.2857 13.4325ZM11.4607 10.5C10.9432 10.83 10.6807 11.445 10.8007 12.045C10.9207 12.615 11.3707 13.065 11.9407 13.1925C12.5107 13.3275 13.1107 13.125 13.4782 12.6675L13.4182 12.6825C12.8182 12.8025 12.2032 12.6 11.7982 12.1425C11.3932 11.7 11.2657 11.07 11.4607 10.5Z" fill="#2D6187"/>
<path d="M7.9133 6.78747C7.9283 7.49997 7.3583 8.08497 6.6458 8.09997C5.9333 8.11497 5.3483 7.54497 5.3333 6.83247C5.3183 6.11997 5.8883 5.53497 6.6008 5.51997C6.6083 5.51997 6.6158 5.51997 6.6233 5.51997C7.3283 5.51247 7.9058 6.08247 7.9133 6.78747Z" fill="#FFCB4D"/>
<path d="M7.91323 6.78756C7.91323 7.19256 7.71823 7.57506 7.38823 7.80756C7.74073 7.29756 7.66573 6.60756 7.21573 6.18006C6.75823 5.75256 6.06073 5.70756 5.55823 6.07506C5.88073 5.61006 6.46573 5.40756 7.00573 5.57256C7.53823 5.73756 7.90573 6.22506 7.91323 6.78756Z" fill="#F7BE56"/>
<path d="M6.62326 5.23492C6.57076 5.23492 6.52576 5.19742 6.52576 5.14492V5.00992C6.53326 4.95742 6.57826 4.91992 6.63076 4.91992C6.67576 4.92742 6.71326 4.95742 6.72076 5.00992V5.14492C6.71326 5.18992 6.67576 5.23492 6.62326 5.23492Z" fill="#F99746"/>
<path d="M5.43828 5.715C5.41578 5.715 5.38578 5.7075 5.37078 5.685L5.27328 5.595C5.23578 5.5575 5.24328 5.4975 5.28828 5.46C5.32578 5.43 5.37828 5.43 5.41578 5.46L5.51328 5.55C5.55078 5.5875 5.55078 5.6475 5.51328 5.685C5.48328 5.7075 5.46078 5.715 5.43828 5.715Z" fill="#F99746"/>
<path d="M4.94321 6.88503H4.80821C4.75571 6.89253 4.71071 6.84753 4.70321 6.79503C4.69571 6.74253 4.74071 6.69753 4.79321 6.69003C4.80071 6.69003 4.80821 6.69003 4.80821 6.69003H4.94321C4.99572 6.68253 5.04072 6.72753 5.04822 6.78003C5.05572 6.83253 5.01072 6.87753 4.95822 6.88503C4.95822 6.88503 4.95071 6.88503 4.94321 6.88503Z" fill="#F99746"/>
<path d="M5.34066 8.14492C5.28816 8.14492 5.24316 8.10742 5.24316 8.05492C5.24316 8.03242 5.25066 8.00242 5.27316 7.98742L5.37066 7.89742C5.40816 7.85992 5.47566 7.86742 5.50566 7.91242C5.53566 7.94992 5.53566 8.00242 5.50566 8.03992L5.40816 8.12992C5.39316 8.12992 5.36316 8.14492 5.34066 8.14492Z" fill="#F99746"/>
<path d="M6.62326 8.66259C6.57076 8.66259 6.52576 8.61759 6.52576 8.56509V8.43009C6.53326 8.37759 6.57826 8.34009 6.63076 8.34009C6.67576 8.34759 6.71326 8.37759 6.72076 8.43009V8.56509C6.72076 8.62509 6.67576 8.66259 6.62326 8.66259Z" fill="#F99746"/>
<path d="M7.89824 8.14505C7.87574 8.14505 7.84574 8.13755 7.83074 8.11505L7.73324 8.02505C7.69574 7.98755 7.70324 7.92755 7.74824 7.89005C7.78574 7.86005 7.83824 7.86005 7.87574 7.89005L7.97324 7.98005C8.01074 8.01755 8.01074 8.07755 7.97324 8.11505C7.95074 8.13755 7.92824 8.14505 7.89824 8.14505Z" fill="#F99746"/>
<path d="M8.43076 6.88503H8.29576C8.24326 6.89253 8.19826 6.84753 8.19076 6.79503C8.18326 6.74253 8.22826 6.69753 8.28076 6.69003C8.28826 6.69003 8.29576 6.69003 8.29576 6.69003H8.43076C8.48326 6.68253 8.52826 6.72753 8.53576 6.78003C8.54326 6.83253 8.49826 6.87753 8.44576 6.88503C8.44576 6.88503 8.43826 6.88503 8.43076 6.88503Z" fill="#F99746"/>
<path d="M7.80819 5.71502C7.75569 5.71502 7.71069 5.67752 7.71069 5.62502C7.71069 5.60252 7.71819 5.57252 7.74069 5.55753L7.8382 5.46753C7.8757 5.43003 7.9357 5.43753 7.9732 5.47503C8.0032 5.51253 8.0032 5.56502 7.9732 5.60252L7.8757 5.69252C7.8532 5.70752 7.83069 5.71502 7.80819 5.71502Z" fill="#F99746"/>
<path d="M6.62324 8.15254C6.06824 8.15254 5.55824 7.82254 5.34074 7.31254C5.12324 6.80254 5.24324 6.21004 5.64074 5.82754C6.03824 5.43754 6.63824 5.31754 7.15574 5.52754C7.85324 5.81254 8.19074 6.60004 7.91324 7.29754C7.69574 7.81504 7.18574 8.16004 6.62324 8.15254ZM6.62324 5.61004C6.14324 5.61004 5.70824 5.89504 5.52074 6.33754C5.33324 6.78004 5.43824 7.28254 5.78324 7.62004C6.12824 7.95754 6.63824 8.05504 7.08074 7.87504C7.52324 7.69504 7.81574 7.26754 7.81574 6.78754C7.80824 6.13504 7.27574 5.61004 6.62324 5.61004Z" fill="#F99746"/>
<path d="M9.49573 15.75C5.76823 15.75 2.74573 12.7275 2.74573 9C2.74573 5.2725 5.76823 2.25 9.49573 2.25C13.2232 2.25 16.2457 5.2725 16.2457 9C16.2457 12.7275 13.2232 15.75 9.49573 15.75ZM9.49573 2.445C5.87323 2.445 2.94073 5.3775 2.94073 9C2.94073 12.6225 5.87323 15.555 9.49573 15.555C13.1182 15.555 16.0507 12.6225 16.0507 9C16.0507 5.3775 13.1182 2.445 9.49573 2.445Z" fill="#B94A5B"/>
</g>
<defs>
<clipPath id="clip0_4_18619">
<rect width="18" height="18" fill="white" transform="translate(0.495728)"/>
</clipPath>
</defs>
</svg>
