<svg width="25" height="24" viewBox="0 0 25 24" fill="none" xmlns="http://www.w3.org/2000/svg">
<g clip-path="url(#clip0_4_18547)">
<path d="M12.4957 24C19.1231 24 24.4957 18.6274 24.4957 12C24.4957 5.37258 19.1231 0 12.4957 0C5.86831 0 0.495728 5.37258 0.495728 12C0.495728 18.6274 5.86831 24 12.4957 24Z" fill="white"/>
<path d="M17.4358 4.62991L7.51584 19.4099C3.43584 16.7599 2.27584 11.3199 4.92584 7.23991C4.94584 7.19991 4.97584 7.15991 5.00584 7.12991C7.73584 3.04991 13.3058 1.92991 17.4358 4.62991Z" fill="#2D6187"/>
<path d="M21.4959 11.9698C21.4859 15.2498 19.6559 18.2598 16.7459 19.7798C13.8159 21.3198 10.2859 21.1498 7.50586 19.3398L17.4459 4.58984C19.9659 6.19984 21.4859 8.97984 21.4959 11.9698Z" fill="#F99746"/>
<path d="M17.3557 4.72984L16.6957 5.69984C14.1957 3.78984 10.8857 3.31984 7.94568 4.45984C10.8857 2.77984 14.5157 2.87984 17.3557 4.72984Z" fill="#50646D"/>
<path d="M21.3657 12.05C21.3657 15.66 19.1257 18.9 15.7057 20.22C19.8957 17.87 21.3857 12.56 19.0357 8.36998C18.4457 7.33998 17.6557 6.41998 16.6957 5.69998L17.3557 4.72998C19.8457 6.32998 21.3557 9.08998 21.3657 12.05Z" fill="#D37733"/>
<path d="M18.1157 16.66C17.5357 17.71 16.2157 18.09 15.1657 17.51C14.9657 17.4 14.7857 17.26 14.6257 17.09C14.1557 16.59 13.9657 15.89 14.1157 15.21C14.2657 14.53 14.7357 13.97 15.3757 13.71C14.9457 14.5 15.0757 15.47 15.6857 16.13C16.3157 16.8 17.2757 17.01 18.1157 16.66Z" fill="white"/>
<path d="M18.1158 16.6599C17.6858 17.4499 16.8058 17.8899 15.9058 17.7599C15.0158 17.6399 14.2958 16.9699 14.1058 16.0899C14.0858 15.9799 14.0658 15.8699 14.0658 15.7599C14.4358 16.8899 15.6558 17.5099 16.7958 17.1399C17.0158 17.0699 17.2158 16.9599 17.4058 16.8299C17.5058 16.8299 17.6058 16.8099 17.7058 16.7899C17.8458 16.7599 17.9858 16.7199 18.1158 16.6599Z" fill="#E1E6E9"/>
<path d="M16.2156 17.91C15.1456 17.91 14.2156 17.16 13.9956 16.11C13.7856 15.06 14.3456 14.01 15.3356 13.6C15.3956 13.57 15.4756 13.6 15.5056 13.66C15.5256 13.7 15.5256 13.74 15.5056 13.77C15.1056 14.51 15.2256 15.43 15.7956 16.05C16.3756 16.67 17.2856 16.87 18.0756 16.54C18.1356 16.51 18.2156 16.54 18.2456 16.6C18.2656 16.64 18.2656 16.68 18.2456 16.71C17.9256 17.3 17.3556 17.72 16.6856 17.85C16.5256 17.89 16.3656 17.91 16.2156 17.91ZM15.1156 14C14.4256 14.44 14.0756 15.26 14.2356 16.06C14.3956 16.82 14.9956 17.42 15.7556 17.59C16.5156 17.77 17.3156 17.5 17.8056 16.89L17.7256 16.91C16.9256 17.07 16.1056 16.8 15.5656 16.19C15.0256 15.6 14.8556 14.76 15.1156 14Z" fill="#2D6187"/>
<path d="M10.3858 9.04996C10.4058 9.99996 9.64582 10.78 8.69582 10.8C7.74582 10.82 6.96582 10.06 6.94582 9.10996C6.92582 8.15996 7.68582 7.37996 8.63582 7.35996C8.64582 7.35996 8.65582 7.35996 8.66582 7.35996C9.60582 7.34996 10.3758 8.10996 10.3858 9.04996Z" fill="#FFCB4D"/>
<path d="M10.3857 9.05C10.3857 9.59 10.1257 10.1 9.68573 10.41C10.1557 9.73 10.0557 8.81 9.45573 8.24C8.84573 7.67 7.91573 7.60999 7.24573 8.1C7.67573 7.47999 8.45573 7.20999 9.17573 7.43C9.88573 7.65 10.3757 8.3 10.3857 9.05Z" fill="#F7BE56"/>
<path d="M8.66577 6.97994C8.59577 6.97994 8.53577 6.92994 8.53577 6.85994V6.67994C8.54577 6.60994 8.60577 6.55994 8.67577 6.55994C8.73577 6.56994 8.78577 6.60994 8.79577 6.67994V6.85994C8.78577 6.91994 8.73577 6.97994 8.66577 6.97994Z" fill="#F99746"/>
<path d="M7.08575 7.62C7.05575 7.62 7.01575 7.61 6.99575 7.58L6.86575 7.46C6.81575 7.41 6.82575 7.33 6.88575 7.28C6.93575 7.24 7.00575 7.24 7.05575 7.28L7.18575 7.4C7.23575 7.45 7.23575 7.53 7.18575 7.58C7.14575 7.61 7.11575 7.62 7.08575 7.62Z" fill="#F99746"/>
<path d="M6.42571 9.18005H6.24571C6.17571 9.19005 6.11571 9.13004 6.10571 9.06004C6.09571 8.99004 6.15571 8.93004 6.22571 8.92004C6.23571 8.92004 6.24571 8.92004 6.24571 8.92004H6.42571C6.49571 8.91004 6.55571 8.97004 6.56571 9.04004C6.57571 9.11004 6.51571 9.17005 6.44571 9.18005C6.44571 9.18005 6.43571 9.18005 6.42571 9.18005Z" fill="#F99746"/>
<path d="M6.95568 10.8599C6.88568 10.8599 6.82568 10.8099 6.82568 10.7399C6.82568 10.7099 6.83568 10.6699 6.86568 10.6499L6.99568 10.5299C7.04568 10.4799 7.13568 10.4899 7.17568 10.5499C7.21568 10.5999 7.21568 10.6699 7.17568 10.7199L7.04568 10.8399C7.02568 10.8399 6.98568 10.8599 6.95568 10.8599Z" fill="#F99746"/>
<path d="M8.66577 11.55C8.59577 11.55 8.53577 11.49 8.53577 11.42V11.24C8.54577 11.17 8.60577 11.12 8.67577 11.12C8.73577 11.13 8.78577 11.17 8.79577 11.24V11.42C8.79577 11.5 8.73577 11.55 8.66577 11.55Z" fill="#F99746"/>
<path d="M10.3657 10.8601C10.3357 10.8601 10.2957 10.8501 10.2757 10.8201L10.1457 10.7001C10.0957 10.6501 10.1057 10.5701 10.1657 10.5201C10.2157 10.4801 10.2857 10.4801 10.3357 10.5201L10.4657 10.6401C10.5157 10.6901 10.5157 10.7701 10.4657 10.8201C10.4357 10.8501 10.4057 10.8601 10.3657 10.8601Z" fill="#F99746"/>
<path d="M11.0757 9.18005H10.8957C10.8257 9.19005 10.7657 9.13004 10.7557 9.06004C10.7457 8.99004 10.8057 8.93004 10.8757 8.92004C10.8857 8.92004 10.8957 8.92004 10.8957 8.92004H11.0757C11.1457 8.91004 11.2057 8.97004 11.2157 9.04004C11.2257 9.11004 11.1657 9.17005 11.0957 9.18005C11.0957 9.18005 11.0857 9.18005 11.0757 9.18005Z" fill="#F99746"/>
<path d="M10.2457 7.61995C10.1757 7.61995 10.1157 7.56995 10.1157 7.49995C10.1157 7.46995 10.1257 7.42995 10.1557 7.40995L10.2857 7.28995C10.3357 7.23995 10.4157 7.24995 10.4657 7.29995C10.5057 7.34995 10.5057 7.41995 10.4657 7.46995L10.3357 7.58995C10.3057 7.60995 10.2757 7.61995 10.2457 7.61995Z" fill="#F99746"/>
<path d="M8.66571 10.87C7.92571 10.87 7.24571 10.43 6.95571 9.74998C6.66571 9.06998 6.82571 8.27997 7.35571 7.76997C7.88571 7.24997 8.68571 7.08997 9.37571 7.36997C10.3057 7.74997 10.7557 8.79998 10.3857 9.72998C10.0957 10.42 9.41571 10.88 8.66571 10.87ZM8.66571 7.47998C8.02571 7.47998 7.44571 7.85998 7.19571 8.44998C6.94571 9.03998 7.08571 9.70998 7.54571 10.16C8.00571 10.61 8.68571 10.74 9.27571 10.5C9.86571 10.26 10.2557 9.68998 10.2557 9.04998C10.2457 8.17998 9.53571 7.47998 8.66571 7.47998Z" fill="#F99746"/>
<path d="M12.4957 21C7.52573 21 3.49573 16.97 3.49573 12C3.49573 7.03 7.52573 3 12.4957 3C17.4657 3 21.4957 7.03 21.4957 12C21.4957 16.97 17.4657 21 12.4957 21ZM12.4957 3.26C7.66573 3.26 3.75573 7.17 3.75573 12C3.75573 16.83 7.66573 20.74 12.4957 20.74C17.3257 20.74 21.2357 16.83 21.2357 12C21.2357 7.17 17.3257 3.26 12.4957 3.26Z" fill="#B94A5B"/>
</g>
<defs>
<clipPath id="clip0_4_18547">
<rect width="24" height="24" fill="white" transform="translate(0.495728)"/>
</clipPath>
</defs>
</svg>
