<svg width="24" height="24" viewBox="0 0 24 24" fill="none" xmlns="http://www.w3.org/2000/svg">
<path d="M18.6662 10.6666H8.542L12.9438 6.28357C13.195 6.03271 13.3361 5.69246 13.3361 5.33769C13.3361 4.98291 13.195 4.64266 12.9438 4.3918C12.6927 4.14093 12.352 4 11.9968 4C11.6416 4 11.3009 4.14093 11.0497 4.3918L4.38027 11.053C4.25883 11.1797 4.16364 11.3291 4.10015 11.4926C3.96674 11.817 3.96674 12.1808 4.10015 12.5051C4.16364 12.6686 4.25883 12.818 4.38027 12.9448L11.0497 19.6059C11.1737 19.7308 11.3212 19.8299 11.4838 19.8975C11.6463 19.9652 11.8207 20 11.9968 20C12.1729 20 12.3472 19.9652 12.5097 19.8975C12.6723 19.8299 12.8198 19.7308 12.9438 19.6059C13.0689 19.4821 13.1681 19.3347 13.2358 19.1724C13.3035 19.01 13.3384 18.8359 13.3384 18.66C13.3384 18.4842 13.3035 18.31 13.2358 18.1477C13.1681 17.9853 13.0689 17.838 12.9438 17.7142L8.542 13.3311H18.6662C19.02 13.3311 19.3593 13.1907 19.6094 12.9409C19.8596 12.6911 20.0001 12.3522 20.0001 11.9989C20.0001 11.6455 19.8596 11.3067 19.6094 11.0568C19.3593 10.807 19.02 10.6666 18.6662 10.6666Z" fill="#5C7CCD"/>
</svg>
