<svg width="24" height="24" viewBox="0 0 24 24" fill="none" xmlns="http://www.w3.org/2000/svg">
<path d="M22.9082 11.55C20.687 6.27375 16.5084 3 12 3C7.49157 3 3.31303 6.27375 1.0918 11.55C1.03125 11.6919 1 11.8451 1 12C1 12.1549 1.03125 12.3081 1.0918 12.45C3.31303 17.7262 7.49157 21 12 21C16.5084 21 20.687 17.7262 22.9082 12.45C22.9687 12.3081 23 12.1549 23 12C23 11.8451 22.9687 11.6919 22.9082 11.55ZM12 18.75C8.51421 18.75 5.21536 16.1737 3.31303 12C5.21536 7.82625 8.51421 5.25 12 5.25C15.4858 5.25 18.7846 7.82625 20.687 12C18.7846 16.1737 15.4858 18.75 12 18.75ZM12 7.5C11.1301 7.5 10.2797 7.76392 9.55634 8.25839C8.83302 8.75285 8.26926 9.45566 7.93635 10.2779C7.60344 11.1002 7.51633 12.005 7.68605 12.8779C7.85576 13.7508 8.27468 14.5526 8.88981 15.182C9.50495 15.8113 10.2887 16.2399 11.1419 16.4135C11.9951 16.5872 12.8795 16.4981 13.6832 16.1575C14.4869 15.8169 15.1739 15.2401 15.6572 14.5001C16.1405 13.76 16.3985 12.89 16.3985 12C16.3985 10.8065 15.9351 9.66193 15.1102 8.81802C14.2853 7.97411 13.1665 7.5 12 7.5ZM12 14.25C11.565 14.25 11.1398 14.118 10.7782 13.8708C10.4165 13.6236 10.1346 13.2722 9.96817 12.861C9.80172 12.4499 9.75817 11.9975 9.84302 11.561C9.92788 11.1246 10.1373 10.7237 10.4449 10.409C10.7525 10.0943 11.1443 9.88005 11.571 9.79323C11.9976 9.70642 12.4398 9.75097 12.8416 9.92127C13.2435 10.0916 13.5869 10.38 13.8286 10.75C14.0703 11.12 14.1992 11.555 14.1992 12C14.1992 12.5967 13.9675 13.169 13.5551 13.591C13.1427 14.0129 12.5833 14.25 12 14.25Z" fill="#C4C4C8"/>
</svg>
