<svg width="24" height="24" viewBox="0 0 24 24" fill="none" xmlns="http://www.w3.org/2000/svg">
<path d="M10.8336 5.49034C11.2193 5.43123 11.6089 5.40182 11.9991 5.40238C15.4953 5.40238 18.7827 7.92014 20.6958 11.9991C20.4032 12.6199 20.0727 13.222 19.7063 13.8022C19.5899 13.9823 19.5288 14.1925 19.5303 14.4069C19.5328 14.6469 19.6137 14.8794 19.7606 15.0691C19.9076 15.2588 20.1126 15.3952 20.3443 15.4575C20.576 15.5198 20.8218 15.5045 21.0441 15.4141C21.2663 15.3237 21.4529 15.163 21.5753 14.9567C22.0876 14.1518 22.5325 13.306 22.9057 12.4279C22.9647 12.2907 22.9951 12.143 22.9951 11.9936C22.9951 11.8443 22.9647 11.6965 22.9057 11.5593C20.6848 6.40289 16.5068 3.20347 11.9991 3.20347C11.4831 3.20087 10.9679 3.24503 10.4598 3.33541C10.3154 3.35995 10.1773 3.4127 10.0533 3.49062C9.92931 3.56855 9.82187 3.67014 9.73713 3.78959C9.6524 3.90904 9.59202 4.04401 9.55944 4.1868C9.52686 4.32959 9.52273 4.47739 9.54727 4.62177C9.57182 4.76615 9.62456 4.90429 9.70249 5.02829C9.78042 5.15229 9.88201 5.25972 10.0015 5.34446C10.1209 5.4292 10.2559 5.48958 10.3987 5.52216C10.5415 5.55473 10.6893 5.55886 10.8336 5.53432V5.49034ZM2.88457 1.3234C2.78206 1.22089 2.66036 1.13957 2.52642 1.08409C2.39248 1.02862 2.24893 1.00006 2.10395 1.00006C1.95898 1.00006 1.81543 1.02862 1.68149 1.08409C1.54755 1.13957 1.42585 1.22089 1.32334 1.3234C1.11631 1.53043 1 1.81123 1 2.10402C1 2.3968 1.11631 2.6776 1.32334 2.88463L4.73166 6.28195C3.17655 7.77889 1.93888 9.57371 1.09245 11.5593C1.03192 11.6981 1.00067 11.8478 1.00067 11.9991C1.00067 12.1505 1.03192 12.3002 1.09245 12.4389C3.31336 17.5954 7.49129 20.7948 11.9991 20.7948C13.9749 20.7811 15.9041 20.1928 17.5513 19.1016L21.1136 22.6748C21.2158 22.7779 21.3374 22.8597 21.4713 22.9155C21.6053 22.9713 21.749 23.0001 21.8942 23.0001C22.0393 23.0001 22.183 22.9713 22.317 22.9155C22.451 22.8597 22.5726 22.7779 22.6748 22.6748C22.7778 22.5726 22.8596 22.451 22.9154 22.3171C22.9713 22.1831 23 22.0394 23 21.8942C23 21.7491 22.9713 21.6054 22.9154 21.4714C22.8596 21.3374 22.7778 21.2158 22.6748 21.1136L2.88457 1.3234ZM9.87711 11.4274L12.5708 14.1211C12.385 14.1744 12.1924 14.2003 11.9991 14.198C11.4159 14.198 10.8566 13.9664 10.4442 13.554C10.0318 13.1416 9.80015 12.5823 9.80015 11.9991C9.7979 11.8058 9.82382 11.6132 9.87711 11.4274ZM11.9991 18.5959C8.50279 18.5959 5.21542 16.0781 3.31336 11.9991C4.0237 10.431 5.03189 9.01583 6.28189 7.83218L8.22793 9.80021C7.77082 10.6345 7.59655 11.5945 7.73126 12.5362C7.86596 13.4779 8.30238 14.3505 8.97504 15.0231C9.64769 15.6958 10.5203 16.1322 11.462 16.2669C12.4037 16.4016 13.3637 16.2274 14.198 15.7703L15.9461 17.4964C14.7489 18.201 13.3881 18.5801 11.9991 18.5959Z" fill="#C4C4C8"/>
</svg>
