<svg width="24" height="24" viewBox="0 0 24 24" fill="none" xmlns="http://www.w3.org/2000/svg">
<path d="M7 8C6.4 8 6 8.4 6 9C6 9.6 6.4 10 7 10H8C8.6 10 9 9.6 9 9C9 8.4 8.6 8 8 8H7ZM12 20H5C4.4 20 4 19.6 4 19V5C4 4.4 4.4 4 5 4H10V7C10 8.7 11.3 10 13 10H16V11C16 11.6 16.4 12 17 12C17.6 12 18 11.6 18 11V9C18 9 18 9 18 8.9C18 8.8 18 8.7 17.9 8.6C17.9 8.5 17.8 8.4 17.7 8.3L11.7 2.3C11.6 2.2 11.5 2.2 11.4 2.1H11.3L11.1 2H5C3.3 2 2 3.3 2 5V19C2 20.7 3.3 22 5 22H12C12.6 22 13 21.6 13 21C13 20.4 12.6 20 12 20ZM12 5.4L14.6 8H13C12.4 8 12 7.6 12 7V5.4ZM11 18C11.6 18 12 17.6 12 17C12 16.4 11.6 16 11 16H7C6.4 16 6 16.4 6 17C6 17.6 6.4 18 7 18H11ZM13 12H7C6.4 12 6 12.4 6 13C6 13.6 6.4 14 7 14H13C13.6 14 14 13.6 14 13C14 12.4 13.6 12 13 12ZM18 14C15.8 14 14 15.8 14 18C14 20.2 15.8 22 18 22C20.2 22 22 20.2 22 18C22 15.8 20.2 14 18 14ZM18 20.8C16.5 20.8 15.2 19.5 15.2 18C15.2 16.5 16.5 15.2 18 15.2C19.5 15.2 20.8 16.5 20.8 18C20.8 19.5 19.5 20.8 18 20.8ZM18 15.6C17.8 15.6 17.6 15.8 17.6 16V17.9L17 18.9C16.9 19.1 17 19.3 17.2 19.4C17.4 19.5 17.6 19.4 17.7 19.2L18.3 18.1C18.3 18 18.3 18 18.3 17.9V15.9C18.4 15.8 18.2 15.6 18 15.6Z" fill="#5C7CCD"/>
</svg>
