<svg width="22" height="22" viewBox="0 0 22 22" xmlns="http://www.w3.org/2000/svg">
<path d="M14.71 7.29008C14.617 7.19635 14.5064 7.12196 14.3845 7.07119C14.2627 7.02042 14.132 6.99428 14 6.99428C13.8679 6.99428 13.7372 7.02042 13.6154 7.07119C13.4935 7.12196 13.3829 7.19635 13.29 7.29008L11 9.59008L8.70996 7.29008C8.52165 7.10178 8.26626 6.99599 7.99996 6.99599C7.73366 6.99599 7.47826 7.10178 7.28996 7.29008C7.10165 7.47838 6.99587 7.73378 6.99587 8.00008C6.99587 8.26638 7.10165 8.52178 7.28996 8.71008L9.58996 11.0001L7.28996 13.2901C7.19623 13.383 7.12183 13.4936 7.07107 13.6155C7.0203 13.7374 6.99416 13.8681 6.99416 14.0001C6.99416 14.1321 7.0203 14.2628 7.07107 14.3847C7.12183 14.5065 7.19623 14.6171 7.28996 14.7101C7.38292 14.8038 7.49352 14.8782 7.61538 14.929C7.73724 14.9797 7.86795 15.0059 7.99996 15.0059C8.13197 15.0059 8.26267 14.9797 8.38453 14.929C8.50639 14.8782 8.61699 14.8038 8.70996 14.7101L11 12.4101L13.29 14.7101C13.3829 14.8038 13.4935 14.8782 13.6154 14.929C13.7372 14.9797 13.8679 15.0059 14 15.0059C14.132 15.0059 14.2627 14.9797 14.3845 14.929C14.5064 14.8782 14.617 14.8038 14.71 14.7101C14.8037 14.6171 14.8781 14.5065 14.9288 14.3847C14.9796 14.2628 15.0058 14.1321 15.0058 14.0001C15.0058 13.8681 14.9796 13.7374 14.9288 13.6155C14.8781 13.4936 14.8037 13.383 14.71 13.2901L12.41 11.0001L14.71 8.71008C14.8037 8.61712 14.8781 8.50652 14.9288 8.38466C14.9796 8.2628 15.0058 8.13209 15.0058 8.00008C15.0058 7.86807 14.9796 7.73736 14.9288 7.6155C14.8781 7.49364 14.8037 7.38304 14.71 7.29008ZM18.07 3.93008C17.1475 2.97498 16.044 2.21316 14.824 1.68907C13.604 1.16498 12.2918 0.889113 10.964 0.877575C9.63618 0.866037 8.31938 1.11905 7.09042 1.62186C5.86145 2.12467 4.74493 2.8672 3.80601 3.80613C2.86708 4.74506 2.12455 5.86158 1.62174 7.09054C1.11893 8.3195 0.865915 9.6363 0.877453 10.9641C0.888991 12.2919 1.16485 13.6041 1.68894 14.8241C2.21303 16.0442 2.97486 17.1476 3.92996 18.0701C4.85243 19.0252 5.95587 19.787 7.17591 20.3111C8.39595 20.8352 9.70815 21.111 11.0359 21.1226C12.3637 21.1341 13.6805 20.8811 14.9095 20.3783C16.1385 19.8755 17.255 19.133 18.1939 18.194C19.1328 17.2551 19.8754 16.1386 20.3782 14.9096C20.881 13.6807 21.134 12.3639 21.1225 11.0361C21.1109 9.70827 20.8351 8.39607 20.311 7.17603C19.7869 5.95599 19.0251 4.85255 18.07 3.93008ZM16.66 16.6601C15.352 17.9695 13.6305 18.7849 11.7888 18.9674C9.94701 19.1499 8.09896 18.6881 6.55948 17.6609C5.02 16.6336 3.88432 15.1043 3.34593 13.3336C2.80754 11.5628 2.89976 9.66022 3.60687 7.94986C4.31398 6.23951 5.59223 4.82723 7.22385 3.95364C8.85546 3.08006 10.7395 2.79921 12.555 3.15895C14.3704 3.5187 16.005 4.49677 17.1802 5.92654C18.3554 7.35631 18.9985 9.14932 19 11.0001C19.0035 12.0514 18.7985 13.0929 18.3969 14.0645C17.9952 15.036 17.4049 15.9182 16.66 16.6601Z"/>
</svg>
