<svg width="18" height="18" viewBox="0 0 24 24" fill="none" xmlns="http://www.w3.org/2000/svg">
<path d="M12 24C18.6274 24 24 18.6274 24 12C24 5.37258 18.6274 0 12 0C5.37258 0 0 5.37258 0 12C0 18.6274 5.37258 24 12 24Z" fill="#89C7F6"/>
<path d="M4.93406 10.1959C4.94852 10.1236 4.96731 10.0523 4.99033 9.98234C5.00192 9.94924 5.0135 9.91613 5.02675 9.88303C5.01185 9.92275 5.02675 9.89461 5.02675 9.87144C5.02675 9.84827 5.03999 9.8433 5.04826 9.82841C5.07981 9.76176 5.11633 9.69758 5.1575 9.63641C5.17406 9.60993 5.19392 9.5851 5.21212 9.55861C5.23033 9.53213 5.1873 9.58675 5.2204 9.54703L5.25681 9.50234C5.30236 9.44878 5.35099 9.39794 5.40247 9.35006L5.48192 9.28055L5.50509 9.26234L5.49185 9.27227L5.53157 9.24413C5.5883 9.20275 5.64806 9.16568 5.71033 9.13323L5.81295 9.08192C5.86095 9.05875 5.77157 9.09682 5.82454 9.08192L5.8775 9.06041C5.93794 9.04049 5.98843 8.99813 6.01854 8.94207C6.04865 8.886 6.05608 8.82052 6.0393 8.75914C6.02252 8.69775 5.98281 8.64515 5.92837 8.6122C5.87393 8.57925 5.80891 8.56846 5.74675 8.58206C5.42176 8.69948 5.13215 8.89794 4.90535 9.15863C4.67854 9.41932 4.52207 9.73361 4.45075 10.0717C4.43537 10.1344 4.44503 10.2007 4.47769 10.2564C4.51034 10.3121 4.56341 10.3529 4.62564 10.3701C4.68788 10.3873 4.75437 10.3796 4.81102 10.3487C4.86768 10.3177 4.91003 10.2658 4.92909 10.2041L4.93406 10.1959Z" fill="#1E82C0"/>
<path d="M7.28262 13.5724C8.10534 13.5724 8.77228 12.9055 8.77228 12.0828C8.77228 11.2601 8.10534 10.5931 7.28262 10.5931C6.45991 10.5931 5.79297 11.2601 5.79297 12.0828C5.79297 12.9055 6.45991 13.5724 7.28262 13.5724Z" fill="#1E82C0"/>
<path d="M19.7713 10.0635C19.6993 9.7256 19.5427 9.41159 19.3159 9.15099C19.0892 8.89039 18.7999 8.69176 18.4753 8.5738C18.4127 8.55617 18.3458 8.56359 18.2886 8.59449C18.2314 8.62539 18.1886 8.67733 18.169 8.73931C18.1532 8.80159 18.1614 8.86758 18.1921 8.92406C18.2228 8.98053 18.2737 9.02332 18.3346 9.04387L18.3875 9.06538C18.4488 9.08856 18.3412 9.04221 18.3991 9.06538C18.4306 9.08028 18.4637 9.09518 18.4935 9.11173C18.5561 9.14454 18.6163 9.18159 18.6739 9.22263L18.7119 9.25076C18.7583 9.28387 18.6838 9.22594 18.7235 9.25076L18.8096 9.32525C18.8609 9.37325 18.9106 9.42456 18.9569 9.47752L18.9867 9.51559L19.0049 9.53711C18.9884 9.51559 18.985 9.51062 18.995 9.52552C19.0049 9.54042 19.0364 9.5818 19.0562 9.61159C19.0942 9.67097 19.129 9.73229 19.1605 9.79531L19.1853 9.84663C19.1853 9.85656 19.2118 9.91614 19.1853 9.85821L19.2201 9.94759C19.2444 10.0207 19.2638 10.0953 19.278 10.171C19.2975 10.233 19.3404 10.285 19.3976 10.3159C19.4547 10.3468 19.5217 10.3542 19.5842 10.3366C19.6451 10.316 19.696 10.2732 19.7267 10.2167C19.7574 10.1603 19.7656 10.0943 19.7497 10.032L19.7713 10.0635Z" fill="#1E82C0"/>
<path d="M16.9425 13.5724C17.7653 13.5724 18.4322 12.9055 18.4322 12.0828C18.4322 11.2601 17.7653 10.5931 16.9425 10.5931C16.1198 10.5931 15.4529 11.2601 15.4529 12.0828C15.4529 12.9055 16.1198 13.5724 16.9425 13.5724Z" fill="#1E82C0"/>
<path d="M15.2623 16.9655C14.2272 16.6221 13.1216 16.5482 12.0501 16.7509C10.9785 16.9537 9.97627 17.4263 9.13818 18.1242" stroke="#1E82C0" stroke-width="0.993104" stroke-linecap="round" stroke-linejoin="round"/>
</svg>
