<svg width="18" height="18" viewBox="0 0 24 24" fill="none" xmlns="http://www.w3.org/2000/svg">
<path d="M12 24C18.6274 24 24 18.6274 24 12C24 5.37258 18.6274 0 12 0C5.37258 0 0 5.37258 0 12C0 18.6274 5.37258 24 12 24Z" fill="#89C7F6"/>
<path d="M18.4551 8.68967C17.9586 10.2356 14.3172 11.5035 14.8137 11.5035H18.1241" stroke="#1E82C0" stroke-width="0.827587" stroke-linecap="round" stroke-linejoin="round"/>
<path d="M5.71045 8.68967C6.207 10.2356 9.84838 11.5035 9.35183 11.5035M9.35183 11.5035H6.04148H9.35183Z" stroke="#1E82C0" stroke-width="0.827587" stroke-linecap="round" stroke-linejoin="round"/>
<path d="M8.34033 16.8099C8.50585 16.6014 9.78033 15.0273 11.9817 14.9893C14.2857 14.9495 15.6413 16.6196 15.7886 16.8099" stroke="#1E82C0" stroke-width="0.993104" stroke-miterlimit="10" stroke-linecap="round"/>
<path d="M21.2936 6.34097C21.2603 6.29044 21.215 6.24896 21.1617 6.22026C21.1084 6.19157 21.0488 6.17654 20.9883 6.17654C20.9277 6.17654 20.8681 6.19157 20.8148 6.22026C20.7615 6.24896 20.7162 6.29044 20.6829 6.34097C20.5008 6.67201 19.5872 8.32718 19.5872 8.96442C19.5996 9.32768 19.7527 9.6719 20.0141 9.92446C20.2755 10.177 20.6248 10.3182 20.9883 10.3182C21.3517 10.3182 21.701 10.177 21.9624 9.92446C22.2238 9.6719 22.3769 9.32768 22.3894 8.96442C22.3894 8.32387 21.4757 6.66704 21.2936 6.34097Z" fill="#03A9F4" stroke="#1E82C0" stroke-width="0.165517" stroke-miterlimit="10"/>
</svg>
