<svg width="18" height="18" viewBox="0 0 24 24" fill="none" xmlns="http://www.w3.org/2000/svg">
<path d="M12 24C18.6274 24 24 18.6274 24 12C24 5.37258 18.6274 0 12 0C5.37258 0 0 5.37258 0 12C0 18.6274 5.37258 24 12 24Z" fill="#89C7F6"/>
<path d="M8.31714 12.3277L8.48266 12.4932C8.51576 12.48 8.44128 12.4221 8.31714 12.3277Z" stroke="#1E82C0" stroke-width="0.662069" stroke-linecap="round" stroke-linejoin="round"/>
<path d="M8.31709 12.3277L7.26771 11.3346C7.77751 10.8762 8.26082 10.3415 8.43958 9.82843L7.11544 11.1906L5.73999 9.88305C5.93365 10.3912 6.44178 10.9043 6.96978 11.3413L5.95847 12.3757C6.19847 12.1871 6.6553 11.8577 7.11709 11.4571C7.6004 11.8378 8.07047 12.149 8.31709 12.3277Z" stroke="#1E82C0" stroke-width="0.827587" stroke-linecap="round" stroke-linejoin="round"/>
<path d="M5.79329 12.5462L5.9588 12.3807C5.83963 12.4734 5.77342 12.5346 5.79329 12.5462Z" stroke="#1E82C0" stroke-width="0.662069" stroke-linecap="round" stroke-linejoin="round"/>
<path d="M15.5208 12.3277L15.3553 12.4932C15.3221 12.48 15.3933 12.4221 15.5208 12.3277Z" stroke="#1E82C0" stroke-width="0.662069" stroke-linecap="round" stroke-linejoin="round"/>
<path d="M15.5204 12.3277L16.5698 11.3346C16.06 10.8762 15.5767 10.3415 15.3979 9.82843L16.7221 11.1906L18.0975 9.88305C17.9022 10.3912 17.3941 10.9043 16.8677 11.3413L17.8757 12.3757C17.6374 12.1871 17.1806 11.8577 16.7171 11.4571C16.2371 11.8378 15.7687 12.149 15.5204 12.3277Z" stroke="#1E82C0" stroke-width="0.827587" stroke-linecap="round" stroke-linejoin="round"/>
<path d="M18.0415 12.5462L17.876 12.3807C17.9985 12.4734 18.0647 12.5346 18.0415 12.5462Z" stroke="#1E82C0" stroke-width="0.662069" stroke-linecap="round" stroke-linejoin="round"/>
<path d="M12.0331 19.7926C13.3128 19.7926 14.3503 18.7551 14.3503 17.4753C14.3503 16.1955 13.3128 15.1581 12.0331 15.1581C10.7533 15.1581 9.71582 16.1955 9.71582 17.4753C9.71582 18.7551 10.7533 19.7926 12.0331 19.7926Z" fill="#1E82C0"/>
</svg>
