<svg width="18" height="18" viewBox="0 0 24 24" fill="none" xmlns="http://www.w3.org/2000/svg">
<path d="M12 24C18.6274 24 24 18.6274 24 12C24 5.37258 18.6274 0 12 0C5.37258 0 0 5.37258 0 12C0 18.6274 5.37258 24 12 24Z" fill="#89C7F6"/>
<path d="M4.93406 10.1959C4.94852 10.1237 4.96731 10.0524 4.99033 9.98237C5.00192 9.94927 5.0135 9.91616 5.02675 9.88306C5.01185 9.92278 5.02675 9.89465 5.02675 9.87147C5.02675 9.8483 5.03999 9.84333 5.04826 9.82844C5.07981 9.76179 5.11633 9.69761 5.1575 9.63644C5.17406 9.60996 5.19392 9.58513 5.21212 9.55865C5.23033 9.53216 5.1873 9.58678 5.2204 9.54706L5.25681 9.50237C5.30236 9.44881 5.35099 9.39797 5.40247 9.35009L5.48192 9.28058L5.50509 9.26237L5.49185 9.2723L5.53157 9.24416C5.5883 9.20278 5.64806 9.16571 5.71033 9.13327L5.81295 9.08195C5.86095 9.05878 5.77157 9.09685 5.82454 9.08195L5.8775 9.06044C5.93794 9.04052 5.98843 8.99816 6.01854 8.9421C6.04865 8.88603 6.05608 8.82055 6.0393 8.75917C6.02252 8.69778 5.98281 8.64518 5.92837 8.61223C5.87393 8.57928 5.80891 8.56849 5.74675 8.58209C5.42176 8.69951 5.13215 8.89797 4.90535 9.15866C4.67854 9.41936 4.52207 9.73365 4.45075 10.0717C4.43537 10.1345 4.44503 10.2007 4.47769 10.2564C4.51034 10.3121 4.56341 10.3529 4.62564 10.3701C4.68788 10.3874 4.75437 10.3797 4.81102 10.3487C4.86768 10.3177 4.91003 10.2659 4.92909 10.2042L4.93406 10.1959Z" fill="#1E82C0"/>
<path d="M7.28287 13.5725C8.10558 13.5725 8.77252 12.9055 8.77252 12.0828C8.77252 11.2601 8.10558 10.5931 7.28287 10.5931C6.46015 10.5931 5.79321 11.2601 5.79321 12.0828C5.79321 12.9055 6.46015 13.5725 7.28287 13.5725Z" fill="#1E82C0"/>
<path d="M19.771 10.0635C19.6991 9.72563 19.5424 9.41162 19.3157 9.15102C19.089 8.89042 18.7997 8.69179 18.475 8.57383C18.4125 8.5562 18.3455 8.56362 18.2884 8.59452C18.2312 8.62542 18.1883 8.67736 18.1688 8.73934C18.1529 8.80163 18.1611 8.86761 18.1918 8.92409C18.2225 8.98056 18.2734 9.02335 18.3343 9.0439L18.3873 9.06541C18.4485 9.08859 18.3409 9.04224 18.3989 9.06541C18.4303 9.08031 18.4634 9.09521 18.4932 9.11176C18.5558 9.14457 18.6161 9.18162 18.6736 9.22266L18.7117 9.25079C18.758 9.2839 18.6836 9.22597 18.7233 9.25079L18.8094 9.32528C18.8607 9.37328 18.9103 9.42459 18.9567 9.47755L18.9865 9.51562L19.0047 9.53714C18.9881 9.51562 18.9848 9.51066 18.9947 9.52555C19.0047 9.54045 19.0361 9.58183 19.056 9.61162C19.0939 9.671 19.1287 9.73232 19.1603 9.79535L19.1851 9.84666C19.1851 9.85659 19.2116 9.91617 19.1851 9.85824L19.2198 9.94762C19.2442 10.0207 19.2635 10.0954 19.2778 10.1711C19.2973 10.2331 19.3402 10.285 19.3973 10.3159C19.4545 10.3468 19.5214 10.3542 19.584 10.3366C19.6449 10.316 19.6958 10.2732 19.7265 10.2168C19.7572 10.1603 19.7654 10.0943 19.7495 10.032L19.771 10.0635Z" fill="#1E82C0"/>
<path d="M16.9423 13.5725C17.765 13.5725 18.4319 12.9055 18.4319 12.0828C18.4319 11.2601 17.765 10.5931 16.9423 10.5931C16.1196 10.5931 15.4526 11.2601 15.4526 12.0828C15.4526 12.9055 16.1196 13.5725 16.9423 13.5725Z" fill="#1E82C0"/>
</svg>
