<svg width="32" height="32" viewBox="0 0 32 32" fill="none" xmlns="http://www.w3.org/2000/svg">
<path d="M16 32C24.8366 32 32 24.8366 32 16C32 7.16344 24.8366 0 16 0C7.16344 0 0 7.16344 0 16C0 24.8366 7.16344 32 16 32Z" fill="#BFA0E6"/>
<path d="M8.49658 23.062C9.03286 22.5434 11.84 19.9283 16.2207 19.9724C19.0214 20.0219 21.7006 21.1251 23.7242 23.062" stroke="#8953C2" stroke-width="1.32414" stroke-miterlimit="10" stroke-linecap="round"/>
<path d="M24.607 11.5863C23.9449 13.6475 19.0897 15.338 19.7518 15.338H24.1656" stroke="#8953C2" stroke-width="1.10345" stroke-linecap="round" stroke-linejoin="round"/>
<path d="M7.61377 11.5863C8.27584 13.6475 13.131 15.338 12.4689 15.338M12.4689 15.338H8.05515H12.4689Z" stroke="#8953C2" stroke-width="1.10345" stroke-linecap="round" stroke-linejoin="round"/>
</svg>
