<svg width="18" height="20" viewBox="0 0 18 20" xmlns="http://www.w3.org/2000/svg">
<path fill-rule="evenodd" clip-rule="evenodd" d="M4 4V2C4 0.89543 4.89543 0 6 0H12C13.1046 0 14 0.895431 14 2V4H15C16.6569 4 18 5.34315 18 7V17C18 18.6569 16.6569 20 15 20H3C1.34315 20 0 18.6569 0 17V7C0 5.34315 1.34315 4 3 4H4ZM6 2H12V4H6V2ZM3 6C2.44772 6 2 6.44772 2 7V17C2 17.5523 2.44772 18 3 18H15C15.5523 18 16 17.5523 16 17V7C16 6.44772 15.5523 6 15 6H3Z" fill="white"/>
<path d="M9 8C8.44771 8 8 8.44772 8 9V11H6C5.44771 11 5 11.4477 5 12C5 12.5523 5.44771 13 6 13H8V15C8 15.5523 8.44771 16 9 16C9.55229 16 10 15.5523 10 15V13H12C12.5523 13 13 12.5523 13 12C13 11.4477 12.5523 11 12 11H10V9C10 8.44772 9.55229 8 9 8Z"/>
</svg>
