<svg viewBox="0 0 280 280" fill="none" xmlns="http://www.w3.org/2000/svg">
<g clip-path="url(#clip0)">
<mask id="path-1-inside-1" fill="white">
<path d="M140 0C108.176 0 77.3022 10.8422 52.466 30.7397C27.6299 50.6373 10.3138 78.4027 3.37165 109.46C-3.57047 140.517 0.275647 173.013 14.2761 201.591C28.2766 230.17 51.596 253.126 80.3909 266.676L98.2736 228.673C78.1172 219.188 61.7936 203.119 51.9933 183.114C42.193 163.109 39.5007 140.362 44.3602 118.622C49.2196 96.8819 61.3409 77.4461 78.7262 63.5178C96.1115 49.5896 117.723 42 140 42V0Z"/>
</mask>
<path d="M140 0C108.176 0 77.3022 10.8422 52.466 30.7397C27.6299 50.6373 10.3138 78.4027 3.37165 109.46C-3.57047 140.517 0.275647 173.013 14.2761 201.591C28.2766 230.17 51.596 253.126 80.3909 266.676L98.2736 228.673C78.1172 219.188 61.7936 203.119 51.9933 183.114C42.193 163.109 39.5007 140.362 44.3602 118.622C49.2196 96.8819 61.3409 77.4461 78.7262 63.5178C96.1115 49.5896 117.723 42 140 42V0Z" fill="#C4C4C8" stroke="#DEDEDE" stroke-width="2" mask="url(#path-1-inside-1)"/>
<mask id="path-2-inside-2" fill="white">
<path d="M276.002 105.611C282.602 131.344 281.744 158.425 273.528 183.689C265.312 208.953 250.077 231.358 229.602 248.287C209.128 265.216 184.259 275.969 157.901 279.292C131.543 282.615 104.784 278.369 80.7488 267.051L98.6416 229.053C115.466 236.976 134.198 239.948 152.648 237.622C171.099 235.296 188.507 227.768 202.839 215.918C217.171 204.068 227.836 188.385 233.587 170.7C239.338 153.015 239.939 134.058 235.319 116.045L276.002 105.611Z"/>
</mask>
<path d="M276.002 105.611C282.602 131.344 281.744 158.425 273.528 183.689C265.312 208.953 250.077 231.358 229.602 248.287C209.128 265.216 184.259 275.969 157.901 279.292C131.543 282.615 104.784 278.369 80.7488 267.051L98.6416 229.053C115.466 236.976 134.198 239.948 152.648 237.622C171.099 235.296 188.507 227.768 202.839 215.918C217.171 204.068 227.836 188.385 233.587 170.7C239.338 153.015 239.939 134.058 235.319 116.045L276.002 105.611Z" fill="#A3A5A7" stroke="#DEDEDE" stroke-width="2" mask="url(#path-2-inside-2)"/>
<mask id="path-3-inside-3" fill="white">
<path d="M140 0C171.07 0 201.257 10.3354 225.807 29.3783C250.357 48.4212 267.875 75.0897 275.602 105.183L234.921 115.628C229.512 94.5628 217.25 75.8949 200.065 62.5648C182.88 49.2348 161.749 42 140 42V0Z"/>
</mask>
<path d="M140 0C171.07 0 201.257 10.3354 225.807 29.3783C250.357 48.4212 267.875 75.0897 275.602 105.183L234.921 115.628C229.512 94.5628 217.25 75.8949 200.065 62.5648C182.88 49.2348 161.749 42 140 42V0Z" fill="#939393" stroke="#DEDEDE" stroke-width="2" mask="url(#path-3-inside-3)"/>
</g>
<defs>
<clipPath id="clip0">
<rect width="280" height="280" fill="white"/>
</clipPath>
</defs>
</svg>
