<svg width="25" height="24" viewBox="0 0 25 24" fill="none" xmlns="http://www.w3.org/2000/svg">
<g clip-path="url(#clip0_4_17482)">
<path d="M12.9957 24C19.6231 24 24.9957 18.6274 24.9957 12C24.9957 5.37258 19.6231 0 12.9957 0C6.36831 0 0.995728 5.37258 0.995728 12C0.995728 18.6274 6.36831 24 12.9957 24Z" fill="#FFD95E"/>
<path d="M16.7536 16.1362C16.6692 20.0126 9.30536 20.0126 9.22095 16.1362H16.7536Z" fill="#5C7C30" stroke="#5C7C30" stroke-width="0.331035" stroke-linecap="round" stroke-linejoin="round"/>
<path d="M6.95463 12.4138L9.76842 11.7517C9.76842 11.7517 9.60291 9.76551 7.94774 10.0965C6.29256 10.4276 6.95463 12.4138 6.95463 12.4138Z" fill="#5C7C30" stroke="#5C7C30" stroke-width="0.0413793" stroke-linecap="round" stroke-linejoin="round"/>
<path d="M6.15588 8.89987C6.29557 8.63118 6.50231 8.40313 6.75605 8.23784C7.00979 8.07254 7.30193 7.9756 7.60416 7.95642" fill="#5C7C30"/>
<path d="M6.36926 9.02404C6.40378 8.9596 6.44191 8.89716 6.48346 8.83701L6.51657 8.79232C6.53312 8.76915 6.49505 8.81715 6.51657 8.78239C6.53808 8.74763 6.56291 8.72611 6.58774 8.69963C6.6367 8.64651 6.68865 8.59622 6.74332 8.54901L6.7847 8.51425C6.8145 8.48777 6.74001 8.54735 6.79463 8.51425C6.82443 8.49273 6.85422 8.47121 6.88401 8.45301C6.94334 8.41355 7.00528 8.37816 7.06939 8.34708L7.10746 8.32887C7.10746 8.32887 7.17863 8.30073 7.12732 8.31894L7.2167 8.28584C7.28291 8.26432 7.35243 8.24611 7.42029 8.23121H7.47325C7.52125 8.22128 7.44843 8.23121 7.47325 8.23121C7.49808 8.23121 7.54939 8.22294 7.58912 8.22128C7.65496 8.22128 7.71811 8.19513 7.76467 8.14857C7.81124 8.102 7.83739 8.03885 7.83739 7.97301C7.83739 7.90716 7.81124 7.84401 7.76467 7.79745C7.71811 7.75089 7.65496 7.72473 7.58912 7.72473C7.24528 7.74672 6.91276 7.85618 6.62309 8.04273C6.33342 8.22927 6.09621 8.48672 5.93394 8.79066C5.9036 8.84734 5.89642 8.91358 5.91392 8.97544C5.93142 9.0373 5.97223 9.08997 6.02777 9.12235C6.08331 9.15473 6.14925 9.1643 6.2117 9.14905C6.27416 9.13381 6.32826 9.09493 6.36263 9.04059L6.36926 9.02404Z" fill="#5C7C30"/>
<path d="M18.9215 12.4022L16.1077 11.7401C16.1077 11.7401 16.2732 9.75391 17.9284 10.0849C19.5835 10.416 18.9215 12.4022 18.9215 12.4022Z" fill="#5C7C30" stroke="#5C7C30" stroke-width="0.0413793" stroke-linecap="round" stroke-linejoin="round"/>
<path d="M19.6471 8.89324C19.508 8.62372 19.3015 8.39476 19.0477 8.22858C18.7939 8.06241 18.5015 7.96466 18.1989 7.94482" fill="#5C7C30"/>
<path d="M19.8654 8.77235C19.7036 8.46801 19.4665 8.21022 19.1767 8.02361C18.887 7.837 18.5542 7.72779 18.2102 7.70642C18.1443 7.70642 18.0812 7.73258 18.0346 7.77914C17.9881 7.8257 17.9619 7.88885 17.9619 7.9547C17.9619 8.02054 17.9881 8.08369 18.0346 8.13025C18.0812 8.17681 18.1443 8.20297 18.2102 8.20297L18.3145 8.21125C18.3823 8.21125 18.2847 8.21125 18.3227 8.21125L18.3741 8.22118C18.4435 8.23474 18.512 8.25243 18.5793 8.27415L18.6786 8.31056C18.6455 8.29732 18.667 8.31056 18.6786 8.31056L18.7266 8.33208C18.7909 8.36379 18.8534 8.39916 18.9136 8.43801L19.0014 8.49925C19.0196 8.51249 19.0212 8.5158 19.0014 8.49925L19.051 8.54063C19.1034 8.58508 19.1532 8.63261 19.2 8.68297L19.2728 8.76408C19.2844 8.77897 19.3026 8.80214 19.2728 8.77401L19.3043 8.8187C19.3486 8.88176 19.389 8.94755 19.4251 9.01566C19.4574 9.07405 19.5115 9.11722 19.5756 9.13569C19.6397 9.15416 19.7085 9.14641 19.7669 9.11414C19.8253 9.08188 19.8684 9.02774 19.8869 8.96364C19.9054 8.89955 19.8976 8.83074 19.8654 8.77235V8.77235Z" fill="#5C7C30"/>
</g>
<defs>
<clipPath id="clip0_4_17482">
<rect width="24" height="24" fill="white" transform="translate(0.995728)"/>
</clipPath>
</defs>
</svg>
