<svg width="25" height="24" viewBox="0 0 25 24" fill="none" xmlns="http://www.w3.org/2000/svg">
<g clip-path="url(#clip0_4_17457)">
<path d="M12.9957 24C19.6231 24 24.9957 18.6274 24.9957 12C24.9957 5.37258 19.6231 0 12.9957 0C6.36831 0 0.995728 5.37258 0.995728 12C0.995728 18.6274 6.36831 24 12.9957 24Z" fill="#FFD95E"/>
<path d="M15.0897 12.0827H10.8988C10.8227 12.0827 10.7598 11.7517 10.7598 11.3329C10.7598 10.9142 10.8227 10.5831 10.8988 10.5831H15.0897C15.1658 10.5831 15.2287 10.9142 15.2287 11.3329C15.2287 11.7517 15.1658 12.0827 15.0897 12.0827Z" fill="#303030"/>
<path d="M17.8241 14.8138C17.1367 14.8138 16.4646 14.6099 15.893 14.228C15.3214 13.8461 14.8759 13.3032 14.6129 12.6681C14.3498 12.0329 14.2809 11.3341 14.4151 10.6598C14.5492 9.98557 14.8802 9.36623 15.3663 8.88012C15.8524 8.39401 16.4718 8.06297 17.146 7.92885C17.8203 7.79473 18.5192 7.86357 19.1543 8.12665C19.7894 8.38973 20.3323 8.83524 20.7142 9.40684C21.0961 9.97844 21.3 10.6505 21.3 11.3379C21.3 12.2598 20.9338 13.1439 20.2819 13.7957C19.6301 14.4476 18.746 14.8138 17.8241 14.8138ZM17.8241 9.25241C17.4117 9.25241 17.0084 9.37472 16.6655 9.60388C16.3225 9.83304 16.0552 10.1588 15.8974 10.5398C15.7395 10.9209 15.6982 11.3402 15.7787 11.7448C15.8592 12.1493 16.0578 12.5209 16.3494 12.8126C16.6411 13.1043 17.0127 13.3029 17.4173 13.3834C17.8218 13.4638 18.2411 13.4225 18.6222 13.2647C19.0033 13.1068 19.329 12.8395 19.5582 12.4966C19.7873 12.1536 19.9096 11.7504 19.9096 11.3379C19.9088 10.7851 19.6888 10.2551 19.2978 9.86421C18.9069 9.47329 18.377 9.25328 17.8241 9.25241Z" fill="#303030"/>
<path d="M8.16007 14.8138C7.47261 14.8138 6.80058 14.6099 6.22898 14.228C5.65738 13.8461 5.21187 13.3032 4.94879 12.6681C4.68571 12.0329 4.61688 11.3341 4.75099 10.6598C4.88511 9.98557 5.21615 9.36623 5.70226 8.88012C6.18837 8.39401 6.80771 8.06297 7.48196 7.92885C8.15621 7.79473 8.85509 7.86357 9.49022 8.12665C10.1254 8.38973 10.6682 8.83524 11.0501 9.40684C11.4321 9.97844 11.6359 10.6505 11.6359 11.3379C11.6359 12.2598 11.2697 13.1439 10.6179 13.7957C9.96602 14.4476 9.08192 14.8138 8.16007 14.8138ZM8.16007 9.25241C7.74759 9.25241 7.34438 9.37472 7.00142 9.60388C6.65846 9.83304 6.39115 10.1588 6.2333 10.5398C6.07545 10.9209 6.03415 11.3402 6.11462 11.7448C6.19509 12.1493 6.39372 12.5209 6.68538 12.8126C6.97705 13.1043 7.34865 13.3029 7.7532 13.3834C8.15775 13.4638 8.57708 13.4225 8.95816 13.2647C9.33924 13.1068 9.66495 12.8395 9.89411 12.4966C10.1233 12.1536 10.2456 11.7504 10.2456 11.3379C10.2447 10.7851 10.0247 10.2551 9.63378 9.86421C9.24286 9.47329 8.71291 9.25328 8.16007 9.25241Z" fill="#303030"/>
<path d="M17.1906 16.2306C17.0962 20.5489 8.89152 20.5473 8.79883 16.2306H17.1906Z" fill="#5C7C30" stroke="#5C7C30" stroke-width="0.331035" stroke-linecap="round" stroke-linejoin="round"/>
<path d="M6.37667 7.70981C6.39653 7.67836 6.4164 7.64526 6.43791 7.61547L6.46274 7.5774C6.50412 7.51947 6.44619 7.59726 6.47267 7.56581C6.51692 7.50749 6.56503 7.45219 6.61667 7.4003L6.69115 7.33243L6.73419 7.29602C6.76895 7.26623 6.72426 7.29602 6.74743 7.28609C6.80536 7.24471 6.86329 7.20499 6.92619 7.16857C6.98909 7.13216 7.04536 7.10567 7.10826 7.07754C7.06522 7.0974 7.10826 7.07754 7.1215 7.07754L7.17447 7.05767C7.20646 7.04601 7.23906 7.03606 7.27212 7.02788C7.34062 7.00815 7.41027 6.99268 7.48067 6.98154H7.49226H7.54853H7.66109C7.72693 6.98154 7.79008 6.95538 7.83664 6.90882C7.8832 6.86226 7.90936 6.79911 7.90936 6.73326C7.90936 6.66741 7.8832 6.60426 7.83664 6.5577C7.79008 6.51114 7.72693 6.48499 7.66109 6.48499C7.31586 6.49046 6.97765 6.58335 6.67806 6.755C6.37847 6.92665 6.12729 7.17144 5.94798 7.4665C5.91763 7.52318 5.91045 7.58942 5.92795 7.65128C5.94545 7.71314 5.98627 7.76581 6.04181 7.79819C6.09735 7.83057 6.16328 7.84014 6.22574 7.82489C6.2882 7.80965 6.3423 7.77076 6.37667 7.71643V7.70981Z" fill="#5C7C30"/>
<path d="M8.11125 12.7448C8.84255 12.7448 9.43539 12.152 9.43539 11.4207C9.43539 10.6894 8.84255 10.0966 8.11125 10.0966C7.37995 10.0966 6.78711 10.6894 6.78711 11.4207C6.78711 12.152 7.37995 12.7448 8.11125 12.7448Z" fill="#5C7C30"/>
<path d="M19.9827 7.47975C19.8107 7.18027 19.5657 6.92923 19.2705 6.75007C18.9753 6.57091 18.6395 6.46946 18.2944 6.4552C18.2286 6.4552 18.1654 6.48136 18.1189 6.52792C18.0723 6.57448 18.0461 6.63763 18.0461 6.70348C18.0461 6.76932 18.0723 6.83247 18.1189 6.87903C18.1654 6.92559 18.2286 6.95175 18.2944 6.95175H18.4037H18.4368H18.4682C18.5371 6.9636 18.6052 6.98019 18.6718 7.00141L18.7645 7.03286L18.8257 7.05603C18.8042 7.04775 18.8075 7.04775 18.8257 7.05603C18.8925 7.08694 18.9577 7.12119 19.021 7.15865L19.1038 7.21327L19.1485 7.24472C19.1866 7.2712 19.1386 7.23479 19.1601 7.24472C19.2141 7.28853 19.2655 7.33551 19.314 7.38541C19.3405 7.41023 19.3653 7.43837 19.3885 7.46486C19.4117 7.49134 19.4117 7.49465 19.4249 7.50789C19.4381 7.52113 19.3918 7.46154 19.4249 7.51782C19.4681 7.57733 19.5079 7.63922 19.5441 7.7032C19.5779 7.75935 19.6322 7.80011 19.6956 7.8168C19.7589 7.8335 19.8263 7.82481 19.8834 7.79258C19.9393 7.7582 19.9799 7.70356 19.9965 7.64004C20.0132 7.57651 20.0047 7.50902 19.9728 7.45161L19.9827 7.47975Z" fill="#5C7C30"/>
<path d="M17.8312 12.7448C18.5625 12.7448 19.1554 12.152 19.1554 11.4207C19.1554 10.6894 18.5625 10.0966 17.8312 10.0966C17.0999 10.0966 16.5071 10.6894 16.5071 11.4207C16.5071 12.152 17.0999 12.7448 17.8312 12.7448Z" fill="#5C7C30"/>
</g>
<defs>
<clipPath id="clip0_4_17457">
<rect width="24" height="24" fill="white" transform="translate(0.995728)"/>
</clipPath>
</defs>
</svg>
