<svg width="25" height="24" viewBox="0 0 25 24" fill="none" xmlns="http://www.w3.org/2000/svg">
<g clip-path="url(#clip0_4_17534)">
<path d="M12.9957 24C19.6231 24 24.9957 18.6274 24.9957 12C24.9957 5.37258 19.6231 0 12.9957 0C6.36831 0 0.995728 5.37258 0.995728 12C0.995728 18.6274 6.36831 24 12.9957 24Z" fill="#FFD95E"/>
<path d="M17.1924 15.8995C17.098 20.2179 8.89335 20.2162 8.80066 15.8995H17.1924Z" fill="#5C7C30" stroke="#5C7C30" stroke-width="0.331035" stroke-linecap="round" stroke-linejoin="round"/>
<path d="M6.39153 8.88991C6.42775 8.82594 6.46754 8.76405 6.51071 8.70453C6.52395 8.68798 6.52891 8.68467 6.51071 8.70453L6.54546 8.6615L6.61995 8.5804C6.6696 8.53074 6.72091 8.4844 6.77388 8.43971C6.82684 8.39502 6.75236 8.4546 6.78546 8.43971L6.83015 8.40826C6.85995 8.38674 6.8914 8.36688 6.92284 8.34702C6.98175 8.31025 7.04314 8.27762 7.10657 8.24936C7.10657 8.24936 7.16284 8.22453 7.11815 8.24936L7.16946 8.2295L7.26215 8.1964C7.33228 8.17521 7.40357 8.15807 7.47567 8.14509H7.51871H7.53029C7.57002 8.14509 7.60974 8.14509 7.65112 8.13681C7.71697 8.13681 7.78012 8.11065 7.82668 8.06409C7.87324 8.01753 7.89939 7.95438 7.89939 7.88853C7.89939 7.82269 7.87324 7.75954 7.82668 7.71298C7.78012 7.66642 7.71697 7.64026 7.65112 7.64026C7.30835 7.65164 6.97395 7.74901 6.67865 7.92341C6.38335 8.09781 6.13664 8.34365 5.96119 8.63833C5.94467 8.66648 5.93386 8.6976 5.92937 8.72993C5.92488 8.76226 5.9268 8.79515 5.93502 8.82674C5.94324 8.85832 5.95761 8.88798 5.97729 8.91401C5.99697 8.94004 6.02159 8.96195 6.04974 8.97847C6.07789 8.99499 6.10901 9.0058 6.14134 9.01029C6.17367 9.01478 6.20656 9.01286 6.23815 9.00463C6.26973 8.99641 6.29939 8.98205 6.32542 8.96236C6.35146 8.94268 6.37336 8.91806 6.38988 8.88991H6.39153Z" fill="#5C7C30"/>
<path d="M8.11197 12.9103C8.93468 12.9103 9.60163 12.2434 9.60163 11.4207C9.60163 10.598 8.93468 9.93103 8.11197 9.93103C7.28926 9.93103 6.62231 10.598 6.62231 11.4207C6.62231 12.2434 7.28926 12.9103 8.11197 12.9103Z" fill="#5C7C30"/>
<path d="M19.9833 8.63832C19.8114 8.33884 19.5663 8.0878 19.2711 7.90864C18.9759 7.72948 18.6401 7.62803 18.295 7.61377C18.2292 7.61377 18.166 7.63993 18.1195 7.68649C18.0729 7.73305 18.0468 7.7962 18.0468 7.86205C18.0468 7.92789 18.0729 7.99104 18.1195 8.0376C18.166 8.08416 18.2292 8.11032 18.295 8.11032H18.4043H18.4374H18.4688C18.5377 8.12217 18.6058 8.13876 18.6724 8.15998L18.7651 8.19142L18.8263 8.2146C18.8048 8.20632 18.8081 8.20632 18.8263 8.2146C18.8931 8.24551 18.9583 8.27976 19.0217 8.31722L19.1044 8.37184L19.1491 8.40329C19.1872 8.42977 19.1392 8.39336 19.1607 8.40329C19.2147 8.4471 19.2661 8.49408 19.3146 8.54398C19.3411 8.5688 19.3659 8.59694 19.3891 8.62342C19.4123 8.64991 19.4123 8.65322 19.4255 8.66646C19.4388 8.6797 19.3924 8.62011 19.4255 8.67639C19.4687 8.7359 19.5085 8.79779 19.5447 8.86177C19.5785 8.91792 19.6328 8.95868 19.6962 8.97537C19.7596 8.99207 19.8269 8.98338 19.884 8.95115C19.9399 8.91677 19.9805 8.86213 19.9971 8.79861C20.0138 8.73508 20.0053 8.66759 19.9734 8.61018L19.9833 8.63832Z" fill="#5C7C30"/>
<path d="M17.8321 12.9103C18.6548 12.9103 19.3217 12.2434 19.3217 11.4207C19.3217 10.598 18.6548 9.93103 17.8321 9.93103C17.0093 9.93103 16.3424 10.598 16.3424 11.4207C16.3424 12.2434 17.0093 12.9103 17.8321 12.9103Z" fill="#5C7C30"/>
</g>
<defs>
<clipPath id="clip0_4_17534">
<rect width="24" height="24" fill="white" transform="translate(0.995728)"/>
</clipPath>
</defs>
</svg>
