<svg width="25" height="24" viewBox="0 0 25 24" fill="none" xmlns="http://www.w3.org/2000/svg">
<g clip-path="url(#clip0_4_17566)">
<path d="M12.9957 24C19.6231 24 24.9957 18.6274 24.9957 12C24.9957 5.37258 19.6231 0 12.9957 0C6.36831 0 0.995728 5.37258 0.995728 12C0.995728 18.6274 6.36831 24 12.9957 24Z" fill="#FFD95E"/>
<path d="M17.0492 16.0552C16.9548 20.3735 8.75182 20.3735 8.65747 16.0552H17.0492Z" fill="#5C7C30" stroke="#5C7C30" stroke-width="0.331035" stroke-linecap="round" stroke-linejoin="round"/>
<path d="M6.8645 11.2386C8.07278 11.7584 10.6714 10.9589 10.6168 11.0946Z" fill="#5C7C30"/>
<path d="M6.8645 11.2386C8.07278 11.7584 10.6714 10.9589 10.6168 11.0946" stroke="#5C7C30" stroke-width="0.827586" stroke-linecap="round" stroke-linejoin="round"/>
<path d="M6.03894 8.90813C6.21305 8.61826 6.45829 8.37763 6.75142 8.20906C7.04455 8.04048 7.37586 7.94953 7.71397 7.94482" fill="#5C7C30"/>
<path d="M6.25344 9.03393C6.27496 8.99751 6.29813 8.9611 6.3213 8.92634L6.3511 8.88496C6.39744 8.82041 6.3362 8.90151 6.36599 8.86675C6.4167 8.8037 6.47203 8.7445 6.53151 8.68965C6.63521 8.58479 6.75405 8.49608 6.88406 8.42648C6.94912 8.38801 7.01657 8.35374 7.08599 8.32386C7.05289 8.33875 7.10255 8.32386 7.10917 8.32386L7.16875 8.30234L7.27634 8.26924C7.35321 8.2482 7.43111 8.23107 7.50972 8.21793C7.47496 8.21793 7.51799 8.21793 7.53124 8.21793H7.59413H7.71993C7.78577 8.21793 7.84892 8.19177 7.89548 8.14521C7.94204 8.09865 7.9682 8.0355 7.9682 7.96965C7.9682 7.9038 7.94204 7.84065 7.89548 7.79409C7.84892 7.74753 7.78577 7.72137 7.71993 7.72137C7.33903 7.72727 6.96586 7.82966 6.63529 8.01897C6.30472 8.20828 6.02756 8.47832 5.82972 8.80386C5.8132 8.832 5.80239 8.86313 5.7979 8.89546C5.79341 8.92779 5.79533 8.96068 5.80355 8.99227C5.81177 9.02385 5.82614 9.05351 5.84582 9.07954C5.8655 9.10557 5.89012 9.12748 5.91827 9.14399C5.94642 9.16051 5.97754 9.17133 6.00987 9.17582C6.0422 9.18031 6.07509 9.17839 6.10668 9.17016C6.13826 9.16194 6.16792 9.14758 6.19395 9.12789C6.21999 9.10821 6.24189 9.08359 6.25841 9.05544L6.25344 9.03393Z" fill="#5C7C30"/>
<path d="M18.9705 11.2386C17.7623 11.7584 15.1636 10.9589 15.2183 11.0946Z" fill="#5C7C30"/>
<path d="M18.9705 11.2386C17.7623 11.7584 15.1636 10.9589 15.2183 11.0946" stroke="#5C7C30" stroke-width="0.827586" stroke-linecap="round" stroke-linejoin="round"/>
<path d="M19.7964 8.90813C19.6222 8.61802 19.3767 8.37725 19.0832 8.20866C18.7898 8.04007 18.4581 7.94925 18.1198 7.94482" fill="#5C7C30"/>
<path d="M20.0095 8.78237C19.8117 8.45673 19.5346 8.1866 19.204 7.99728C18.8734 7.80795 18.5002 7.70563 18.1192 7.69989C18.0534 7.69989 17.9903 7.72605 17.9437 7.77261C17.8971 7.81917 17.871 7.88232 17.871 7.94817C17.871 8.01401 17.8971 8.07716 17.9437 8.12372C17.9903 8.17028 18.0534 8.19644 18.1192 8.19644C18.1606 8.19644 18.2037 8.19644 18.245 8.19644H18.2964H18.3377H18.3791L18.4288 8.20637C18.4701 8.20637 18.5115 8.22458 18.5512 8.23617C18.6941 8.27009 18.8309 8.32592 18.9568 8.40168C19.0213 8.4381 19.0842 8.48113 19.1471 8.52417C19.21 8.5672 19.1306 8.51092 19.167 8.53906L19.215 8.57879L19.2994 8.65492C19.358 8.71065 19.4133 8.76979 19.4649 8.83203C19.4897 8.86182 19.4649 8.83203 19.4798 8.85024L19.5162 8.90155C19.541 8.9363 19.5626 8.97272 19.5841 9.00913C19.6174 9.06598 19.672 9.10725 19.7358 9.12385C19.7996 9.14046 19.8674 9.13105 19.9242 9.09768C19.9811 9.06432 20.0223 9.00974 20.0389 8.94595C20.0555 8.88217 20.0461 8.81439 20.0128 8.75755L20.0095 8.78237Z" fill="#5C7C30"/>
</g>
<defs>
<clipPath id="clip0_4_17566">
<rect width="24" height="24" fill="white" transform="translate(0.995728)"/>
</clipPath>
</defs>
</svg>
