<svg width="25" height="24" viewBox="0 0 25 24" fill="none" xmlns="http://www.w3.org/2000/svg">
<g clip-path="url(#clip0_4_17504)">
<path d="M12.9957 24C19.6231 24 24.9957 18.6274 24.9957 12C24.9957 5.37258 19.6231 0 12.9957 0C6.36831 0 0.995728 5.37258 0.995728 12C0.995728 18.6274 6.36831 24 12.9957 24Z" fill="#FFD95E"/>
<path d="M16.7527 16.1362C16.6682 20.0126 9.30438 20.0126 9.21997 16.1362H16.7527Z" fill="#5C7C30" stroke="#5C7C30" stroke-width="0.331035" stroke-linecap="round" stroke-linejoin="round"/>
<path d="M9.8255 10.7305C9.46962 10.73 9.12845 10.5885 8.8768 10.3368C8.62516 10.0852 8.4836 9.744 8.48316 9.38812C8.48316 9.29901 8.44776 9.21355 8.38475 9.15054C8.32173 9.08752 8.23627 9.05212 8.14716 9.05212C8.05804 9.05212 7.97258 9.08752 7.90957 9.15054C7.84656 9.21355 7.81116 9.29901 7.81116 9.38812C7.81072 9.744 7.66915 10.0852 7.41751 10.3368C7.16587 10.5885 6.82469 10.73 6.46881 10.7305C6.3797 10.7305 6.29424 10.7659 6.23122 10.8289C6.16821 10.8919 6.13281 10.9774 6.13281 11.0665C6.13281 11.1556 6.16821 11.241 6.23122 11.3041C6.29424 11.3671 6.3797 11.4025 6.46881 11.4025C6.82469 11.4029 7.16587 11.5445 7.41751 11.7961C7.66915 12.0478 7.81072 12.3889 7.81116 12.7448C7.81116 12.8339 7.84656 12.9194 7.90957 12.9824C7.97258 13.0454 8.05804 13.0808 8.14716 13.0808C8.23627 13.0808 8.32173 13.0454 8.38475 12.9824C8.44776 12.9194 8.48316 12.8339 8.48316 12.7448C8.48316 12.3888 8.62458 12.0474 8.87632 11.7956C9.12806 11.5439 9.46949 11.4025 9.8255 11.4025C9.91461 11.4025 10.0001 11.3671 10.0631 11.3041C10.1261 11.241 10.1615 11.1556 10.1615 11.0665C10.1615 10.9774 10.1261 10.8919 10.0631 10.8289C10.0001 10.7659 9.91461 10.7305 9.8255 10.7305Z" fill="#5C7C30" stroke="#5C7C30" stroke-width="0.165517" stroke-miterlimit="10"/>
<path d="M19.2617 10.7305C18.9058 10.73 18.5646 10.5885 18.313 10.3368C18.0613 10.0852 17.9198 9.744 17.9193 9.38812C17.9193 9.29901 17.8839 9.21355 17.8209 9.15054C17.7579 9.08752 17.6724 9.05212 17.5833 9.05212C17.4942 9.05212 17.4087 9.08752 17.3457 9.15054C17.2827 9.21355 17.2473 9.29901 17.2473 9.38812C17.2469 9.744 17.1053 10.0852 16.8537 10.3368C16.602 10.5885 16.2608 10.73 15.905 10.7305C15.8159 10.7305 15.7304 10.7659 15.6674 10.8289C15.6044 10.8919 15.569 10.9774 15.569 11.0665C15.569 11.1556 15.6044 11.241 15.6674 11.3041C15.7304 11.3671 15.8159 11.4025 15.905 11.4025C16.2608 11.4029 16.602 11.5445 16.8537 11.7961C17.1053 12.0478 17.2469 12.3889 17.2473 12.7448C17.2473 12.8339 17.2827 12.9194 17.3457 12.9824C17.4087 13.0454 17.4942 13.0808 17.5833 13.0808C17.6724 13.0808 17.7579 13.0454 17.8209 12.9824C17.8839 12.9194 17.9193 12.8339 17.9193 12.7448C17.9193 12.3888 18.0607 12.0474 18.3125 11.7956C18.5642 11.5439 18.9056 11.4025 19.2617 11.4025C19.3508 11.4025 19.4362 11.3671 19.4992 11.3041C19.5623 11.241 19.5977 11.1556 19.5977 11.0665C19.5977 10.9774 19.5623 10.8919 19.4992 10.8289C19.4362 10.7659 19.3508 10.7305 19.2617 10.7305V10.7305Z" fill="#5C7C30" stroke="#5C7C30" stroke-width="0.165517" stroke-miterlimit="10"/>
</g>
<defs>
<clipPath id="clip0_4_17504">
<rect width="24" height="24" fill="white" transform="translate(0.995728)"/>
</clipPath>
</defs>
</svg>
