<svg width="25" height="24" viewBox="0 0 25 24" fill="none" xmlns="http://www.w3.org/2000/svg">
<g clip-path="url(#clip0_4_17470)">
<path d="M12.9957 24C19.6231 24 24.9957 18.6274 24.9957 12C24.9957 5.37258 19.6231 0 12.9957 0C6.36831 0 0.995728 5.37258 0.995728 12C0.995728 18.6274 6.36831 24 12.9957 24Z" fill="#FFD95E"/>
<path d="M16.7527 16.1362C16.6682 20.0126 9.30438 20.0126 9.21997 16.1362H16.7527Z" fill="#5C7C30" stroke="#5C7C30" stroke-width="0.331035" stroke-linecap="round" stroke-linejoin="round"/>
<path d="M6.955 12.4138L9.76879 11.7517C9.76879 11.7517 9.60327 9.76551 7.9481 10.0965C6.29293 10.4276 6.955 12.4138 6.955 12.4138Z" fill="#5C7C30" stroke="#5C7C30" stroke-width="0.0413793" stroke-linecap="round" stroke-linejoin="round"/>
<path d="M6.45827 9.04218C6.4831 8.98094 6.4351 9.08853 6.45827 9.02894L6.4831 8.97432C6.498 8.94453 6.51289 8.91474 6.52944 8.8866C6.56491 8.82306 6.60415 8.76171 6.64696 8.70287C6.64696 8.70287 6.69331 8.6466 6.64696 8.69129L6.68503 8.6466L6.74958 8.57377C6.80148 8.51905 6.85676 8.46764 6.9151 8.41984C6.93662 8.40329 6.94489 8.39667 6.9151 8.41984L6.96144 8.38674L7.05082 8.32715C7.11061 8.28994 7.17251 8.25623 7.2362 8.22618C7.26268 8.2146 7.26765 8.21294 7.2362 8.22618L7.28917 8.20632C7.32227 8.19308 7.35537 8.18149 7.38848 8.17156C7.46351 8.14943 7.53978 8.13174 7.61689 8.1186C7.67875 8.09944 7.73067 8.05688 7.76159 7.99999C7.79251 7.94309 7.79998 7.87637 7.78241 7.81405C7.76352 7.75125 7.72116 7.69815 7.66413 7.66579C7.60711 7.63342 7.5398 7.62427 7.4762 7.64025C7.13728 7.70524 6.82069 7.85608 6.55669 8.07835C6.2927 8.30061 6.09013 8.58687 5.96834 8.90977C5.95105 8.97341 5.95961 9.04131 5.99216 9.09867C6.02472 9.15603 6.07862 9.19819 6.14213 9.21598C6.20463 9.23194 6.27085 9.22377 6.3276 9.19309C6.38435 9.16242 6.42746 9.11149 6.44834 9.05046L6.45827 9.04218Z" fill="#5C7C30"/>
<path d="M5.92547 16.8016C6.56535 16.8016 7.08409 16.2829 7.08409 15.643C7.08409 15.0031 6.56535 14.4844 5.92547 14.4844C5.28558 14.4844 4.76685 15.0031 4.76685 15.643C4.76685 16.2829 5.28558 16.8016 5.92547 16.8016Z" fill="#D86480" stroke="#B94A5B" stroke-width="0.0827586" stroke-miterlimit="10"/>
<path d="M18.9205 12.4022L16.1067 11.7401C16.1067 11.7401 16.2722 9.75391 17.9274 10.0849C19.5826 10.416 18.9205 12.4022 18.9205 12.4022Z" fill="#5C7C30" stroke="#5C7C30" stroke-width="0.0413793" stroke-linecap="round" stroke-linejoin="round"/>
<path d="M19.8304 8.90487C19.709 8.58172 19.5066 8.29522 19.2425 8.07289C18.9785 7.85057 18.6616 7.6999 18.3225 7.63536C18.2603 7.61946 18.1943 7.62769 18.1378 7.65838C18.0813 7.68907 18.0385 7.73997 18.018 7.80087C18.0008 7.86319 18.0085 7.92972 18.0394 7.9865C18.0702 8.04329 18.1219 8.08591 18.1835 8.10543C18.253 8.11701 18.3209 8.13191 18.3887 8.15011L18.4963 8.18653L18.541 8.20474C18.5692 8.21632 18.4996 8.18487 18.541 8.20474C18.6056 8.23354 18.668 8.26672 18.7281 8.30405C18.7612 8.32391 18.7926 8.34542 18.8241 8.36694L18.8638 8.39674C18.877 8.40667 18.8737 8.39673 18.8522 8.3868L18.8737 8.40501C18.9317 8.45029 18.9869 8.49892 19.0392 8.55067L19.1121 8.63011C19.1253 8.64501 19.1369 8.66156 19.1485 8.67646C19.1286 8.64998 19.1369 8.65991 19.1485 8.67646C19.1912 8.7351 19.231 8.79587 19.2676 8.85853C19.2842 8.88998 19.3024 8.92308 19.3173 8.95618C19.3266 8.97336 19.3349 8.99104 19.3421 9.00915C19.3653 9.05715 19.3272 8.96942 19.3421 9.02405C19.35 9.05631 19.3643 9.08666 19.3842 9.1133C19.404 9.13994 19.429 9.16232 19.4577 9.17912C19.4864 9.19592 19.5181 9.2068 19.5511 9.21111C19.584 9.21542 19.6175 9.21307 19.6495 9.20421C19.6815 9.19534 19.7114 9.18014 19.7375 9.15951C19.7635 9.13887 19.7851 9.11322 19.8011 9.08407C19.817 9.05493 19.827 9.02287 19.8303 8.98982C19.8336 8.95676 19.8303 8.92337 19.8205 8.89163L19.8304 8.90487Z" fill="#5C7C30"/>
<path d="M20.2914 16.8016C20.9313 16.8016 21.4501 16.2829 21.4501 15.643C21.4501 15.0031 20.9313 14.4844 20.2914 14.4844C19.6515 14.4844 19.1328 15.0031 19.1328 15.643C19.1328 16.2829 19.6515 16.8016 20.2914 16.8016Z" fill="#D86480" stroke="#B94A5B" stroke-width="0.0827586" stroke-miterlimit="10"/>
</g>
<defs>
<clipPath id="clip0_4_17470">
<rect width="24" height="24" fill="white" transform="translate(0.995728)"/>
</clipPath>
</defs>
</svg>
