<svg width="24" height="24" viewBox="0 0 24 24" xmlns="http://www.w3.org/2000/svg">
<path d="M18.4582 13.9603C18.2382 13.9603 18.0082 13.8903 17.7882 13.8403C17.3427 13.7421 16.9048 13.6118 16.4782 13.4503C16.0143 13.2815 15.5043 13.2903 15.0465 13.4749C14.5886 13.6595 14.2153 14.007 13.9982 14.4503L13.7782 14.9003C12.8042 14.3585 11.9092 13.6855 11.1182 12.9003C10.3329 12.1093 9.65999 11.2143 9.11817 10.2403L9.53817 9.96032C9.98153 9.74323 10.3289 9.36985 10.5136 8.91201C10.6982 8.45417 10.7069 7.94423 10.5382 7.48032C10.3794 7.05274 10.2491 6.61512 10.1482 6.17032C10.0982 5.95032 10.0582 5.72032 10.0282 5.49032C9.90673 4.78594 9.53779 4.14806 8.98779 3.69156C8.43779 3.23505 7.74286 2.98993 7.02817 3.00032H4.02817C3.5972 2.99627 3.17042 3.08513 2.77688 3.26085C2.38334 3.43656 2.03228 3.69501 1.7476 4.0186C1.46292 4.34219 1.2513 4.72331 1.12716 5.13603C1.00301 5.54875 0.969247 5.98338 1.02817 6.41032C1.56091 10.5997 3.4742 14.4922 6.46582 17.473C9.45744 20.4537 13.3569 22.3528 17.5482 22.8703H17.9282C18.6656 22.8714 19.3776 22.6008 19.9282 22.1103C20.2445 21.8274 20.4973 21.4805 20.6696 21.0926C20.842 20.7048 20.9301 20.2848 20.9282 19.8603V16.8603C20.9159 16.1657 20.663 15.4969 20.2125 14.968C19.762 14.4391 19.142 14.0829 18.4582 13.9603ZM18.9582 19.9603C18.958 20.1023 18.9276 20.2426 18.8689 20.3719C18.8103 20.5013 18.7248 20.6166 18.6182 20.7103C18.5064 20.8068 18.3758 20.8789 18.2346 20.9219C18.0934 20.965 17.9447 20.978 17.7982 20.9603C14.0531 20.4801 10.5744 18.7668 7.91088 16.0906C5.24736 13.4144 3.55058 9.92765 3.08817 6.18032C3.07225 6.03384 3.0862 5.88565 3.12917 5.74471C3.17214 5.60377 3.24324 5.473 3.33817 5.36032C3.43188 5.25365 3.54723 5.16816 3.67655 5.10953C3.80586 5.05091 3.94618 5.0205 4.08817 5.02032H7.08817C7.32071 5.01514 7.54779 5.0912 7.73031 5.23539C7.91283 5.37958 8.03938 5.58289 8.08817 5.81032C8.12817 6.08365 8.17817 6.35365 8.23817 6.62032C8.35369 7.14746 8.50743 7.6655 8.69817 8.17032L7.29817 8.82032C7.17846 8.87524 7.07079 8.95326 6.98132 9.04991C6.89186 9.14656 6.82237 9.25993 6.77684 9.38351C6.73131 9.50709 6.71064 9.63845 6.71601 9.77004C6.72139 9.90163 6.75271 10.0309 6.80817 10.1503C8.24737 13.2331 10.7254 15.7111 13.8082 17.1503C14.0516 17.2503 14.3247 17.2503 14.5682 17.1503C14.6929 17.1057 14.8075 17.0368 14.9053 16.9475C15.0032 16.8582 15.0823 16.7504 15.1382 16.6303L15.7582 15.2303C16.2751 15.4152 16.8028 15.5688 17.3382 15.6903C17.6048 15.7503 17.8748 15.8003 18.1482 15.8403C18.3756 15.8891 18.5789 16.0157 18.7231 16.1982C18.8673 16.3807 18.9433 16.6078 18.9382 16.8403L18.9582 19.9603ZM20.8782 3.64032C20.7767 3.39597 20.5825 3.20179 20.3382 3.10032C20.2179 3.04908 20.0888 3.0219 19.9582 3.02032H15.9582C15.693 3.02032 15.4386 3.12567 15.2511 3.31321C15.0635 3.50075 14.9582 3.7551 14.9582 4.02032C14.9582 4.28553 15.0635 4.53989 15.2511 4.72742C15.4386 4.91496 15.693 5.02032 15.9582 5.02032H17.5382L14.2482 8.32032C14.0619 8.50768 13.9574 8.76113 13.9574 9.02532C13.9574 9.2895 14.0619 9.54295 14.2482 9.73032C14.4355 9.91657 14.689 10.0211 14.9532 10.0211C15.2174 10.0211 15.4708 9.91657 15.6582 9.73032L18.9582 6.44032V8.02032C18.9582 8.28553 19.0635 8.53989 19.2511 8.72742C19.4386 8.91496 19.693 9.02032 19.9582 9.02032C20.2234 9.02032 20.4777 8.91496 20.6653 8.72742C20.8528 8.53989 20.9582 8.28553 20.9582 8.02032V4.02032C20.9566 3.88964 20.9294 3.76054 20.8782 3.64032Z" />
</svg>
