<svg width="24" height="24" viewBox="0 0 24 24" xmlns="http://www.w3.org/2000/svg">
<path fill-rule="evenodd" clip-rule="evenodd" d="M7 6V4C7 2.89543 7.89543 2 9 2H15C16.1046 2 17 2.89543 17 4V6H18C19.6569 6 21 7.34315 21 9V19C21 20.6569 19.6569 22 18 22H6C4.34315 22 3 20.6569 3 19V9C3 7.34315 4.34315 6 6 6H7ZM9 4H15V6H9V4ZM6 8C5.44772 8 5 8.44772 5 9V19C5 19.5523 5.44772 20 6 20H18C18.5523 20 19 19.5523 19 19V9C19 8.44772 18.5523 8 18 8H6Z" fill="white"/>
<path d="M12 10C11.4477 10 11 10.4477 11 11V13H9C8.44771 13 8 13.4477 8 14C8 14.5523 8.44771 15 9 15H11V17C11 17.5523 11.4477 18 12 18C12.5523 18 13 17.5523 13 17V15H15C15.5523 15 16 14.5523 16 14C16 13.4477 15.5523 13 15 13H13V11C13 10.4477 12.5523 10 12 10Z" />
</svg>
