<svg width="56" height="56" viewBox="0 0 56 56" fill="none" xmlns="http://www.w3.org/2000/svg">
<path d="M28 56C43.464 56 56 43.464 56 28C56 12.536 43.464 0 28 0C12.536 0 0 12.536 0 28C0 43.464 12.536 56 28 56Z" fill="#B8DF82"/>
<path d="M36.7862 37.4621C36.5893 46.5071 19.4069 46.5071 19.21 37.4621H36.7862Z" fill="#5C7C30" stroke="#5C7C30" stroke-width="0.772414" stroke-linecap="round" stroke-linejoin="round"/>
<path d="M12.81 20.832C12.81 20.832 12.8795 20.6737 12.81 20.8011L12.8564 20.6969C12.8911 20.6235 12.9298 20.5462 12.9722 20.4729C13.0542 20.3274 13.1444 20.1869 13.2426 20.0519C13.3314 19.9283 13.1653 20.1407 13.2658 20.0249L13.3353 19.936C13.3893 19.8704 13.4473 19.8086 13.5052 19.7468C13.6262 19.625 13.7553 19.5115 13.8914 19.4069C13.8914 19.4069 14.0034 19.3181 13.9378 19.3644C13.8721 19.4108 13.9764 19.3374 13.9918 19.3297C14.0073 19.322 14.1424 19.2254 14.2197 19.1752C14.3661 19.0819 14.5183 18.998 14.6754 18.9242H14.714L14.772 18.901C14.849 18.8699 14.9277 18.8429 15.0075 18.8199C15.1746 18.7665 15.3449 18.724 15.5173 18.6924C15.6622 18.6486 15.784 18.5494 15.8563 18.4164C15.9286 18.2834 15.9456 18.1273 15.9035 17.9818C15.8595 17.8361 15.7612 17.7129 15.629 17.6375C15.4968 17.562 15.3408 17.5401 15.1929 17.5763C14.4031 17.7318 13.6657 18.0856 13.0503 18.6044C12.4348 19.1233 11.9614 19.7902 11.6746 20.5424C11.6336 20.6878 11.651 20.8435 11.7231 20.9762C11.7953 21.109 11.9165 21.2083 12.0608 21.253C12.2092 21.2903 12.3662 21.2689 12.4993 21.1934C12.6324 21.1179 12.7312 20.994 12.7753 20.8475L12.81 20.832Z" fill="#5C7C30"/>
<path d="M16.6062 30.1241C18.5259 30.1241 20.0821 28.568 20.0821 26.6483C20.0821 24.7286 18.5259 23.1724 16.6062 23.1724C14.6866 23.1724 13.1304 24.7286 13.1304 26.6483C13.1304 28.568 14.6866 30.1241 16.6062 30.1241Z" fill="#5C7C30"/>
<path d="M44.2015 20.5268C43.9147 19.7746 43.4413 19.1077 42.8258 18.5889C42.2103 18.07 41.473 17.7162 40.6831 17.5607C40.5348 17.5244 40.3782 17.5462 40.2454 17.6216C40.1125 17.697 40.0135 17.8203 39.9687 17.9663C39.9295 18.1142 39.95 18.2717 40.0259 18.4046C40.1018 18.5376 40.2269 18.6354 40.3742 18.6769C40.5399 18.7072 40.7036 18.7472 40.8647 18.7966C40.9419 18.8198 41.023 18.8468 41.1002 18.8777L41.2084 18.9202C41.0732 18.8661 41.2084 18.9202 41.2354 18.9202C41.3882 18.9908 41.5366 19.0708 41.6796 19.1596L41.8881 19.2987L41.9808 19.3682C41.8688 19.2871 41.9808 19.3682 42.0078 19.3914C42.1432 19.4969 42.2721 19.6104 42.394 19.7312L42.5485 19.9012L42.6374 20.0093C42.7146 20.102 42.5833 19.9282 42.6567 20.0363C42.73 20.1445 42.8382 20.2989 42.9193 20.4225L43.0351 20.6465L43.0892 20.7701C43.0506 20.6813 43.0892 20.7701 43.0892 20.801C43.126 20.9523 43.2206 21.0831 43.3527 21.1655C43.4848 21.2478 43.644 21.275 43.796 21.2413C43.9392 21.1949 44.0591 21.0954 44.131 20.9631C44.2029 20.8309 44.2212 20.676 44.1822 20.5307L44.2015 20.5268Z" fill="#5C7C30"/>
<path d="M39.2845 30.1241C41.2041 30.1241 42.7603 28.568 42.7603 26.6483C42.7603 24.7286 41.2041 23.1724 39.2845 23.1724C37.3648 23.1724 35.8086 24.7286 35.8086 26.6483C35.8086 28.568 37.3648 30.1241 39.2845 30.1241Z" fill="#5C7C30"/>
</svg>
