<svg width="56" height="56" viewBox="0 0 56 56" fill="none" xmlns="http://www.w3.org/2000/svg">
<path d="M28 56C43.464 56 56 43.464 56 28C56 12.536 43.464 0 28 0C12.536 0 0 12.536 0 28C0 43.464 12.536 56 28 56Z" fill="#89C7F6"/>
<path d="M19.1182 40.745C19.5044 40.2583 22.4743 36.5855 27.6147 36.4967C32.9869 36.404 36.1499 40.3047 36.4975 40.745" stroke="#1E82C0" stroke-width="2.31724" stroke-miterlimit="10" stroke-linecap="round"/>
<path d="M11.8993 21.0829C12.7878 21.0148 13.6396 20.7 14.3588 20.1739C15.078 19.6478 15.636 18.9314 15.9699 18.1053C16.0109 17.9599 15.9935 17.8042 15.9214 17.6714C15.8492 17.5387 15.7281 17.4394 15.5837 17.3947C15.4354 17.3584 15.2788 17.3801 15.1459 17.4555C15.0131 17.5309 14.9141 17.6542 14.8692 17.8002C14.9156 17.6843 14.8499 17.8388 14.8461 17.8504L14.7881 17.9662C14.7495 18.0396 14.7109 18.1169 14.6646 18.1902C14.6182 18.2636 14.568 18.3486 14.5139 18.4258L14.4406 18.5301C14.4019 18.5842 14.4869 18.4722 14.4212 18.5533C14.3058 18.6883 14.1833 18.8173 14.0543 18.9395L13.8612 19.1094L13.7647 19.1905C13.8574 19.1133 13.7261 19.2176 13.7183 19.2253C13.5781 19.3235 13.4324 19.4138 13.2819 19.4956C13.2008 19.542 13.1159 19.5845 13.0309 19.6231C12.9459 19.6617 12.9266 19.6694 13.0039 19.6231L12.8841 19.6694C12.7166 19.7325 12.545 19.7842 12.3705 19.8239L12.1194 19.8741C11.9534 19.905 12.2392 19.8741 12.0692 19.8741H11.9148C11.7611 19.8741 11.6138 19.9351 11.5051 20.0438C11.3965 20.1524 11.3354 20.2998 11.3354 20.4534C11.3354 20.6071 11.3965 20.7544 11.5051 20.8631C11.6138 20.9717 11.7611 21.0327 11.9148 21.0327L11.8993 21.0829Z" fill="#1E82C0"/>
<path d="M13.3858 27.8071L20.1329 27.7067C20.1329 27.7067 20.7469 23.0954 16.8115 23.022C12.876 22.9486 13.3858 27.8071 13.3858 27.8071Z" fill="#1E82C0" stroke="#1E82C0" stroke-width="0.0965517" stroke-linecap="round" stroke-linejoin="round"/>
<path d="M43.7265 19.9244H43.572C43.46 19.9244 43.6184 19.9244 43.5488 19.9244L43.2939 19.878C43.1195 19.8378 42.948 19.7862 42.7803 19.7236L42.6606 19.6772H42.6335C42.5486 19.6386 42.4636 19.5961 42.3825 19.5498C42.2243 19.4663 42.072 19.3721 41.9268 19.2678L41.8611 19.2176L41.7993 19.1674L41.6062 18.9975C41.4687 18.8779 41.3396 18.7488 41.22 18.6113C41.1891 18.5804 41.1505 18.5225 41.1968 18.5881C41.1659 18.5495 41.1389 18.507 41.108 18.4645C41.0581 18.3948 41.0117 18.3226 40.969 18.2482C40.9265 18.1749 40.884 18.1015 40.8454 18.0242L40.7759 17.8891C40.7759 17.8659 40.7064 17.7269 40.7527 17.8389C40.721 17.6868 40.6307 17.5532 40.5013 17.4672C40.372 17.3812 40.2139 17.3496 40.0614 17.3793C39.9176 17.4248 39.7971 17.5243 39.7251 17.6568C39.6531 17.7893 39.6352 17.9445 39.6752 18.0899C40.0099 18.9155 40.5681 19.6315 41.2872 20.1575C42.0062 20.6834 42.8576 20.9986 43.7458 21.0676C43.8994 21.0676 44.0468 21.0065 44.1554 20.8979C44.2641 20.7892 44.3251 20.6419 44.3251 20.4882C44.3251 20.3346 44.2641 20.1873 44.1554 20.0786C44.0468 19.97 43.8994 19.9089 43.7458 19.9089L43.7265 19.9244Z" fill="#1E82C0"/>
<path d="M42.2389 27.8071L35.4957 27.7067C35.4957 27.7067 34.8778 23.0954 38.8133 23.022C42.7487 22.9486 42.2389 27.8071 42.2389 27.8071Z" fill="#1E82C0" stroke="#1E82C0" stroke-width="0.0965517" stroke-linecap="round" stroke-linejoin="round"/>
</svg>
