<svg width="56" height="56" viewBox="0 0 56 56" fill="none" xmlns="http://www.w3.org/2000/svg">
<path d="M28 56C43.464 56 56 43.464 56 28C56 12.536 43.464 0 28 0C12.536 0 0 12.536 0 28C0 43.464 12.536 56 28 56Z" fill="#F8A85F"/>
<path d="M11.5121 23.7903C11.5458 23.6217 11.5897 23.4553 11.6434 23.2921C11.6704 23.2148 11.6974 23.1376 11.7283 23.0603C11.6936 23.153 11.7283 23.0874 11.7283 23.0333C11.7283 22.9792 11.7592 22.9676 11.7785 22.9329C11.8522 22.7774 11.9374 22.6276 12.0334 22.4849C12.0721 22.4231 12.1184 22.3652 12.1609 22.3034C12.2034 22.2416 12.103 22.369 12.1802 22.2763L12.2652 22.1721C12.3714 22.0471 12.4849 21.9284 12.605 21.8167L12.7904 21.6545L12.8445 21.6121L12.8136 21.6352L12.9063 21.5696C13.0386 21.473 13.1781 21.3865 13.3234 21.3108L13.5628 21.1911C13.6748 21.137 13.4663 21.2258 13.5899 21.1911L13.7134 21.1409C13.8545 21.0944 13.9723 20.9956 14.0425 20.8648C14.1128 20.7339 14.1301 20.5811 14.091 20.4379C14.0518 20.2947 13.9592 20.172 13.8321 20.0951C13.7051 20.0182 13.5534 19.993 13.4083 20.0247C12.65 20.2987 11.9743 20.7618 11.4451 21.3701C10.9159 21.9784 10.5508 22.7117 10.3843 23.5006C10.3485 23.6469 10.371 23.8015 10.4472 23.9315C10.5234 24.0615 10.6472 24.1567 10.7924 24.1969C10.9376 24.2371 11.0928 24.2191 11.225 24.1468C11.3572 24.0745 11.456 23.9535 11.5005 23.8096L11.5121 23.7903Z" fill="#BE6101"/>
<path d="M16.993 31.6691C18.9126 31.6691 20.4688 30.1129 20.4688 28.1932C20.4688 26.2735 18.9126 24.7173 16.993 24.7173C15.0733 24.7173 13.5171 26.2735 13.5171 28.1932C13.5171 30.1129 15.0733 31.6691 16.993 31.6691Z" fill="#BE6101"/>
<path d="M46.1329 23.4814C45.9651 22.6931 45.5995 21.9604 45.0705 21.3524C44.5415 20.7443 43.8665 20.2808 43.1089 20.0056C42.963 19.9644 42.8068 19.9818 42.6734 20.0539C42.54 20.126 42.44 20.2472 42.3944 20.3918C42.3574 20.5371 42.3766 20.6911 42.4482 20.8228C42.5198 20.9546 42.6385 21.0545 42.7807 21.1024L42.9042 21.1526C43.0471 21.2067 42.7961 21.0985 42.9313 21.1526C43.0047 21.1874 43.0819 21.2221 43.1514 21.2607C43.2975 21.3373 43.4381 21.4238 43.5724 21.5195L43.6612 21.5852C43.7693 21.6624 43.5955 21.5272 43.6882 21.5852L43.8891 21.759C44.0088 21.871 44.1247 21.9907 44.2328 22.1143L44.3023 22.2031L44.3448 22.2533C44.3062 22.2031 44.2984 22.1915 44.3216 22.2263C44.3448 22.261 44.4182 22.3576 44.4645 22.4271C44.5531 22.5656 44.6343 22.7087 44.7078 22.8558L44.7658 22.9755C44.7658 22.9987 44.8276 23.1377 44.7658 23.0025L44.8469 23.2111C44.9037 23.3816 44.9488 23.5558 44.982 23.7325C45.0276 23.8771 45.1276 23.9983 45.261 24.0704C45.3944 24.1425 45.5506 24.1598 45.6965 24.1187C45.8386 24.0707 45.9574 23.9709 46.029 23.8391C46.1006 23.7073 46.1198 23.5534 46.0827 23.4081L46.1329 23.4814Z" fill="#BE6101"/>
<path d="M39.532 31.6691C41.4517 31.6691 43.0079 30.1129 43.0079 28.1932C43.0079 26.2735 41.4517 24.7173 39.532 24.7173C37.6123 24.7173 36.0562 26.2735 36.0562 28.1932C36.0562 30.1129 37.6123 31.6691 39.532 31.6691Z" fill="#BE6101"/>
<path d="M33.6004 38.6208C33.4846 43.9891 23.2887 43.9852 23.1729 38.6208H33.6004Z" fill="#BE6101" stroke="#BE6101" stroke-width="0.386207" stroke-linecap="round" stroke-linejoin="round"/>
</svg>
