<svg width="16" height="16" viewBox="0 0 16 16" fill="none" xmlns="http://www.w3.org/2000/svg">
<path d="M13.3674 5.29424C13.1778 5.10578 12.9213 5 12.654 5C12.3867 5 12.1302 5.10578 11.9406 5.29424L8.30804 8.87624L4.72604 5.29424C4.53645 5.10578 4.27999 5 4.01267 5C3.74535 5 3.48889 5.10578 3.29931 5.29424C3.20447 5.38831 3.12919 5.50022 3.07782 5.62353C3.02645 5.74683 3 5.87909 3 6.01267C3 6.14624 3.02645 6.2785 3.07782 6.40181C3.12919 6.52511 3.20447 6.63702 3.29931 6.73109L7.58961 11.0214C7.68368 11.1162 7.79559 11.1915 7.9189 11.2429C8.0422 11.2943 8.17446 11.3207 8.30804 11.3207C8.44161 11.3207 8.57387 11.2943 8.69718 11.2429C8.82048 11.1915 8.93239 11.1162 9.02646 11.0214L13.3674 6.73109C13.4622 6.63702 13.5375 6.52511 13.5888 6.40181C13.6402 6.2785 13.6667 6.14624 13.6667 6.01267C13.6667 5.87909 13.6402 5.74683 13.5888 5.62353C13.5375 5.50022 13.4622 5.38831 13.3674 5.29424Z" fill="#C4C4C8"/>
</svg>
