<svg viewBox="0 0 56 56" fill="none" xmlns="http://www.w3.org/2000/svg">
<path d="M28 56C43.464 56 56 43.464 56 28C56 12.536 43.464 0 28 0C12.536 0 0 12.536 0 28C0 43.464 12.536 56 28 56Z" fill="#BFA0E6"/>
<path d="M14.8691 40.3586C15.8076 39.451 20.7202 34.8745 28.3864 34.9517C33.2876 35.0384 37.9762 36.969 41.5174 40.3586" stroke="#8953C2" stroke-width="2.31724" stroke-miterlimit="10" stroke-linecap="round"/>
<path d="M43.0623 20.2759C41.9037 23.8831 33.4072 26.8415 34.5658 26.8415H42.2899" stroke="#8953C2" stroke-width="1.93103" stroke-linecap="round" stroke-linejoin="round"/>
<path d="M13.3242 20.2759C14.4828 23.8831 22.9794 26.8415 21.8208 26.8415M21.8208 26.8415H14.0966H21.8208Z" stroke="#8953C2" stroke-width="1.93103" stroke-linecap="round" stroke-linejoin="round"/>
</svg>
