<svg viewBox="0 0 56 56" fill="none" xmlns="http://www.w3.org/2000/svg">
<path d="M28 56C43.464 56 56 43.464 56 28C56 12.536 43.464 0 28 0C12.536 0 0 12.536 0 28C0 43.464 12.536 56 28 56Z" fill="#FFD95E"/>
<path d="M13.9033 28.9655L20.4688 27.4207C20.4688 27.4207 20.0826 22.7862 16.2205 23.5586C12.3585 24.3311 13.9033 28.9655 13.9033 28.9655Z" fill="#B08213" stroke="#B08213" stroke-width="0.0965517" stroke-linecap="round" stroke-linejoin="round"/>
<path d="M12.4433 21.338C12.5194 21.1619 12.6058 20.9904 12.7021 20.8243C12.7477 20.7405 12.798 20.6593 12.8527 20.581L12.9261 20.4729C12.9261 20.4729 13.0342 20.33 12.9608 20.4227C13.0749 20.2791 13.1974 20.1424 13.3277 20.0133C13.3934 19.9437 13.463 19.878 13.5363 19.8163C13.5679 19.786 13.6015 19.7576 13.6367 19.7314C13.6367 19.7314 13.768 19.6232 13.7178 19.6619L13.7873 19.6117L13.9147 19.5228L14.1349 19.3799C14.2999 19.2833 14.4701 19.1956 14.6447 19.1173C14.5713 19.1521 14.6447 19.1173 14.6756 19.1173L14.7992 19.071L15.0965 18.9744C15.2823 18.9249 15.4705 18.8849 15.6604 18.8547C15.8071 18.8149 15.9322 18.7186 16.0081 18.5869C16.0841 18.4552 16.1049 18.2988 16.0659 18.1518C16.0202 18.0063 15.9211 17.8836 15.7885 17.8084C15.6559 17.7331 15.4997 17.7109 15.3514 17.7463C14.4994 17.8858 13.6957 18.2358 13.0132 18.7646C12.3307 19.2933 11.791 19.984 11.443 20.7741C11.3755 20.9058 11.3594 21.0578 11.398 21.2007C11.4366 21.3435 11.527 21.4668 11.6516 21.5466C11.7826 21.6168 11.9356 21.6344 12.0792 21.5956C12.2228 21.5569 12.3461 21.4647 12.424 21.338H12.4433Z" fill="#B08213"/>
<path d="M41.8267 28.9384L35.2612 27.3936C35.2612 27.3936 35.6474 22.7591 39.5095 23.5315C43.3716 24.304 41.8267 28.9384 41.8267 28.9384Z" fill="#B08213" stroke="#B08213" stroke-width="0.0965517" stroke-linecap="round" stroke-linejoin="round"/>
<path d="M44.1165 20.7431C43.7694 19.9524 43.2299 19.2612 42.5472 18.7323C41.8646 18.2034 41.0604 17.8538 40.2081 17.7153C40.0602 17.6791 39.9041 17.701 39.772 17.7764C39.6398 17.8519 39.5415 17.9751 39.4974 18.1208C39.4575 18.2662 39.4753 18.4214 39.5473 18.5539C39.6194 18.6864 39.7399 18.7859 39.8837 18.8314C40.0723 18.8617 40.2592 18.9016 40.4437 18.9511C40.5363 18.9782 40.629 19.0052 40.7179 19.04L40.8414 19.0825L40.8955 19.1056C41.0616 19.1829 41.2277 19.264 41.386 19.3567L41.6293 19.5073L41.7336 19.5845C41.7336 19.5845 41.8688 19.6849 41.8224 19.6463L41.8881 19.7004L42.0078 19.8008C42.0734 19.8587 42.1352 19.9205 42.197 19.9823C42.3349 20.1167 42.4639 20.2599 42.5832 20.411C42.533 20.3453 42.5832 20.411 42.5832 20.438L42.6605 20.5462C42.7184 20.6311 42.7725 20.72 42.8266 20.8127C42.923 20.9779 43.0081 21.1496 43.0814 21.3263C43.1587 21.4537 43.282 21.5465 43.4259 21.5853C43.5697 21.6242 43.723 21.6061 43.8539 21.5349C43.9785 21.4551 44.0689 21.3318 44.1074 21.189C44.146 21.0461 44.1299 20.8941 44.0624 20.7625L44.1165 20.7431Z" fill="#B08213"/>
<path d="M37.4625 37.462C37.2424 47.5382 18.102 47.5382 17.8818 37.462H37.4625Z" fill="#B08213" stroke="#B08213" stroke-width="0.772414" stroke-linecap="round" stroke-linejoin="round"/>
</svg>
