<svg width="32" height="32" viewBox="0 0 32 32" fill="none" xmlns="http://www.w3.org/2000/svg">
<path d="M7.06219 19.2001C8.0661 19.2001 9.04747 18.9024 9.88219 18.3446C10.7169 17.7869 11.3675 16.9941 11.7517 16.0667C12.1359 15.1392 12.2364 14.1186 12.0405 13.134C11.8447 12.1493 11.3612 11.2449 10.6514 10.535C9.94149 9.82516 9.03706 9.34173 8.05244 9.14587C7.06782 8.95002 6.04723 9.05054 5.11974 9.43472C4.19225 9.8189 3.39951 10.4695 2.84177 11.3042C2.28402 12.1389 1.98633 13.1203 1.98633 14.1242C1.98633 15.4704 2.5211 16.7615 3.47301 17.7134C4.42492 18.6653 5.71599 19.2001 7.06219 19.2001Z" fill="#89C7F6"/>
<path d="M5.45117 16.4348C5.63818 16.2029 5.87298 16.0141 6.13957 15.8811C6.40616 15.7482 6.69827 15.6744 6.996 15.6646C7.30483 15.6655 7.60959 15.7351 7.88822 15.8683C8.16685 16.0015 8.41238 16.195 8.60703 16.4348" stroke="#1E82C0" stroke-width="0.423724" stroke-miterlimit="10" stroke-linecap="round"/>
<path d="M4.14289 12.8707C4.3023 12.8565 4.45487 12.7993 4.58427 12.7052C4.71546 12.6102 4.81719 12.4802 4.87779 12.33C4.88773 12.3052 4.88773 12.2775 4.87779 12.2527C4.86443 12.2285 4.84232 12.2104 4.816 12.202C4.78907 12.1956 4.76071 12.1995 4.73655 12.213C4.71235 12.2264 4.69419 12.2485 4.68579 12.2748V12.2969L4.66372 12.3366L4.63503 12.3807L4.62179 12.3984C4.62179 12.4094 4.62179 12.3984 4.62179 12.3984C4.62179 12.3984 4.57765 12.4469 4.55338 12.469L4.52027 12.4999L4.50262 12.5132C4.47714 12.5309 4.45061 12.5471 4.42317 12.5617L4.37682 12.586C4.36138 12.586 4.35917 12.586 4.37682 12.586H4.35476C4.32457 12.5971 4.29358 12.606 4.26207 12.6125H4.21793C4.18703 12.6125 4.23779 12.6125 4.20689 12.6125H4.18041C4.15272 12.6125 4.12601 12.6227 4.10538 12.6412C4.09051 12.656 4.08038 12.6749 4.07627 12.6955C4.07216 12.716 4.07426 12.7374 4.0823 12.7568C4.09034 12.7761 4.10395 12.7927 4.12142 12.8043C4.13889 12.816 4.15942 12.8222 4.18041 12.8221L4.14289 12.8707Z" fill="#1E82C0"/>
<path d="M4.41424 14.0888L5.63686 14.0712C5.63686 14.0712 5.73838 13.2414 5.03438 13.2215C4.33038 13.2017 4.41424 14.0888 4.41424 14.0888Z" fill="#1E82C0" stroke="#1E82C0" stroke-width="0.0176552" stroke-linecap="round" stroke-linejoin="round"/>
<path d="M9.91388 12.661H9.88077H9.83443C9.80294 12.6534 9.77198 12.6438 9.74174 12.6323H9.71967L9.67333 12.6102C9.64464 12.5947 9.61815 12.5771 9.59167 12.5594L9.55636 12.5307C9.53119 12.5089 9.50759 12.4853 9.48574 12.4601C9.48574 12.4601 9.4725 12.4425 9.48574 12.4601C9.47987 12.4533 9.47469 12.4459 9.47029 12.4381L9.41291 12.3586L9.39084 12.3189L9.3776 12.2924C9.3776 12.2924 9.36657 12.2637 9.3776 12.2924C9.37129 12.2652 9.35468 12.2414 9.33126 12.2262C9.31973 12.2184 9.30675 12.2131 9.2931 12.2104C9.27945 12.2077 9.26541 12.2079 9.25181 12.2107C9.23869 12.2141 9.22642 12.2201 9.21578 12.2285C9.20514 12.2369 9.19636 12.2473 9.19002 12.2593C9.18015 12.2849 9.18015 12.3132 9.19002 12.3387C9.25102 12.4881 9.35177 12.6178 9.48133 12.7139C9.61073 12.8081 9.7633 12.8653 9.92271 12.8794C9.95197 12.8794 9.98004 12.8678 10.0007 12.8471C10.0214 12.8264 10.0331 12.7984 10.0331 12.7691C10.0331 12.7398 10.0214 12.7118 10.0007 12.6911C9.98004 12.6704 9.95197 12.6587 9.92271 12.6587L9.91388 12.661Z" fill="#1E82C0"/>
<path d="M9.64414 14.0889L8.42152 14.0712C8.42152 14.0712 8.30897 13.2348 9.0218 13.2216C9.73463 13.2083 9.64414 14.0889 9.64414 14.0889Z" fill="#1E82C0" stroke="#1E82C0" stroke-width="0.0176552" stroke-linecap="round" stroke-linejoin="round"/>
<path d="M24.9382 19.2001C25.9421 19.2001 26.9234 18.9024 27.7582 18.3446C28.5929 17.7869 29.2435 16.9941 29.6277 16.0667C30.0118 15.1392 30.1124 14.1186 29.9165 13.134C29.7206 12.1493 29.2372 11.2449 28.5273 10.535C27.8175 9.82516 26.913 9.34173 25.9284 9.14587C24.9438 8.95002 23.9232 9.05054 22.9957 9.43472C22.0682 9.8189 21.2755 10.4695 20.7177 11.3042C20.16 12.1389 19.8623 13.1203 19.8623 14.1242C19.8623 15.4704 20.3971 16.7615 21.349 17.7134C22.3009 18.6653 23.592 19.2001 24.9382 19.2001Z" fill="#B8DF82"/>
<path d="M26.5315 15.8389C26.4962 17.4786 23.38 17.4786 23.3447 15.8389H26.5315Z" fill="#5C7C30" stroke="#5C7C30" stroke-width="0.141241" stroke-linecap="round" stroke-linejoin="round"/>
<path d="M22.184 12.8243C22.184 12.8243 22.1973 12.7956 22.184 12.8243V12.8045C22.1905 12.7908 22.1979 12.7775 22.2061 12.7647C22.2202 12.7377 22.2364 12.7119 22.2547 12.6875C22.2701 12.6654 22.2392 12.7029 22.2547 12.6875V12.672L22.2856 12.6367C22.3076 12.6147 22.3319 12.5948 22.3562 12.5749C22.3429 12.5749 22.3562 12.5749 22.3562 12.5749L22.3981 12.5463C22.4246 12.5286 22.4533 12.5154 22.482 12.4999H22.4974L22.5416 12.4845L22.6342 12.4602C22.6604 12.4527 22.6826 12.4353 22.696 12.4116C22.7059 12.3861 22.7059 12.3577 22.696 12.3322C22.6927 12.3191 22.6867 12.3068 22.6783 12.2962C22.6699 12.2855 22.6594 12.2767 22.6475 12.2704C22.6233 12.2569 22.595 12.2529 22.568 12.2594C22.4249 12.287 22.2911 12.3508 22.1795 12.4447C22.0679 12.5385 21.9821 12.6593 21.9302 12.7956C21.9204 12.8212 21.9204 12.8495 21.9302 12.8751C21.9436 12.8993 21.9657 12.9174 21.992 12.9258C22.019 12.9323 22.0473 12.9283 22.0715 12.9148C22.0835 12.908 22.094 12.8988 22.1024 12.8878C22.1107 12.8768 22.1167 12.8642 22.12 12.8508L22.184 12.8243Z" fill="#5C7C30"/>
<path d="M22.8721 14.5082C22.9972 14.5086 23.1195 14.4719 23.2236 14.4027C23.3278 14.3336 23.409 14.235 23.457 14.1196C23.5051 14.0042 23.5178 13.8771 23.4935 13.7544C23.4692 13.6318 23.409 13.5191 23.3206 13.4307C23.2322 13.3423 23.1196 13.2822 22.9969 13.2579C22.8743 13.2336 22.7472 13.2463 22.6318 13.2943C22.5164 13.3424 22.4178 13.4236 22.3486 13.5277C22.2794 13.6319 22.2427 13.7542 22.2432 13.8792C22.2432 14.046 22.3094 14.206 22.4274 14.324C22.5453 14.4419 22.7053 14.5082 22.8721 14.5082Z" fill="#5C7C30"/>
<path d="M27.876 12.7692C27.8231 12.6334 27.7374 12.5129 27.6266 12.4183C27.5151 12.3239 27.3815 12.2593 27.2382 12.2307C27.2124 12.2219 27.1845 12.2219 27.1587 12.2307C27.1349 12.2455 27.117 12.2681 27.108 12.2947C27.0981 12.3202 27.0981 12.3486 27.108 12.3741C27.1143 12.3861 27.1231 12.3966 27.1337 12.4049C27.1444 12.4133 27.1567 12.4193 27.1698 12.4227L27.2603 12.4447L27.3022 12.4602H27.3221C27.2978 12.4602 27.3221 12.4602 27.3221 12.4602C27.3221 12.4602 27.3772 12.4889 27.4037 12.5043L27.4412 12.5286L27.4567 12.5419L27.5251 12.6036L27.5538 12.6345L27.5692 12.6544C27.5847 12.6699 27.5692 12.639 27.5692 12.6544C27.5692 12.6699 27.6023 12.7007 27.6156 12.725L27.6376 12.7647V12.7868C27.6376 12.7714 27.6376 12.7868 27.6376 12.7868C27.6456 12.8139 27.6628 12.8373 27.6862 12.853C27.7101 12.8671 27.7384 12.8718 27.7656 12.8663C27.792 12.8579 27.8141 12.8397 27.8274 12.8155C27.8373 12.7899 27.8373 12.7616 27.8274 12.7361L27.876 12.7692Z" fill="#5C7C30"/>
<path d="M26.9837 14.5082C27.1086 14.5082 27.2308 14.4711 27.3346 14.4017C27.4384 14.3322 27.5193 14.2335 27.567 14.118C27.6148 14.0026 27.6271 13.8756 27.6026 13.7531C27.5781 13.6306 27.5177 13.5181 27.4292 13.4299C27.3407 13.3418 27.2281 13.2818 27.1055 13.2577C26.9829 13.2336 26.8559 13.2464 26.7406 13.2945C26.6253 13.3426 26.5269 13.4239 26.4578 13.528C26.3888 13.6321 26.3521 13.7543 26.3525 13.8792C26.3522 13.9621 26.3684 14.0442 26.4 14.1208C26.4317 14.1974 26.4782 14.2669 26.5369 14.3254C26.5956 14.3839 26.6653 14.4302 26.742 14.4616C26.8187 14.4929 26.9008 14.5088 26.9837 14.5082Z" fill="#5C7C30"/>
<path d="M15.8893 12.1381C16.8932 12.1381 17.8746 11.8404 18.7093 11.2826C19.5441 10.7249 20.1946 9.93213 20.5788 9.00464C20.963 8.07715 21.0635 7.05656 20.8677 6.07194C20.6718 5.08732 20.1884 4.18289 19.4785 3.47302C18.7686 2.76314 17.8642 2.27971 16.8796 2.08386C15.895 1.88801 14.8744 1.98853 13.9469 2.37271C13.0194 2.75689 12.2267 3.40747 11.6689 4.24219C11.1112 5.07692 10.8135 6.05828 10.8135 7.06219C10.8135 8.40839 11.3483 9.69946 12.3002 10.6514C13.2521 11.6033 14.5431 12.1381 15.8893 12.1381Z" fill="#F8A85F"/>
<path d="M12.901 6.29858C12.9062 6.26795 12.9136 6.23772 12.923 6.2081C12.9295 6.19464 12.9347 6.1806 12.9385 6.16617C12.9385 6.18383 12.9385 6.16617 12.9385 6.16617C12.9385 6.16617 12.9385 6.15514 12.9385 6.14852C12.9385 6.14189 12.9672 6.09334 12.9826 6.06686L13.0069 6.03376C13.0069 6.02272 12.9959 6.04479 13.0069 6.03376L13.0224 6.01389C13.0411 5.99152 13.061 5.97015 13.0819 5.94989L13.1173 5.92121L13.1327 5.91017C13.1564 5.89265 13.1815 5.87715 13.2077 5.86383L13.2519 5.84176C13.2717 5.83072 13.2342 5.84176 13.2519 5.84176H13.2739C13.2869 5.83789 13.2988 5.83139 13.3091 5.82265C13.3193 5.81391 13.3277 5.80313 13.3335 5.791C13.3426 5.77329 13.3465 5.75339 13.3448 5.73356C13.3431 5.71373 13.3359 5.69479 13.3239 5.6789C13.3119 5.663 13.2957 5.65081 13.2771 5.6437C13.2585 5.6366 13.2383 5.63487 13.2188 5.63872C13.0816 5.68799 12.9592 5.77156 12.8635 5.88148C12.7685 5.99236 12.7025 6.12506 12.6715 6.26769C12.6616 6.29325 12.6616 6.32157 12.6715 6.34714C12.6865 6.37024 12.7092 6.3874 12.7355 6.39569C12.7617 6.40197 12.7893 6.39803 12.8127 6.38465C12.8248 6.37879 12.8356 6.37046 12.8444 6.3602C12.8531 6.34994 12.8596 6.33798 12.8635 6.32507L12.901 6.29858Z" fill="#BE6101"/>
<path d="M13.9036 7.72426C14.0286 7.72426 14.1507 7.68718 14.2545 7.61773C14.3584 7.54828 14.4393 7.44957 14.487 7.33411C14.5347 7.21865 14.547 7.09163 14.5225 6.96914C14.498 6.84664 14.4376 6.73418 14.3492 6.646C14.2607 6.55782 14.148 6.49788 14.0254 6.47377C13.9028 6.44967 13.7759 6.46248 13.6606 6.5106C13.5453 6.55871 13.4468 6.63995 13.3778 6.74403C13.3087 6.84812 13.272 6.97037 13.2725 7.09529C13.2722 7.17816 13.2883 7.26026 13.32 7.33685C13.3516 7.41343 13.3981 7.48298 13.4568 7.54148C13.5155 7.59997 13.5852 7.64624 13.6619 7.67762C13.7386 7.70899 13.8208 7.72484 13.9036 7.72426Z" fill="#BE6101"/>
<path d="M19.1758 6.24355C19.1457 6.09969 19.0779 5.96641 18.9794 5.85734C18.8835 5.74698 18.7613 5.66271 18.6241 5.61238C18.5985 5.60251 18.5702 5.60251 18.5446 5.61238C18.5204 5.62573 18.5023 5.64784 18.4939 5.67417C18.488 5.70045 18.4919 5.72797 18.5049 5.75154C18.5179 5.77512 18.5391 5.79313 18.5645 5.80217L18.5866 5.81321C18.613 5.81321 18.5667 5.80217 18.5866 5.81321L18.6285 5.83086L18.7035 5.87941L18.719 5.89045C18.7388 5.90369 18.719 5.87941 18.719 5.89045L18.7543 5.92134C18.7766 5.94176 18.7972 5.9639 18.8161 5.98755L18.8293 6.003C18.8293 6.003 18.8293 5.99197 18.8293 6.003L18.8536 6.03831C18.87 6.06308 18.8847 6.08888 18.8977 6.11555V6.13762C18.8977 6.13762 18.8977 6.16852 18.8977 6.13762L18.9132 6.17734C18.9233 6.20767 18.9314 6.23863 18.9375 6.27003C18.9459 6.29636 18.964 6.31847 18.9882 6.33183C19.0007 6.3373 19.0143 6.34012 19.0279 6.34012C19.0416 6.34012 19.0551 6.3373 19.0677 6.33183C19.093 6.32258 19.1141 6.30457 19.1272 6.28107C19.1372 6.25628 19.1372 6.22861 19.1272 6.20383L19.1758 6.24355Z" fill="#BE6101"/>
<path d="M17.9796 7.72426C18.1046 7.72469 18.2269 7.68799 18.331 7.6188C18.4352 7.54962 18.5164 7.45106 18.5645 7.33564C18.6125 7.22022 18.6252 7.09313 18.6009 6.97049C18.5766 6.84785 18.5165 6.73518 18.4281 6.64678C18.3397 6.55838 18.227 6.49822 18.1044 6.47393C17.9817 6.44965 17.8546 6.46234 17.7392 6.51038C17.6238 6.55843 17.5252 6.63967 17.456 6.7438C17.3869 6.84793 17.3502 6.97027 17.3506 7.09529C17.3506 7.2621 17.4169 7.42208 17.5348 7.54004C17.6528 7.65799 17.8127 7.72426 17.9796 7.72426Z" fill="#BE6101"/>
<path d="M16.905 8.98657C16.8829 9.95981 15.0357 9.95981 15.0137 8.98657H16.905Z" fill="#BE6101" stroke="#BE6101" stroke-width="0.0706207" stroke-linecap="round" stroke-linejoin="round"/>
<path d="M10.152 30.0138C11.1559 30.0138 12.1373 29.7161 12.972 29.1583C13.8068 28.6006 14.4573 27.8079 14.8415 26.8804C15.2257 25.9529 15.3262 24.9323 15.1304 23.9477C14.9345 22.9631 14.4511 22.0586 13.7412 21.3487C13.0313 20.6389 12.1269 20.1554 11.1423 19.9596C10.1577 19.7637 9.13708 19.8643 8.20959 20.2484C7.28209 20.6326 6.48935 21.2832 5.93161 22.1179C5.37387 22.9526 5.07617 23.934 5.07617 24.9379C5.07617 26.2841 5.61095 27.5752 6.56286 28.5271C7.51477 29.479 8.80583 30.0138 10.152 30.0138Z" fill="#BFA0E6"/>
<path d="M7.77051 27.1779C8.41755 26.5495 9.284 26.198 10.186 26.198C11.0879 26.198 11.9544 26.5495 12.6014 27.1779" stroke="#8953C2" stroke-width="0.423724" stroke-miterlimit="10" stroke-linecap="round"/>
<path d="M12.882 23.5366C12.6723 24.1987 11.1319 24.7283 11.3371 24.7283H12.7385" stroke="#8953C2" stroke-width="0.353103" stroke-linecap="round" stroke-linejoin="round"/>
<path d="M7.50391 23.5366C7.71356 24.1987 9.25398 24.7283 9.04873 24.7283H7.63191" stroke="#8953C2" stroke-width="0.353103" stroke-linecap="round" stroke-linejoin="round"/>
<path d="M21.6276 30.0138C22.6315 30.0138 23.6129 29.7161 24.4476 29.1583C25.2823 28.6006 25.9329 27.8079 26.3171 26.8804C26.7013 25.9529 26.8018 24.9323 26.606 23.9477C26.4101 22.9631 25.9267 22.0586 25.2168 21.3487C24.5069 20.6389 23.6025 20.1554 22.6179 19.9596C21.6333 19.7637 20.6127 19.8643 19.6852 20.2484C18.7577 20.6326 17.9649 21.2832 17.4072 22.1179C16.8495 22.9526 16.5518 23.934 16.5518 24.9379C16.5518 26.2841 17.0865 27.5752 18.0384 28.5271C18.9904 29.479 20.2814 30.0138 21.6276 30.0138Z" fill="#FFD95E"/>
<path d="M19.0718 25.1124L20.2613 24.8321C20.2613 24.8321 20.1929 23.9935 19.4911 24.1325C18.7893 24.2715 19.0718 25.1124 19.0718 25.1124Z" fill="#B08213" stroke="#B08213" stroke-width="0.0176552" stroke-linecap="round" stroke-linejoin="round"/>
<path d="M18.8071 23.7308C18.8199 23.6986 18.8354 23.6676 18.8535 23.6381C18.8617 23.6226 18.8713 23.6078 18.8821 23.594L18.8954 23.5741C18.9156 23.5475 18.9378 23.5225 18.9616 23.4991C18.973 23.4862 18.9856 23.4744 18.9991 23.4638C19.0039 23.4575 19.0099 23.4522 19.0168 23.4483L19.0322 23.4351H19.0455L19.0675 23.4196L19.1073 23.3931L19.1999 23.3446C19.1867 23.3446 19.1999 23.3446 19.1999 23.3446H19.2242L19.2772 23.3269C19.3103 23.3164 19.3442 23.309 19.3787 23.3049C19.3921 23.3015 19.4047 23.2955 19.4157 23.2872C19.4267 23.2788 19.4359 23.2683 19.4427 23.2563C19.4526 23.2307 19.4526 23.2024 19.4427 23.1769C19.4343 23.1505 19.4161 23.1284 19.3919 23.1151C19.3664 23.1052 19.3381 23.1052 19.3125 23.1151C19.1582 23.1398 19.0125 23.2028 18.8888 23.2982C18.7661 23.3951 18.6684 23.5199 18.6041 23.6624C18.5942 23.6879 18.5942 23.7163 18.6041 23.7418C18.6121 23.7671 18.6284 23.7889 18.6504 23.8036C18.6752 23.8136 18.7029 23.8136 18.7277 23.8036C18.7539 23.7964 18.7766 23.7799 18.7917 23.7573L18.8071 23.7308Z" fill="#B08213"/>
<path d="M24.135 25.1079L22.9521 24.8276C22.9521 24.8276 23.0228 23.9868 23.7224 24.1281C24.4219 24.2693 24.135 25.1079 24.135 25.1079Z" fill="#B08213" stroke="#B08213" stroke-width="0.0176552" stroke-linecap="round" stroke-linejoin="round"/>
<path d="M24.5497 23.6138C24.4864 23.4707 24.3885 23.3456 24.2648 23.2496C24.1412 23.1537 23.9956 23.09 23.8413 23.0643C23.8157 23.0544 23.7874 23.0544 23.7618 23.0643C23.7497 23.0707 23.7391 23.0795 23.7305 23.0902C23.7219 23.1009 23.7155 23.1132 23.7118 23.1264C23.7081 23.1396 23.7071 23.1534 23.7089 23.167C23.7106 23.1806 23.7151 23.1937 23.7221 23.2055C23.728 23.2177 23.7363 23.2284 23.7466 23.2372C23.7568 23.2459 23.7688 23.2524 23.7817 23.2563C23.816 23.2613 23.8499 23.2687 23.8832 23.2784L23.934 23.2938H23.956L24.0465 23.3401L24.0885 23.3666L24.1083 23.3821H24.1238H24.137L24.1591 23.3997L24.1922 23.4328C24.218 23.4572 24.2416 23.4838 24.2628 23.5123C24.2628 23.499 24.2628 23.5123 24.2628 23.5123L24.276 23.5321L24.3069 23.5807C24.325 23.6102 24.3405 23.6412 24.3533 23.6734C24.367 23.6964 24.3892 23.713 24.4151 23.7197C24.4399 23.7297 24.4675 23.7297 24.4923 23.7197C24.515 23.7047 24.5315 23.682 24.5387 23.6557C24.5485 23.6317 24.5485 23.6047 24.5387 23.5807L24.5497 23.6138Z" fill="#B08213"/>
<path d="M23.3426 26.6528C23.3029 28.4801 19.8337 28.4801 19.7939 26.6528H23.3426Z" fill="#B08213" stroke="#B08213" stroke-width="0.141241" stroke-linecap="round" stroke-linejoin="round"/>
</svg>
