<svg width="24" height="24" viewBox="0 0 24 24" fill="none" xmlns="http://www.w3.org/2000/svg">
<path d="M0 4C0 1.79086 1.79086 0 4 0H20C22.2091 0 24 1.79086 24 4V20C24 22.2091 22.2091 24 20 24H4C1.79086 24 0 22.2091 0 20V4Z" fill="#FFF2F2"/>
<path d="M19 11H5C4.73478 11 4.48043 11.1054 4.29289 11.2929C4.10536 11.4804 4 11.7348 4 12C4 12.2652 4.10536 12.5196 4.29289 12.7071C4.48043 12.8946 4.73478 13 5 13H19C19.2652 13 19.5196 12.8946 19.7071 12.7071C19.8946 12.5196 20 12.2652 20 12C20 11.7348 19.8946 11.4804 19.7071 11.2929C19.5196 11.1054 19.2652 11 19 11Z" fill="#AF3A3A"/>
</svg>
