<svg width="18" height="18" viewBox="0 0 18 18" fill="none" xmlns="http://www.w3.org/2000/svg">
<g clip-path="url(#clip0)">
<path d="M8.99788 18C13.9673 18 17.9958 13.9715 17.9958 9.00215C17.9958 4.03276 13.9673 0.00427246 8.99788 0.00427246C4.02849 0.00427246 0 4.03276 0 9.00215C0 13.9715 4.02849 18 8.99788 18Z" fill="#B8DF82"/>
<path d="M11.8215 12.0428C11.7582 14.9495 6.23664 14.9495 6.17334 12.0428H11.8215Z" fill="#5C7C30" stroke="#5C7C30" stroke-width="0.248217" stroke-linecap="round" stroke-linejoin="round"/>
<path d="M4.1165 6.69868C4.1165 6.69868 4.13884 6.6478 4.1165 6.68876L4.13139 6.65525C4.14256 6.63167 4.15497 6.60684 4.16862 6.58326C4.19495 6.53654 4.22396 6.49137 4.2555 6.44798C4.28404 6.40827 4.23068 6.47653 4.26295 6.4393L4.28528 6.41075C4.30266 6.38965 4.32128 6.3698 4.33989 6.34994C4.37879 6.31082 4.42025 6.27433 4.464 6.24072C4.464 6.24072 4.49999 6.21218 4.47889 6.22707C4.4578 6.24196 4.49131 6.21838 4.49627 6.2159C4.50123 6.21342 4.54467 6.18239 4.56949 6.16626C4.61653 6.13626 4.66545 6.10932 4.71594 6.08559H4.72835L4.74697 6.07814C4.77174 6.06816 4.79701 6.05946 4.82268 6.05208C4.87635 6.03494 4.93107 6.02126 4.9865 6.01112C5.03307 5.99704 5.07221 5.96517 5.09544 5.92242C5.11867 5.87968 5.12412 5.8295 5.11061 5.78276C5.09645 5.73595 5.06488 5.69634 5.0224 5.6721C4.97991 5.64786 4.92976 5.64083 4.88225 5.65245C4.62843 5.70241 4.39148 5.8161 4.1937 5.98284C3.99591 6.14958 3.84378 6.36389 3.75162 6.6056C3.73844 6.65233 3.74404 6.70237 3.76722 6.74503C3.79041 6.78769 3.82934 6.8196 3.87573 6.83396C3.92341 6.84594 3.97388 6.83909 4.01664 6.81482C4.0594 6.79055 4.09117 6.75073 4.10533 6.70365L4.1165 6.69868Z" fill="#5C7C30"/>
<path d="M5.33622 9.68476C5.95311 9.68476 6.45319 9.18467 6.45319 8.56778C6.45319 7.95089 5.95311 7.45081 5.33622 7.45081C4.71933 7.45081 4.21924 7.95089 4.21924 8.56778C4.21924 9.18467 4.71933 9.68476 5.33622 9.68476Z" fill="#5C7C30"/>
<path d="M14.2044 6.60064C14.1122 6.35892 13.9601 6.14462 13.7623 5.97788C13.5645 5.81114 13.3276 5.69744 13.0737 5.64748C13.0261 5.63582 12.9757 5.64281 12.9331 5.66704C12.8904 5.69126 12.8586 5.73089 12.8441 5.7778C12.8315 5.82535 12.8381 5.87594 12.8625 5.91866C12.8869 5.96139 12.9271 5.99281 12.9745 6.00616C13.0277 6.0159 13.0803 6.02874 13.1321 6.04463C13.1569 6.05208 13.183 6.06076 13.2078 6.07069L13.2425 6.08435C13.1991 6.06697 13.2425 6.08435 13.2512 6.08435C13.3003 6.10705 13.348 6.13274 13.3939 6.16129L13.461 6.20597L13.4907 6.22831C13.4548 6.20225 13.4907 6.22831 13.4994 6.23576C13.5429 6.26968 13.5844 6.30615 13.6235 6.34497L13.6732 6.39958L13.7017 6.43433C13.7266 6.46412 13.6844 6.40827 13.7079 6.44302C13.7315 6.47777 13.7663 6.52741 13.7923 6.56713L13.8296 6.63911L13.8469 6.67883C13.8345 6.65028 13.8469 6.67883 13.8469 6.68875C13.8587 6.73737 13.8891 6.77942 13.9316 6.80587C13.9741 6.83232 14.0252 6.84107 14.0741 6.83024C14.1201 6.81534 14.1586 6.78334 14.1817 6.74084C14.2048 6.69834 14.2107 6.6486 14.1982 6.60188L14.2044 6.60064Z" fill="#5C7C30"/>
<path d="M12.6243 9.68476C13.2412 9.68476 13.7413 9.18467 13.7413 8.56778C13.7413 7.95089 13.2412 7.45081 12.6243 7.45081C12.0074 7.45081 11.5073 7.95089 11.5073 8.56778C11.5073 9.18467 12.0074 9.68476 12.6243 9.68476Z" fill="#5C7C30"/>
</g>
<defs>
<clipPath id="clip0">
<rect width="17.9958" height="17.9958" fill="white" transform="translate(0 0.00427246)"/>
</clipPath>
</defs>
</svg>
