<svg width="18" height="18" viewBox="0 0 18 18" fill="none" xmlns="http://www.w3.org/2000/svg">
<g clip-path="url(#clip0)">
<path d="M8.99788 18C13.9673 18 17.9958 13.9715 17.9958 9.00215C17.9958 4.03276 13.9673 0.00427246 8.99788 0.00427246C4.02849 0.00427246 0 4.03276 0 9.00215C0 13.9715 4.02849 18 8.99788 18Z" fill="#89C7F6"/>
<path d="M6.14355 13.0978C6.26766 12.9414 7.22206 11.7611 8.87395 11.7326C10.6003 11.7028 11.6167 12.9563 11.7284 13.0978" stroke="#1E82C0" stroke-width="0.744652" stroke-miterlimit="10" stroke-linecap="round"/>
<path d="M3.82378 6.77931C4.10929 6.75743 4.38301 6.65626 4.61413 6.4872C4.84524 6.31814 5.02456 6.08791 5.13188 5.82244C5.14506 5.77571 5.13946 5.72567 5.11627 5.68301C5.09309 5.64035 5.05415 5.60844 5.00777 5.59408C4.9601 5.58241 4.90977 5.58941 4.86709 5.61363C4.82441 5.63786 4.7926 5.67748 4.77817 5.72439C4.79307 5.68716 4.77197 5.7368 4.77073 5.74053L4.75211 5.77776C4.7397 5.80134 4.72729 5.82616 4.7124 5.84974C4.6975 5.87332 4.68137 5.90063 4.66399 5.92545L4.64041 5.95896C4.628 5.97633 4.65531 5.94034 4.63421 5.9664C4.5971 6.0098 4.55775 6.05123 4.5163 6.09051L4.45425 6.14512L4.42322 6.17118C4.45301 6.14636 4.41081 6.17987 4.40833 6.18235C4.36324 6.21391 4.31642 6.24292 4.26809 6.26923C4.24202 6.28412 4.21472 6.29777 4.18742 6.31018C4.16011 6.32259 4.15391 6.32508 4.17873 6.31018L4.14025 6.32508C4.08643 6.34536 4.03128 6.36195 3.97519 6.37472L3.89452 6.39085C3.84115 6.40078 3.93299 6.39085 3.87838 6.39085H3.82874C3.77937 6.39085 3.73202 6.41047 3.6971 6.44538C3.66219 6.48029 3.64258 6.52764 3.64258 6.57702C3.64258 6.62639 3.66219 6.67374 3.6971 6.70865C3.73202 6.74357 3.77937 6.76318 3.82874 6.76318L3.82378 6.77931Z" fill="#1E82C0"/>
<path d="M4.30137 8.94013L6.46955 8.90786C6.46955 8.90786 6.66688 7.42601 5.40221 7.40243C4.13755 7.37884 4.30137 8.94013 4.30137 8.94013Z" fill="#1E82C0" stroke="#1E82C0" stroke-width="0.0310272" stroke-linecap="round" stroke-linejoin="round"/>
<path d="M14.0518 6.407H14.0021C13.9661 6.407 14.017 6.407 13.9947 6.407L13.9128 6.39211C13.8567 6.37916 13.8016 6.36258 13.7477 6.34247L13.7092 6.32757H13.7005C13.6732 6.31516 13.6459 6.30151 13.6199 6.28662C13.569 6.25981 13.5201 6.22954 13.4734 6.19602L13.4523 6.17988L13.4325 6.16375L13.3704 6.10914C13.3262 6.07071 13.2847 6.02924 13.2463 5.98503C13.2364 5.9751 13.224 5.95649 13.2389 5.97759C13.2289 5.96518 13.2202 5.95152 13.2103 5.93787C13.1943 5.91547 13.1794 5.89227 13.1656 5.86837C13.152 5.84479 13.1383 5.82121 13.1259 5.79639L13.1036 5.75295C13.1036 5.7455 13.0812 5.70082 13.0961 5.73682C13.086 5.68794 13.0569 5.64503 13.0154 5.61739C12.9738 5.58975 12.923 5.57959 12.874 5.58913C12.8278 5.60376 12.7891 5.63572 12.7659 5.6783C12.7428 5.72087 12.737 5.77076 12.7499 5.81749C12.8574 6.0828 13.0368 6.31288 13.2679 6.4819C13.499 6.65092 13.7726 6.7522 14.058 6.77436C14.1074 6.77436 14.1547 6.75475 14.1896 6.71984C14.2245 6.68493 14.2441 6.63757 14.2441 6.5882C14.2441 6.53883 14.2245 6.49148 14.1896 6.45656C14.1547 6.42165 14.1074 6.40204 14.058 6.40204L14.0518 6.407Z" fill="#1E82C0"/>
<path d="M13.5738 8.94013L11.4068 8.90786C11.4068 8.90786 11.2083 7.42601 12.4729 7.40243C13.7376 7.37884 13.5738 8.94013 13.5738 8.94013Z" fill="#1E82C0" stroke="#1E82C0" stroke-width="0.0310272" stroke-linecap="round" stroke-linejoin="round"/>
</g>
<defs>
<clipPath id="clip0">
<rect width="17.9958" height="17.9958" fill="white" transform="translate(0 0.00427246)"/>
</clipPath>
</defs>
</svg>
