<svg width="18" height="18" viewBox="0 0 18 18" fill="none" xmlns="http://www.w3.org/2000/svg">
<g clip-path="url(#clip0)">
<path d="M8.99788 18C13.9673 18 17.9958 13.9715 17.9958 9.00215C17.9958 4.03276 13.9673 0.00427246 8.99788 0.00427246C4.02849 0.00427246 0 4.03276 0 9.00215C0 13.9715 4.02849 18 8.99788 18Z" fill="#F8A85F"/>
<path d="M3.6993 7.64936C3.71014 7.5952 3.72423 7.54173 3.74149 7.48926C3.75018 7.46444 3.75887 7.43962 3.7688 7.41479C3.75763 7.44458 3.7688 7.42348 3.7688 7.40611C3.7688 7.38873 3.77872 7.38501 3.78493 7.37384C3.80858 7.32386 3.83597 7.27574 3.86684 7.22987C3.87925 7.21002 3.89415 7.1914 3.9078 7.17154C3.92145 7.15168 3.88918 7.19264 3.914 7.16285L3.94131 7.12934C3.97545 7.08919 4.01192 7.05106 4.05052 7.01516L4.1101 6.96304L4.12747 6.94939L4.11754 6.95683L4.14733 6.93573C4.18986 6.9047 4.23467 6.87691 4.28137 6.85258L4.35831 6.81411C4.3943 6.79673 4.32729 6.82528 4.367 6.81411L4.40671 6.79797C4.45203 6.78304 4.48989 6.75128 4.51247 6.70924C4.53504 6.6672 4.54061 6.6181 4.52803 6.57207C4.51545 6.52605 4.48567 6.48661 4.44485 6.4619C4.40403 6.43719 4.35528 6.4291 4.30867 6.4393C4.06499 6.52734 3.84783 6.67615 3.67777 6.87162C3.50771 7.0671 3.39038 7.30276 3.3369 7.55628C3.32537 7.6033 3.33262 7.65297 3.3571 7.69474C3.38158 7.73652 3.42138 7.7671 3.46804 7.78002C3.5147 7.79294 3.56457 7.78717 3.60704 7.76393C3.64952 7.7407 3.68128 7.70183 3.69557 7.65557L3.6993 7.64936Z" fill="#BE6101"/>
<path d="M5.46073 10.1812C6.07762 10.1812 6.57771 9.68113 6.57771 9.06424C6.57771 8.44735 6.07762 7.94727 5.46073 7.94727C4.84384 7.94727 4.34375 8.44735 4.34375 9.06424C4.34375 9.68113 4.84384 10.1812 5.46073 10.1812Z" fill="#BE6101"/>
<path d="M14.825 7.55009C14.7711 7.29676 14.6536 7.06131 14.4836 6.86591C14.3136 6.6705 14.0966 6.52157 13.8532 6.43312C13.8063 6.4199 13.7561 6.42546 13.7133 6.44863C13.6704 6.4718 13.6382 6.51075 13.6236 6.55722C13.6117 6.60392 13.6179 6.6534 13.6409 6.69575C13.6639 6.73809 13.7021 6.77018 13.7477 6.78558L13.7874 6.80172C13.8334 6.81909 13.7527 6.78434 13.7961 6.80172C13.8197 6.81289 13.8445 6.82406 13.8669 6.83647C13.9138 6.86107 13.959 6.88885 14.0021 6.91962L14.0307 6.94072C14.0654 6.96554 14.0096 6.9221 14.0394 6.94072L14.1039 6.99657C14.1424 7.03256 14.1796 7.07103 14.2144 7.11075L14.2367 7.13929L14.2504 7.15543C14.2379 7.13929 14.2355 7.13557 14.2429 7.14674C14.2504 7.15791 14.2739 7.18894 14.2888 7.21128C14.3173 7.2558 14.3434 7.30178 14.367 7.34904L14.3856 7.38751C14.3856 7.39496 14.4055 7.43964 14.3856 7.3962L14.4117 7.46322C14.43 7.51802 14.4445 7.574 14.4551 7.63076C14.4698 7.67724 14.5019 7.71619 14.5448 7.73936C14.5876 7.76253 14.6378 7.76809 14.6847 7.75487C14.7304 7.73947 14.7686 7.70738 14.7916 7.66504C14.8146 7.62269 14.8208 7.57321 14.8088 7.52651L14.825 7.55009Z" fill="#BE6101"/>
<path d="M12.7039 10.1812C13.3208 10.1812 13.8209 9.68113 13.8209 9.06424C13.8209 8.44735 13.3208 7.94727 12.7039 7.94727C12.087 7.94727 11.5869 8.44735 11.5869 9.06424C11.5869 9.68113 12.087 10.1812 12.7039 10.1812Z" fill="#BE6101"/>
<path d="M10.7977 12.4152C10.7605 14.1403 7.48401 14.139 7.44678 12.4152H10.7977Z" fill="#BE6101" stroke="#BE6101" stroke-width="0.124109" stroke-linecap="round" stroke-linejoin="round"/>
</g>
<defs>
<clipPath id="clip0">
<rect width="17.9958" height="17.9958" fill="white" transform="translate(0 0.00427246)"/>
</clipPath>
</defs>
</svg>
