<svg width="18" height="18" viewBox="0 0 18 18" fill="none" xmlns="http://www.w3.org/2000/svg">
<g clip-path="url(#clip0)">
<path d="M8.99788 18C13.9673 18 17.9958 13.9715 17.9958 9.00215C17.9958 4.03276 13.9673 0.00427246 8.99788 0.00427246C4.02849 0.00427246 0 4.03276 0 9.00215C0 13.9715 4.02849 18 8.99788 18Z" fill="#BFA0E6"/>
<path d="M4.77832 12.9736C5.0799 12.682 6.65857 11.2113 9.12212 11.2361C10.6972 11.2639 12.2038 11.8843 13.3418 12.9736" stroke="#8953C2" stroke-width="0.744652" stroke-miterlimit="10" stroke-linecap="round"/>
<path d="M13.8379 6.52002C13.4656 7.67919 10.7352 8.62987 11.1075 8.62987H13.5897" stroke="#8953C2" stroke-width="0.620544" stroke-linecap="round" stroke-linejoin="round"/>
<path d="M4.28174 6.52002C4.65406 7.67919 7.38446 8.62987 7.01213 8.62987M7.01213 8.62987H4.52996H7.01213Z" stroke="#8953C2" stroke-width="0.620544" stroke-linecap="round" stroke-linejoin="round"/>
</g>
<defs>
<clipPath id="clip0">
<rect width="17.9958" height="17.9958" fill="white" transform="translate(0 0.00427246)"/>
</clipPath>
</defs>
</svg>
