<svg width="18" height="18" viewBox="0 0 18 18" fill="none" xmlns="http://www.w3.org/2000/svg">
<g clip-path="url(#clip0)">
<path d="M8.99788 18C13.9673 18 17.9958 13.9715 17.9958 9.00215C17.9958 4.03276 13.9673 0.00427246 8.99788 0.00427246C4.02849 0.00427246 0 4.03276 0 9.00215C0 13.9715 4.02849 18 8.99788 18Z" fill="#FFD95E"/>
<path d="M4.46818 9.31242L6.57803 8.81599C6.57803 8.81599 6.45392 7.32669 5.21283 7.5749C3.97174 7.82312 4.46818 9.31242 4.46818 9.31242Z" fill="#B08213" stroke="#B08213" stroke-width="0.0310272" stroke-linecap="round" stroke-linejoin="round"/>
<path d="M3.99876 6.86127C4.02323 6.80467 4.051 6.74955 4.08192 6.6962C4.09659 6.66926 4.11274 6.64316 4.13032 6.61802L4.1539 6.58327C4.1539 6.58327 4.18865 6.53735 4.16507 6.56713C4.20173 6.52099 4.2411 6.47706 4.28297 6.43558C4.30409 6.41322 4.32647 6.39209 4.34999 6.37228C4.36017 6.36252 4.37095 6.3534 4.38226 6.34498C4.38226 6.34498 4.42446 6.31023 4.40832 6.32264L4.43066 6.3065L4.47162 6.27796L4.54236 6.23204C4.5954 6.20097 4.65009 6.1728 4.70618 6.14764C4.6826 6.15881 4.70618 6.14764 4.71611 6.14764L4.75583 6.13275L4.85139 6.10172C4.91109 6.08581 4.97157 6.07297 5.03259 6.06325C5.07975 6.05045 5.11992 6.01952 5.14434 5.97719C5.16876 5.93487 5.17543 5.8846 5.1629 5.83737C5.14822 5.79063 5.11637 5.7512 5.07376 5.72701C5.03115 5.70283 4.98096 5.6957 4.9333 5.70706C4.65951 5.7519 4.40124 5.86438 4.18192 6.03429C3.9626 6.2042 3.78915 6.42617 3.67732 6.68007C3.65562 6.72237 3.65047 6.77124 3.66286 6.81713C3.67525 6.86303 3.7043 6.90266 3.74434 6.92829C3.78646 6.95087 3.83562 6.95651 3.88176 6.94406C3.92789 6.9316 3.96753 6.90198 3.99256 6.86127H3.99876Z" fill="#B08213"/>
<path d="M13.4414 9.30376L11.3315 8.80732C11.3315 8.80732 11.4557 7.31802 12.6967 7.56624C13.9378 7.81445 13.4414 9.30376 13.4414 9.30376Z" fill="#B08213" stroke="#B08213" stroke-width="0.0310272" stroke-linecap="round" stroke-linejoin="round"/>
<path d="M14.1771 6.67014C14.0655 6.41604 13.8922 6.1939 13.6728 6.02395C13.4534 5.854 13.195 5.74165 12.9211 5.69713C12.8736 5.6855 12.8234 5.69254 12.781 5.71678C12.7385 5.74102 12.7069 5.78062 12.6927 5.82744C12.6799 5.87416 12.6856 5.92405 12.7088 5.96663C12.7319 6.00921 12.7707 6.04117 12.8169 6.0558C12.8775 6.06552 12.9375 6.07836 12.9968 6.09427C13.0266 6.10296 13.0564 6.11165 13.0849 6.12282L13.1246 6.13647L13.142 6.14392C13.1954 6.16874 13.2488 6.1948 13.2996 6.22459L13.3778 6.27299L13.4113 6.29781C13.4113 6.29781 13.4548 6.33008 13.4399 6.31767L13.461 6.33504L13.4995 6.36731C13.5206 6.38593 13.5404 6.40579 13.5603 6.42564C13.6046 6.46884 13.646 6.51485 13.6844 6.5634C13.6682 6.54231 13.6844 6.5634 13.6844 6.57209L13.7092 6.60684C13.7278 6.63415 13.7452 6.66269 13.7626 6.69248C13.7936 6.74559 13.8209 6.80074 13.8445 6.85754C13.8693 6.89849 13.9089 6.9283 13.9552 6.94078C14.0014 6.95326 14.0506 6.94745 14.0927 6.92456C14.1327 6.89893 14.1618 6.8593 14.1742 6.81341C14.1866 6.76751 14.1814 6.71864 14.1597 6.67634L14.1771 6.67014Z" fill="#B08213"/>
<path d="M12.0389 12.0428C11.9682 15.2808 5.81732 15.2808 5.74658 12.0428H12.0389Z" fill="#B08213" stroke="#B08213" stroke-width="0.248217" stroke-linecap="round" stroke-linejoin="round"/>
</g>
<defs>
<clipPath id="clip0">
<rect width="17.9958" height="17.9958" fill="white" transform="translate(0 0.00427246)"/>
</clipPath>
</defs>
</svg>
