<svg width="57" height="56" viewBox="0 0 57 56" fill="none" xmlns="http://www.w3.org/2000/svg">
<g clip-path="url(#clip0_168_38248)">
<path d="M29 56C44.464 56 57 43.464 57 28C57 12.536 44.464 0 29 0C13.536 0 1 12.536 1 28C1 43.464 13.536 56 29 56Z" fill="#F2F6FF"/>
<path d="M31.96 26.76H32.84C33.96 26.76 34.96 26.04 35.32 24.96C35.44 24.56 35.48 24.16 35.4 23.72L34.6 18.44C34.28 15.72 31.8 13.76 29.08 14.08C26.76 14.36 24.92 16.24 24.72 18.56L23.8 23.48C23.68 24.04 23.76 24.64 24.04 25.12L24.12 25.28C24.56 26.16 25.48 26.72 26.44 26.72H31.96V26.76Z" fill="#2D6187"/>
<path d="M25.64 20.4H25.04C24.48 20.4 24 20.88 24 21.44V22.16C24 22.72 24.44 23.2 25.04 23.2H26L25.64 20.4Z" fill="#FAC5C0"/>
<path d="M37.08 31.68L31.6 29.16H27.64L22.12 31.68C21.44 32 20.92 32.52 20.6 33.2L19.16 41.96H39.04L38.56 33.2C38.28 32.52 37.76 31.96 37.08 31.68Z" fill="#E8605C"/>
<path d="M32.5201 29.56L31.8801 29.24C31.6801 28.52 31.5601 27.8 31.5601 27.04V26.72H27.6001V27.04C27.6001 27.8 27.4801 28.52 27.2801 29.24L26.6801 29.52L25.2401 30.2C25.2401 30.24 25.2801 30.24 25.2801 30.28H25.2401H25.2801C26.4001 32.68 29.2401 33.72 31.6001 32.6C32.6401 32.12 33.4801 31.24 33.9601 30.16L32.5201 29.56Z" fill="#FAC5C0"/>
<path d="M33.9599 30.2401C32.9199 32.6401 30.1199 33.7601 27.6799 32.7201C26.5599 32.2401 25.68 31.3601 25.2 30.2401L26.64 29.5601C27.3599 31.1601 29.2399 31.9201 30.8399 31.2001C31.5599 30.8801 32.1599 30.2801 32.4799 29.5601L33.9599 30.2401Z" fill="#FFCB4D"/>
<path d="M25.84 25.56C24.96 25.68 24.16 25.08 24.04 24.2C23.92 23.32 24.52 22.52 25.4 22.4C26.28 22.28 27.08 22.88 27.2 23.76C27.2 23.84 27.2 23.88 27.2 23.96C27.28 24.76 26.64 25.48 25.84 25.56ZM25.84 23.16C25.52 23.16 25.24 23.52 25.24 23.96C25.24 24.4 25.52 24.76 25.84 24.76C26.16 24.76 26.44 24.4 26.44 23.96C26.44 23.52 26.16 23.16 25.84 23.16Z" fill="#A8A8A8"/>
<path d="M33.48 20.4H34.08C34.64 20.4 35.12 20.84 35.12 21.44V22.16C35.12 22.72 34.68 23.2 34.08 23.2H33.16L33.48 20.4Z" fill="#FAC5C0"/>
<path opacity="0.8" d="M31.56 27.64C31.48 27.72 31.36 27.8 31.28 27.84C30.24 28.48 28.92 28.48 27.92 27.84C27.8 27.76 27.68 27.68 27.6 27.6C27.6 27.44 27.6 27.24 27.6 27.08V26.76H31.56V27.08C31.56 27.28 31.56 27.44 31.56 27.64Z" fill="#FAC5C0"/>
<path d="M26.72 25.76C26 24.32 25.64 22.72 25.64 21.12V20.28C25.64 19.88 25.92 19.56 26.32 19.52C27.84 19.32 29.12 18.28 29.6 16.84C30.08 18.28 31.36 19.32 32.88 19.52C33.28 19.56 33.56 19.88 33.56 20.28V21.12C33.56 22.72 33.2 24.32 32.48 25.76C31.68 27.36 29.76 28 28.2 27.2C27.52 26.88 27.04 26.36 26.72 25.76Z" fill="#FAC5C0"/>
<path d="M21.84 33.52L28.24 37.08C29.12 37.56 29.72 38.44 29.88 39.44L29.96 40.68C30 41.36 29.48 41.92 28.84 41.92C28.8 41.92 28.8 41.92 28.76 41.92H7.08C6.4 41.92 5.88 41.4 5.88 40.72C5.88 40.68 5.88 40.64 5.88 40.56L6.04001 39.32C6.20001 38.36 6.76 37.48 7.6 37L13.6 33.48H21.84V33.52Z" fill="#EAEAE8"/>
<path d="M12.32 25.32V20.52C11.48 19.68 11 18.56 11 17.4V15.76L12.84 16.24C13.92 16.52 15.04 16.64 16.16 16.64H18.88C19.4 16.64 19.88 16.84 20.24 17.2L21.4 18.36C22.2 18.36 22.88 18.84 23.2 19.56C23.44 20.2 23.6 20.88 23.6 21.56V25.28L12.32 25.32Z" fill="#303030"/>
<path d="M15.76 20.52C15.68 20.52 15.64 20.52 15.56 20.48L14.64 20C14 19.68 13.64 19.04 13.64 18.36C13.68 18.12 13.88 17.96 14.12 17.96C14.32 17.96 14.48 18.16 14.52 18.36C14.52 18.72 14.72 19.08 15.04 19.24L16 19.72C16.2 19.84 16.32 20.08 16.2 20.28C16.08 20.44 15.92 20.56 15.76 20.52Z" fill="#303030"/>
<path d="M17.9199 20.52C17.8399 20.52 17.7999 20.52 17.7199 20.48L16.7999 20C16.1599 19.68 15.7999 19.04 15.7999 18.36C15.8399 18.12 16.0399 17.96 16.2799 17.96C16.4799 17.96 16.6399 18.16 16.6799 18.36C16.6799 18.72 16.8799 19.08 17.1999 19.24L18.1599 19.72C18.3599 19.84 18.4799 20.08 18.3599 20.28C18.2399 20.44 18.1199 20.52 17.9199 20.52Z" fill="#303030"/>
<path d="M20.1201 20.52C20.0401 20.52 20.0001 20.52 19.9201 20.48L18.9601 20C18.3201 19.68 17.9601 19.04 17.9601 18.36C18.0001 18.12 18.2001 17.96 18.4401 17.96C18.6401 17.96 18.8001 18.16 18.8401 18.36C18.8401 18.72 19.0401 19.08 19.3601 19.24L20.3201 19.72C20.5201 19.84 20.6401 20.08 20.5201 20.28C20.4401 20.44 20.2801 20.52 20.1201 20.52Z" fill="#303030"/>
<path d="M20.1199 32.24L19.6799 31.36H16.1999L15.7599 32.24L15.3199 32.68L17.9199 34.84L20.5199 32.76L20.1199 32.24Z" fill="#FAC5C0"/>
<path opacity="0.8" d="M20.0001 32.04C18.7201 32.84 17.1201 32.84 15.8401 32.04L16.1601 31.36H19.6401L20.0001 32.04Z" fill="#FAC5C0"/>
<path d="M17.92 31.8C16.36 31.8 14.96 30.84 14.36 29.4C13.84 28.12 13.6 26.76 13.6 25.4V22.28L14.92 20.12H20.96L22.24 22.28V25.4C22.24 26.76 22 28.12 21.48 29.4C20.92 30.84 19.52 31.8 17.92 31.8Z" fill="#FAC5C0"/>
<path d="M13.6 23.5601H13C12.36 23.5601 11.88 24.0801 11.88 24.6801V25.4401C11.88 25.6001 11.92 25.8001 12 25.9601C12.2 26.3601 12.6 26.6001 13 26.6001H14.04L13.6 23.5601Z" fill="#FAC5C0"/>
<path d="M22.2801 23.5601H22.8801C23.5201 23.5601 24.0001 24.0801 24.0001 24.6801V25.4401C24.0001 26.0801 23.4801 26.5601 22.8801 26.5601H21.8401L22.2801 23.5601Z" fill="#FAC5C0"/>
<path d="M9.19995 41.9601V40.24C9.19995 40 9.39995 39.8 9.63995 39.8C9.87995 39.8 10.08 40 10.08 40.24V41.9601H9.19995Z" fill="#CBCBCB"/>
<path d="M25.8401 41.9601V40.24C25.8401 40 26.0401 39.8 26.2801 39.8C26.5201 39.8 26.7201 40 26.7201 40.24V41.9601H25.8401Z" fill="#CBCBCB"/>
<path d="M18.8 37H17.08L16.2 34.4L17.92 34.84L19.64 34.4L18.8 37Z" fill="#2D6187"/>
<path d="M17.08 37L16.64 40.88H19.24L18.8 37H17.08Z" fill="#2D6187"/>
<path d="M18.92 37.84H17L17.08 36.96H18.8L18.92 37.84Z" fill="#0A9ACD"/>
<path d="M15.32 32.24L17.92 34.84L15.32 36.12L13.6 33.52L15.32 32.24Z" fill="#CBCBCB"/>
<path d="M20.5199 36.12L17.9199 34.84L20.5199 32.24L21.7999 33.52L20.5199 36.12Z" fill="#CBCBCB"/>
<path d="M18.92 37.84H17L17.08 36.96H18.8L18.92 37.84Z" fill="#255273"/>
<path d="M43.5601 33.0799L50.4001 37.0399C51.2801 37.5199 51.8401 38.3999 52.0001 39.3999L52.1201 40.6399C52.1601 41.3199 51.6801 41.8799 51.0401 41.9199C51.0001 41.9199 50.9601 41.9199 50.9201 41.9199H31.8801C31.2001 41.9199 30.6801 41.3999 30.6801 40.7199C30.6801 40.6799 30.6801 40.6399 30.6801 40.5999L30.8001 39.3599C30.9601 38.3599 31.5201 37.5199 32.4001 36.9999L39.2801 33.0399" fill="#2D6187"/>
<path d="M44.72 38.6399L46.16 39.5999L45.28 41.9999H44V39.5199L44.72 38.6399Z" fill="#255273"/>
<path d="M39.24 33.08H37.48C36.12 33.08 35 31.96 35 30.6C35 30.56 35 30.48 35 30.44L35.64 21.4C35.8 18.92 37.88 17.04 40.36 17.08H42.04C43.24 17.08 44.36 17.72 44.88 18.8C45.72 19.08 46.4 19.68 46.8 20.44C46.96 20.76 47.08 21.12 47.12 21.48L48.08 28.44C48.28 29.68 47.72 30.92 46.64 31.64L46.6 31.68C46.04 32.04 45.4 32.24 44.72 32.24H43.56L39.24 33.08Z" fill="#EE8066"/>
<path d="M39.2001 31.36V33.08L38.7601 34.4V40.88H43.9601V34.4L43.5201 33.12V31.4H39.2001V31.36Z" fill="#FAC5C0"/>
<path d="M43.5201 31.36V32.36C42.9201 32.84 42.1601 33.08 41.4001 33.08H41.3201C40.5601 33.08 39.8001 32.84 39.2001 32.36V31.36H43.5201Z" fill="#FDC9A6"/>
<path opacity="0.8" d="M43.5201 31.36V32.36C42.9201 32.84 42.1601 33.08 41.4001 33.08H41.3201C40.5601 33.08 39.8001 32.84 39.2001 32.36V31.36H43.5201Z" fill="#FAC5C0"/>
<path d="M33.5201 41.96V40.24C33.4801 40 33.6801 39.8 33.9201 39.76C34.1601 39.72 34.3601 39.92 34.4001 40.16C34.4001 40.2 34.4001 40.2 34.4001 40.24V41.96H33.5201Z" fill="#255273"/>
<path d="M48.4001 41.96V40.24C48.3601 40 48.5601 39.8 48.8001 39.76C49.0401 39.72 49.2401 39.92 49.2801 40.16C49.2801 40.2 49.2801 40.2 49.2801 40.24V41.96H48.4001Z" fill="#255273"/>
<path d="M37.0399 24H36.4399C35.7999 24 35.3199 24.52 35.3199 25.12V25.88C35.3199 26.04 35.3599 26.24 35.4399 26.4C35.6399 26.8 36.0399 27.04 36.4399 27.04H37.2399L37.0399 24Z" fill="#FAC5C0"/>
<path d="M45.72 24H46.32C46.96 24 47.44 24.52 47.44 25.12V25.88C47.44 26.04 47.4 26.24 47.32 26.4C47.12 26.8 46.72 27.04 46.32 27.04H45.52L45.72 24Z" fill="#FAC5C0"/>
<path d="M38.0401 38.6399L36.6401 39.5999L37.5201 41.9999H38.8001V39.5199L38.0401 38.6399Z" fill="#255273"/>
<path d="M39.2 31.8L37 34.28C36.28 35.12 36.24 36.32 36.92 37.2L38.8 39.6V34.4L39.24 33.12V31.8H39.2Z" fill="#255273"/>
<path d="M43.5201 31.8L45.7201 34.28C46.4401 35.08 46.4801 36.32 45.8001 37.2L43.9201 39.6V34.4L43.4801 33.12V31.8H43.5201Z" fill="#255273"/>
<path d="M43.9601 37.4399C42.3201 38.2799 40.4001 38.2799 38.7601 37.4399L38.8001 41.9999H44.0001L43.9601 37.4399Z" fill="#FFCB4D"/>
<path d="M41.4 32.2399H41.32C40.04 32.2399 38.88 31.5199 38.28 30.3599L38.24 30.3199C37.44 28.7199 37 26.9999 37 25.1999V23.1199C38.44 23.1199 39.84 22.7599 41.12 22.0399L43.08 20.9199L45.64 23.9599V25.1999C45.64 26.9199 45.24 28.6399 44.48 30.1999C43.96 31.4799 42.72 32.2399 41.4 32.2399Z" fill="#FAC5C0"/>
<path d="M31.28 24.0801C31.28 24.0801 28.96 24.8401 28 24.7201C28.6 25.9601 29.8 26.4401 30.56 26.0401C31.32 25.6401 31.28 24.0801 31.28 24.0801Z" fill="#D8404D"/>
<path d="M27.84 24.6401C27.96 24.8001 28.08 25.0001 28.24 25.1601C28.88 25.2401 29.56 25.2001 30.16 25.0001C30.56 24.9201 30.92 24.7601 31.24 24.5201C31.24 24.2401 31.24 24.0801 31.24 24.0801C31.24 24.0801 28.8 24.7601 27.84 24.6401Z" fill="white"/>
<path d="M19.1601 28.56C18.9601 28.88 18.6801 29.12 18.3601 29.28C17.9601 29.52 17.4801 29.6 17.0001 29.52C16.9201 29.52 16.9201 29.56 16.9601 29.6C17.8401 30.12 19.1201 29.36 19.4401 28.64C19.5201 28.56 19.2401 28.44 19.1601 28.56Z" fill="#D8404D"/>
<path d="M40.3999 29.9599C40.6799 29.7199 41.0399 29.5199 41.4399 29.4399C41.9999 29.3599 42.5999 29.4799 43.1199 29.7199C43.1999 29.7599 43.2399 29.7199 43.1999 29.6399C42.2399 28.8399 40.6399 28.9999 40.1999 29.6799C40.1199 29.7999 40.2799 30.0399 40.3999 29.9599Z" fill="#D8404D"/>
</g>
<defs>
<clipPath id="clip0_168_38248">
<rect width="56" height="56" fill="white" transform="translate(0.995728)"/>
</clipPath>
</defs>
</svg>
