<svg width="57" height="56" viewBox="0 0 57 56" fill="none" xmlns="http://www.w3.org/2000/svg">
<g clip-path="url(#clip0_168_38223)">
<path d="M29 56C44.464 56 57 43.464 57 28C57 12.536 44.464 0 29 0C13.536 0 1 12.536 1 28C1 43.464 13.536 56 29 56Z" fill="#F2F6FF"/>
<path d="M34.56 14.16C34.08 13.84 33.56 13.56 33.04 13.36C30.44 12.36 27.56 12.36 25 13.36C24.44 13.56 23.96 13.84 23.48 14.16C23.16 14.4 23 14.72 23 15.08V16.88L24.16 17.48L25.32 16.88V15.72C27.68 14.64 30.36 14.64 32.72 15.72V16.88L33.88 17.48L35 16.88V15.08C35 14.72 34.84 14.4 34.56 14.16Z" fill="#EE8066"/>
<path d="M23 16.9199V18.1999L24.16 18.8399L25.32 18.2399V16.9599H23V16.9199Z" fill="#AE5E4A"/>
<path d="M35.0001 16.9199H32.6801V18.1999L33.8401 18.8399L35.0001 18.2399V16.9199Z" fill="#AE5E4A"/>
<path d="M12.3199 30.9199V41.1999C12.3199 42.3999 13.3199 43.3999 14.5199 43.3999H43.4799C44.6799 43.3999 45.6799 42.3999 45.6799 41.1999V30.9199H12.3199Z" fill="#255273"/>
<path d="M12.3199 29.64V30.92C14.1599 32.36 18.9999 35.2 28.9999 35.2C38.9999 35.2 43.8399 32.36 45.6799 30.92V29.64H12.3199Z" fill="#2B4D66"/>
<path d="M12.2 28.8799C13.96 30.3199 18.8 33.2399 29 33.2399C39.2 33.2399 44.04 30.3199 45.8 28.8799C46.32 28.4799 46.6 27.2 46.6 26.56V20.4C46.6 19.2 45.6 18.2 44.4 18.2H13.6C12.4 18.2 11.4 19.2 11.4 20.4V26.56C11.4 27.24 11.72 28.4799 12.2 28.8799Z" fill="#2D6187"/>
<path d="M45.8 28.2799C44.04 29.7199 39.2 32.6399 29 32.6399C18.8 32.6399 13.96 29.7199 12.2 28.2799C11.68 27.8399 11.4 27.2399 11.4 26.5599V27.8399C11.4 28.5199 11.68 29.1199 12.2 29.5599C13.96 30.9999 18.8 33.9199 29 33.9199C39.2 33.9199 44.04 30.9999 45.8 29.5599C46.32 29.1199 46.6 28.5199 46.6 27.8399V26.5599C46.6 27.2399 46.32 27.8399 45.8 28.2799Z" fill="#365E7D"/>
<path d="M28.9999 36.04C30.1599 36.04 31.0799 35.2 31.0799 33.36V32.12C31.0799 31.72 30.7599 31.4 30.3599 31.4H27.6799C27.2799 31.4 26.9599 31.72 26.9599 32.12V33.36C26.9199 35.2 27.8399 36.04 28.9999 36.04Z" fill="#FFCB4D"/>
<path d="M28.9999 35.44C27.8399 35.44 26.9199 34.52 26.9199 33.36V34.64C26.9199 35.8 27.8399 36.72 28.9999 36.72C30.1599 36.72 31.0799 35.8 31.0799 34.64V33.36C31.0799 34.48 30.1599 35.44 28.9999 35.44Z" fill="#FFCB4D"/>
</g>
<defs>
<clipPath id="clip0_168_38223">
<rect width="56" height="56" fill="white" transform="translate(0.995728)"/>
</clipPath>
</defs>
</svg>
