<svg width="57" height="56" viewBox="0 0 57 56" fill="none" xmlns="http://www.w3.org/2000/svg">
<g clip-path="url(#clip0_168_38250)">
<path d="M29 56C44.464 56 57 43.464 57 28C57 12.536 44.464 0 29 0C13.536 0 1 12.536 1 28C1 43.464 13.536 56 29 56Z" fill="#F2F6FF"/>
<path d="M11.92 38.56C11.8 38.56 11.64 38.52 11.56 38.4C11.36 38.2 11.36 37.88 11.56 37.68L20.8 28.44C21 28.24 21.36 28.28 21.52 28.48C21.68 28.68 21.68 29 21.52 29.2L12.28 38.44C12.2 38.52 12.08 38.56 11.92 38.56Z" fill="#A0ECFF"/>
<path d="M13.04 35.16C12.76 35.16 12.52 34.92 12.52 34.64C12.52 34.52 12.56 34.36 12.68 34.28L13.88 33.12C14.12 32.92 14.44 32.96 14.6 33.2C14.76 33.4 14.76 33.68 14.6 33.88L13.4 35.08C13.32 35.12 13.2 35.16 13.04 35.16Z" fill="#A0ECFF"/>
<path d="M15.36 40.44C15.24 40.44 15.08 40.4 15 40.28C14.8 40.08 14.8 39.76 15 39.56L16.2 38.36C16.4 38.16 16.72 38.12 16.92 38.32C17.12 38.52 17.16 38.84 16.96 39.04L16.92 39.08L15.72 40.28C15.64 40.4 15.52 40.44 15.36 40.44Z" fill="#A0ECFF"/>
<path d="M35.6001 38.5601C35.3201 38.5601 35.0801 38.3201 35.0801 38.0401C35.0801 37.9201 35.1201 37.7601 35.2401 37.68L44.4801 28.44C44.6801 28.24 45.0001 28.2 45.2401 28.4C45.4801 28.6 45.4801 28.92 45.2801 29.16L45.2401 29.2L35.9601 38.4401C35.8801 38.5201 35.7201 38.5601 35.6001 38.5601Z" fill="#A0ECFF"/>
<path d="M28.96 35.56L17.8 43.04C17.52 43.28 17.16 43.24 16.92 42.96C16.68 42.68 16.72 42.32 17 42.08L22.52 36.6H18.88C18.52 36.6 18.24 36.32 18.24 35.96C18.24 35.8 18.32 35.64 18.44 35.52L24.32 29.64H29.56L24.76 34.44H28.6C28.96 34.44 29.24 34.72 29.2 35.08C29.24 35.28 29.12 35.48 28.96 35.56Z" fill="#F6CB43"/>
<path d="M28.9601 35.56L17.8001 43.04C17.5201 43.24 17.1601 43.16 16.9601 42.92L26.2001 35.52H22.5201C22.1601 35.52 21.8801 35.24 21.8801 34.88C21.8801 34.72 21.9601 34.56 22.0801 34.44L26.9201 29.6H29.5601L24.7601 34.4H28.6001C28.9601 34.4 29.2401 34.68 29.2001 35.04C29.2401 35.28 29.1201 35.48 28.9601 35.56Z" fill="#FAB03C"/>
<path d="M32.5599 37.4401C32.2799 37.4401 32.0399 37.2001 32.0399 36.9201C32.0399 36.8001 32.0799 36.6401 32.1999 36.5601L36.2799 32.4801C36.4799 32.2801 36.7999 32.2801 36.9999 32.4801C37.1999 32.6801 37.1999 33.0001 36.9999 33.2001L32.9199 37.3201C32.8399 37.4001 32.6799 37.4401 32.5599 37.4401Z" fill="#A0ECFF"/>
<path d="M29.48 40.52C29.36 40.52 29.2 40.48 29.12 40.36C28.92 40.16 28.92 39.84 29.12 39.64L30.44 38.32C30.64 38.12 31 38.16 31.16 38.36C31.32 38.56 31.32 38.88 31.16 39.08L29.84 40.4C29.76 40.48 29.64 40.52 29.48 40.52Z" fill="#A0ECFF"/>
<path d="M30.92 33.9601C30.8 33.9601 30.64 33.9201 30.56 33.8001C30.36 33.6001 30.36 33.2801 30.56 33.0801L34.6 29.0401C34.8 28.8401 35.16 28.8801 35.32 29.0801C35.48 29.2801 35.48 29.6001 35.32 29.8001L31.32 33.8001C31.2 33.9201 31.08 33.9601 30.92 33.9601Z" fill="#A0ECFF"/>
<path d="M41.96 21.3201C41.68 16.3201 37.4 12.5601 32.4 12.8801C28.84 13.1201 25.76 15.4001 24.52 18.7201C21.16 18.8401 18.52 21.6401 18.6 25.0001C18.72 28.2001 21.36 30.8001 24.6 30.8801H41.8C44.44 30.7201 46.48 28.4801 46.32 25.8001C46.2 23.4401 44.32 21.5201 41.96 21.3201Z" fill="#A09D9C"/>
<path opacity="0.3" d="M46.6 26.08C46.6 28.72 44.44 30.88 41.8 30.88H41.44C42.64 28.52 41.72 25.64 39.36 24.4C38.72 24.08 38.04 23.88 37.36 23.88C37.08 19.12 33.12 15.4 28.36 15.4C27.72 15.4 27.08 15.48 26.48 15.6C29.92 12 35.64 11.88 39.24 15.36C40.88 16.92 41.84 19.04 42 21.32C44.56 21.4 46.6 23.52 46.6 26.08Z" fill="#A09D9C"/>
<path d="M17.2 24.04C17.4 20.48 20.48 17.76 24.04 18C26.6 18.16 28.8 19.8 29.68 22.16C32.08 22.24 33.96 24.28 33.88 26.68C33.8 29 31.92 30.84 29.64 30.88H17.32C15.44 30.92 13.88 29.4 13.84 27.52C13.8 25.64 15.32 24.08 17.2 24.04Z" fill="#A09D9C"/>
<path opacity="0.3" d="M33.96 26.52C33.96 28.92 32.04 30.84 29.68 30.88C31.32 29.12 31.2 26.36 29.4 24.72C28.6 24 27.6 23.6 26.52 23.56C25.56 21.04 23.16 19.36 20.48 19.36C20.16 19.36 19.84 19.4 19.52 19.44C22.28 17.16 26.32 17.56 28.6 20.28C29.04 20.84 29.4 21.44 29.68 22.12C32.08 22.2 33.96 24.12 33.96 26.52Z" fill="#A09D9C"/>
<path d="M33.9601 40.52C33.6801 40.48 33.4401 40.24 33.4801 39.96C33.5201 39.72 33.7201 39.52 33.9601 39.48C34.2401 39.52 34.4801 39.76 34.4401 40.04C34.4401 40.28 34.2401 40.48 33.9601 40.52Z" fill="#A0ECFF"/>
<path d="M40.2001 36.9599C39.9201 36.9599 39.6801 36.7199 39.6801 36.4399C39.6801 36.1599 39.9201 35.9199 40.2001 35.9199C40.4801 35.9199 40.7201 36.1599 40.7201 36.4399C40.7201 36.7599 40.4801 36.9599 40.2001 36.9599Z" fill="#A0ECFF"/>
<path d="M14.08 41.76C13.8 41.8 13.52 41.56 13.52 41.28C13.52 41 13.72 40.72 14 40.72C14.04 40.72 14.08 40.72 14.08 40.72C14.36 40.68 14.64 40.92 14.64 41.2C14.64 41.48 14.44 41.76 14.16 41.76C14.16 41.76 14.12 41.76 14.08 41.76Z" fill="#A0ECFF"/>
</g>
<defs>
<clipPath id="clip0_168_38250">
<rect width="56" height="56" fill="white" transform="translate(0.995728)"/>
</clipPath>
</defs>
</svg>
