<svg width="56" height="56" viewBox="0 0 56 56" fill="none" xmlns="http://www.w3.org/2000/svg">
<path d="M28.0044 56C43.4684 56 56.0044 43.464 56.0044 28C56.0044 12.536 43.4684 0 28.0044 0C12.5404 0 0.00439453 12.536 0.00439453 28C0.00439453 43.464 12.5404 56 28.0044 56Z" fill="#F2F6FF"/>
<path d="M39.9244 21.76C43.0614 21.76 45.6044 19.217 45.6044 16.08C45.6044 12.943 43.0614 10.4 39.9244 10.4C36.7874 10.4 34.2444 12.943 34.2444 16.08C34.2444 19.217 36.7874 21.76 39.9244 21.76Z" fill="#C38C66"/>
<path d="M39.9244 19.48C41.8022 19.48 43.3244 17.9578 43.3244 16.08C43.3244 14.2023 41.8022 12.68 39.9244 12.68C38.0466 12.68 36.5244 14.2023 36.5244 16.08C36.5244 17.9578 38.0466 19.48 39.9244 19.48Z" fill="#F4DBB3"/>
<path d="M16.0843 21.76C19.2213 21.76 21.7643 19.217 21.7643 16.08C21.7643 12.943 19.2213 10.4 16.0843 10.4C12.9473 10.4 10.4043 12.943 10.4043 16.08C10.4043 19.217 12.9473 21.76 16.0843 21.76Z" fill="#B57F5F"/>
<path d="M16.0843 19.48C17.9621 19.48 19.4843 17.9578 19.4843 16.08C19.4843 14.2023 17.9621 12.68 16.0843 12.68C14.2066 12.68 12.6843 14.2023 12.6843 16.08C12.6843 17.9578 14.2066 19.48 16.0843 19.48Z" fill="#EAC89F"/>
<path d="M43.8844 29.72C43.8844 33.6 42.4844 37.32 39.9244 40.24C37.0044 43.56 32.7644 45.24 28.0044 45.24C19.2044 45.24 12.8044 38.52 12.8044 29.72C12.8044 24.96 14.2044 20.72 17.4844 17.8C24.0844 11.96 34.1244 12.6 39.9244 19.2C42.4844 22.12 43.8844 25.84 43.8844 29.72Z" fill="#C38C66"/>
<path d="M35.3643 34.8C35.3643 36.48 34.8043 38.12 33.7243 39.44C32.3643 41.12 30.2843 41.8 27.9643 41.8C23.8843 41.8 21.1243 38.88 21.1243 34.8C21.1243 32.48 21.6443 30.4 23.3243 29.04C26.4843 26.48 31.1643 27 33.6843 30.16C34.8043 31.48 35.3643 33.12 35.3643 34.8Z" fill="#F4DBB3"/>
<path d="M31.4043 34.8C31.0843 34.8 30.8443 35.04 30.8443 35.36C30.8443 36 30.3243 36.48 29.7243 36.48C29.0843 36.48 28.6043 35.96 28.6043 35.36V33.68C28.6043 33.36 28.3643 33.12 28.0443 33.12C27.7243 33.12 27.4843 33.36 27.4843 33.68V35.4C27.4843 36.04 26.9643 36.52 26.3643 36.52C25.7243 36.52 25.2443 36 25.2443 35.4C25.2443 35.08 25.0043 34.84 24.6843 34.84C24.3643 34.84 24.1243 35.08 24.1243 35.4C24.1243 36.64 25.1243 37.68 26.3643 37.68C27.0043 37.68 27.6443 37.4 28.0843 36.88C28.8843 37.84 30.3243 37.92 31.2843 37.12C31.7643 36.68 32.0843 36.08 32.0843 35.4C32.0043 35.08 31.7243 34.8 31.4043 34.8Z" fill="#6E4848"/>
<path d="M20.9244 27.44C21.7197 27.44 22.3644 26.7953 22.3644 26C22.3644 25.2047 21.7197 24.56 20.9244 24.56C20.1291 24.56 19.4844 25.2047 19.4844 26C19.4844 26.7953 20.1291 27.44 20.9244 27.44Z" fill="#4B3F4E"/>
<path d="M35.0843 27.44C35.8796 27.44 36.5243 26.7953 36.5243 26C36.5243 25.2047 35.8796 24.56 35.0843 24.56C34.289 24.56 33.6443 25.2047 33.6443 26C33.6443 26.7953 34.289 27.44 35.0843 27.44Z" fill="#4B3F4E"/>
<path d="M29.4445 44.16C20.6845 44.16 13.5645 37.04 13.5645 28.28C13.5645 24.4 14.9645 20.68 17.5245 17.76C10.9245 23.56 10.3245 33.6 16.1245 40.2C21.9245 46.8 31.9645 47.4 38.5645 41.6C39.0445 41.16 39.5245 40.68 39.9645 40.2C37.0445 42.76 33.2845 44.2 29.4445 44.16Z" fill="#B57F5F"/>
<path d="M29.1242 41.08C25.0442 41.08 21.7242 37.76 21.7642 33.68C21.7642 32 22.3242 30.36 23.4042 29.08C20.2042 31.64 19.7242 36.28 22.2442 39.44C24.7642 42.6 29.4442 43.12 32.6042 40.6C33.0442 40.28 33.4042 39.88 33.7642 39.44C32.4442 40.48 30.8042 41.08 29.1242 41.08Z" fill="#EAC89F"/>
<path d="M25.6043 32.4L26.8043 33.6C27.4843 34.24 28.5243 34.24 29.2043 33.6L30.4043 32.4C30.6443 32.16 30.6443 31.8 30.4043 31.56C30.2843 31.44 30.1643 31.4 30.0043 31.4H26.0043C25.6843 31.4 25.4443 31.68 25.4443 32C25.4443 32.16 25.4843 32.28 25.6043 32.4Z" fill="#4B3F4E"/>
</svg>
