<svg width="18" height="18" viewBox="0 0 18 18" fill="none" xmlns="http://www.w3.org/2000/svg">
<path d="M9 18C13.9706 18 18 13.9706 18 9C18 4.02944 13.9706 0 9 0C4.02944 0 0 4.02944 0 9C0 13.9706 4.02944 18 9 18Z" fill="#89C7F6"/>
<path d="M6.14478 13.0965C6.26891 12.9401 7.22353 11.7595 8.87581 11.731C10.6026 11.7012 11.6193 12.955 11.731 13.0965" stroke="#1E82C0" stroke-width="0.744828" stroke-miterlimit="10" stroke-linecap="round"/>
<path d="M5.40997 9.60082C6.027 9.60082 6.52721 9.10061 6.52721 8.48357C6.52721 7.86654 6.027 7.36633 5.40997 7.36633C4.79293 7.36633 4.29272 7.86654 4.29272 8.48357C4.29272 9.10061 4.79293 9.60082 5.40997 9.60082Z" fill="#1E82C0"/>
<path d="M4.1438 5.64954C4.55345 6.14609 5.83952 6.36954 5.78987 6.41919" stroke="#1E82C0" stroke-width="0.496552" stroke-linecap="round" stroke-linejoin="round"/>
<path d="M12.337 9.60082C12.954 9.60082 13.4542 9.10061 13.4542 8.48357C13.4542 7.86654 12.954 7.36633 12.337 7.36633C11.7199 7.36633 11.2197 7.86654 11.2197 8.48357C11.2197 9.10061 11.7199 9.60082 12.337 9.60082Z" fill="#1E82C0"/>
<path d="M13.6033 5.64954C13.1936 6.14609 11.9076 6.36954 11.9572 6.41919" stroke="#1E82C0" stroke-width="0.496552" stroke-linecap="round" stroke-linejoin="round"/>
</svg>
