<svg width="18" height="18" viewBox="0 0 24 24" fill="none" xmlns="http://www.w3.org/2000/svg">
<path d="M12 24C18.6274 24 24 18.6274 24 12C24 5.37258 18.6274 0 12 0C5.37258 0 0 5.37258 0 12C0 18.6274 5.37258 24 12 24Z" fill="#89C7F6"/>
<path d="M4.9343 10.1959C4.94876 10.1236 4.96756 10.0523 4.99058 9.98234C5.00216 9.94924 5.01375 9.91613 5.02699 9.88303C5.01209 9.92275 5.02699 9.89461 5.02699 9.87144C5.02699 9.84827 5.04023 9.8433 5.04851 9.82841C5.08005 9.76176 5.11657 9.69758 5.15775 9.63641C5.1743 9.60993 5.19416 9.5851 5.21237 9.55861C5.23058 9.53213 5.18754 9.58675 5.22065 9.54703L5.25706 9.50234C5.3026 9.44878 5.35123 9.39794 5.40271 9.35006L5.48216 9.28055L5.50533 9.26234L5.49209 9.27227L5.53182 9.24413C5.58855 9.20275 5.6483 9.16568 5.71058 9.13323L5.8132 9.08192C5.8612 9.05875 5.77182 9.09682 5.82478 9.08192L5.87775 9.06041C5.93819 9.04049 5.98868 8.99813 6.01878 8.94207C6.04889 8.886 6.05632 8.82052 6.03954 8.75914C6.02276 8.69775 5.98305 8.64515 5.92861 8.6122C5.87417 8.57925 5.80916 8.56846 5.74699 8.58206C5.42201 8.69948 5.13239 8.89794 4.90559 9.15863C4.67879 9.41932 4.52231 9.73361 4.45099 10.0717C4.43561 10.1344 4.44528 10.2007 4.47793 10.2564C4.51058 10.3121 4.56366 10.3529 4.62589 10.3701C4.68812 10.3873 4.75462 10.3796 4.81127 10.3487C4.86792 10.3177 4.91027 10.2658 4.92933 10.2041L4.9343 10.1959Z" fill="#1E82C0"/>
<path d="M7.28287 13.5724C8.10558 13.5724 8.77252 12.9055 8.77252 12.0828C8.77252 11.2601 8.10558 10.5931 7.28287 10.5931C6.46015 10.5931 5.79321 11.2601 5.79321 12.0828C5.79321 12.9055 6.46015 13.5724 7.28287 13.5724Z" fill="#1E82C0"/>
<path d="M19.7713 10.0635C19.6993 9.7256 19.5427 9.41159 19.3159 9.15099C19.0892 8.89039 18.7999 8.69176 18.4753 8.5738C18.4127 8.55617 18.3458 8.56359 18.2886 8.59449C18.2314 8.62539 18.1886 8.67733 18.169 8.73931C18.1532 8.80159 18.1614 8.86758 18.1921 8.92406C18.2228 8.98053 18.2737 9.02332 18.3346 9.04387L18.3875 9.06538C18.4488 9.08856 18.3412 9.04221 18.3991 9.06538C18.4306 9.08028 18.4637 9.09518 18.4935 9.11173C18.5561 9.14454 18.6163 9.18159 18.6739 9.22263L18.7119 9.25076C18.7583 9.28387 18.6838 9.22594 18.7235 9.25076L18.8096 9.32525C18.8609 9.37325 18.9106 9.42456 18.9569 9.47752L18.9867 9.51559L19.0049 9.53711C18.9884 9.51559 18.985 9.51062 18.995 9.52552C19.0049 9.54042 19.0364 9.5818 19.0562 9.61159C19.0942 9.67097 19.129 9.73229 19.1605 9.79531L19.1853 9.84663C19.1853 9.85656 19.2118 9.91614 19.1853 9.85821L19.2201 9.94759C19.2444 10.0207 19.2638 10.0953 19.278 10.171C19.2975 10.233 19.3404 10.285 19.3976 10.3159C19.4547 10.3468 19.5217 10.3542 19.5842 10.3366C19.6451 10.316 19.696 10.2732 19.7267 10.2167C19.7574 10.1603 19.7656 10.0943 19.7497 10.032L19.7713 10.0635Z" fill="#1E82C0"/>
<path d="M16.9423 13.5724C17.765 13.5724 18.4319 12.9055 18.4319 12.0828C18.4319 11.2601 17.765 10.5931 16.9423 10.5931C16.1196 10.5931 15.4526 11.2601 15.4526 12.0828C15.4526 12.9055 16.1196 13.5724 16.9423 13.5724Z" fill="#1E82C0"/>
<path d="M8.15674 18.5247C8.24115 14.6483 15.605 14.6483 15.6894 18.5247H8.15674Z" fill="#1E82C0" stroke="#1E82C0" stroke-width="0.331035" stroke-linecap="round" stroke-linejoin="round"/>
</svg>
