<svg width="145" height="145" viewBox="0 0 145 145" fill="none" xmlns="http://www.w3.org/2000/svg">
<g clip-path="url(#clip0_7590_44651)">
<path d="M72.5 145C112.541 145 145 112.541 145 72.5C145 32.4594 112.541 0 72.5 0C32.4594 0 0 32.4594 0 72.5C0 112.541 32.4594 145 72.5 145Z" fill="#BFA0E6"/>
<path d="M35.521 104.671C40.7875 100.725 46.9725 98.1848 53.4927 97.2914C60.0128 96.3981 66.6531 97.1806 72.787 99.5651" stroke="#1E82C0" stroke-width="6" stroke-miterlimit="10" stroke-linecap="round"/>
<path d="M109.787 104.671C104.521 100.725 98.3355 98.1848 91.8153 97.2914C85.2952 96.3981 78.6549 97.1806 72.521 99.5651" stroke="#1E82C0" stroke-width="6" stroke-miterlimit="10" stroke-linecap="round"/>
<path d="M111.5 52.5C108.53 61.84 86.5 69.5 89.5 69.5H109.5" stroke="#1E82C0" stroke-width="5" stroke-linecap="round" stroke-linejoin="round"/>
<path d="M36.5 69.5H56.5C59.5 69.5 37.47 61.84 34.5 52.5" stroke="#1E82C0" stroke-width="5" stroke-linecap="round" stroke-linejoin="round"/>
</g>
<defs>
<clipPath id="clip0_7590_44651">
<rect width="145" height="145" fill="white"/>
</clipPath>
</defs>
</svg>
