<svg width="18" height="18" viewBox="0 0 24 24" fill="none" xmlns="http://www.w3.org/2000/svg">
<path d="M12 24C18.6274 24 24 18.6274 24 12C24 5.37258 18.6274 0 12 0C5.37258 0 0 5.37258 0 12C0 18.6274 5.37258 24 12 24Z" fill="#89C7F6"/>
<path d="M5.87915 17.3247C6.75109 16.6717 7.77497 16.2516 8.85426 16.1039C9.93355 15.9562 11.0327 16.0858 12.048 16.4806" stroke="#1E82C0" stroke-width="0.993104" stroke-miterlimit="10" stroke-linecap="round"/>
<path d="M18.172 17.3247C17.3001 16.6717 16.2762 16.2516 15.1969 16.1039C14.1176 15.9562 13.0185 16.0858 12.0032 16.4806" stroke="#1E82C0" stroke-width="0.993104" stroke-miterlimit="10" stroke-linecap="round"/>
<path d="M18.4551 8.68967C17.9586 10.2356 14.3172 11.5035 14.8137 11.5035H18.1241" stroke="#1E82C0" stroke-width="0.827587" stroke-linecap="round" stroke-linejoin="round"/>
<path d="M5.71045 8.68967C6.207 10.2356 9.84838 11.5035 9.35183 11.5035M9.35183 11.5035H6.04148H9.35183Z" stroke="#1E82C0" stroke-width="0.827587" stroke-linecap="round" stroke-linejoin="round"/>
</svg>
