<svg width="145" height="145" viewBox="0 0 145 145" fill="none" xmlns="http://www.w3.org/2000/svg">
<g clip-path="url(#clip0_7589_44641)">
<path d="M72.5 145C112.541 145 145 112.541 145 72.5C145 32.4594 112.541 0 72.5 0C32.4594 0 0 32.4594 0 72.5C0 112.541 32.4594 145 72.5 145Z" fill="#BFA0E6"/>
<path d="M49.5 105.5C50.485 104.241 58.192 94.733 71.5 94.5C85.41 94.257 93.6 104.355 94.5 105.5" stroke="#1E82C0" stroke-width="6" stroke-miterlimit="10" stroke-linecap="round"/>
<path d="M43.583 77.344C48.5536 77.344 52.583 73.3146 52.583 68.344C52.583 63.3734 48.5536 59.344 43.583 59.344C38.6124 59.344 34.583 63.3734 34.583 68.344C34.583 73.3146 38.6124 77.344 43.583 77.344Z" fill="#1E82C0"/>
<path d="M33.376 45.506C36.683 49.513 47.038 51.306 46.638 51.706" stroke="#1E82C0" stroke-width="4" stroke-linecap="round" stroke-linejoin="round"/>
<path d="M99.376 77.344C104.347 77.344 108.376 73.3146 108.376 68.344C108.376 63.3734 104.347 59.344 99.376 59.344C94.4054 59.344 90.376 63.3734 90.376 68.344C90.376 73.3146 94.4054 77.344 99.376 77.344Z" fill="#1E82C0"/>
<path d="M109.583 45.506C106.277 49.513 95.921 51.306 96.322 51.706" stroke="#1E82C0" stroke-width="4" stroke-linecap="round" stroke-linejoin="round"/>
</g>
<defs>
<clipPath id="clip0_7589_44641">
<rect width="145" height="145" fill="white"/>
</clipPath>
</defs>
</svg>
