<svg width="25" height="24" viewBox="0 0 25 24" fill="none" xmlns="http://www.w3.org/2000/svg">
<g clip-path="url(#clip0_4_17556)">
<path d="M12.9957 24C19.6231 24 24.9957 18.6274 24.9957 12C24.9957 5.37258 19.6231 0 12.9957 0C6.36831 0 0.995728 5.37258 0.995728 12C0.995728 18.6274 6.36831 24 12.9957 24Z" fill="#FFD95E"/>
<path d="M9.30139 16.282C9.46691 16.4905 10.7414 18.0646 12.9428 18.1027C15.2451 18.1424 16.6024 16.4707 16.7497 16.282" stroke="#5C7C30" stroke-width="0.993104" stroke-linecap="round" stroke-linejoin="round"/>
<path d="M6.48349 8.928C6.48349 8.928 6.51328 8.86014 6.48349 8.91476L6.50335 8.87007C6.51825 8.83862 6.5348 8.80552 6.55301 8.77407C6.58812 8.71176 6.62681 8.65152 6.66887 8.59366C6.70694 8.54069 6.63577 8.63173 6.6788 8.58207L6.70859 8.544C6.73177 8.51587 6.75659 8.48938 6.78142 8.4629C6.83329 8.41072 6.88859 8.36206 6.94694 8.31725C6.94694 8.31725 6.99494 8.27918 6.9668 8.29904C6.93866 8.3189 6.98335 8.28745 6.98997 8.28414C6.99659 8.28083 7.05452 8.23945 7.08763 8.21793C7.15036 8.17793 7.2156 8.142 7.28294 8.11035H7.29949L7.32432 8.10042C7.35735 8.0871 7.39105 8.0755 7.42528 8.06566C7.49687 8.0428 7.56984 8.02455 7.64377 8.01104C7.70587 7.99225 7.75807 7.94975 7.78905 7.89274C7.82003 7.83574 7.8273 7.76882 7.80928 7.70649C7.7904 7.64405 7.74829 7.59123 7.69164 7.5589C7.63498 7.52657 7.56809 7.51719 7.50473 7.53269C7.16622 7.59932 6.85022 7.75095 6.58645 7.97332C6.32267 8.1957 6.11978 8.4815 5.99687 8.80387C5.97929 8.86619 5.98676 8.93291 6.01768 8.98981C6.0486 9.0467 6.10053 9.08926 6.16239 9.10842C6.22598 9.1244 6.29329 9.11525 6.35032 9.08288C6.40735 9.05052 6.44971 8.99742 6.46859 8.93462L6.48349 8.928Z" fill="#5C7C30"/>
<path d="M6.91655 12.2846L9.73034 11.6226C9.73034 11.6226 9.56482 9.63636 7.90965 9.96739C6.25448 10.2984 6.91655 12.2846 6.91655 12.2846Z" fill="#5C7C30" stroke="#5C7C30" stroke-width="0.0413793" stroke-linecap="round" stroke-linejoin="round"/>
<path d="M20.0667 8.7972C19.9438 8.47484 19.7409 8.18903 19.4771 7.96666C19.2133 7.74429 18.8973 7.59266 18.5588 7.52603C18.4952 7.51047 18.4281 7.5198 18.3712 7.55211C18.3143 7.58442 18.2718 7.63726 18.2526 7.69982C18.2359 7.76213 18.2438 7.82847 18.2746 7.88515C18.3054 7.94183 18.3568 7.98451 18.4181 8.00438C18.4891 8.01737 18.5593 8.0345 18.6283 8.05569C18.6614 8.06562 18.6962 8.0772 18.7293 8.09045L18.7756 8.10865C18.7177 8.08548 18.7756 8.10865 18.7872 8.10865C18.8529 8.13858 18.9165 8.17286 18.9776 8.21127L19.067 8.27086L19.1067 8.30065C19.0587 8.26589 19.1067 8.30065 19.1183 8.31058C19.1729 8.35527 19.2259 8.40493 19.2838 8.45624L19.3483 8.52907C19.3619 8.54376 19.3746 8.55924 19.3864 8.57541C19.4195 8.61513 19.3632 8.54065 19.3947 8.587C19.4261 8.63334 19.4725 8.69955 19.5072 8.75251L19.5569 8.84851L19.5817 8.90148C19.5635 8.86341 19.5817 8.90148 19.5817 8.91472C19.5889 8.94762 19.6027 8.97871 19.6223 9.00611C19.6419 9.0335 19.6669 9.05662 19.6957 9.07406C19.7245 9.0915 19.7566 9.10289 19.7899 9.10755C19.8233 9.11221 19.8572 9.11003 19.8897 9.10115C19.9222 9.09227 19.9525 9.07687 19.9789 9.05589C20.0052 9.03491 20.0271 9.00879 20.043 8.97912C20.0589 8.94945 20.0687 8.91685 20.0716 8.8833C20.0745 8.84975 20.0706 8.81595 20.0601 8.78396L20.0667 8.7972Z" fill="#5C7C30"/>
<path d="M19.1555 12.2846L16.3417 11.6226C16.3417 11.6226 16.5072 9.63636 18.1624 9.96739C19.8175 10.2984 19.1555 12.2846 19.1555 12.2846Z" fill="#5C7C30" stroke="#5C7C30" stroke-width="0.0413793" stroke-linecap="round" stroke-linejoin="round"/>
</g>
<defs>
<clipPath id="clip0_4_17556">
<rect width="24" height="24" fill="white" transform="translate(0.995728)"/>
</clipPath>
</defs>
</svg>
