<svg width="145" height="145" viewBox="0 0 145 145" fill="none" xmlns="http://www.w3.org/2000/svg">
<g clip-path="url(#clip0_7590_44794)">
<path d="M72.5 145C112.541 145 145 112.541 145 72.5C145 32.4594 112.541 0 72.5 0C32.4594 0 0 32.4594 0 72.5C0 112.541 32.4594 145 72.5 145Z" fill="#FFD95E"/>
<path d="M85.156 73.034H59.844C59.378 73.034 59 71 59 68.5C59 66 59.378 63.97 59.844 63.97H85.156C85.622 63.97 86 66 86 68.5C86 71 85.622 73.032 85.156 73.032V73.034Z" fill="#303030"/>
<path d="M101.679 89.5C97.5256 89.5 93.4655 88.2684 90.012 85.9609C86.5586 83.6534 83.867 80.3736 82.2776 76.5364C80.6881 72.6991 80.2722 68.4767 81.0825 64.4031C81.8928 60.3295 83.8929 56.5877 86.8298 53.6508C89.7667 50.7139 93.5085 48.7138 97.5821 47.9035C101.656 47.0932 105.878 47.5091 109.715 49.0985C113.553 50.688 116.832 53.3796 119.14 56.833C121.447 60.2865 122.679 64.3466 122.679 68.5C122.673 74.0677 120.458 79.4056 116.522 83.3425C112.585 87.2795 107.247 89.4939 101.679 89.5ZM101.679 55.9C99.187 55.9 96.7509 56.639 94.6788 58.0235C92.6068 59.408 90.9918 61.3759 90.0381 63.6782C89.0845 65.9805 88.835 68.514 89.3211 70.9581C89.8073 73.4023 91.0073 75.6474 92.7695 77.4096C94.5316 79.1717 96.7767 80.3717 99.2209 80.8579C101.665 81.3441 104.198 81.0946 106.501 80.1409C108.803 79.1872 110.771 77.5723 112.156 75.5002C113.54 73.4281 114.279 70.9921 114.279 68.5C114.275 65.1596 112.946 61.9572 110.584 59.5951C108.222 57.2331 105.019 55.9042 101.679 55.9Z" fill="#303030"/>
<path d="M43.3 89.5C39.1466 89.5 35.0865 88.2684 31.633 85.9609C28.1796 83.6534 25.488 80.3736 23.8985 76.5364C22.3091 72.6991 21.8932 68.4767 22.7035 64.4031C23.5138 60.3295 25.5139 56.5877 28.4508 53.6508C31.3877 50.7139 35.1295 48.7138 39.2031 47.9035C43.2767 47.0932 47.4991 47.5091 51.3364 49.0985C55.1736 50.688 58.4533 53.3796 60.7609 56.833C63.0684 60.2865 64.3 64.3466 64.3 68.5C64.2926 74.0673 62.0777 79.4044 58.1411 83.3411C54.2044 87.2777 48.8673 89.4926 43.3 89.5ZM43.3 55.9C40.808 55.9 38.3719 56.639 36.2998 58.0235C34.2278 59.408 32.6128 61.3759 31.6591 63.6782C30.7055 65.9805 30.4559 68.514 30.9421 70.9581C31.4283 73.4023 32.6283 75.6474 34.3905 77.4096C36.1526 79.1717 38.3977 80.3717 40.8419 80.8579C43.286 81.3441 45.8195 81.0946 48.1218 80.1409C50.4242 79.1872 52.392 77.5723 53.7765 75.5002C55.161 73.4281 55.9 70.9921 55.9 68.5C55.896 65.1595 54.5673 61.9569 52.2052 59.5948C49.8431 57.2327 46.6405 55.904 43.3 55.9Z" fill="#303030"/>
<path d="M97.845 98.0569C97.276 124.147 47.714 124.143 47.15 98.0569H97.845Z" fill="#5C7C30" stroke="#5C7C30" stroke-width="2" stroke-linecap="round" stroke-linejoin="round"/>
<path d="M32.521 46.5799C32.638 46.3799 32.758 46.1929 32.887 46.0049L33.044 45.7829C33.295 45.4309 32.944 45.9019 33.1 45.7079C33.3706 45.3721 33.6611 45.0529 33.97 44.7519C34.116 44.6099 34.2667 44.4719 34.422 44.3379C34.508 44.2639 34.596 44.1929 34.683 44.1189C34.892 43.9439 34.623 44.1589 34.756 44.0619C35.1039 43.806 35.4658 43.5696 35.84 43.3539C36.1957 43.1497 36.563 42.9664 36.94 42.8049C36.682 42.9149 36.973 42.7959 37.024 42.7759C37.13 42.7359 37.237 42.6969 37.344 42.6599C37.538 42.5932 37.733 42.5322 37.929 42.4769C38.3446 42.3618 38.7662 42.27 39.192 42.2019C38.973 42.2379 39.14 42.2079 39.266 42.1949C39.392 42.1819 39.492 42.1729 39.606 42.1649C39.832 42.1489 40.059 42.1419 40.287 42.1399C40.6848 42.1399 41.0663 41.9819 41.3477 41.7006C41.629 41.4192 41.787 41.0377 41.787 40.6399C41.787 40.2421 41.629 39.8605 41.3477 39.5792C41.0663 39.2979 40.6848 39.1399 40.287 39.1399C38.2003 39.1708 36.1556 39.7306 34.3442 40.7671C32.5328 41.8035 31.014 43.2826 29.93 45.0659C29.8306 45.236 29.7657 45.4241 29.7389 45.6193C29.7122 45.8145 29.7242 46.0131 29.7742 46.2037C29.8751 46.5886 30.1249 46.9176 30.4685 47.1184C30.8121 47.3192 31.2214 47.3752 31.6063 47.2742C31.9912 47.1732 32.3202 46.9235 32.521 46.5799Z" fill="#5C7C30"/>
<path d="M43 77C47.4183 77 51 73.4183 51 69C51 64.5817 47.4183 61 43 61C38.5817 61 35 64.5817 35 69C35 73.4183 38.5817 77 43 77Z" fill="#5C7C30"/>
<path d="M114.717 45.2001C113.679 43.3906 112.199 41.8742 110.415 40.7928C108.631 39.7114 106.601 39.1004 104.517 39.0171C104.12 39.0197 103.74 39.1786 103.459 39.4593C103.178 39.7401 103.02 40.1201 103.017 40.5171C103.025 40.9124 103.186 41.2892 103.465 41.5687C103.745 41.8483 104.122 42.0089 104.517 42.0171C104.738 42.0251 104.959 42.0381 105.18 42.0591C105.219 42.0591 105.58 42.1111 105.38 42.0801C105.18 42.0491 105.58 42.1151 105.574 42.1151C105.988 42.19 106.398 42.2902 106.8 42.4151C106.99 42.4731 107.179 42.5368 107.366 42.6061C107.491 42.6521 107.615 42.7001 107.738 42.7511C107.601 42.6941 107.626 42.7021 107.746 42.7581C108.148 42.9445 108.54 43.1524 108.92 43.3811C109.091 43.4851 109.258 43.5938 109.42 43.7071C109.512 43.7701 109.601 43.8361 109.692 43.9001C109.917 44.0581 109.629 43.8401 109.757 43.9491C110.079 44.2221 110.398 44.4931 110.695 44.7941C110.85 44.9521 111.001 45.1141 111.146 45.2821C111.218 45.3651 111.285 45.4541 111.359 45.5361C111.519 45.7141 111.164 45.2631 111.41 45.5991C111.672 45.9572 111.912 46.3305 112.129 46.7171C112.33 47.0605 112.659 47.3102 113.044 47.4111C113.428 47.512 113.838 47.4559 114.181 47.2551C114.524 47.0543 114.774 46.7253 114.875 46.3405C114.976 45.9557 114.92 45.5465 114.719 45.2031L114.717 45.2001Z" fill="#5C7C30"/>
<path d="M101.723 77C106.141 77 109.723 73.4183 109.723 69C109.723 64.5817 106.141 61 101.723 61C97.3047 61 93.723 64.5817 93.723 69C93.723 73.4183 97.3047 77 101.723 77Z" fill="#5C7C30"/>
</g>
<defs>
<clipPath id="clip0_7590_44794">
<rect width="145" height="145" fill="white"/>
</clipPath>
</defs>
</svg>
