<svg width="145" height="145" viewBox="0 0 145 145" fill="none" xmlns="http://www.w3.org/2000/svg">
<g clip-path="url(#clip0_7590_44819)">
<path d="M72.5 145C112.541 145 145 112.541 145 72.5C145 32.4594 112.541 0 72.5 0C32.4594 0 0 32.4594 0 72.5C0 112.541 32.4594 145 72.5 145Z" fill="#FFD95E"/>
<path d="M95.2 97.4871C94.689 120.911 50.193 120.907 49.686 97.4871H95.2Z" fill="#5C7C30" stroke="#5C7C30" stroke-width="2" stroke-linecap="round" stroke-linejoin="round"/>
<path d="M36 75L53 71C53 71 52 59 42 61C32 63 36 75 36 75Z" fill="#5C7C30" stroke="#5C7C30" stroke-width="0.25" stroke-linecap="round" stroke-linejoin="round"/>
<path d="M31.178 53.766C32.0232 52.1449 33.2723 50.7693 34.8046 49.7722C36.3369 48.7751 38.1005 48.1902 39.925 48.074" fill="#5C7C30"/>
<path d="M32.4731 54.523C32.6811 54.1314 32.9122 53.7524 33.1651 53.388C33.2281 53.297 33.2951 53.21 33.3591 53.119C33.4591 52.981 33.2291 53.269 33.4081 53.058C33.5511 52.891 33.6911 52.722 33.8391 52.558C34.1358 52.2363 34.451 51.9321 34.7831 51.647C34.8661 51.576 34.9531 51.51 35.0351 51.439C35.2141 51.283 34.7591 51.639 35.0931 51.394C35.2681 51.267 35.4451 51.142 35.6271 51.023C35.9889 50.7876 36.3646 50.5742 36.7521 50.384C36.8291 50.346 36.9071 50.309 36.9851 50.273C37.0231 50.255 37.4131 50.104 37.0991 50.221C37.2791 50.154 37.4581 50.082 37.6401 50.021C38.0435 49.8845 38.4554 49.7743 38.8731 49.691C38.9731 49.67 39.0821 49.654 39.1861 49.634C39.4771 49.578 39.0431 49.642 39.2281 49.626C39.4611 49.606 39.6921 49.583 39.9281 49.572C40.3259 49.572 40.7074 49.414 40.9887 49.1327C41.27 48.8514 41.4281 48.4698 41.4281 48.072C41.4281 47.6742 41.27 47.2927 40.9887 47.0114C40.7074 46.7301 40.3259 46.572 39.9281 46.572C37.8433 46.6949 35.825 47.3512 34.0666 48.478C32.3083 49.6048 30.8688 51.1643 29.8861 53.007C29.7866 53.1771 29.7217 53.3651 29.6949 53.5602C29.6682 53.7554 29.6801 53.9539 29.7301 54.1444C29.78 54.335 29.867 54.5138 29.9861 54.6708C30.1052 54.8277 30.254 54.9596 30.4241 55.059C30.5941 55.1584 30.7821 55.2234 30.9773 55.2501C31.1724 55.2769 31.3709 55.265 31.5615 55.215C31.752 55.165 31.9309 55.078 32.0878 54.959C32.2447 54.8399 32.3766 54.6911 32.4761 54.521L32.4731 54.523Z" fill="#5C7C30"/>
<path d="M108.305 74.9341L91.3051 70.9341C91.3051 70.9341 92.3051 58.9341 102.305 60.9341C112.305 62.9341 108.305 74.9341 108.305 74.9341Z" fill="#5C7C30" stroke="#5C7C30" stroke-width="0.25" stroke-linecap="round" stroke-linejoin="round"/>
<path d="M112.688 53.734C111.843 52.1127 110.594 50.7369 109.062 49.7397C107.529 48.7426 105.766 48.1578 103.941 48.042" fill="#5C7C30"/>
<path d="M113.983 52.977C113 51.1346 111.56 49.5754 109.802 48.4487C108.044 47.322 106.026 46.6655 103.941 46.542C103.544 46.5446 103.164 46.7035 102.883 46.9842C102.603 47.265 102.444 47.645 102.441 48.042C102.449 48.4373 102.61 48.8141 102.889 49.0936C103.169 49.3732 103.546 49.5338 103.941 49.542C104.153 49.551 104.363 49.569 104.575 49.589C104.975 49.627 104.388 49.549 104.617 49.594C104.717 49.614 104.826 49.628 104.931 49.648C105.349 49.7282 105.761 49.8358 106.165 49.97C106.365 50.037 106.565 50.114 106.765 50.19C106.565 50.114 106.701 50.162 106.821 50.216C106.921 50.261 107.021 50.306 107.112 50.354C107.5 50.5438 107.875 50.7572 108.237 50.993C108.419 51.111 108.596 51.236 108.771 51.364C108.879 51.442 108.889 51.464 108.778 51.364C108.878 51.448 108.978 51.529 109.078 51.614C109.394 51.8842 109.694 52.172 109.978 52.476C110.127 52.6373 110.272 52.804 110.412 52.976C110.484 53.064 110.591 53.205 110.464 53.035C110.531 53.123 110.596 53.212 110.659 53.302C110.927 53.6833 111.17 54.0807 111.389 54.492C111.592 54.8328 111.921 55.0802 112.305 55.1809C112.689 55.2815 113.097 55.2273 113.441 55.03C113.778 54.8233 114.022 54.4944 114.122 54.1121C114.223 53.7297 114.171 53.3234 113.979 52.978L113.983 52.977Z" fill="#5C7C30"/>
</g>
<defs>
<clipPath id="clip0_7590_44819">
<rect width="145" height="145" fill="white"/>
</clipPath>
</defs>
</svg>
