<svg width="145" height="145" viewBox="0 0 145 145" fill="none" xmlns="http://www.w3.org/2000/svg">
<g clip-path="url(#clip0_7590_44849)">
<path d="M72.5 145C112.541 145 145 112.541 145 72.5C145 32.4594 112.541 0 72.5 0C32.4594 0 0 32.4594 0 72.5C0 112.541 32.4594 145 72.5 145Z" fill="#FFD95E"/>
<path d="M50.1851 98.3689C51.1691 99.6279 58.8761 109.136 72.1851 109.369C86.0951 109.612 94.2851 99.5139 95.1851 98.3689" stroke="#5C7C30" stroke-width="6" stroke-linecap="round" stroke-linejoin="round"/>
<path d="M33.17 53.944C33.19 53.89 33.355 53.531 33.198 53.863C33.24 53.774 33.279 53.683 33.321 53.594C33.414 53.394 33.514 53.204 33.621 53.014C33.8336 52.6346 34.0673 52.2673 34.321 51.914C34.55 51.591 34.121 52.148 34.374 51.841C34.437 51.765 34.499 51.688 34.563 51.613C34.704 51.447 34.849 51.286 35 51.129C35.3006 50.8148 35.6198 50.5189 35.956 50.243C35.987 50.217 36.256 50.013 36.083 50.143C35.91 50.273 36.183 50.071 36.216 50.048C36.4087 49.9087 36.6057 49.7754 36.807 49.648C37.1752 49.4172 37.5573 49.2091 37.951 49.025C37.99 49.008 38.294 48.868 38.097 48.957C37.9 49.046 38.207 48.913 38.246 48.898C38.446 48.8187 38.651 48.7467 38.861 48.682C39.2944 48.5457 39.7364 48.4382 40.184 48.36C40.5665 48.2526 40.891 47.9985 41.0871 47.653C41.2832 47.3074 41.3349 46.8985 41.231 46.515C41.1165 46.1371 40.8611 45.8176 40.5178 45.6226C40.1744 45.4275 39.7692 45.3719 39.386 45.467C37.3414 45.8688 35.4325 46.7839 33.8389 48.1263C32.2453 49.4687 31.0192 51.1944 30.276 53.141C30.1716 53.5246 30.2232 53.934 30.4195 54.2796C30.6159 54.6253 30.941 54.8793 31.324 54.986C31.7071 55.0805 32.1118 55.0246 32.4549 54.8299C32.7981 54.6352 33.0536 54.3164 33.169 53.939L33.17 53.944Z" fill="#5C7C30"/>
<path d="M35.7819 74.2251L52.7819 70.2251C52.7819 70.2251 51.7819 58.2251 41.7819 60.2251C31.7819 62.2251 35.7819 74.2251 35.7819 74.2251Z" fill="#5C7C30" stroke="#5C7C30" stroke-width="0.25" stroke-linecap="round" stroke-linejoin="round"/>
<path d="M115.229 53.146C114.486 51.1993 113.26 49.4737 111.666 48.1312C110.073 46.7888 108.164 45.8737 106.119 45.472C105.736 45.3755 105.33 45.4306 104.986 45.6258C104.642 45.821 104.387 46.1413 104.273 46.52C104.173 46.9034 104.226 47.3109 104.422 47.6556C104.618 48.0003 104.94 48.2548 105.321 48.365C105.749 48.4385 106.172 48.5387 106.588 48.665C106.795 48.7316 107 48.8026 107.203 48.878C107.295 48.913 107.387 48.949 107.478 48.987C107.134 48.846 107.505 49.004 107.553 49.026C107.947 49.2105 108.329 49.4185 108.698 49.649C108.882 49.764 109.063 49.885 109.24 50.01C109.321 50.068 109.399 50.128 109.479 50.185C109.188 49.978 109.507 50.21 109.549 50.244C109.885 50.5201 110.204 50.816 110.505 51.13C110.642 51.2733 110.776 51.4196 110.905 51.569C110.982 51.659 111.057 51.751 111.132 51.842C111.332 52.086 110.991 51.632 111.186 51.915C111.423 52.256 111.655 52.596 111.86 52.959C111.966 53.148 112.067 53.34 112.16 53.536C112.211 53.643 112.26 53.751 112.308 53.859C112.201 53.625 112.286 53.808 112.337 53.94C112.451 54.3181 112.706 54.6379 113.05 54.8328C113.393 55.0278 113.799 55.083 114.182 54.987C114.563 54.8777 114.887 54.6233 115.083 54.2784C115.279 53.9335 115.331 53.5255 115.23 53.142L115.229 53.146Z" fill="#5C7C30"/>
<path d="M109.723 74.2251L92.723 70.2251C92.723 70.2251 93.723 58.2251 103.723 60.2251C113.723 62.2251 109.723 74.2251 109.723 74.2251Z" fill="#5C7C30" stroke="#5C7C30" stroke-width="0.25" stroke-linecap="round" stroke-linejoin="round"/>
<path d="M33.191 81.156C30.4436 81.1636 27.7906 82.1596 25.717 83.962C23.643 82.1596 20.9897 81.1636 18.242 81.156C12.5 81.156 8 85.394 8 90.805C8 98.757 23.374 108.67 25.126 109.773C25.3022 109.886 25.5075 109.946 25.717 109.945C25.9223 109.946 26.1238 109.889 26.299 109.782C32.662 105.853 43.434 97.44 43.434 90.805C43.434 85.394 38.934 81.156 33.191 81.156Z" fill="#D86480"/>
<path d="M39.185 84.6339C38.2022 84.6329 37.2599 84.242 36.5649 83.547C35.8699 82.852 35.479 81.9098 35.478 80.9269C35.4821 80.8027 35.4611 80.6789 35.4164 80.5629C35.3717 80.447 35.3041 80.3412 35.2177 80.2518C35.1312 80.1625 35.0277 80.0915 34.9133 80.043C34.7988 79.9945 34.6758 79.9695 34.5515 79.9695C34.4272 79.9695 34.3042 79.9945 34.1897 80.043C34.0753 80.0915 33.9718 80.1625 33.8853 80.2518C33.7989 80.3412 33.7313 80.447 33.6866 80.5629C33.6419 80.6789 33.6209 80.8027 33.625 80.9269C33.6239 81.9099 33.2329 82.8524 32.5377 83.5474C31.8425 84.2424 30.9 84.6331 29.917 84.6339C29.6711 84.6339 29.4353 84.7316 29.2615 84.9054C29.0877 85.0793 28.99 85.3151 28.99 85.5609C28.99 85.8068 29.0877 86.0426 29.2615 86.2164C29.4353 86.3903 29.6711 86.4879 29.917 86.4879C30.9009 86.4887 31.8441 86.8802 32.5395 87.5763C33.2348 88.2723 33.6253 89.216 33.625 90.1999C33.6329 90.4404 33.734 90.6683 33.9069 90.8356C34.0797 91.0029 34.3109 91.0965 34.5515 91.0965C34.7921 91.0965 35.0232 91.0029 35.1961 90.8356C35.369 90.6683 35.4701 90.4404 35.478 90.1999C35.479 89.2171 35.8699 88.2748 36.5649 87.5798C37.2599 86.8849 38.2022 86.494 39.185 86.4929C39.4308 86.4929 39.6666 86.3953 39.8405 86.2214C40.0143 86.0476 40.112 85.8118 40.112 85.5659C40.112 85.3201 40.0143 85.0843 39.8405 84.9104C39.6666 84.7366 39.4308 84.6389 39.185 84.6389V84.6339Z" fill="#FFCA28" stroke="#B94A5B" stroke-width="0.5" stroke-miterlimit="10"/>
<path d="M23.6 99.4751C22.5328 99.474 21.5097 99.0496 20.7551 98.295C20.0005 97.5404 19.5761 96.5173 19.575 95.4501C19.5793 95.3153 19.5564 95.1809 19.5077 95.0551C19.459 94.9293 19.3856 94.8145 19.2917 94.7176C19.1978 94.6207 19.0854 94.5437 18.9612 94.4911C18.837 94.4385 18.7034 94.4114 18.5685 94.4114C18.4336 94.4114 18.3001 94.4385 18.1758 94.4911C18.0516 94.5437 17.9392 94.6207 17.8453 94.7176C17.7514 94.8145 17.678 94.9293 17.6293 95.0551C17.5806 95.1809 17.5578 95.3153 17.562 95.4501C17.5609 96.5173 17.1365 97.5404 16.3819 98.295C15.6273 99.0496 14.6042 99.474 13.537 99.4751C13.2702 99.4751 13.0143 99.5811 12.8257 99.7698C12.637 99.9584 12.531 100.214 12.531 100.481C12.531 100.748 12.637 101.004 12.8257 101.192C13.0143 101.381 13.2702 101.487 13.537 101.487C14.6042 101.488 15.6273 101.913 16.3819 102.667C17.1365 103.422 17.5609 104.445 17.562 105.512C17.5578 105.647 17.5806 105.781 17.6293 105.907C17.678 106.033 17.7514 106.148 17.8453 106.245C17.9392 106.341 18.0516 106.419 18.1758 106.471C18.3001 106.524 18.4336 106.551 18.5685 106.551C18.7034 106.551 18.837 106.524 18.9612 106.471C19.0854 106.419 19.1978 106.341 19.2917 106.245C19.3856 106.148 19.459 106.033 19.5077 105.907C19.5564 105.781 19.5793 105.647 19.575 105.512C19.5761 104.445 20.0005 103.422 20.7551 102.667C21.5097 101.913 22.5328 101.488 23.6 101.487C23.8668 101.487 24.1227 101.381 24.3114 101.192C24.5 101.004 24.606 100.748 24.606 100.481C24.606 100.214 24.5 99.9584 24.3114 99.7698C24.1227 99.5811 23.8668 99.4751 23.6 99.4751Z" fill="#FFCA28" stroke="#B94A5B" stroke-width="0.5" stroke-miterlimit="10"/>
</g>
<defs>
<clipPath id="clip0_7590_44849">
<rect width="145" height="145" fill="white"/>
</clipPath>
</defs>
</svg>
