<svg width="25" height="24" viewBox="0 0 25 24" fill="none" xmlns="http://www.w3.org/2000/svg">
<g clip-path="url(#clip0_4_17512)">
<path d="M12.9957 24C19.6231 24 24.9957 18.6274 24.9957 12C24.9957 5.37258 19.6231 0 12.9957 0C6.36831 0 0.995728 5.37258 0.995728 12C0.995728 18.6274 6.36831 24 12.9957 24Z" fill="#FFD95E"/>
<path d="M9.29907 16.282C9.46459 16.4905 10.7391 18.0646 12.9405 18.1027C15.2428 18.1424 16.6 16.4707 16.7473 16.282" stroke="#5C7C30" stroke-width="0.993104" stroke-linecap="round" stroke-linejoin="round"/>
<path d="M6.48386 8.928C6.48386 8.928 6.51365 8.86014 6.48386 8.91476L6.50372 8.87007C6.51861 8.83862 6.53517 8.80552 6.55337 8.77407C6.58849 8.71176 6.62718 8.65152 6.66924 8.59366C6.7073 8.54069 6.63613 8.63173 6.67917 8.58207L6.70896 8.544C6.73213 8.51587 6.75696 8.48938 6.78179 8.4629C6.83366 8.41072 6.88896 8.36206 6.9473 8.31725C6.9473 8.31725 6.9953 8.27918 6.96717 8.29904C6.93903 8.3189 6.98372 8.28745 6.99034 8.28414C6.99696 8.28083 7.05489 8.23945 7.08799 8.21793C7.15073 8.17793 7.21597 8.142 7.2833 8.11035H7.29986L7.32468 8.10042C7.35772 8.0871 7.39142 8.0755 7.42565 8.06566C7.49723 8.0428 7.57021 8.02455 7.64413 8.01104C7.70624 7.99225 7.75843 7.94975 7.78942 7.89274C7.8204 7.83574 7.82767 7.76882 7.80965 7.70649C7.79076 7.64405 7.74866 7.59123 7.69201 7.5589C7.63535 7.52657 7.56846 7.51719 7.5051 7.53269C7.16659 7.59932 6.85059 7.75095 6.58681 7.97332C6.32304 8.1957 6.12015 8.4815 5.99724 8.80387C5.97966 8.86619 5.98713 8.93291 6.01805 8.98981C6.04897 9.0467 6.1009 9.08926 6.16275 9.10842C6.22635 9.1244 6.29366 9.11525 6.35068 9.08288C6.40771 9.05052 6.45007 8.99742 6.46896 8.93462L6.48386 8.928Z" fill="#5C7C30"/>
<path d="M6.91679 12.2846L9.73058 11.6226C9.73058 11.6226 9.56507 9.63636 7.90989 9.96739C6.25472 10.2984 6.91679 12.2846 6.91679 12.2846Z" fill="#5C7C30" stroke="#5C7C30" stroke-width="0.0413793" stroke-linecap="round" stroke-linejoin="round"/>
<path d="M20.067 8.7972C19.9441 8.47484 19.7412 8.18903 19.4775 7.96666C19.2137 7.74429 18.8977 7.59266 18.5592 7.52603C18.4956 7.51047 18.4285 7.5198 18.3716 7.55211C18.3146 7.58442 18.2722 7.63726 18.253 7.69982C18.2363 7.76213 18.2441 7.82847 18.2749 7.88515C18.3057 7.94183 18.3571 7.98451 18.4185 8.00438C18.4895 8.01737 18.5597 8.0345 18.6287 8.05569C18.6618 8.06562 18.6966 8.0772 18.7297 8.09045L18.776 8.10865C18.7181 8.08548 18.776 8.10865 18.7876 8.10865C18.8533 8.13858 18.9169 8.17286 18.9779 8.21127L19.0673 8.27086L19.107 8.30065C19.059 8.26589 19.107 8.30065 19.1186 8.31058C19.1733 8.35527 19.2262 8.40493 19.2842 8.45624L19.3487 8.52907C19.3623 8.54376 19.375 8.55924 19.3868 8.57541C19.4199 8.61513 19.3636 8.54065 19.395 8.587C19.4265 8.63334 19.4728 8.69955 19.5076 8.75251L19.5573 8.84851L19.5821 8.90148C19.5639 8.86341 19.5821 8.90148 19.5821 8.91472C19.5893 8.94762 19.6031 8.97871 19.6227 9.00611C19.6423 9.0335 19.6673 9.05662 19.6961 9.07406C19.7249 9.0915 19.7569 9.10289 19.7903 9.10755C19.8236 9.11221 19.8576 9.11003 19.8901 9.10115C19.9226 9.09227 19.9529 9.07687 19.9793 9.05589C20.0056 9.03491 20.0274 9.00879 20.0434 8.97912C20.0593 8.94945 20.069 8.91685 20.072 8.8833C20.0749 8.84975 20.071 8.81595 20.0604 8.78396L20.067 8.7972Z" fill="#5C7C30"/>
<path d="M19.1545 12.2846L16.3407 11.6226C16.3407 11.6226 16.5062 9.63636 18.1614 9.96739C19.8166 10.2984 19.1545 12.2846 19.1545 12.2846Z" fill="#5C7C30" stroke="#5C7C30" stroke-width="0.0413793" stroke-linecap="round" stroke-linejoin="round"/>
<path d="M6.48798 13.4333C6.03274 13.4363 5.5938 13.6032 5.25157 13.9034C4.90773 13.6056 4.46838 13.4411 4.0135 13.44C3.06343 13.4333 2.3186 14.1335 2.3186 15.0289C2.3186 16.3531 4.8626 17.9867 5.15391 18.1738C5.18251 18.1937 5.21669 18.2042 5.25157 18.2036C5.28554 18.2032 5.31875 18.1934 5.34757 18.1754C6.40026 17.5249 8.18288 16.1329 8.18288 15.0306C8.18288 14.1351 7.43805 13.435 6.48798 13.435V13.4333Z" fill="#D86480"/>
<path d="M7.47922 14.0077C7.3168 14.0077 7.16103 13.9432 7.04618 13.8283C6.93133 13.7135 6.86681 13.5577 6.86681 13.3953C6.86681 13.3544 6.85059 13.3153 6.82172 13.2864C6.79286 13.2576 6.7537 13.2413 6.71288 13.2413C6.67205 13.2413 6.6329 13.2576 6.60403 13.2864C6.57517 13.3153 6.55895 13.3544 6.55895 13.3953C6.55895 13.5577 6.49443 13.7135 6.37958 13.8283C6.26473 13.9432 6.10896 14.0077 5.94653 14.0077C5.90571 14.0077 5.86656 14.0239 5.83769 14.0528C5.80882 14.0816 5.7926 14.1208 5.7926 14.1616C5.7926 14.2024 5.80882 14.2416 5.83769 14.2705C5.86656 14.2993 5.90571 14.3155 5.94653 14.3155C6.10896 14.3155 6.26473 14.3801 6.37958 14.4949C6.49443 14.6098 6.55895 14.7655 6.55895 14.928C6.55895 14.9482 6.56293 14.9682 6.57066 14.9869C6.5784 15.0055 6.58974 15.0225 6.60403 15.0368C6.61833 15.0511 6.6353 15.0624 6.65397 15.0702C6.67265 15.0779 6.69266 15.0819 6.71288 15.0819C6.73309 15.0819 6.75311 15.0779 6.77179 15.0702C6.79046 15.0624 6.80743 15.0511 6.82172 15.0368C6.83602 15.0225 6.84736 15.0055 6.85509 14.9869C6.86283 14.9682 6.86681 14.9482 6.86681 14.928C6.86681 14.7655 6.93133 14.6098 7.04618 14.4949C7.16103 14.3801 7.3168 14.3155 7.47922 14.3155C7.52005 14.3155 7.5592 14.2993 7.58807 14.2705C7.61694 14.2416 7.63315 14.2024 7.63315 14.1616C7.63315 14.1208 7.61694 14.0816 7.58807 14.0528C7.5592 14.0239 7.52005 14.0077 7.47922 14.0077Z" fill="#FFCA28" stroke="#B94A5B" stroke-width="0.0827586" stroke-miterlimit="10"/>
<path d="M4.89967 16.4639C4.72408 16.4639 4.55568 16.3942 4.43152 16.27C4.30735 16.1459 4.2376 15.9775 4.2376 15.8019C4.2376 15.758 4.22016 15.7159 4.18912 15.6848C4.15808 15.6538 4.11598 15.6364 4.07208 15.6364C4.02819 15.6364 3.98609 15.6538 3.95504 15.6848C3.924 15.7159 3.90657 15.758 3.90657 15.8019C3.90657 15.9775 3.83681 16.1459 3.71265 16.27C3.58849 16.3942 3.42009 16.4639 3.2445 16.4639C3.2006 16.4639 3.1585 16.4814 3.12746 16.5124C3.09642 16.5435 3.07898 16.5856 3.07898 16.6295C3.07898 16.6734 3.09642 16.7155 3.12746 16.7465C3.1585 16.7775 3.2006 16.795 3.2445 16.795C3.42009 16.795 3.58849 16.8647 3.71265 16.9889C3.83681 17.1131 3.90657 17.2815 3.90657 17.457C3.90657 17.5009 3.924 17.543 3.95504 17.5741C3.98609 17.6051 4.02819 17.6226 4.07208 17.6226C4.11598 17.6226 4.15808 17.6051 4.18912 17.5741C4.22016 17.543 4.2376 17.5009 4.2376 17.457C4.2376 17.2815 4.30735 17.1131 4.43152 16.9889C4.55568 16.8647 4.72408 16.795 4.89967 16.795C4.94357 16.795 4.98567 16.7775 5.01671 16.7465C5.04775 16.7155 5.06519 16.6734 5.06519 16.6295C5.06519 16.5856 5.04775 16.5435 5.01671 16.5124C4.98567 16.4814 4.94357 16.4639 4.89967 16.4639Z" fill="#FFCA28" stroke="#B94A5B" stroke-width="0.0827586" stroke-miterlimit="10"/>
</g>
<defs>
<clipPath id="clip0_4_17512">
<rect width="24" height="24" fill="white" transform="translate(0.995728)"/>
</clipPath>
</defs>
</svg>
