<svg width="18" height="18" viewBox="0 0 24 24" fill="none" xmlns="http://www.w3.org/2000/svg">
<path d="M12 24C18.6274 24 24 18.6274 24 12C24 5.37258 18.6274 0 12 0C5.37258 0 0 5.37258 0 12C0 18.6274 5.37258 24 12 24Z" fill="#89C7F6"/>
<path d="M8.23462 18.1242C8.31903 14.2478 15.6829 14.2478 15.7673 18.1242H8.23462Z" fill="#1E82C0" stroke="#1E82C0" stroke-width="0.331035" stroke-linecap="round" stroke-linejoin="round"/>
<path d="M5.09957 9.03562C5.48033 9.00643 5.84539 8.87151 6.15362 8.64604C6.46184 8.42058 6.70099 8.11353 6.84412 7.75948C6.86169 7.69715 6.85422 7.63043 6.8233 7.57354C6.79238 7.51664 6.74046 7.47408 6.6786 7.45493C6.61502 7.43937 6.5479 7.4487 6.49098 7.481C6.43405 7.51331 6.39163 7.56616 6.37239 7.62872C6.39226 7.57906 6.36412 7.64527 6.36246 7.65024L6.33763 7.69989C6.32108 7.73134 6.30453 7.76444 6.28467 7.79589C6.26481 7.82734 6.24329 7.86375 6.22012 7.89686L6.18867 7.94155C6.17212 7.96472 6.20853 7.91672 6.18039 7.95148C6.13091 8.00936 6.07842 8.06461 6.02315 8.11699L5.94039 8.18982L5.89901 8.22458C5.93874 8.19148 5.88246 8.23617 5.87915 8.23948C5.81903 8.28157 5.75658 8.32025 5.69212 8.35534C5.65736 8.3752 5.62095 8.39341 5.58453 8.40996C5.54812 8.42651 5.53984 8.42982 5.57294 8.40996L5.52163 8.42982C5.44985 8.45688 5.3763 8.479 5.3015 8.49603L5.19391 8.51755C5.12274 8.53079 5.24522 8.51755 5.17239 8.51755H5.10619C5.04034 8.51755 4.97719 8.5437 4.93063 8.59027C4.88407 8.63683 4.85791 8.69998 4.85791 8.76582C4.85791 8.83167 4.88407 8.89482 4.93063 8.94138C4.97719 8.98794 5.04034 9.0141 5.10619 9.0141L5.09957 9.03562Z" fill="#1E82C0"/>
<path d="M5.73679 11.9173L8.62838 11.8742C8.62838 11.8742 8.89155 9.89795 7.20493 9.8665C5.51831 9.83505 5.73679 11.9173 5.73679 11.9173Z" fill="#1E82C0" stroke="#1E82C0" stroke-width="0.0413793" stroke-linecap="round" stroke-linejoin="round"/>
<path d="M18.7399 8.53902H18.6736C18.6256 8.53902 18.6935 8.53902 18.6637 8.53902L18.5545 8.51916C18.4797 8.5019 18.4062 8.47978 18.3343 8.45295L18.283 8.43309H18.2714C18.235 8.41654 18.1986 8.39833 18.1639 8.37847C18.0961 8.34271 18.0308 8.30234 17.9685 8.25764L17.9404 8.23613L17.9139 8.21461L17.8312 8.14178C17.7722 8.09052 17.7169 8.03522 17.6656 7.97626C17.6524 7.96302 17.6359 7.93819 17.6557 7.96633C17.6425 7.94978 17.6309 7.93157 17.6176 7.91337C17.5963 7.88348 17.5764 7.85255 17.5581 7.82068C17.5399 7.78923 17.5216 7.75778 17.5051 7.72468L17.4753 7.66675C17.4753 7.65681 17.4455 7.59723 17.4654 7.64523C17.4518 7.58004 17.4131 7.52282 17.3576 7.48596C17.3022 7.44909 17.2345 7.43555 17.1691 7.44826C17.1075 7.46778 17.0558 7.5104 17.025 7.56718C16.9941 7.62397 16.9864 7.6905 17.0036 7.75282C17.147 8.10665 17.3863 8.41349 17.6944 8.63891C18.0026 8.86433 18.3675 8.9994 18.7481 9.02895C18.814 9.02895 18.8771 9.0028 18.9237 8.95624C18.9702 8.90967 18.9964 8.84652 18.9964 8.78068C18.9964 8.71483 18.9702 8.65168 18.9237 8.60512C18.8771 8.55856 18.814 8.5324 18.7481 8.5324L18.7399 8.53902Z" fill="#1E82C0"/>
<path d="M18.1026 11.9173L15.2126 11.8742C15.2126 11.8742 14.9478 9.89795 16.6344 9.8665C18.321 9.83505 18.1026 11.9173 18.1026 11.9173Z" fill="#1E82C0" stroke="#1E82C0" stroke-width="0.0413793" stroke-linecap="round" stroke-linejoin="round"/>
</svg>
