<svg width="145" height="145" viewBox="0 0 145 145" fill="none" xmlns="http://www.w3.org/2000/svg">
<g clip-path="url(#clip0_7590_44660)">
<path d="M72.5 145C112.541 145 145 112.541 145 72.5C145 32.4594 112.541 0 72.5 0C32.4594 0 0 32.4594 0 72.5C0 112.541 32.4594 145 72.5 145Z" fill="#BFA0E6"/>
<path d="M49.751 109.5C50.262 86.0771 94.758 86.0811 95.264 109.5H49.751Z" fill="#1E82C0" stroke="#1E82C0" stroke-width="2" stroke-linecap="round" stroke-linejoin="round"/>
<path d="M30.814 54.5851C33.1128 54.4083 35.3169 53.5941 37.1786 52.2339C39.0403 50.8737 40.4859 49.0214 41.353 46.8851C41.4054 46.6951 41.4198 46.4967 41.3955 46.3012C41.3712 46.1056 41.3086 45.9168 41.2112 45.7454C41.1139 45.5741 40.9838 45.4236 40.8283 45.3026C40.6728 45.1816 40.495 45.0924 40.305 45.0401C39.9218 44.9464 39.5173 45.0028 39.1743 45.1976C38.8313 45.3924 38.5758 45.711 38.46 46.0881C38.583 45.7881 38.413 46.1881 38.4 46.2181C38.353 46.3181 38.3 46.4181 38.254 46.5181C38.154 46.7181 38.047 46.9091 37.935 47.0991C37.81 47.3091 37.679 47.5131 37.535 47.7131C37.472 47.8041 37.405 47.8921 37.342 47.9831C37.242 48.1211 37.47 47.8351 37.292 48.0461C36.995 48.4039 36.6789 48.7454 36.345 49.0691C36.184 49.2221 36.019 49.3691 35.845 49.5121C35.76 49.5831 35.674 49.6531 35.588 49.7221C35.832 49.5221 35.488 49.7921 35.467 49.8081C35.1066 50.0665 34.7309 50.3029 34.342 50.5161C34.128 50.6334 33.9106 50.7434 33.69 50.8461C33.582 50.8961 33.423 50.9651 33.623 50.8821C33.523 50.9241 33.417 50.9641 33.314 51.0031C32.8794 51.1673 32.4344 51.3026 31.982 51.4081C31.766 51.4571 31.549 51.4971 31.331 51.5361C30.901 51.6111 31.637 51.5121 31.203 51.5531C31.071 51.5661 30.938 51.5781 30.803 51.5881C30.4052 51.5881 30.0236 51.7461 29.7423 52.0274C29.461 52.3087 29.303 52.6902 29.303 53.0881C29.303 53.4859 29.461 53.8674 29.7423 54.1487C30.0236 54.43 30.4052 54.5881 30.803 54.5881L30.814 54.5851Z" fill="#1E82C0"/>
<path d="M34.663 72L52.125 71.739C52.125 71.739 53.725 59.804 43.525 59.613C33.325 59.422 34.663 72 34.663 72Z" fill="#1E82C0" stroke="#1E82C0" stroke-width="0.25" stroke-linecap="round" stroke-linejoin="round"/>
<path d="M113.216 51.5851C113.083 51.5751 112.951 51.5631 112.816 51.5501C112.522 51.5231 112.933 51.5781 112.754 51.5431C112.536 51.5011 112.318 51.4681 112.102 51.4191C111.649 51.317 111.203 51.1851 110.767 51.0241C110.667 50.9851 110.561 50.9441 110.458 50.9031C110.296 50.8411 110.643 50.9931 110.389 50.8711C110.169 50.7651 109.95 50.6611 109.735 50.5451C109.326 50.323 108.931 50.0759 108.552 49.8051C108.524 49.7851 108.238 49.5711 108.384 49.6831C108.53 49.7951 108.251 49.5741 108.224 49.5521C108.054 49.4101 107.887 49.2634 107.724 49.1121C107.385 48.7929 107.067 48.4529 106.771 48.0941C106.7 48.0071 106.592 47.8621 106.719 48.0331C106.639 47.9261 106.561 47.8191 106.486 47.7101C106.359 47.5294 106.238 47.3438 106.125 47.1531C106.012 46.9624 105.904 46.7694 105.802 46.5741C105.741 46.4561 105.682 46.3371 105.626 46.2171C105.598 46.1561 105.446 45.7951 105.566 46.0871C105.451 45.7093 105.196 45.39 104.853 45.195C104.509 45 104.104 44.9442 103.721 45.0391C103.339 45.1481 103.016 45.4025 102.82 45.7475C102.624 46.0925 102.571 46.5006 102.673 46.8841C103.54 49.0203 104.985 50.8725 106.847 52.2327C108.708 53.5929 110.912 54.4072 113.211 54.5841C113.608 54.5825 113.989 54.424 114.27 54.143C114.551 53.8621 114.709 53.4814 114.711 53.0841C114.702 52.6892 114.54 52.3131 114.261 52.0338C113.982 51.7545 113.606 51.5935 113.211 51.5841L113.216 51.5851Z" fill="#1E82C0"/>
<path d="M109.368 72L91.905 71.739C91.905 71.739 90.305 59.804 100.505 59.613C110.705 59.422 109.368 72 109.368 72Z" fill="#1E82C0" stroke="#1E82C0" stroke-width="0.25" stroke-linecap="round" stroke-linejoin="round"/>
</g>
<defs>
<clipPath id="clip0_7590_44660">
<rect width="145" height="145" fill="white"/>
</clipPath>
</defs>
</svg>
