<svg width="18" height="18" viewBox="0 0 18 18" fill="none" xmlns="http://www.w3.org/2000/svg">
<path d="M9 18C13.9706 18 18 13.9706 18 9C18 4.02944 13.9706 0 9 0C4.02944 0 0 4.02944 0 9C0 13.9706 4.02944 18 9 18Z" fill="#89C7F6"/>
<path d="M6.23047 13.3585C6.35461 13.2021 7.30923 12.0215 8.9615 11.993C10.6883 11.9632 11.705 13.217 11.8167 13.3585" stroke="#1E82C0" stroke-width="0.744828" stroke-linecap="round" stroke-linejoin="round"/>
<path d="M14.472 12.6012C14.9519 12.6012 15.341 12.2122 15.341 11.7322C15.341 11.2523 14.9519 10.8633 14.472 10.8633C13.9921 10.8633 13.603 11.2523 13.603 11.7322C13.603 12.2122 13.9921 12.6012 14.472 12.6012Z" fill="#BE9DD8" stroke="#1E82C0" stroke-width="0.062069" stroke-miterlimit="10"/>
<path d="M14.8284 7.54761C14.7745 7.29422 14.657 7.05872 14.487 6.86327C14.3169 6.66782 14.0999 6.51884 13.8564 6.43037C13.8095 6.41715 13.7593 6.42272 13.7165 6.44589C13.6736 6.46906 13.6414 6.50802 13.6268 6.55451C13.6149 6.60122 13.621 6.65071 13.6441 6.69306C13.6671 6.73542 13.7052 6.76752 13.7509 6.78292L13.7906 6.79906C13.8366 6.81644 13.7559 6.78168 13.7993 6.79906C13.8229 6.81023 13.8478 6.82141 13.8701 6.83382C13.917 6.85843 13.9623 6.88622 14.0054 6.91699L14.034 6.93809C14.0687 6.96292 14.0129 6.91947 14.0426 6.93809L14.1072 6.99396C14.1457 7.02996 14.1829 7.06844 14.2177 7.10816L14.24 7.13672L14.2537 7.15285C14.2413 7.13672 14.2388 7.13299 14.2462 7.14416C14.2537 7.15534 14.2773 7.18637 14.2922 7.20872C14.3206 7.25325 14.3467 7.29924 14.3704 7.34651L14.389 7.38499C14.389 7.39244 14.4089 7.43713 14.389 7.39368L14.4151 7.46072C14.4333 7.51553 14.4478 7.57152 14.4585 7.6283C14.4731 7.67479 14.5053 7.71375 14.5482 7.73692C14.591 7.7601 14.6413 7.76566 14.6882 7.75244C14.7338 7.73703 14.772 7.70494 14.795 7.66258C14.8181 7.62023 14.8242 7.57074 14.8123 7.52403L14.8284 7.54761Z" fill="#1E82C0"/>
<path d="M12.7068 10.1793C13.3239 10.1793 13.8241 9.6791 13.8241 9.06207C13.8241 8.44503 13.3239 7.94482 12.7068 7.94482C12.0898 7.94482 11.5896 8.44503 11.5896 9.06207C11.5896 9.6791 12.0898 10.1793 12.7068 10.1793Z" fill="#1E82C0"/>
<path d="M3.69807 12.6012C4.17798 12.6012 4.56703 12.2122 4.56703 11.7322C4.56703 11.2523 4.17798 10.8633 3.69807 10.8633C3.21815 10.8633 2.8291 11.2523 2.8291 11.7322C2.8291 12.2122 3.21815 12.6012 3.69807 12.6012Z" fill="#BE9DD8" stroke="#1E82C0" stroke-width="0.062069" stroke-miterlimit="10"/>
<path d="M3.70036 7.6469C3.71121 7.59272 3.7253 7.53925 3.74257 7.48676C3.75126 7.46193 3.75995 7.43711 3.76988 7.41228C3.7587 7.44207 3.76988 7.42097 3.76988 7.40359C3.76988 7.38621 3.77981 7.38249 3.78601 7.37131C3.80967 7.32133 3.83706 7.27319 3.86795 7.22731C3.88036 7.20745 3.89526 7.18883 3.90891 7.16897C3.92257 7.14911 3.89029 7.19007 3.91512 7.16028L3.94243 7.12676C3.97658 7.08659 4.01306 7.04846 4.05167 7.01255L4.11126 6.96042L4.12863 6.94676L4.1187 6.95421L4.1485 6.93311C4.19104 6.90207 4.23586 6.87427 4.28257 6.84993L4.35953 6.81145C4.39553 6.79407 4.3285 6.82262 4.36822 6.81145L4.40795 6.79531C4.45328 6.78038 4.49114 6.74861 4.51372 6.70656C4.5363 6.66451 4.54188 6.6154 4.52929 6.56936C4.51671 6.52332 4.48692 6.48387 4.44609 6.45916C4.40526 6.43445 4.3565 6.42635 4.30988 6.43655C4.06614 6.52462 3.84893 6.67346 3.67883 6.86898C3.50872 7.0645 3.39137 7.30022 3.33788 7.5538C3.32634 7.60083 3.33359 7.65051 3.35808 7.69229C3.38257 7.73408 3.42238 7.76467 3.46905 7.77759C3.51572 7.79051 3.5656 7.78474 3.60809 7.7615C3.65057 7.73826 3.68234 7.69938 3.69663 7.65311L3.70036 7.6469Z" fill="#1E82C0"/>
<path d="M5.46197 10.1793C6.079 10.1793 6.57921 9.6791 6.57921 9.06207C6.57921 8.44503 6.079 7.94482 5.46197 7.94482C4.84493 7.94482 4.34473 8.44503 4.34473 9.06207C4.34473 9.6791 4.84493 10.1793 5.46197 10.1793Z" fill="#1E82C0"/>
</svg>
