<svg width="145" height="145" viewBox="0 0 145 145" fill="none" xmlns="http://www.w3.org/2000/svg">
<g clip-path="url(#clip0_7590_44682)">
<path d="M72.5 145C112.541 145 145 112.541 145 72.5C145 32.4594 112.541 0 72.5 0C32.4594 0 0 32.4594 0 72.5C0 112.541 32.4594 145 72.5 145Z" fill="#BFA0E6"/>
<path d="M29.81 61.5999C29.8951 61.1635 30.008 60.7329 30.148 60.3109C30.216 60.1109 30.293 59.9109 30.369 59.7109C30.279 59.9489 30.338 59.7819 30.401 59.6439C30.442 59.5559 30.483 59.4689 30.526 59.3829C30.7222 58.9836 30.943 58.5969 31.187 58.2249C31.293 58.0629 31.407 57.9069 31.518 57.7489C31.718 57.4679 31.367 57.9269 31.566 57.6839C31.639 57.5939 31.712 57.5039 31.788 57.4159C32.0643 57.0921 32.3595 56.7849 32.672 56.4959C32.828 56.3509 32.989 56.2109 33.153 56.0759C33.197 56.0389 33.242 56.0029 33.288 55.9669C33.152 56.0669 33.127 56.0889 33.214 56.0239C33.301 55.9589 33.369 55.9089 33.447 55.8529C33.7937 55.6065 34.155 55.3814 34.529 55.1789C34.729 55.0679 34.941 54.9689 35.151 54.8689C35.437 54.7329 34.897 54.9609 35.219 54.8379C35.328 54.7969 35.436 54.7539 35.545 54.7139C35.735 54.6614 35.9127 54.5719 36.0681 54.4507C36.2235 54.3295 36.3535 54.1788 36.4507 54.0074C36.5479 53.8359 36.6103 53.647 36.6345 53.4514C36.6586 53.2558 36.644 53.0573 36.5915 52.8674C36.539 52.6774 36.4495 52.4997 36.3283 52.3443C36.2071 52.1889 36.0565 52.0589 35.885 51.9617C35.7135 51.8645 35.5246 51.8021 35.329 51.7779C35.1334 51.7538 34.935 51.7684 34.745 51.8209C32.786 52.5318 31.0398 53.7288 29.6702 55.2996C28.3006 56.8703 27.3525 58.7633 26.915 60.8009C26.8625 60.9908 26.8479 61.1893 26.872 61.3849C26.8962 61.5805 26.9587 61.7694 27.0558 61.9409C27.153 62.1123 27.283 62.263 27.4384 62.3842C27.5938 62.5054 27.7715 62.5949 27.9615 62.6474C28.1515 62.6999 28.3499 62.7145 28.5455 62.6904C28.7411 62.6662 28.93 62.6037 29.1015 62.5066C29.273 62.4094 29.4236 62.2794 29.5448 62.124C29.666 61.9686 29.7555 61.7908 29.808 61.6009L29.81 61.5999Z" fill="#1E82C0"/>
<path d="M44 82C48.9706 82 53 77.9706 53 73C53 68.0294 48.9706 64 44 64C39.0294 64 35 68.0294 35 73C35 77.9706 39.0294 82 44 82Z" fill="#1E82C0"/>
<path d="M119.446 60.8C119.009 58.7624 118.06 56.8694 116.691 55.2987C115.321 53.7279 113.575 52.5309 111.616 51.82C111.232 51.7164 110.823 51.7684 110.478 51.9646C110.133 52.1608 109.878 52.4855 109.771 52.868C109.676 53.2511 109.731 53.6563 109.926 53.9997C110.121 54.3431 110.44 54.5985 110.818 54.713C110.928 54.753 111.036 54.795 111.144 54.837C111.507 54.979 110.861 54.699 111.212 54.868C111.404 54.96 111.596 55.05 111.784 55.151C112.159 55.3511 112.521 55.5739 112.868 55.818C112.947 55.874 113.025 55.932 113.103 55.988C113.381 56.188 112.926 55.837 113.166 56.038C113.343 56.188 113.521 56.338 113.691 56.495C114.004 56.784 114.299 57.0912 114.575 57.415C114.638 57.488 114.7 57.563 114.761 57.638C114.798 57.683 114.834 57.728 114.87 57.774C114.765 57.638 114.746 57.614 114.811 57.701C114.932 57.876 115.06 58.046 115.177 58.224C115.41 58.5797 115.622 58.9487 115.812 59.329C115.863 59.429 115.912 59.538 115.962 59.643C115.988 59.7 116.123 60.061 115.994 59.71C116.061 59.892 116.134 60.07 116.194 60.253C116.342 60.6927 116.462 61.1417 116.551 61.597C116.659 61.9794 116.913 62.3038 117.258 62.5C117.604 62.6962 118.012 62.7483 118.396 62.645C118.774 62.5309 119.094 62.2756 119.289 61.9321C119.484 61.5885 119.539 61.1831 119.443 60.8H119.446Z" fill="#1E82C0"/>
<path d="M102.363 82C107.334 82 111.363 77.9706 111.363 73C111.363 68.0294 107.334 64 102.363 64C97.3925 64 93.363 68.0294 93.363 73C93.363 77.9706 97.3925 82 102.363 82Z" fill="#1E82C0"/>
</g>
<defs>
<clipPath id="clip0_7590_44682">
<rect width="145" height="145" fill="white"/>
</clipPath>
</defs>
</svg>
