<svg width="18" height="18" viewBox="0 0 24 24" fill="none" xmlns="http://www.w3.org/2000/svg">
<path d="M12 24C18.6274 24 24 18.6274 24 12C24 5.37258 18.6274 0 12 0C5.37258 0 0 5.37258 0 12C0 18.6274 5.37258 24 12 24Z" fill="#89C7F6"/>
<path d="M7.31934 17.1906C8.7166 16.2179 10.3805 15.7011 12.0829 15.7109C14.372 15.7341 17.2984 17.6276 17.7105 18.0281" stroke="#1E82C0" stroke-width="0.993104" stroke-miterlimit="10" stroke-linecap="round"/>
<path d="M5.09957 9.03559C5.48033 9.0064 5.84539 8.87148 6.15362 8.64601C6.46184 8.42055 6.70099 8.1135 6.84412 7.75945C6.86169 7.69712 6.85422 7.6304 6.8233 7.57351C6.79238 7.51661 6.74046 7.47405 6.6786 7.4549C6.61502 7.43934 6.5479 7.44866 6.49098 7.48097C6.43405 7.51328 6.39163 7.56613 6.37239 7.62869C6.39226 7.57903 6.36412 7.64524 6.36246 7.65021L6.33763 7.69986C6.32108 7.73131 6.30453 7.76441 6.28467 7.79586C6.26481 7.82731 6.24329 7.86372 6.22012 7.89683L6.18867 7.94152C6.17212 7.96469 6.20853 7.91669 6.18039 7.95145C6.13091 8.00933 6.07842 8.06458 6.02315 8.11696L5.94039 8.18979L5.89901 8.22455C5.93874 8.19145 5.88246 8.23614 5.87915 8.23945C5.81903 8.28154 5.75658 8.32022 5.69212 8.35531C5.65736 8.37517 5.62095 8.39338 5.58453 8.40993C5.54812 8.42648 5.53984 8.42979 5.57294 8.40993L5.52163 8.42979C5.44985 8.45685 5.3763 8.47897 5.3015 8.496L5.19391 8.51752C5.12274 8.53076 5.24522 8.51752 5.17239 8.51752H5.10619C5.04034 8.51752 4.97719 8.54367 4.93063 8.59023C4.88407 8.6368 4.85791 8.69994 4.85791 8.76579C4.85791 8.83164 4.88407 8.89479 4.93063 8.94135C4.97719 8.98791 5.04034 9.01407 5.10619 9.01407L5.09957 9.03559Z" fill="#1E82C0"/>
<path d="M5.73679 11.9172L8.62838 11.8742C8.62838 11.8742 8.89155 9.89792 7.20493 9.86647C5.51831 9.83502 5.73679 11.9172 5.73679 11.9172Z" fill="#1E82C0" stroke="#1E82C0" stroke-width="0.0413793" stroke-linecap="round" stroke-linejoin="round"/>
<path d="M18.7401 8.53905H18.6739C18.6259 8.53905 18.6938 8.53905 18.664 8.53905L18.5547 8.51919C18.48 8.50193 18.4064 8.47981 18.3346 8.45298L18.2833 8.43312H18.2717C18.2353 8.41657 18.1989 8.39836 18.1641 8.3785C18.0963 8.34275 18.031 8.30237 17.9688 8.25767L17.9407 8.23616L17.9142 8.21464L17.8314 8.14181C17.7725 8.09055 17.7172 8.03525 17.6659 7.97629C17.6527 7.96305 17.6361 7.93823 17.656 7.96636C17.6427 7.94981 17.6311 7.9316 17.6179 7.9134C17.5965 7.88352 17.5766 7.85258 17.5583 7.82071C17.5401 7.78926 17.5219 7.75781 17.5053 7.72471L17.4755 7.66678C17.4755 7.65685 17.4458 7.59726 17.4656 7.64526C17.452 7.58007 17.4133 7.52285 17.3579 7.48599C17.3024 7.44912 17.2347 7.43558 17.1693 7.44829C17.1077 7.46781 17.0561 7.51043 17.0252 7.56721C16.9943 7.624 16.9867 7.69053 17.0038 7.75285C17.1473 8.10668 17.3865 8.41352 17.6947 8.63894C18.0028 8.86436 18.3677 8.99943 18.7484 9.02898C18.8142 9.02898 18.8774 9.00283 18.9239 8.95627C18.9705 8.9097 18.9967 8.84655 18.9967 8.78071C18.9967 8.71486 18.9705 8.65171 18.9239 8.60515C18.8774 8.55859 18.8142 8.53243 18.7484 8.53243L18.7401 8.53905Z" fill="#1E82C0"/>
<path d="M18.1028 11.9172L15.2129 11.8742C15.2129 11.8742 14.9481 9.89792 16.6347 9.86647C18.3213 9.83502 18.1028 11.9172 18.1028 11.9172Z" fill="#1E82C0" stroke="#1E82C0" stroke-width="0.0413793" stroke-linecap="round" stroke-linejoin="round"/>
</svg>
