<svg width="25" height="24" viewBox="0 0 25 24" fill="none" xmlns="http://www.w3.org/2000/svg">
<g clip-path="url(#clip0_4_17578)">
<path d="M12.9957 24C19.6231 24 24.9957 18.6274 24.9957 12C24.9957 5.37258 19.6231 0 12.9957 0C6.36831 0 0.995728 5.37258 0.995728 12C0.995728 18.6274 6.36831 24 12.9957 24Z" fill="#FFD95E"/>
<path d="M6.48642 8.928C6.48642 8.928 6.51621 8.86014 6.48642 8.91476L6.50628 8.87007C6.52118 8.83862 6.53773 8.80552 6.55594 8.77407C6.59105 8.71176 6.62974 8.65152 6.6718 8.59366C6.70987 8.54069 6.6387 8.63173 6.68173 8.58207L6.71152 8.544C6.7347 8.51587 6.75952 8.48938 6.78435 8.4629C6.83622 8.41072 6.89152 8.36206 6.94987 8.31725C6.94987 8.31725 6.99787 8.27918 6.96973 8.29904C6.94159 8.3189 6.98628 8.28745 6.9929 8.28414C6.99952 8.28083 7.05745 8.23945 7.09056 8.21793C7.15329 8.17793 7.21853 8.142 7.28587 8.11035H7.30242L7.32725 8.10042C7.36028 8.0871 7.39398 8.0755 7.42821 8.06566C7.4998 8.0428 7.57277 8.02455 7.6467 8.01104C7.7088 7.99225 7.761 7.94975 7.79198 7.89274C7.82296 7.83574 7.83023 7.76882 7.81221 7.70649C7.79333 7.64405 7.75122 7.59123 7.69457 7.5589C7.63791 7.52657 7.57102 7.51719 7.50766 7.53269C7.16915 7.59932 6.85315 7.75095 6.58938 7.97332C6.3256 8.1957 6.12271 8.4815 5.9998 8.80387C5.98222 8.86619 5.98969 8.93291 6.02061 8.98981C6.05153 9.0467 6.10346 9.08926 6.16532 9.10842C6.22891 9.1244 6.29622 9.11525 6.35325 9.08288C6.41027 9.05052 6.45264 8.99742 6.47152 8.93462L6.48642 8.928Z" fill="#5C7C30"/>
<path d="M6.91679 12.2847L9.73058 11.6226C9.73058 11.6226 9.56507 9.63642 7.90989 9.96745C6.25472 10.2985 6.91679 12.2847 6.91679 12.2847Z" fill="#5C7C30" stroke="#5C7C30" stroke-width="0.0413793" stroke-linecap="round" stroke-linejoin="round"/>
<path d="M20.0684 8.79726C19.9455 8.4749 19.7426 8.18909 19.4788 7.96672C19.215 7.74435 18.899 7.59272 18.5605 7.52609C18.497 7.51053 18.4298 7.51986 18.3729 7.55217C18.316 7.58448 18.2736 7.63732 18.2543 7.69989C18.2376 7.76219 18.2455 7.82853 18.2763 7.88521C18.3071 7.94189 18.3585 7.98457 18.4198 8.00444C18.4908 8.01743 18.561 8.03456 18.63 8.05575C18.6631 8.06568 18.6979 8.07726 18.731 8.09051L18.7774 8.10871C18.7194 8.08554 18.7774 8.10871 18.7889 8.10871C18.8546 8.13864 18.9182 8.17292 18.9793 8.21133L19.0687 8.27092L19.1084 8.30071C19.0604 8.26595 19.1084 8.30071 19.12 8.31064C19.1746 8.35533 19.2276 8.40499 19.2855 8.4563L19.35 8.52913C19.3636 8.54382 19.3763 8.5593 19.3881 8.57547C19.4212 8.6152 19.3649 8.54071 19.3964 8.58706C19.4278 8.6334 19.4742 8.69961 19.5089 8.75258L19.5586 8.84857L19.5834 8.90154C19.5652 8.86347 19.5834 8.90154 19.5834 8.91478C19.5906 8.94768 19.6044 8.97878 19.624 9.00617C19.6436 9.03356 19.6686 9.05668 19.6974 9.07412C19.7262 9.09156 19.7583 9.10295 19.7916 9.10761C19.825 9.11227 19.8589 9.11009 19.8914 9.10121C19.9239 9.09233 19.9543 9.07693 19.9806 9.05595C20.007 9.03497 20.0288 9.00886 20.0447 8.97918C20.0606 8.94951 20.0704 8.91691 20.0733 8.88336C20.0762 8.84981 20.0723 8.81601 20.0618 8.78402L20.0684 8.79726Z" fill="#5C7C30"/>
<path d="M19.1572 12.2847L16.3434 11.6226C16.3434 11.6226 16.5089 9.63642 18.1641 9.96745C19.8192 10.2985 19.1572 12.2847 19.1572 12.2847Z" fill="#5C7C30" stroke="#5C7C30" stroke-width="0.0413793" stroke-linecap="round" stroke-linejoin="round"/>
<path d="M13.0786 20.1931C14.3584 20.1931 15.3958 19.1557 15.3958 17.8759C15.3958 16.5961 14.3584 15.5587 13.0786 15.5587C11.7988 15.5587 10.7614 16.5961 10.7614 17.8759C10.7614 19.1557 11.7988 20.1931 13.0786 20.1931Z" fill="#5C7C30"/>
</g>
<defs>
<clipPath id="clip0_4_17578">
<rect width="24" height="24" fill="white" transform="translate(0.995728)"/>
</clipPath>
</defs>
</svg>
