<svg width="145" height="145" viewBox="0 0 145 145" fill="none" xmlns="http://www.w3.org/2000/svg">
<g clip-path="url(#clip0_7590_44915)">
<path d="M72.5 145C112.541 145 145 112.541 145 72.5C145 32.4594 112.541 0 72.5 0C32.4594 0 0 32.4594 0 72.5C0 112.541 32.4594 145 72.5 145Z" fill="#FFD95E"/>
<path d="M33.17 53.944C33.19 53.89 33.355 53.531 33.198 53.863C33.24 53.774 33.279 53.683 33.321 53.594C33.414 53.394 33.514 53.204 33.621 53.014C33.8336 52.6346 34.0673 52.2673 34.321 51.914C34.55 51.591 34.121 52.148 34.374 51.841C34.437 51.765 34.499 51.688 34.563 51.613C34.704 51.447 34.849 51.286 35 51.129C35.3006 50.8148 35.6198 50.5189 35.956 50.243C35.987 50.217 36.256 50.013 36.083 50.143C35.91 50.273 36.183 50.071 36.216 50.048C36.4087 49.9087 36.6057 49.7754 36.807 49.648C37.1752 49.4172 37.5573 49.2091 37.951 49.025C37.99 49.008 38.294 48.868 38.097 48.957C37.9 49.046 38.207 48.913 38.246 48.898C38.446 48.8187 38.651 48.7467 38.861 48.682C39.2944 48.5457 39.7364 48.4382 40.184 48.36C40.5665 48.2526 40.891 47.9985 41.0871 47.653C41.2832 47.3074 41.3349 46.8985 41.231 46.515C41.1165 46.1371 40.8611 45.8176 40.5178 45.6226C40.1744 45.4275 39.7692 45.3719 39.386 45.467C37.3414 45.8688 35.4325 46.7839 33.8389 48.1263C32.2453 49.4687 31.0192 51.1944 30.276 53.141C30.1716 53.5246 30.2232 53.934 30.4195 54.2796C30.6159 54.6253 30.941 54.8793 31.324 54.986C31.7071 55.0805 32.1118 55.0246 32.4549 54.8299C32.7981 54.6352 33.0536 54.3164 33.169 53.939L33.17 53.944Z" fill="#5C7C30"/>
<path d="M35.782 74.2251L52.782 70.2251C52.782 70.2251 51.782 58.2251 41.782 60.2251C31.782 62.2251 35.782 74.2251 35.782 74.2251Z" fill="#5C7C30" stroke="#5C7C30" stroke-width="0.25" stroke-linecap="round" stroke-linejoin="round"/>
<path d="M115.229 53.146C114.486 51.1993 113.26 49.4737 111.666 48.1312C110.072 46.7888 108.164 45.8737 106.119 45.472C105.736 45.3755 105.33 45.4306 104.986 45.6258C104.642 45.821 104.387 46.1413 104.273 46.52C104.173 46.9034 104.226 47.3109 104.422 47.6556C104.618 48.0003 104.94 48.2548 105.321 48.365C105.749 48.4385 106.172 48.5387 106.588 48.665C106.795 48.7316 107 48.8026 107.203 48.878C107.295 48.913 107.387 48.949 107.478 48.987C107.134 48.846 107.505 49.004 107.553 49.026C107.947 49.2105 108.329 49.4185 108.698 49.649C108.882 49.764 109.063 49.885 109.24 50.01C109.321 50.068 109.399 50.128 109.479 50.185C109.188 49.978 109.507 50.21 109.549 50.244C109.885 50.5201 110.204 50.816 110.505 51.13C110.642 51.2733 110.776 51.4196 110.905 51.569C110.982 51.659 111.057 51.751 111.132 51.842C111.332 52.086 110.991 51.632 111.186 51.915C111.423 52.256 111.655 52.596 111.86 52.959C111.966 53.148 112.067 53.34 112.16 53.536C112.211 53.643 112.26 53.751 112.308 53.859C112.201 53.625 112.286 53.808 112.337 53.94C112.451 54.3181 112.706 54.6379 113.05 54.8328C113.393 55.0278 113.799 55.083 114.182 54.987C114.563 54.8777 114.887 54.6233 115.083 54.2784C115.279 53.9335 115.331 53.5255 115.23 53.142L115.229 53.146Z" fill="#5C7C30"/>
<path d="M109.723 74.2251L92.723 70.2251C92.723 70.2251 93.723 58.2251 103.723 60.2251C113.723 62.2251 109.723 74.2251 109.723 74.2251Z" fill="#5C7C30" stroke="#5C7C30" stroke-width="0.25" stroke-linecap="round" stroke-linejoin="round"/>
<path d="M73 122C80.732 122 87 115.732 87 108C87 100.268 80.732 94 73 94C65.268 94 59 100.268 59 108C59 115.732 65.268 122 73 122Z" fill="#5C7C30"/>
</g>
<defs>
<clipPath id="clip0_7590_44915">
<rect width="145" height="145" fill="white"/>
</clipPath>
</defs>
</svg>
