<svg width="18" height="18" viewBox="0 0 24 24" fill="none" xmlns="http://www.w3.org/2000/svg">
<path d="M12 24C18.6274 24 24 18.6274 24 12C24 5.37258 18.6274 0 12 0C5.37258 0 0 5.37258 0 12C0 18.6274 5.37258 24 12 24Z" fill="#89C7F6"/>
<path d="M8.27612 18.2202C8.36054 14.3421 15.7244 14.3437 15.8088 18.2202H8.27612Z" fill="#1E82C0" stroke="#1E82C0" stroke-width="0.331035" stroke-linecap="round" stroke-linejoin="round"/>
<path d="M5.09981 9.03559C5.48058 9.0064 5.84564 8.87148 6.15386 8.64601C6.46208 8.42055 6.70123 8.1135 6.84436 7.75945C6.86194 7.69712 6.85447 7.6304 6.82355 7.57351C6.79263 7.51661 6.7407 7.47405 6.67884 7.4549C6.61527 7.43934 6.54815 7.44866 6.49122 7.48097C6.4343 7.51328 6.39188 7.56613 6.37264 7.62869C6.3925 7.57903 6.36436 7.64524 6.36271 7.65021L6.33788 7.69986C6.32133 7.73131 6.30478 7.76441 6.28491 7.79586C6.26505 7.82731 6.24353 7.86372 6.22036 7.89683L6.18891 7.94152C6.17236 7.96469 6.20878 7.91669 6.18064 7.95145C6.13115 8.00933 6.07866 8.06458 6.0234 8.11696L5.94064 8.18979L5.89926 8.22455C5.93898 8.19145 5.88271 8.23614 5.8794 8.23945C5.81927 8.28154 5.75683 8.32022 5.69236 8.35531C5.6576 8.37517 5.62119 8.39338 5.58478 8.40993C5.54836 8.42648 5.54009 8.42979 5.57319 8.40993L5.52188 8.42979C5.45009 8.45685 5.37654 8.47897 5.30174 8.496L5.19415 8.51752C5.12298 8.53076 5.24546 8.51752 5.17264 8.51752H5.10643C5.04058 8.51752 4.97743 8.54367 4.93087 8.59023C4.88431 8.6368 4.85815 8.69994 4.85815 8.76579C4.85815 8.83164 4.88431 8.89479 4.93087 8.94135C4.97743 8.98791 5.04058 9.01407 5.10643 9.01407L5.09981 9.03559Z" fill="#1E82C0"/>
<path d="M7.16202 12.8855C7.98473 12.8855 8.65167 12.2186 8.65167 11.3959C8.65167 10.5732 7.98473 9.90622 7.16202 9.90622C6.3393 9.90622 5.67236 10.5732 5.67236 11.3959C5.67236 12.2186 6.3393 12.8855 7.16202 12.8855Z" fill="#1E82C0"/>
<path d="M18.7484 8.53905H18.6822C18.6342 8.53905 18.7021 8.53905 18.6723 8.53905C18.6425 8.53905 18.5994 8.52746 18.5647 8.51919C18.4893 8.50216 18.4152 8.48004 18.3429 8.45298L18.2916 8.43312H18.28C18.2436 8.41657 18.2088 8.39836 18.1724 8.3785C18.1048 8.34237 18.0396 8.30201 17.9771 8.25767L17.949 8.23615L17.9225 8.21463L17.8397 8.14181C17.7808 8.09055 17.7255 8.03524 17.6742 7.97629C17.6626 7.96305 17.6444 7.93822 17.6742 7.96636L17.6345 7.91339L17.5749 7.8207C17.5567 7.78925 17.5385 7.75781 17.5219 7.7247L17.4921 7.66677C17.4921 7.65684 17.4623 7.59725 17.4822 7.64525C17.4755 7.61212 17.4623 7.58065 17.4433 7.5527C17.4243 7.52476 17.3998 7.50091 17.3715 7.48255C17.3431 7.4642 17.3113 7.45171 17.278 7.44582C17.2447 7.43994 17.2106 7.44078 17.1776 7.44829C17.116 7.4678 17.0644 7.51043 17.0335 7.56721C17.0026 7.62399 16.995 7.69053 17.0121 7.75284C17.1556 8.10667 17.3948 8.41352 17.703 8.63894C18.0111 8.86435 18.376 8.99942 18.7567 9.02898C18.8225 9.02898 18.8857 9.00282 18.9322 8.95626C18.9788 8.9097 19.005 8.84655 19.005 8.7807C19.005 8.71486 18.9788 8.65171 18.9322 8.60515C18.8857 8.55858 18.8225 8.53243 18.7567 8.53243L18.7484 8.53905Z" fill="#1E82C0"/>
<path d="M16.6859 12.8855C17.5087 12.8855 18.1756 12.2186 18.1756 11.3959C18.1756 10.5732 17.5087 9.90622 16.6859 9.90622C15.8632 9.90622 15.1963 10.5732 15.1963 11.3959C15.1963 12.2186 15.8632 12.8855 16.6859 12.8855Z" fill="#1E82C0"/>
<path d="M3.76733 11.8014C3.73401 11.7509 3.68866 11.7094 3.63537 11.6807C3.58207 11.652 3.52248 11.637 3.46195 11.637C3.40142 11.637 3.34183 11.652 3.28853 11.6807C3.23523 11.7094 3.18989 11.7509 3.15657 11.8014C2.9745 12.1324 2.0625 13.7876 2.0625 14.4232C2.0625 14.6071 2.09872 14.7892 2.16909 14.959C2.23946 15.1289 2.3426 15.2833 2.47263 15.4133C2.60266 15.5434 2.75702 15.6465 2.92691 15.7169C3.0968 15.7872 3.27889 15.8235 3.46278 15.8235C3.64666 15.8235 3.82875 15.7872 3.99864 15.7169C4.16853 15.6465 4.32289 15.5434 4.45292 15.4133C4.58295 15.2833 4.68609 15.1289 4.75646 14.959C4.82683 14.7892 4.86305 14.6071 4.86305 14.4232C4.86305 13.7843 3.95105 12.1275 3.76733 11.8014Z" fill="#03A9F4" stroke="#1E82C0" stroke-width="0.165517" stroke-miterlimit="10"/>
</svg>
