<svg width="145" height="145" viewBox="0 0 145 145" fill="none" xmlns="http://www.w3.org/2000/svg">
<g clip-path="url(#clip0_7590_44871)">
<path d="M72.5 145C112.541 145 145 112.541 145 72.5C145 32.4594 112.541 0 72.5 0C32.4594 0 0 32.4594 0 72.5C0 112.541 32.4594 145 72.5 145Z" fill="#FFD95E"/>
<path d="M97.845 96.0569C97.276 122.147 47.714 122.143 47.15 96.0569H97.845Z" fill="#5C7C30" stroke="#5C7C30" stroke-width="2" stroke-linecap="round" stroke-linejoin="round"/>
<path d="M32.6 53.708C32.8166 53.3212 33.0563 52.9479 33.318 52.59C33.393 52.49 33.418 52.466 33.327 52.578C33.399 52.494 33.467 52.407 33.539 52.323C33.684 52.155 33.833 51.991 33.987 51.833C34.2819 51.5322 34.593 51.2478 34.919 50.981C35.243 50.714 34.785 51.068 34.983 50.93C35.074 50.867 35.162 50.799 35.253 50.736C35.435 50.6093 35.6206 50.488 35.81 50.372C36.1696 50.1525 36.5416 49.9539 36.924 49.777C36.977 49.752 37.263 49.63 36.993 49.742C37.093 49.699 37.198 49.659 37.302 49.62C37.488 49.55 37.677 49.485 37.867 49.42C38.2894 49.287 38.7199 49.1814 39.156 49.104C39.244 49.088 39.331 49.076 39.419 49.06C39.109 49.115 39.414 49.06 39.481 49.06C39.724 49.035 39.967 49.019 40.211 49.01C40.6088 49.01 40.9903 48.852 41.2716 48.5707C41.5529 48.2894 41.711 47.9078 41.711 47.51C41.711 47.1122 41.5529 46.7307 41.2716 46.4494C40.9903 46.168 40.6088 46.01 40.211 46.01C38.1266 46.0938 36.0976 46.705 34.3137 47.7863C32.5299 48.8676 31.0494 50.3838 30.011 52.193C29.8168 52.536 29.7655 52.9416 29.868 53.3221C29.9705 53.7026 30.2186 54.0275 30.5588 54.2266C30.8989 54.4256 31.3037 54.4828 31.6857 54.3857C32.0676 54.2887 32.3961 54.0453 32.6 53.708Z" fill="#5C7C30"/>
<path d="M43 78C47.9706 78 52 73.9706 52 69C52 64.0294 47.9706 60 43 60C38.0294 60 34 64.0294 34 69C34 73.9706 38.0294 78 43 78Z" fill="#5C7C30"/>
<path d="M114.717 52.2001C113.679 50.3906 112.199 48.8742 110.415 47.7928C108.631 46.7114 106.601 46.1004 104.517 46.0171C104.12 46.0197 103.74 46.1786 103.459 46.4593C103.178 46.7401 103.02 47.1201 103.017 47.5171C103.025 47.9124 103.186 48.2892 103.465 48.5687C103.745 48.8483 104.122 49.0089 104.517 49.0171C104.738 49.0251 104.959 49.0381 105.18 49.0591C105.219 49.0591 105.58 49.1111 105.38 49.0801C105.18 49.0491 105.58 49.1151 105.574 49.1151C105.988 49.19 106.398 49.2902 106.8 49.4151C106.99 49.4731 107.179 49.5368 107.366 49.6061C107.491 49.6521 107.615 49.7001 107.738 49.7511C107.601 49.6941 107.626 49.7021 107.746 49.7581C108.148 49.9445 108.54 50.1524 108.92 50.3811C109.091 50.4851 109.258 50.5938 109.42 50.7071C109.512 50.7701 109.601 50.8361 109.692 50.9001C109.917 51.0581 109.629 50.8401 109.757 50.9491C110.079 51.2221 110.398 51.4931 110.695 51.7941C110.85 51.9521 111.001 52.1141 111.146 52.2821C111.218 52.3651 111.285 52.4541 111.359 52.5361C111.519 52.7141 111.164 52.2631 111.41 52.5991C111.672 52.9572 111.912 53.3305 112.129 53.7171C112.33 54.0605 112.659 54.3102 113.044 54.4111C113.428 54.512 113.838 54.4559 114.181 54.2551C114.524 54.0543 114.774 53.7253 114.875 53.3405C114.976 52.9557 114.92 52.5465 114.719 52.2031L114.717 52.2001Z" fill="#5C7C30"/>
<path d="M101.723 78C106.694 78 110.723 73.9706 110.723 69C110.723 64.0294 106.694 60 101.723 60C96.7525 60 92.723 64.0294 92.723 69C92.723 73.9706 96.7525 78 101.723 78Z" fill="#5C7C30"/>
</g>
<defs>
<clipPath id="clip0_7590_44871">
<rect width="145" height="145" fill="white"/>
</clipPath>
</defs>
</svg>
