<svg width="145" height="145" viewBox="0 0 145 145" fill="none" xmlns="http://www.w3.org/2000/svg">
<g clip-path="url(#clip0_7590_44740)">
<path d="M72.5 145C112.541 145 145 112.541 145 72.5C145 32.4594 112.541 0 72.5 0C32.4594 0 0 32.4594 0 72.5C0 112.541 32.4594 145 72.5 145Z" fill="#BFA0E6"/>
<path d="M50.252 74.479L51.299 75.479C51.451 75.4 51.036 75.048 50.252 74.479Z" stroke="#1E82C0" stroke-width="4" stroke-linecap="round" stroke-linejoin="round"/>
<path d="M50.2519 74.4789L43.9129 68.4469C46.9909 65.6839 49.937 62.4649 50.992 59.3469L43.006 67.5829L34.7 59.6769C35.879 62.7459 38.9479 65.8519 42.1339 68.4879L36.046 74.7669C37.492 73.6269 40.246 71.6389 43.046 69.2249C45.922 71.5229 48.7599 73.3999 50.2519 74.4789Z" stroke="#1E82C0" stroke-width="5" stroke-linecap="round" stroke-linejoin="round"/>
<path d="M35.0381 75.7999L36.0381 74.7639C35.2851 75.3639 34.8831 75.7329 35.0381 75.7999Z" stroke="#1E82C0" stroke-width="4" stroke-linecap="round" stroke-linejoin="round"/>
<path d="M93.774 74.479L92.727 75.479C92.574 75.4 92.989 75.048 93.774 74.479Z" stroke="#1E82C0" stroke-width="4" stroke-linecap="round" stroke-linejoin="round"/>
<path d="M93.774 74.4789L100.113 68.4469C97.035 65.6839 94.089 62.4649 93.033 59.3469L101.019 67.5829L109.33 59.6749C108.151 62.7439 105.081 65.8499 101.895 68.4859L107.983 74.7649C106.538 73.6249 103.783 71.6369 100.983 69.2229C98.1 71.5229 95.265 73.3999 93.774 74.4789Z" stroke="#1E82C0" stroke-width="5" stroke-linecap="round" stroke-linejoin="round"/>
<path d="M108.988 75.7999L107.988 74.7639C108.741 75.3639 109.143 75.7329 108.988 75.7999Z" stroke="#1E82C0" stroke-width="4" stroke-linecap="round" stroke-linejoin="round"/>
<path d="M72.696 119.583C80.428 119.583 86.696 113.315 86.696 105.583C86.696 97.851 80.428 91.583 72.696 91.583C64.9641 91.583 58.696 97.851 58.696 105.583C58.696 113.315 64.9641 119.583 72.696 119.583Z" fill="#1E82C0"/>
</g>
<defs>
<clipPath id="clip0_7590_44740">
<rect width="145" height="145" fill="white"/>
</clipPath>
</defs>
</svg>
