<svg width="25" height="24" viewBox="0 0 25 24" fill="none" xmlns="http://www.w3.org/2000/svg">
<g clip-path="url(#clip0_4_17444)">
<path d="M12.9957 24C19.6231 24 24.9957 18.6274 24.9957 12C24.9957 5.37258 19.6231 0 12.9957 0C6.36831 0 0.995728 5.37258 0.995728 12C0.995728 18.6274 6.36831 24 12.9957 24Z" fill="#FFD95E"/>
<path d="M15.0913 12.0827H10.9004C10.8242 12.0827 10.7614 11.7517 10.7614 11.3329C10.7614 10.9142 10.8242 10.5831 10.9004 10.5831H15.0913C15.1674 10.5831 15.2303 10.9142 15.2303 11.3329C15.2303 11.7517 15.1674 12.0827 15.0913 12.0827Z" fill="#303030"/>
<path d="M20.1185 11.2866C20.1185 11.7449 19.9826 12.1929 19.728 12.574C19.4733 12.9551 19.1114 13.2521 18.688 13.4275C18.2646 13.6028 17.7987 13.6487 17.3492 13.5593C16.8997 13.4699 16.4868 13.2492 16.1627 12.9251C15.8386 12.6011 15.6179 12.1882 15.5285 11.7387C15.4391 11.2892 15.485 10.8233 15.6604 10.3998C15.8358 9.97641 16.1328 9.61451 16.5139 9.35989C16.8949 9.10526 17.3429 8.96936 17.8013 8.96936C18.4158 8.96936 19.0052 9.2135 19.4398 9.64806C19.8744 10.0826 20.1185 10.672 20.1185 11.2866V11.2866Z" fill="#303030"/>
<path d="M17.8245 14.8138C17.137 14.8138 16.465 14.6099 15.8934 14.228C15.3218 13.8461 14.8763 13.3032 14.6132 12.6681C14.3501 12.0329 14.2813 11.3341 14.4154 10.6598C14.5495 9.98557 14.8806 9.36623 15.3667 8.88012C15.8528 8.39401 16.4721 8.06297 17.1464 7.92885C17.8206 7.79473 18.5195 7.86357 19.1547 8.12665C19.7898 8.38973 20.3326 8.83524 20.7146 9.40684C21.0965 9.97844 21.3004 10.6505 21.3004 11.3379C21.3004 12.2598 20.9342 13.1439 20.2823 13.7957C19.6305 14.4476 18.7464 14.8138 17.8245 14.8138ZM17.8245 9.25241C17.412 9.25241 17.0088 9.37472 16.6658 9.60388C16.3229 9.83304 16.0556 10.1588 15.8977 10.5398C15.7399 10.9209 15.6986 11.3402 15.7791 11.7448C15.8595 12.1493 16.0581 12.5209 16.3498 12.8126C16.6415 13.1043 17.0131 13.3029 17.4176 13.3834C17.8222 13.4638 18.2415 13.4225 18.6226 13.2647C19.0037 13.1068 19.3294 12.8395 19.5585 12.4966C19.7877 12.1536 19.91 11.7504 19.91 11.3379C19.9091 10.7851 19.6891 10.2551 19.2982 9.86421C18.9073 9.47329 18.3773 9.25328 17.8245 9.25241Z" fill="#303030"/>
<path d="M10.4818 11.3379C10.4818 11.7962 10.3459 12.2442 10.0912 12.6253C9.83663 13.0063 9.47472 13.3033 9.0513 13.4787C8.62788 13.6541 8.16196 13.7 7.71246 13.6106C7.26296 13.5212 6.85007 13.3005 6.526 12.9764C6.20192 12.6523 5.98123 12.2394 5.89182 11.7899C5.8024 11.3404 5.84829 10.8745 6.02368 10.4511C6.19907 10.0277 6.49607 9.66578 6.87714 9.41116C7.25821 9.15653 7.70623 9.02063 8.16453 9.02063C8.7791 9.02063 9.3685 9.26477 9.80307 9.69933C10.2376 10.1339 10.4818 10.7233 10.4818 11.3379V11.3379Z" fill="#303030"/>
<path d="M8.16434 14.8138C7.47688 14.8138 6.80486 14.6099 6.23325 14.228C5.66165 13.8461 5.21614 13.3032 4.95306 12.6681C4.68998 12.0329 4.62115 11.3341 4.75527 10.6598C4.88938 9.98557 5.22043 9.36623 5.70653 8.88012C6.19264 8.39401 6.81198 8.06297 7.48623 7.92885C8.16048 7.79473 8.85936 7.86357 9.4945 8.12665C10.1296 8.38973 10.6725 8.83524 11.0544 9.40684C11.4363 9.97844 11.6402 10.6505 11.6402 11.3379C11.6402 12.2598 11.274 13.1439 10.6221 13.7957C9.9703 14.4476 9.0862 14.8138 8.16434 14.8138ZM8.16434 9.25241C7.75186 9.25241 7.34865 9.37472 7.00569 9.60388C6.66273 9.83304 6.39542 10.1588 6.23757 10.5398C6.07973 10.9209 6.03843 11.3402 6.1189 11.7448C6.19937 12.1493 6.39799 12.5209 6.68966 12.8126C6.98132 13.1043 7.35293 13.3029 7.75748 13.3834C8.16203 13.4638 8.58135 13.4225 8.96243 13.2647C9.34351 13.1068 9.66922 12.8395 9.89838 12.4966C10.1275 12.1536 10.2499 11.7504 10.2499 11.3379C10.249 10.7851 10.029 10.2551 9.63806 9.86421C9.24714 9.47329 8.71718 9.25328 8.16434 9.25241Z" fill="#303030"/>
<path d="M19.9844 7.47975C19.8124 7.18027 19.5674 6.92923 19.2722 6.75007C18.977 6.57091 18.6412 6.46946 18.2961 6.4552C18.2303 6.4552 18.1671 6.48136 18.1206 6.52792C18.074 6.57448 18.0479 6.63763 18.0479 6.70348C18.0479 6.76932 18.074 6.83247 18.1206 6.87903C18.1671 6.92559 18.2303 6.95175 18.2961 6.95175H18.4054H18.4385H18.4699C18.5388 6.9636 18.6069 6.98019 18.6735 7.00141L18.7662 7.03286L18.8274 7.05603C18.8059 7.04775 18.8092 7.04775 18.8274 7.05603C18.8942 7.08694 18.9594 7.12119 19.0227 7.15865L19.1055 7.21327L19.1502 7.24472C19.1883 7.2712 19.1403 7.23479 19.1618 7.24472C19.2158 7.28853 19.2672 7.33551 19.3157 7.38541C19.3422 7.41023 19.367 7.43837 19.3902 7.46486C19.4134 7.49134 19.4134 7.49465 19.4266 7.50789C19.4399 7.52113 19.3935 7.46154 19.4266 7.51782C19.4698 7.57733 19.5096 7.63922 19.5458 7.7032C19.5796 7.75935 19.6339 7.80011 19.6973 7.8168C19.7607 7.8335 19.828 7.82481 19.8851 7.79258C19.941 7.7582 19.9816 7.70356 19.9982 7.64004C20.0149 7.57651 20.0064 7.50902 19.9745 7.45161L19.9844 7.47975Z" fill="#5C7C30"/>
<path d="M6.37704 7.70981C6.3969 7.67836 6.41676 7.64526 6.43828 7.61547L6.46311 7.5774C6.50449 7.51947 6.44656 7.59726 6.47304 7.56581C6.51729 7.50749 6.5654 7.45219 6.61704 7.4003L6.69152 7.33243L6.73456 7.29602C6.76931 7.26623 6.72462 7.29602 6.7478 7.28609C6.80573 7.24471 6.86366 7.20499 6.92656 7.16857C6.98945 7.13216 7.04573 7.10567 7.10862 7.07754C7.06559 7.0974 7.10862 7.07754 7.12187 7.07754L7.17483 7.05767C7.20683 7.04601 7.23943 7.03606 7.27249 7.02788C7.34098 7.00815 7.41063 6.99268 7.48104 6.98154H7.49262H7.5489H7.66145C7.7273 6.98154 7.79045 6.95538 7.83701 6.90882C7.88357 6.86226 7.90973 6.79911 7.90973 6.73326C7.90973 6.66741 7.88357 6.60426 7.83701 6.5577C7.79045 6.51114 7.7273 6.48499 7.66145 6.48499C7.31622 6.49046 6.97801 6.58335 6.67843 6.755C6.37884 6.92665 6.12766 7.17144 5.94835 7.4665C5.918 7.52318 5.91082 7.58942 5.92832 7.65128C5.94582 7.71314 5.98663 7.76581 6.04217 7.79819C6.09771 7.83057 6.16365 7.84014 6.22611 7.82489C6.28856 7.80965 6.34267 7.77076 6.37704 7.71643V7.70981Z" fill="#5C7C30"/>
<path d="M9.38501 17.6011C10.6105 18.0082 11.9196 18.0964 13.1886 17.8572C14.4577 17.618 15.6448 17.0593 16.638 16.2339" stroke="#5C7C30" stroke-width="0.993104" stroke-linecap="round" stroke-linejoin="round"/>
</g>
<defs>
<clipPath id="clip0_4_17444">
<rect width="24" height="24" fill="white" transform="translate(0.995728)"/>
</clipPath>
</defs>
</svg>
