<svg width="25" height="24" viewBox="0 0 25 24" fill="none" xmlns="http://www.w3.org/2000/svg">
<g clip-path="url(#clip0_4_17588)">
<path d="M12.9957 24C19.6231 24 24.9957 18.6274 24.9957 12C24.9957 5.37258 19.6231 0 12.9957 0C6.36831 0 0.995728 5.37258 0.995728 12C0.995728 18.6274 6.36831 24 12.9957 24Z" fill="#FFD95E"/>
<path d="M9.38599 17.6011C10.6115 18.0083 11.9206 18.0965 13.1896 17.8572C14.4586 17.618 15.6458 17.0594 16.639 16.2339" stroke="#5C7C30" stroke-width="0.993104" stroke-linecap="round" stroke-linejoin="round"/>
<path d="M6.48483 8.928C6.48483 8.928 6.51463 8.86014 6.48483 8.91476L6.50469 8.87007C6.51959 8.83862 6.53614 8.80552 6.55435 8.77407C6.58947 8.71176 6.62815 8.65152 6.67021 8.59366C6.70828 8.54069 6.63711 8.63173 6.68014 8.58207L6.70994 8.544C6.73311 8.51587 6.75794 8.48938 6.78276 8.4629C6.83464 8.41072 6.88993 8.36206 6.94828 8.31725C6.94828 8.31725 6.99628 8.27918 6.96814 8.29904C6.94001 8.3189 6.98469 8.28745 6.99132 8.28414C6.99794 8.28083 7.05587 8.23945 7.08897 8.21793C7.15171 8.17793 7.21694 8.142 7.28428 8.11035H7.30083L7.32566 8.10042C7.3587 8.0871 7.3924 8.0755 7.42663 8.06566C7.49821 8.0428 7.57119 8.02455 7.64511 8.01104C7.70721 7.99225 7.75941 7.94975 7.79039 7.89274C7.82138 7.83574 7.82865 7.76882 7.81063 7.70649C7.79174 7.64405 7.74964 7.59123 7.69298 7.5589C7.63633 7.52657 7.56943 7.51719 7.50607 7.53269C7.16757 7.59932 6.85157 7.75095 6.58779 7.97332C6.32401 8.1957 6.12113 8.4815 5.99821 8.80387C5.98064 8.86619 5.98811 8.93291 6.01903 8.98981C6.04995 9.0467 6.10187 9.08926 6.16373 9.10842C6.22733 9.1244 6.29463 9.11525 6.35166 9.08288C6.40869 9.05052 6.45105 8.99742 6.46994 8.93462L6.48483 8.928Z" fill="#5C7C30"/>
<path d="M6.91777 12.2847L9.73156 11.6226C9.73156 11.6226 9.56604 9.63642 7.91087 9.96745C6.2557 10.2985 6.91777 12.2847 6.91777 12.2847Z" fill="#5C7C30" stroke="#5C7C30" stroke-width="0.0413793" stroke-linecap="round" stroke-linejoin="round"/>
<path d="M20.068 8.79726C19.9451 8.4749 19.7422 8.18909 19.4784 7.96672C19.2147 7.74435 18.8987 7.59272 18.5602 7.52609C18.4966 7.51053 18.4295 7.51986 18.3725 7.55217C18.3156 7.58448 18.2732 7.63732 18.254 7.69989C18.2372 7.76219 18.2451 7.82853 18.2759 7.88521C18.3067 7.94189 18.3581 7.98457 18.4195 8.00444C18.4905 8.01743 18.5607 8.03456 18.6297 8.05575C18.6628 8.06568 18.6975 8.07726 18.7306 8.09051L18.777 8.10871C18.7191 8.08554 18.777 8.10871 18.7886 8.10871C18.8542 8.13864 18.9178 8.17292 18.9789 8.21133L19.0683 8.27092L19.108 8.30071C19.06 8.26595 19.108 8.30071 19.1196 8.31064C19.1742 8.35533 19.2272 8.40499 19.2851 8.4563L19.3497 8.52913C19.3633 8.54382 19.376 8.5593 19.3877 8.57547C19.4209 8.6152 19.3646 8.54071 19.396 8.58706C19.4275 8.6334 19.4738 8.69961 19.5086 8.75258L19.5582 8.84857L19.5831 8.90154C19.5649 8.86347 19.5831 8.90154 19.5831 8.91478C19.5903 8.94768 19.6041 8.97878 19.6237 9.00617C19.6433 9.03356 19.6682 9.05668 19.697 9.07412C19.7259 9.09156 19.7579 9.10295 19.7913 9.10761C19.8246 9.11227 19.8586 9.11009 19.8911 9.10121C19.9236 9.09233 19.9539 9.07693 19.9802 9.05595C20.0066 9.03497 20.0284 9.00886 20.0443 8.97918C20.0603 8.94951 20.07 8.91691 20.0729 8.88336C20.0759 8.84981 20.0719 8.81601 20.0614 8.78402L20.068 8.79726Z" fill="#5C7C30"/>
<path d="M19.1555 12.2847L16.3417 11.6226C16.3417 11.6226 16.5072 9.63642 18.1624 9.96745C19.8175 10.2985 19.1555 12.2847 19.1555 12.2847Z" fill="#5C7C30" stroke="#5C7C30" stroke-width="0.0413793" stroke-linecap="round" stroke-linejoin="round"/>
</g>
<defs>
<clipPath id="clip0_4_17588">
<rect width="24" height="24" fill="white" transform="translate(0.995728)"/>
</clipPath>
</defs>
</svg>
