<svg width="18" height="18" viewBox="0 0 24 24" fill="none" xmlns="http://www.w3.org/2000/svg">
<path d="M12 24C18.6274 24 24 18.6274 24 12C24 5.37258 18.6274 0 12 0C5.37258 0 0 5.37258 0 12C0 18.6274 5.37258 24 12 24Z" fill="#89C7F6"/>
<path d="M8.19312 17.4621C8.35863 17.2535 9.63146 15.6795 11.8345 15.6414C14.1368 15.6017 15.4924 17.2734 15.6414 17.4621" stroke="#1E82C0" stroke-width="0.993104" stroke-miterlimit="10" stroke-linecap="round"/>
<path d="M5.09957 9.03559C5.48033 9.0064 5.84539 8.87148 6.15362 8.64601C6.46184 8.42055 6.70099 8.1135 6.84412 7.75945C6.86169 7.69712 6.85422 7.6304 6.8233 7.57351C6.79238 7.51661 6.74046 7.47405 6.6786 7.4549C6.61502 7.43934 6.5479 7.44866 6.49098 7.48097C6.43405 7.51328 6.39163 7.56613 6.37239 7.62869C6.39226 7.57903 6.36412 7.64524 6.36246 7.65021L6.33763 7.69986C6.32108 7.73131 6.30453 7.76441 6.28467 7.79586C6.26481 7.82731 6.24329 7.86372 6.22012 7.89683L6.18867 7.94152C6.17212 7.96469 6.20853 7.91669 6.18039 7.95145C6.13091 8.00933 6.07842 8.06458 6.02315 8.11696L5.94039 8.18979L5.89901 8.22455C5.93874 8.19145 5.88246 8.23614 5.87915 8.23945C5.81903 8.28154 5.75658 8.32022 5.69212 8.35531C5.65736 8.37517 5.62095 8.39338 5.58453 8.40993C5.54812 8.42648 5.53984 8.42979 5.57294 8.40993L5.52163 8.42979C5.44985 8.45685 5.3763 8.47897 5.3015 8.496L5.19391 8.51752C5.12274 8.53076 5.24522 8.51752 5.17239 8.51752H5.10619C5.04034 8.51752 4.97719 8.54367 4.93063 8.59023C4.88407 8.6368 4.85791 8.69994 4.85791 8.76579C4.85791 8.83164 4.88407 8.89479 4.93063 8.94135C4.97719 8.98791 5.04034 9.01407 5.10619 9.01407L5.09957 9.03559Z" fill="#1E82C0"/>
<path d="M7.16177 12.8855C7.98449 12.8855 8.65143 12.2186 8.65143 11.3959C8.65143 10.5732 7.98449 9.90622 7.16177 9.90622C6.33906 9.90622 5.67212 10.5732 5.67212 11.3959C5.67212 12.2186 6.33906 12.8855 7.16177 12.8855Z" fill="#1E82C0"/>
<path d="M18.7482 8.53905H18.682C18.634 8.53905 18.7018 8.53905 18.672 8.53905C18.6422 8.53905 18.5992 8.52746 18.5644 8.51919C18.4891 8.50216 18.415 8.48004 18.3426 8.45298L18.2913 8.43312H18.2797C18.2433 8.41657 18.2086 8.39836 18.1722 8.3785C18.1046 8.34237 18.0393 8.30201 17.9768 8.25767L17.9487 8.23615L17.9222 8.21463L17.8395 8.14181C17.7805 8.09055 17.7252 8.03524 17.6739 7.97629C17.6624 7.96305 17.6442 7.93822 17.6739 7.96636L17.6342 7.91339L17.5746 7.8207C17.5564 7.78925 17.5382 7.75781 17.5217 7.7247L17.4919 7.66677C17.4919 7.65684 17.4621 7.59725 17.482 7.64525C17.4753 7.61212 17.4621 7.58065 17.443 7.5527C17.424 7.52476 17.3996 7.50091 17.3712 7.48255C17.3428 7.4642 17.3111 7.45171 17.2778 7.44582C17.2445 7.43994 17.2104 7.44078 17.1774 7.44829C17.1158 7.4678 17.0641 7.51043 17.0333 7.56721C17.0024 7.62399 16.9947 7.69053 17.0119 7.75284C17.1553 8.10667 17.3946 8.41352 17.7027 8.63894C18.0109 8.86435 18.3758 8.99942 18.7564 9.02898C18.8223 9.02898 18.8854 9.00282 18.932 8.95626C18.9786 8.9097 19.0047 8.84655 19.0047 8.7807C19.0047 8.71486 18.9786 8.65171 18.932 8.60515C18.8854 8.55858 18.8223 8.53243 18.7564 8.53243L18.7482 8.53905Z" fill="#1E82C0"/>
<path d="M16.6859 12.8855C17.5087 12.8855 18.1756 12.2186 18.1756 11.3959C18.1756 10.5732 17.5087 9.90622 16.6859 9.90622C15.8632 9.90622 15.1963 10.5732 15.1963 11.3959C15.1963 12.2186 15.8632 12.8855 16.6859 12.8855Z" fill="#1E82C0"/>
</svg>
