<svg width="145" height="145" viewBox="0 0 145 145" fill="none" xmlns="http://www.w3.org/2000/svg">
<g clip-path="url(#clip0_7590_44903)">
<path d="M72.5 145C112.541 145 145 112.541 145 72.5C145 32.4594 112.541 0 72.5 0C32.4594 0 0 32.4594 0 72.5C0 112.541 32.4594 145 72.5 145Z" fill="#FFD95E"/>
<path d="M97 97C96.431 123.09 46.869 123.086 46.3 97H97Z" fill="#5C7C30" stroke="#5C7C30" stroke-width="2" stroke-linecap="round" stroke-linejoin="round"/>
<path d="M35.463 67.9001C42.763 71.0421 58.421 66.2001 58.13 67.0321Z" fill="#5C7C30"/>
<path d="M35.463 67.9001C42.763 71.0421 58.421 66.2001 58.13 67.0321" stroke="#5C7C30" stroke-width="5" stroke-linecap="round" stroke-linejoin="round"/>
<path d="M30.4771 53.8189C31.5336 52.073 33.0173 50.6249 34.7884 49.6112C36.5595 48.5975 38.5596 48.0516 40.6 48.0249" fill="#5C7C30"/>
<path d="M31.772 54.5761C31.903 54.3581 32.038 54.1431 32.182 53.9341C32.239 53.8501 32.299 53.7681 32.358 53.6851C32.636 53.2911 32.275 53.7851 32.447 53.5651C32.7486 53.19 33.0735 52.8343 33.42 52.5001C34.0472 51.8684 34.7639 51.3324 35.547 50.9091C35.9427 50.6796 36.3522 50.4746 36.773 50.2951C36.573 50.3811 36.873 50.2591 36.909 50.2461C37.028 50.2001 37.147 50.1571 37.267 50.1151C37.483 50.0411 37.701 49.9721 37.921 49.9101C38.3851 49.7797 38.8566 49.6772 39.333 49.6031C39.12 49.6371 39.377 49.5981 39.462 49.5891C39.589 49.5761 39.715 49.5651 39.842 49.5561C40.095 49.5381 40.349 49.5301 40.603 49.5281C41.0008 49.5281 41.3823 49.37 41.6636 49.0887C41.9449 48.8074 42.103 48.4259 42.103 48.0281C42.103 47.6303 41.9449 47.2487 41.6636 46.9674C41.3823 46.6861 41.0008 46.5281 40.603 46.5281C38.3017 46.5627 36.0469 47.1806 34.0495 48.3239C32.0521 49.4671 30.3773 51.0984 29.182 53.0651C29.0825 53.2351 29.0176 53.4231 28.9908 53.6183C28.9641 53.8134 28.976 54.012 29.026 54.2025C29.0759 54.393 29.1629 54.5719 29.282 54.7288C29.4011 54.8857 29.5499 55.0177 29.72 55.1171C29.89 55.2165 30.078 55.2814 30.2732 55.3082C30.4683 55.335 30.6668 55.323 30.8574 55.2731C31.0479 55.2231 31.2268 55.1361 31.3837 55.017C31.5406 54.898 31.6725 54.7491 31.772 54.5791V54.5761Z" fill="#5C7C30"/>
<path d="M108.6 67.9001C101.3 71.0421 85.642 66.2001 85.932 67.0321Z" fill="#5C7C30"/>
<path d="M108.6 67.9001C101.3 71.0421 85.642 66.2001 85.932 67.0321" stroke="#5C7C30" stroke-width="5" stroke-linecap="round" stroke-linejoin="round"/>
<path d="M113.587 53.8189C112.53 52.0726 111.046 50.6243 109.274 49.6105C107.503 48.5968 105.502 48.0511 103.461 48.0249" fill="#5C7C30"/>
<path d="M114.882 53.0619C113.686 51.0954 112.012 49.4642 110.014 48.3209C108.017 47.1777 105.762 46.5597 103.461 46.5249C103.063 46.5249 102.682 46.6829 102.4 46.9642C102.119 47.2455 101.961 47.6271 101.961 48.0249C101.961 48.4227 102.119 48.8043 102.4 49.0856C102.682 49.3669 103.063 49.5249 103.461 49.5249C103.715 49.5249 103.969 49.5349 104.222 49.5529C104.322 49.5599 104.422 49.5679 104.522 49.5779C104.511 49.5779 104.922 49.6269 104.776 49.6059C104.63 49.5849 105.038 49.6519 105.027 49.6499C105.127 49.6679 105.227 49.6879 105.327 49.7079C105.575 49.7599 105.827 49.8189 106.067 49.8869C106.929 50.1033 107.753 50.4467 108.514 50.9059C108.91 51.1352 109.294 51.3842 109.665 51.6519C110.058 51.9319 109.565 51.5689 109.784 51.7419C109.884 51.8209 109.984 51.9019 110.078 51.9839C110.252 52.1332 110.421 52.2866 110.586 52.4439C110.933 52.7789 111.26 53.1335 111.566 53.5059C111.719 53.6899 111.574 53.5059 111.658 53.6239C111.742 53.7419 111.807 53.8239 111.879 53.9339C112.023 54.1429 112.158 54.3579 112.289 54.5759C112.388 54.746 112.52 54.8948 112.677 55.0139C112.834 55.1329 113.013 55.2199 113.204 55.2699C113.394 55.3198 113.593 55.3318 113.788 55.305C113.983 55.2783 114.171 55.2133 114.341 55.1139C114.511 55.0145 114.66 54.8826 114.779 54.7256C114.898 54.5687 114.985 54.3899 115.035 54.1993C115.085 54.0088 115.097 53.8103 115.07 53.6151C115.043 53.4199 114.978 53.232 114.879 53.0619H114.882Z" fill="#5C7C30"/>
</g>
<defs>
<clipPath id="clip0_7590_44903">
<rect width="145" height="145" fill="white"/>
</clipPath>
</defs>
</svg>
