<svg width="25" height="24" viewBox="0 0 25 24" fill="none" xmlns="http://www.w3.org/2000/svg">
<g clip-path="url(#clip0_4_17494)">
<path d="M12.9957 24C19.6231 24 24.9957 18.6274 24.9957 12C24.9957 5.37258 19.6231 0 12.9957 0C6.36831 0 0.995728 5.37258 0.995728 12C0.995728 18.6274 6.36831 24 12.9957 24Z" fill="#FFD95E"/>
<path d="M9.27148 16.5518C9.437 16.7603 10.7098 18.3344 12.9129 18.3724C15.2152 18.4122 16.5708 16.7421 16.7198 16.5518" stroke="#5C7C30" stroke-width="0.993104" stroke-linecap="round" stroke-linejoin="round"/>
<path d="M6.48618 8.928C6.48618 8.928 6.51597 8.86014 6.48618 8.91476L6.50604 8.87007C6.52093 8.83862 6.53749 8.80552 6.55569 8.77407C6.59081 8.71176 6.62949 8.65152 6.67155 8.59366C6.70962 8.54069 6.63845 8.63173 6.68149 8.58207L6.71128 8.544C6.73445 8.51587 6.75928 8.48938 6.78411 8.4629C6.83598 8.41072 6.89128 8.36206 6.94962 8.31725C6.94962 8.31725 6.99762 8.27918 6.96949 8.29904C6.94135 8.3189 6.98604 8.28745 6.99266 8.28414C6.99928 8.28083 7.05721 8.23945 7.09031 8.21793C7.15305 8.17793 7.21829 8.142 7.28562 8.11035H7.30218L7.327 8.10042C7.36004 8.0871 7.39374 8.0755 7.42797 8.06566C7.49955 8.0428 7.57253 8.02455 7.64645 8.01104C7.70856 7.99225 7.76075 7.94975 7.79174 7.89274C7.82272 7.83574 7.82999 7.76882 7.81197 7.70649C7.79308 7.64405 7.75098 7.59123 7.69432 7.5589C7.63767 7.52657 7.57078 7.51719 7.50742 7.53269C7.16891 7.59932 6.85291 7.75095 6.58913 7.97332C6.32536 8.1957 6.12247 8.4815 5.99955 8.80387C5.98198 8.86619 5.98945 8.93291 6.02037 8.98981C6.05129 9.0467 6.10322 9.08926 6.16507 9.10842C6.22867 9.1244 6.29598 9.11525 6.353 9.08288C6.41003 9.05052 6.45239 8.99742 6.47128 8.93462L6.48618 8.928Z" fill="#5C7C30"/>
<path d="M8.1127 12.9103C8.93542 12.9103 9.60236 12.2434 9.60236 11.4207C9.60236 10.598 8.93542 9.93103 8.1127 9.93103C7.28999 9.93103 6.62305 10.598 6.62305 11.4207C6.62305 12.2434 7.28999 12.9103 8.1127 12.9103Z" fill="#5C7C30"/>
<path d="M19.9376 8.7972C19.8147 8.47484 19.6118 8.18903 19.3481 7.96666C19.0843 7.74429 18.7683 7.59266 18.4298 7.52603C18.3662 7.51047 18.2991 7.5198 18.2422 7.55211C18.1852 7.58442 18.1428 7.63726 18.1236 7.69982C18.1068 7.76324 18.1156 7.83071 18.1481 7.88769C18.1806 7.94467 18.2342 7.98658 18.2974 8.00438C18.3684 8.01737 18.4386 8.0345 18.5076 8.05569C18.5407 8.06562 18.5754 8.0772 18.6085 8.09045L18.6549 8.10865C18.5969 8.08548 18.6549 8.10865 18.6665 8.10865C18.732 8.13893 18.7955 8.1732 18.8568 8.21127L18.9462 8.27086L18.9859 8.30065C18.9379 8.26589 18.9859 8.30065 18.9975 8.31058C19.0555 8.35582 19.1108 8.40446 19.163 8.45624L19.2292 8.52907L19.2673 8.57541C19.3004 8.61514 19.2441 8.54065 19.2756 8.587C19.307 8.63334 19.3534 8.69955 19.3881 8.75251L19.4378 8.84851L19.4609 8.90148C19.4444 8.86341 19.4609 8.90148 19.4609 8.91472C19.4767 8.97956 19.5172 9.03564 19.5739 9.07091C19.6305 9.10619 19.6987 9.11786 19.7638 9.10341C19.8252 9.08355 19.8766 9.04087 19.9074 8.98419C19.9382 8.92751 19.9461 8.86116 19.9294 8.79886L19.9376 8.7972Z" fill="#5C7C30"/>
<path d="M17.8327 12.9103C18.6554 12.9103 19.3223 12.2434 19.3223 11.4207C19.3223 10.598 18.6554 9.93103 17.8327 9.93103C17.01 9.93103 16.343 10.598 16.343 11.4207C16.343 12.2434 17.01 12.9103 17.8327 12.9103Z" fill="#5C7C30"/>
</g>
<defs>
<clipPath id="clip0_4_17494">
<rect width="24" height="24" fill="white" transform="translate(0.995728)"/>
</clipPath>
</defs>
</svg>
