<svg width="145" height="145" viewBox="0 0 145 145" fill="none" xmlns="http://www.w3.org/2000/svg">
<g clip-path="url(#clip0_7590_44762)">
<path d="M72.5 145C112.541 145 145 112.541 145 72.5C145 32.4594 112.541 0 72.5 0C32.4594 0 0 32.4594 0 72.5C0 112.541 32.4594 145 72.5 145Z" fill="#BFA0E6"/>
<path d="M111.5 52.5C108.53 61.84 86.5 69.5 89.5 69.5H109.5" stroke="#1E82C0" stroke-width="5" stroke-linecap="round" stroke-linejoin="round"/>
<path d="M36.5 69.5H56.5C59.5 69.5 37.47 61.84 34.5 52.5" stroke="#1E82C0" stroke-width="5" stroke-linecap="round" stroke-linejoin="round"/>
<path d="M50.4 101.56C51.385 100.301 59.092 90.792 72.4 90.56C86.31 90.317 94.5 100.415 95.4 101.56" stroke="#1E82C0" stroke-width="6" stroke-miterlimit="10" stroke-linecap="round"/>
<path d="M128.649 38.3119C128.449 38.0047 128.176 37.7522 127.854 37.5774C127.532 37.4026 127.171 37.311 126.804 37.311C126.438 37.311 126.077 37.4026 125.755 37.5774C125.433 37.7522 125.16 38.0047 124.96 38.3119C123.86 40.2799 118.344 50.2929 118.344 54.1549C118.344 56.3989 119.235 58.551 120.822 60.1378C122.409 61.7245 124.561 62.6159 126.805 62.6159C129.049 62.6159 131.201 61.7245 132.788 60.1378C134.375 58.551 135.266 56.3989 135.266 54.1549C135.266 50.2929 129.753 40.2799 128.649 38.3119Z" fill="#03A9F4" stroke="#0393F4" stroke-width="0.5" stroke-miterlimit="10"/>
</g>
<defs>
<clipPath id="clip0_7590_44762">
<rect width="145" height="145" fill="white"/>
</clipPath>
</defs>
</svg>
