<svg width="25" height="24" viewBox="0 0 25 24" fill="none" xmlns="http://www.w3.org/2000/svg">
<g clip-path="url(#clip0_4_17544)">
<path d="M12.9957 24C19.6231 24 24.9957 18.6274 24.9957 12C24.9957 5.37258 19.6231 0 12.9957 0C6.36831 0 0.995728 5.37258 0.995728 12C0.995728 18.6274 6.36831 24 12.9957 24Z" fill="#FFD95E"/>
<path d="M9.30042 16.282C9.46593 16.4905 10.7404 18.0646 12.9418 18.1027C15.2441 18.1424 16.6014 16.4707 16.7487 16.282" stroke="#5C7C30" stroke-width="0.993104" stroke-linecap="round" stroke-linejoin="round"/>
<path d="M6.48642 8.928C6.48642 8.928 6.51621 8.86014 6.48642 8.91476L6.50628 8.87007C6.52118 8.83862 6.53773 8.80552 6.55594 8.77407C6.59105 8.71176 6.62974 8.65152 6.6718 8.59366C6.70987 8.54069 6.6387 8.63173 6.68173 8.58207L6.71152 8.544C6.7347 8.51587 6.75952 8.48938 6.78435 8.4629C6.83622 8.41072 6.89152 8.36206 6.94987 8.31725C6.94987 8.31725 6.99787 8.27918 6.96973 8.29904C6.94159 8.3189 6.98628 8.28745 6.9929 8.28414C6.99952 8.28083 7.05745 8.23945 7.09056 8.21793C7.15329 8.17793 7.21853 8.142 7.28587 8.11035H7.30242L7.32725 8.10042C7.36028 8.0871 7.39398 8.0755 7.42821 8.06566C7.4998 8.0428 7.57277 8.02455 7.6467 8.01104C7.7088 7.99225 7.761 7.94975 7.79198 7.89274C7.82296 7.83574 7.83023 7.76882 7.81221 7.70649C7.79333 7.64405 7.75122 7.59123 7.69457 7.5589C7.63791 7.52657 7.57102 7.51719 7.50766 7.53269C7.16915 7.59932 6.85315 7.75095 6.58938 7.97332C6.3256 8.1957 6.12271 8.4815 5.9998 8.80387C5.98222 8.86619 5.98969 8.93291 6.02061 8.98981C6.05153 9.0467 6.10346 9.08926 6.16532 9.10842C6.22891 9.1244 6.29622 9.11525 6.35325 9.08288C6.41027 9.05052 6.45264 8.99742 6.47152 8.93462L6.48642 8.928Z" fill="#5C7C30"/>
<path d="M8.11295 12.9103C8.93566 12.9103 9.6026 12.2434 9.6026 11.4207C9.6026 10.598 8.93566 9.93103 8.11295 9.93103C7.29023 9.93103 6.62329 10.598 6.62329 11.4207C6.62329 12.2434 7.29023 12.9103 8.11295 12.9103Z" fill="#5C7C30"/>
<path d="M5.92644 16.8016C6.56633 16.8016 7.08506 16.2829 7.08506 15.643C7.08506 15.0031 6.56633 14.4844 5.92644 14.4844C5.28655 14.4844 4.76782 15.0031 4.76782 15.643C4.76782 16.2829 5.28655 16.8016 5.92644 16.8016Z" fill="#D86480" stroke="#B94A5B" stroke-width="0.0827586" stroke-miterlimit="10"/>
<path d="M19.9379 8.7972C19.815 8.47484 19.6121 8.18903 19.3483 7.96666C19.0845 7.74429 18.7685 7.59266 18.43 7.52603C18.3664 7.51047 18.2993 7.5198 18.2424 7.55211C18.1855 7.58442 18.143 7.63726 18.1238 7.69982C18.107 7.76324 18.1158 7.83071 18.1483 7.88769C18.1809 7.94467 18.2345 7.98658 18.2976 8.00438C18.3686 8.01737 18.4388 8.0345 18.5078 8.05569C18.5409 8.06562 18.5757 8.0772 18.6088 8.09045L18.6551 8.10865C18.5972 8.08548 18.6551 8.10865 18.6667 8.10865C18.7322 8.13893 18.7958 8.1732 18.8571 8.21127L18.9464 8.27086L18.9862 8.30065C18.9382 8.26589 18.9862 8.30065 18.9977 8.31058C19.0557 8.35582 19.111 8.40446 19.1633 8.45624L19.2295 8.52907L19.2675 8.57541C19.3006 8.61514 19.2444 8.54065 19.2758 8.587C19.3073 8.63334 19.3536 8.69955 19.3884 8.75251L19.438 8.84851L19.4612 8.90148C19.4446 8.86341 19.4612 8.90148 19.4612 8.91472C19.4769 8.97956 19.5175 9.03564 19.5741 9.07091C19.6307 9.10619 19.6989 9.11786 19.7641 9.10341C19.8255 9.08355 19.8769 9.04087 19.9077 8.98419C19.9385 8.92751 19.9463 8.86116 19.9296 8.79886L19.9379 8.7972Z" fill="#5C7C30"/>
<path d="M17.833 12.9103C18.6558 12.9103 19.3227 12.2434 19.3227 11.4207C19.3227 10.598 18.6558 9.93103 17.833 9.93103C17.0103 9.93103 16.3434 10.598 16.3434 11.4207C16.3434 12.2434 17.0103 12.9103 17.833 12.9103Z" fill="#5C7C30"/>
<path d="M20.2923 16.8016C20.9322 16.8016 21.4509 16.2829 21.4509 15.643C21.4509 15.0031 20.9322 14.4844 20.2923 14.4844C19.6524 14.4844 19.1337 15.0031 19.1337 15.643C19.1337 16.2829 19.6524 16.8016 20.2923 16.8016Z" fill="#D86480" stroke="#B94A5B" stroke-width="0.0827586" stroke-miterlimit="10"/>
</g>
<defs>
<clipPath id="clip0_4_17544">
<rect width="24" height="24" fill="white" transform="translate(0.995728)"/>
</clipPath>
</defs>
</svg>
