<svg width="145" height="145" viewBox="0 0 145 145" fill="none" xmlns="http://www.w3.org/2000/svg">
<g clip-path="url(#clip0_7590_44881)">
<path d="M72.5 145C112.541 145 145 112.541 145 72.5C145 32.4594 112.541 0 72.5 0C32.4594 0 0 32.4594 0 72.5C0 112.541 32.4594 145 72.5 145Z" fill="#FFD95E"/>
<path d="M50.185 98.3689C51.169 99.6279 58.876 109.136 72.185 109.369C86.095 109.612 94.285 99.5139 95.185 98.3689" stroke="#5C7C30" stroke-width="6" stroke-linecap="round" stroke-linejoin="round"/>
<path d="M33.17 53.944C33.19 53.89 33.355 53.531 33.198 53.863C33.24 53.774 33.279 53.683 33.321 53.594C33.414 53.394 33.514 53.204 33.621 53.014C33.8336 52.6346 34.0673 52.2673 34.321 51.914C34.55 51.591 34.121 52.148 34.374 51.841C34.437 51.765 34.499 51.688 34.563 51.613C34.704 51.447 34.849 51.286 35 51.129C35.3006 50.8148 35.6198 50.5189 35.956 50.243C35.987 50.217 36.256 50.013 36.083 50.143C35.91 50.273 36.183 50.071 36.216 50.048C36.4087 49.9087 36.6057 49.7754 36.807 49.648C37.1752 49.4172 37.5573 49.2091 37.951 49.025C37.99 49.008 38.294 48.868 38.097 48.957C37.9 49.046 38.207 48.913 38.246 48.898C38.446 48.8187 38.651 48.7467 38.861 48.682C39.2944 48.5457 39.7364 48.4382 40.184 48.36C40.5665 48.2526 40.891 47.9985 41.0871 47.653C41.2832 47.3074 41.3349 46.8985 41.231 46.515C41.1165 46.1371 40.8611 45.8176 40.5178 45.6226C40.1744 45.4275 39.7692 45.3719 39.386 45.467C37.3414 45.8688 35.4325 46.7839 33.8389 48.1263C32.2453 49.4687 31.0192 51.1944 30.276 53.141C30.1716 53.5246 30.2232 53.934 30.4195 54.2796C30.6159 54.6253 30.941 54.8793 31.324 54.986C31.7071 55.0805 32.1118 55.0246 32.4549 54.8299C32.7981 54.6352 33.0536 54.3164 33.169 53.939L33.17 53.944Z" fill="#5C7C30"/>
<path d="M43 78C47.9706 78 52 73.9706 52 69C52 64.0294 47.9706 60 43 60C38.0294 60 34 64.0294 34 69C34 73.9706 38.0294 78 43 78Z" fill="#5C7C30"/>
<path d="M29.785 101.512C33.651 101.512 36.785 98.378 36.785 94.512C36.785 90.646 33.651 87.512 29.785 87.512C25.919 87.512 22.785 90.646 22.785 94.512C22.785 98.378 25.919 101.512 29.785 101.512Z" fill="#D86480" stroke="#B94A5B" stroke-width="0.5" stroke-miterlimit="10"/>
<path d="M114.446 53.1459C113.703 51.1992 112.477 49.4735 110.883 48.1311C109.29 46.7886 107.381 45.8736 105.336 45.4719C104.953 45.3755 104.547 45.4306 104.203 45.6258C103.86 45.8211 103.604 46.1413 103.491 46.5199C103.39 46.9034 103.444 47.311 103.639 47.6558C103.835 48.0005 104.158 48.255 104.539 48.3649C104.967 48.4383 105.39 48.5385 105.805 48.6649C106.013 48.7316 106.218 48.8026 106.421 48.8779C106.513 48.9129 106.604 48.9489 106.696 48.9869C106.351 48.8459 106.722 49.0039 106.771 49.0259C107.164 49.2104 107.547 49.4185 107.915 49.6489C108.1 49.7639 108.28 49.8849 108.458 50.0099C108.538 50.0679 108.617 50.1279 108.697 50.1849C108.406 49.9779 108.725 50.2099 108.766 50.2439C109.102 50.5201 109.422 50.8159 109.723 51.1299C109.856 51.2733 109.99 51.4196 110.123 51.5689C110.2 51.6589 110.275 51.7509 110.35 51.8419C110.55 52.0859 110.208 51.6319 110.404 51.9149C110.64 52.2559 110.873 52.5959 111.077 52.9589C111.184 53.1476 111.284 53.3399 111.377 53.5359C111.429 53.6429 111.477 53.7509 111.526 53.8589C111.418 53.6249 111.503 53.8079 111.555 53.9399C111.669 54.3182 111.924 54.6381 112.268 54.8331C112.611 55.0281 113.017 55.0832 113.4 54.9869C113.781 54.8775 114.104 54.623 114.3 54.2781C114.496 53.9332 114.548 53.5253 114.447 53.1419L114.446 53.1459Z" fill="#5C7C30"/>
<path d="M101.723 78C106.694 78 110.723 73.9706 110.723 69C110.723 64.0294 106.694 60 101.723 60C96.7525 60 92.723 64.0294 92.723 69C92.723 73.9706 96.7525 78 101.723 78Z" fill="#5C7C30"/>
<path d="M116.578 101.512C120.444 101.512 123.578 98.378 123.578 94.512C123.578 90.646 120.444 87.512 116.578 87.512C112.712 87.512 109.578 90.646 109.578 94.512C109.578 98.378 112.712 101.512 116.578 101.512Z" fill="#D86480" stroke="#B94A5B" stroke-width="0.5" stroke-miterlimit="10"/>
</g>
<defs>
<clipPath id="clip0_7590_44881">
<rect width="145" height="145" fill="white"/>
</clipPath>
</defs>
</svg>
