<svg width="145" height="145" viewBox="0 0 145 145" fill="none" xmlns="http://www.w3.org/2000/svg">
<g clip-path="url(#clip0_7590_44841)">
<path d="M72.5 145C112.541 145 145 112.541 145 72.5C145 32.4594 112.541 0 72.5 0C32.4594 0 0 32.4594 0 72.5C0 112.541 32.4594 145 72.5 145Z" fill="#FFD95E"/>
<path d="M95.2 97.4871C94.689 120.911 50.193 120.907 49.686 97.4871H95.2Z" fill="#5C7C30" stroke="#5C7C30" stroke-width="2" stroke-linecap="round" stroke-linejoin="round"/>
<path d="M53.346 64.832C51.1958 64.8298 49.1342 63.9747 47.6137 62.4543C46.0933 60.9338 45.2381 58.8722 45.236 56.722C45.242 56.4519 45.194 56.1834 45.0948 55.9322C44.9956 55.6809 44.8472 55.452 44.6584 55.2589C44.4695 55.0658 44.244 54.9124 43.995 54.8076C43.746 54.7029 43.4786 54.6489 43.2085 54.6489C42.9384 54.6489 42.671 54.7029 42.422 54.8076C42.1731 54.9124 41.9475 55.0658 41.7587 55.2589C41.5698 55.452 41.4214 55.6809 41.3222 55.9322C41.223 56.1834 41.175 56.4519 41.181 56.722C41.1789 58.8722 40.3238 60.9338 38.8033 62.4543C37.2829 63.9747 35.2213 64.8298 33.071 64.832C32.801 64.826 32.5325 64.874 32.2812 64.9732C32.03 65.0724 31.8011 65.2207 31.608 65.4096C31.4149 65.5985 31.2614 65.824 31.1567 66.073C31.0519 66.322 30.998 66.5893 30.998 66.8595C30.998 67.1296 31.0519 67.397 31.1567 67.6459C31.2614 67.8949 31.4149 68.1204 31.608 68.3093C31.8011 68.4982 32.03 68.6466 32.2812 68.7458C32.5325 68.845 32.801 68.893 33.071 68.887C35.2218 68.8891 37.2838 69.7446 38.8044 71.2657C40.3249 72.7868 41.1797 74.8492 41.181 77C41.1928 77.5299 41.4116 78.0341 41.7905 78.4048C42.1695 78.7754 42.6785 78.9829 43.2085 78.9829C43.7386 78.9829 44.2476 78.7754 44.6265 78.4048C45.0055 78.0341 45.2242 77.5299 45.236 77C45.2381 74.8497 46.0933 72.7881 47.6137 71.2677C49.1342 69.7472 51.1958 68.8921 53.346 68.89C53.8759 68.8782 54.3802 68.6594 54.7508 68.2805C55.1215 67.9015 55.329 67.3925 55.329 66.8625C55.329 66.3324 55.1215 65.8234 54.7508 65.4445C54.3802 65.0655 53.8759 64.8467 53.346 64.835V64.832Z" fill="#5C7C30" stroke="#5C7C30" stroke-miterlimit="10"/>
<path d="M110.346 64.832C108.196 64.8298 106.134 63.9747 104.614 62.4543C103.093 60.9338 102.238 58.8722 102.236 56.722C102.242 56.4519 102.194 56.1834 102.095 55.9322C101.996 55.6809 101.847 55.452 101.658 55.2589C101.469 55.0658 101.244 54.9124 100.995 54.8076C100.746 54.7029 100.479 54.6489 100.209 54.6489C99.9384 54.6489 99.671 54.7029 99.422 54.8076C99.1731 54.9124 98.9475 55.0658 98.7587 55.2589C98.5698 55.452 98.4214 55.6809 98.3222 55.9322C98.223 56.1834 98.175 56.4519 98.181 56.722C98.1789 58.8722 97.3238 60.9338 95.8033 62.4543C94.2829 63.9747 92.2213 64.8298 90.071 64.832C89.801 64.826 89.5324 64.874 89.2812 64.9732C89.03 65.0724 88.8011 65.2207 88.608 65.4096C88.4149 65.5985 88.2614 65.824 88.1567 66.073C88.0519 66.322 87.998 66.5893 87.998 66.8595C87.998 67.1296 88.0519 67.397 88.1567 67.6459C88.2614 67.8949 88.4149 68.1204 88.608 68.3093C88.8011 68.4982 89.03 68.6466 89.2812 68.7458C89.5324 68.845 89.801 68.893 90.071 68.887C92.2218 68.8891 94.2838 69.7446 95.8044 71.2657C97.3249 72.7868 98.1797 74.8492 98.181 77C98.1928 77.5299 98.4116 78.0341 98.7905 78.4048C99.1695 78.7754 99.6785 78.9829 100.209 78.9829C100.739 78.9829 101.248 78.7754 101.627 78.4048C102.005 78.0341 102.224 77.5299 102.236 77C102.238 74.8497 103.093 72.7881 104.614 71.2677C106.134 69.7472 108.196 68.8921 110.346 68.89C110.876 68.8782 111.38 68.6594 111.751 68.2805C112.121 67.9015 112.329 67.3925 112.329 66.8625C112.329 66.3324 112.121 65.8234 111.751 65.4445C111.38 65.0655 110.876 64.8467 110.346 64.835V64.832Z" fill="#5C7C30" stroke="#5C7C30" stroke-miterlimit="10"/>
</g>
<defs>
<clipPath id="clip0_7590_44841">
<rect width="145" height="145" fill="white"/>
</clipPath>
</defs>
</svg>
