<svg width="25" height="24" viewBox="0 0 25 24" fill="none" xmlns="http://www.w3.org/2000/svg">
<g clip-path="url(#clip0_4_17525)">
<path d="M12.9957 24C19.6231 24 24.9957 18.6274 24.9957 12C24.9957 5.37258 19.6231 0 12.9957 0C6.36831 0 0.995728 5.37258 0.995728 12C0.995728 18.6274 6.36831 24 12.9957 24Z" fill="#FFD95E"/>
<path d="M17.1904 15.8995C17.0961 20.2179 8.8914 20.2162 8.79871 15.8995H17.1904Z" fill="#5C7C30" stroke="#5C7C30" stroke-width="0.331035" stroke-linecap="round" stroke-linejoin="round"/>
<path d="M6.39214 8.88991C6.42836 8.82594 6.46815 8.76405 6.51132 8.70453C6.52456 8.68798 6.52952 8.68467 6.51132 8.70453L6.54607 8.6615L6.62056 8.5804C6.67021 8.53074 6.72152 8.4844 6.77449 8.43971C6.82745 8.39502 6.75297 8.4546 6.78607 8.43971L6.83076 8.40826C6.86056 8.38674 6.89201 8.36688 6.92345 8.34702C6.98236 8.31025 7.04375 8.27762 7.10718 8.24936C7.10718 8.24936 7.16345 8.22453 7.11876 8.24936L7.17007 8.2295L7.26276 8.1964C7.33289 8.17521 7.40418 8.15807 7.47628 8.14509H7.51932H7.5309C7.57063 8.14509 7.61035 8.14509 7.65173 8.13681C7.71758 8.13681 7.78073 8.11065 7.82729 8.06409C7.87385 8.01753 7.9 7.95438 7.9 7.88853C7.9 7.82269 7.87385 7.75954 7.82729 7.71298C7.78073 7.66642 7.71758 7.64026 7.65173 7.64026C7.30896 7.65164 6.97456 7.74901 6.67926 7.92341C6.38396 8.09781 6.13725 8.34365 5.9618 8.63833C5.94528 8.66648 5.93447 8.6976 5.92998 8.72993C5.92549 8.76226 5.92741 8.79515 5.93563 8.82674C5.94385 8.85832 5.95822 8.88798 5.9779 8.91401C5.99758 8.94004 6.0222 8.96195 6.05035 8.97847C6.0785 8.99499 6.10962 9.0058 6.14195 9.01029C6.17428 9.01478 6.20717 9.01286 6.23876 9.00463C6.27034 8.99641 6.3 8.98205 6.32603 8.96236C6.35207 8.94268 6.37397 8.91806 6.39049 8.88991H6.39214Z" fill="#5C7C30"/>
<path d="M8.11392 12.9103C8.93664 12.9103 9.60358 12.2434 9.60358 11.4207C9.60358 10.598 8.93664 9.93103 8.11392 9.93103C7.29121 9.93103 6.62427 10.598 6.62427 11.4207C6.62427 12.2434 7.29121 12.9103 8.11392 12.9103Z" fill="#5C7C30"/>
<path d="M18.7958 10.2786C17.5941 10.0617 15.5069 11.2949 15.5136 11.1641" stroke="#5C7C30" stroke-width="0.827586" stroke-linecap="round" stroke-linejoin="round"/>
</g>
<defs>
<clipPath id="clip0_4_17525">
<rect width="24" height="24" fill="white" transform="translate(0.995728)"/>
</clipPath>
</defs>
</svg>
