<svg width="145" height="145" viewBox="0 0 145 145" fill="none" xmlns="http://www.w3.org/2000/svg">
<g clip-path="url(#clip0_7590_44862)">
<path d="M72.5 145C112.541 145 145 112.541 145 72.5C145 32.4594 112.541 0 72.5 0C32.4594 0 0 32.4594 0 72.5C0 112.541 32.4594 145 72.5 145Z" fill="#FFD95E"/>
<path d="M97.845 96.0569C97.276 122.147 47.714 122.143 47.15 96.0569H97.845Z" fill="#5C7C30" stroke="#5C7C30" stroke-width="2" stroke-linecap="round" stroke-linejoin="round"/>
<path d="M32.6 53.708C32.8166 53.3212 33.0564 52.9479 33.318 52.59C33.393 52.49 33.418 52.466 33.327 52.578C33.399 52.494 33.467 52.407 33.539 52.323C33.684 52.155 33.833 51.991 33.987 51.833C34.2819 51.5322 34.5931 51.2478 34.919 50.981C35.243 50.714 34.785 51.068 34.983 50.93C35.074 50.867 35.162 50.799 35.253 50.736C35.435 50.6093 35.6207 50.488 35.81 50.372C36.1697 50.1525 36.5416 49.9539 36.924 49.777C36.977 49.752 37.263 49.63 36.993 49.742C37.093 49.699 37.198 49.659 37.302 49.62C37.488 49.55 37.677 49.485 37.867 49.42C38.2894 49.287 38.72 49.1814 39.156 49.104C39.244 49.088 39.331 49.076 39.419 49.06C39.109 49.115 39.414 49.06 39.481 49.06C39.724 49.035 39.967 49.019 40.211 49.01C40.6089 49.01 40.9904 48.852 41.2717 48.5707C41.553 48.2894 41.711 47.9078 41.711 47.51C41.711 47.1122 41.553 46.7307 41.2717 46.4494C40.9904 46.168 40.6089 46.01 40.211 46.01C38.1267 46.0938 36.0977 46.705 34.3138 47.7863C32.5299 48.8676 31.0495 50.3838 30.011 52.193C29.8169 52.536 29.7655 52.9416 29.868 53.3221C29.9705 53.7026 30.2187 54.0275 30.5588 54.2266C30.899 54.4256 31.3038 54.4828 31.6857 54.3857C32.0677 54.2887 32.3961 54.0453 32.6 53.708Z" fill="#5C7C30"/>
<path d="M43 78C47.9706 78 52 73.9706 52 69C52 64.0294 47.9706 60 43 60C38.0294 60 34 64.0294 34 69C34 73.9706 38.0294 78 43 78Z" fill="#5C7C30"/>
<path d="M107.554 62.1C100.286 60.789 87.678 68.239 87.723 67.447" stroke="#5C7C30" stroke-width="5" stroke-linecap="round" stroke-linejoin="round"/>
</g>
<defs>
<clipPath id="clip0_7590_44862">
<rect width="145" height="145" fill="white"/>
</clipPath>
</defs>
</svg>
