<svg width="145" height="145" viewBox="0 0 145 145" fill="none" xmlns="http://www.w3.org/2000/svg">
<g clip-path="url(#clip0_7590_44807)">
<path d="M72.5 145C112.541 145 145 112.541 145 72.5C145 32.4594 112.541 0 72.5 0C32.4594 0 0 32.4594 0 72.5C0 112.541 32.4594 145 72.5 145Z" fill="#FFD95E"/>
<path d="M95.2 97.4871C94.689 120.911 50.193 120.907 49.686 97.4871H95.2Z" fill="#5C7C30" stroke="#5C7C30" stroke-width="2" stroke-linecap="round" stroke-linejoin="round"/>
<path d="M36 75L53 71C53 71 52 59 42 61C32 63 36 75 36 75Z" fill="#5C7C30" stroke="#5C7C30" stroke-width="0.25" stroke-linecap="round" stroke-linejoin="round"/>
<path d="M32.967 54.632C33.116 54.256 32.833 54.913 33.001 54.546C33.051 54.436 33.101 54.327 33.154 54.219C33.2406 54.039 33.333 53.862 33.431 53.688C33.644 53.3073 33.8801 52.94 34.138 52.588C34.17 52.544 34.422 52.242 34.191 52.514C34.268 52.423 34.341 52.33 34.417 52.239C34.545 52.089 34.6783 51.9427 34.817 51.8C35.1271 51.472 35.4578 51.1641 35.807 50.878C35.93 50.778 35.985 50.738 35.825 50.858C35.919 50.787 36.013 50.718 36.108 50.65C36.282 50.526 36.46 50.4077 36.642 50.295C37.0032 50.0699 37.3779 49.8671 37.764 49.688C37.919 49.616 37.958 49.603 37.776 49.677C37.883 49.633 37.99 49.59 38.098 49.55C38.298 49.476 38.498 49.4094 38.698 49.35C39.1201 49.2239 39.5505 49.127 39.986 49.06C40.369 48.953 40.6942 48.6989 40.8905 48.3531C41.0868 48.0072 41.1384 47.5978 41.034 47.214C40.9182 46.8368 40.6624 46.5181 40.3192 46.3234C39.9759 46.1287 39.5712 46.0728 39.188 46.167C37.1392 46.5581 35.2253 47.4691 33.63 48.8128C32.0347 50.1564 30.8116 51.8876 30.078 53.84C29.9735 54.2236 30.0249 54.633 30.2211 54.9788C30.4172 55.3246 30.7421 55.5788 31.125 55.686C31.5083 55.78 31.913 55.7238 32.2563 55.5289C32.5995 55.3341 32.8552 55.0153 32.971 54.638L32.967 54.632Z" fill="#5C7C30"/>
<path d="M29.785 101.512C33.651 101.512 36.785 98.378 36.785 94.512C36.785 90.646 33.651 87.512 29.785 87.512C25.919 87.512 22.785 90.646 22.785 94.512C22.785 98.378 25.919 101.512 29.785 101.512Z" fill="#D86480" stroke="#B94A5B" stroke-width="0.5" stroke-miterlimit="10"/>
<path d="M108.305 74.9341L91.3051 70.9341C91.3051 70.9341 92.3051 58.9341 102.305 60.9341C112.305 62.9341 108.305 74.9341 108.305 74.9341Z" fill="#5C7C30" stroke="#5C7C30" stroke-width="0.25" stroke-linecap="round" stroke-linejoin="round"/>
<path d="M113.792 53.8C113.058 51.8472 111.835 50.1159 110.24 48.772C108.644 47.4282 106.73 46.517 104.681 46.126C104.298 46.0308 103.893 46.0865 103.549 46.2815C103.206 46.4766 102.951 46.796 102.836 47.174C102.735 47.5575 102.788 47.9652 102.984 48.31C103.18 48.6548 103.503 48.9093 103.884 49.019C104.3 49.0838 104.712 49.1753 105.117 49.293C105.338 49.3596 105.556 49.4326 105.772 49.512C105.862 49.545 105.951 49.582 106.04 49.612C106.213 49.679 105.794 49.497 106.053 49.62C106.438 49.8003 106.814 50.0006 107.179 50.22C107.379 50.343 107.572 50.472 107.762 50.607C107.842 50.663 107.919 50.722 107.998 50.779C108.077 50.836 108.061 50.826 107.926 50.724L108.063 50.834C108.396 51.1084 108.713 51.4022 109.012 51.714C109.162 51.87 109.308 52.0306 109.449 52.196C109.525 52.286 109.599 52.379 109.675 52.47C109.547 52.315 109.601 52.37 109.693 52.497C109.952 52.8491 110.19 53.2164 110.406 53.597C110.514 53.789 110.616 53.983 110.712 54.181C110.765 54.289 110.812 54.398 110.865 54.507C110.998 54.799 110.77 54.268 110.899 54.594C111.013 54.9721 111.268 55.2919 111.612 55.4868C111.955 55.6818 112.361 55.737 112.744 55.641C113.125 55.5319 113.449 55.2776 113.645 54.9326C113.841 54.5876 113.894 54.1795 113.792 53.796V53.8Z" fill="#5C7C30"/>
<path d="M116.578 101.512C120.444 101.512 123.578 98.378 123.578 94.512C123.578 90.646 120.444 87.512 116.578 87.512C112.712 87.512 109.578 90.646 109.578 94.512C109.578 98.378 112.712 101.512 116.578 101.512Z" fill="#D86480" stroke="#B94A5B" stroke-width="0.5" stroke-miterlimit="10"/>
</g>
<defs>
<clipPath id="clip0_7590_44807">
<rect width="145" height="145" fill="white"/>
</clipPath>
</defs>
</svg>
