<svg width="145" height="145" viewBox="0 0 145 145" fill="none" xmlns="http://www.w3.org/2000/svg">
<g clip-path="url(#clip0_7590_44771)">
<path d="M72.5 145C112.541 145 145 112.541 145 72.5C145 32.4594 112.541 0 72.5 0C32.4594 0 0 32.4594 0 72.5C0 112.541 32.4594 145 72.5 145Z" fill="#BFA0E6"/>
<path d="M49.957 110.076C50.468 86.653 94.964 86.657 95.47 110.076H49.957Z" fill="#1E82C0" stroke="#1E82C0" stroke-width="2" stroke-linecap="round" stroke-linejoin="round"/>
<path d="M30.814 54.5851C33.1128 54.4083 35.3169 53.5941 37.1786 52.2339C39.0403 50.8737 40.4859 49.0214 41.353 46.8851C41.4054 46.6951 41.4198 46.4967 41.3955 46.3012C41.3712 46.1056 41.3086 45.9168 41.2112 45.7454C41.1139 45.5741 40.9838 45.4236 40.8283 45.3026C40.6728 45.1816 40.495 45.0924 40.305 45.0401C39.9218 44.9464 39.5173 45.0028 39.1743 45.1976C38.8313 45.3924 38.5758 45.711 38.46 46.0881C38.583 45.7881 38.413 46.1881 38.4 46.2181C38.353 46.3181 38.3 46.4181 38.254 46.5181C38.154 46.7181 38.047 46.9091 37.935 47.0991C37.81 47.3091 37.679 47.5131 37.535 47.7131C37.472 47.8041 37.405 47.8921 37.342 47.9831C37.242 48.1211 37.47 47.8351 37.292 48.0461C36.995 48.4039 36.6789 48.7454 36.345 49.0691C36.184 49.2221 36.019 49.3691 35.845 49.5121C35.76 49.5831 35.674 49.6531 35.588 49.7221C35.832 49.5221 35.488 49.7921 35.467 49.8081C35.1066 50.0665 34.7309 50.3029 34.342 50.5161C34.128 50.6334 33.9106 50.7434 33.69 50.8461C33.582 50.8961 33.423 50.9651 33.623 50.8821C33.523 50.9241 33.417 50.9641 33.314 51.0031C32.8794 51.1673 32.4344 51.3026 31.982 51.4081C31.766 51.4571 31.549 51.4971 31.331 51.5361C30.901 51.6111 31.637 51.5121 31.203 51.5531C31.071 51.5661 30.938 51.5781 30.803 51.5881C30.4052 51.5881 30.0236 51.7461 29.7423 52.0274C29.461 52.3087 29.303 52.6902 29.303 53.0881C29.303 53.4859 29.461 53.8674 29.7423 54.1487C30.0236 54.43 30.4052 54.5881 30.803 54.5881L30.814 54.5851Z" fill="#1E82C0"/>
<path d="M43.269 77.8479C48.2396 77.8479 52.269 73.8185 52.269 68.8479C52.269 63.8773 48.2396 59.8479 43.269 59.8479C38.2985 59.8479 34.269 63.8773 34.269 68.8479C34.269 73.8185 38.2985 77.8479 43.269 77.8479Z" fill="#1E82C0"/>
<path d="M113.269 51.5851C113.136 51.5751 113.004 51.5631 112.869 51.5501C112.576 51.5231 112.987 51.5781 112.807 51.5431C112.59 51.5011 112.372 51.4681 112.156 51.4191C111.703 51.3172 111.257 51.1853 110.821 51.0241C110.721 50.9851 110.615 50.9441 110.511 50.9031C110.35 50.8411 110.697 50.9931 110.443 50.8711C110.223 50.7651 110.004 50.6611 109.789 50.5451C109.38 50.3234 108.984 50.0763 108.606 49.8051C108.578 49.7851 108.292 49.5711 108.438 49.6831C108.584 49.7951 108.305 49.5741 108.278 49.5521C108.108 49.4101 107.941 49.2631 107.778 49.1121C107.439 48.7931 107.121 48.4531 106.825 48.0941C106.754 48.0071 106.645 47.8621 106.772 48.0331C106.693 47.9261 106.615 47.8191 106.539 47.7101C106.413 47.5294 106.293 47.3437 106.179 47.1531C106.065 46.9624 105.957 46.7694 105.855 46.5741C105.794 46.4561 105.736 46.3371 105.68 46.2171C105.651 46.1561 105.5 45.7951 105.619 46.0871C105.504 45.7091 105.249 45.3896 104.906 45.1946C104.562 44.9996 104.157 44.9439 103.774 45.0391C103.393 45.1483 103.069 45.4027 102.874 45.7477C102.678 46.0927 102.625 46.5007 102.727 46.8841C103.594 49.0203 105.039 50.8725 106.901 52.2327C108.762 53.5928 110.966 54.4071 113.265 54.5841C113.662 54.582 114.042 54.4232 114.323 54.1424C114.604 53.8615 114.763 53.4812 114.765 53.0841C114.756 52.6892 114.595 52.3131 114.315 52.0338C114.036 51.7545 113.66 51.5935 113.265 51.5841L113.269 51.5851Z" fill="#1E82C0"/>
<path d="M100.814 77.8479C105.785 77.8479 109.814 73.8185 109.814 68.8479C109.814 63.8773 105.785 59.8479 100.814 59.8479C95.8434 59.8479 91.814 63.8773 91.814 68.8479C91.814 73.8185 95.8434 77.8479 100.814 77.8479Z" fill="#1E82C0"/>
</g>
<defs>
<clipPath id="clip0_7590_44771">
<rect width="145" height="145" fill="white"/>
</clipPath>
</defs>
</svg>
