<svg width="24" height="24" viewBox="0 0 24 24" fill="none" xmlns="http://www.w3.org/2000/svg">
<path d="M12 24C18.6274 24 24 18.6274 24 12C24 5.37258 18.6274 0 12 0C5.37258 0 0 5.37258 0 12C0 18.6274 5.37258 24 12 24Z" fill="#89C7F6"/>
<path d="M8.27588 18.2201C8.36029 14.3421 15.7242 14.3437 15.8086 18.2201H8.27588Z" fill="#1E82C0" stroke="#1E82C0" stroke-width="0.331035" stroke-linecap="round" stroke-linejoin="round"/>
<path d="M5.09957 9.03559C5.48033 9.00641 5.84539 8.87149 6.15362 8.64602C6.46184 8.42055 6.70099 8.1135 6.84412 7.75945C6.86169 7.69713 6.85422 7.63041 6.8233 7.57351C6.79238 7.51662 6.74046 7.47406 6.6786 7.4549C6.61502 7.43934 6.5479 7.44867 6.49098 7.48098C6.43405 7.51329 6.39163 7.56613 6.37239 7.6287C6.39226 7.57904 6.36412 7.64525 6.36246 7.65021L6.33763 7.69987C6.32108 7.73132 6.30453 7.76442 6.28467 7.79587C6.26481 7.82732 6.24329 7.86373 6.22012 7.89683L6.18867 7.94152C6.17212 7.9647 6.20853 7.9167 6.18039 7.95145C6.13091 8.00934 6.07842 8.06458 6.02315 8.11697L5.94039 8.1898L5.89901 8.22456C5.93874 8.19145 5.88246 8.23614 5.87915 8.23945C5.81903 8.28155 5.75658 8.32023 5.69212 8.35532C5.65736 8.37518 5.62095 8.39339 5.58453 8.40994C5.54812 8.42649 5.53984 8.4298 5.57294 8.40994L5.52163 8.4298C5.44985 8.45685 5.3763 8.47897 5.3015 8.49601L5.19391 8.51752C5.12274 8.53076 5.24522 8.51752 5.17239 8.51752H5.10619C5.04034 8.51752 4.97719 8.54368 4.93063 8.59024C4.88407 8.6368 4.85791 8.69995 4.85791 8.7658C4.85791 8.83165 4.88407 8.8948 4.93063 8.94136C4.97719 8.98792 5.04034 9.01408 5.10619 9.01408L5.09957 9.03559Z" fill="#1E82C0"/>
<path d="M7.16202 12.8855C7.98473 12.8855 8.65167 12.2186 8.65167 11.3959C8.65167 10.5732 7.98473 9.90621 7.16202 9.90621C6.3393 9.90621 5.67236 10.5732 5.67236 11.3959C5.67236 12.2186 6.3393 12.8855 7.16202 12.8855Z" fill="#1E82C0"/>
<path d="M18.7482 8.53904H18.682C18.634 8.53904 18.7018 8.53904 18.672 8.53904C18.6422 8.53904 18.5992 8.52745 18.5644 8.51918C18.4891 8.50215 18.415 8.48003 18.3426 8.45297L18.2913 8.43311H18.2797C18.2433 8.41656 18.2086 8.39835 18.1722 8.37849C18.1046 8.34236 18.0393 8.30201 17.9768 8.25766L17.9487 8.23614L17.9222 8.21463L17.8395 8.1418C17.7805 8.09054 17.7252 8.03524 17.6739 7.97628C17.6624 7.96304 17.6442 7.93821 17.6739 7.96635L17.6342 7.91339L17.5746 7.8207C17.5564 7.78925 17.5382 7.7578 17.5217 7.7247L17.4919 7.66676C17.4919 7.65683 17.4621 7.59725 17.482 7.64525C17.4753 7.61211 17.4621 7.58064 17.443 7.5527C17.424 7.52475 17.3996 7.5009 17.3712 7.48254C17.3428 7.46419 17.3111 7.4517 17.2778 7.44581C17.2445 7.43993 17.2104 7.44077 17.1774 7.44828C17.1158 7.4678 17.0641 7.51042 17.0333 7.5672C17.0024 7.62399 16.9947 7.69052 17.0119 7.75283C17.1553 8.10666 17.3946 8.41351 17.7027 8.63893C18.0109 8.86435 18.3758 8.99941 18.7564 9.02897C18.8223 9.02897 18.8854 9.00281 18.932 8.95625C18.9786 8.90969 19.0047 8.84654 19.0047 8.7807C19.0047 8.71485 18.9786 8.6517 18.932 8.60514C18.8854 8.55858 18.8223 8.53242 18.7564 8.53242L18.7482 8.53904Z" fill="#1E82C0"/>
<path d="M16.6857 12.8855C17.5084 12.8855 18.1754 12.2186 18.1754 11.3959C18.1754 10.5732 17.5084 9.90621 16.6857 9.90621C15.863 9.90621 15.196 10.5732 15.196 11.3959C15.196 12.2186 15.863 12.8855 16.6857 12.8855Z" fill="#1E82C0"/>
</svg>
